<?xml version="1.0" encoding="UTF-8" standalone="no"?>
<!-- Created with Inkscape (http://www.inkscape.org/) -->

<svg
   xmlns:osb="http://www.openswatchbook.org/uri/2009/osb"
   xmlns:dc="http://purl.org/dc/elements/1.1/"
   xmlns:cc="http://creativecommons.org/ns#"
   xmlns:rdf="http://www.w3.org/1999/02/22-rdf-syntax-ns#"
   xmlns:svg="http://www.w3.org/2000/svg"
   xmlns="http://www.w3.org/2000/svg"
   xmlns:sodipodi="http://sodipodi.sourceforge.net/DTD/sodipodi-0.dtd"
   xmlns:inkscape="http://www.inkscape.org/namespaces/inkscape"
   width="167.00636mm"
   height="63.826675mm"
   viewBox="0 0 167.00636 63.826675"
   version="1.1"
   id="svg3771"
   inkscape:version="0.92.2 (5c3e80d, 2017-08-06)"
   sodipodi:docname="airplane.svg">
  <defs
     id="defs3765">
    <linearGradient
       id="linearGradient7177"
       osb:paint="solid">
      <stop
         style="stop-color:#ffffff;stop-opacity:1;"
         offset="0"
         id="stop7175" />
    </linearGradient>
    <linearGradient
       id="linearGradient7145"
       osb:paint="solid">
      <stop
         style="stop-color:#ffffff;stop-opacity:1;"
         offset="0"
         id="stop7143" />
    </linearGradient>
    <linearGradient
       id="linearGradient5681"
       osb:paint="solid">
      <stop
         style="stop-color:#ffffff;stop-opacity:1;"
         offset="0"
         id="stop5679" />
    </linearGradient>
  </defs>
  <sodipodi:namedview
     id="base"
     pagecolor="#ffffff"
     bordercolor="#666666"
     borderopacity="1.0"
     inkscape:pageopacity="0.0"
     inkscape:pageshadow="2"
     inkscape:zoom="1.2828937"
     inkscape:cx="290.44083"
     inkscape:cy="52.306153"
     inkscape:document-units="mm"
     inkscape:current-layer="layer1"
     showgrid="false"
     inkscape:window-width="1920"
     inkscape:window-height="1017"
     inkscape:window-x="-8"
     inkscape:window-y="-8"
     inkscape:window-maximized="1" />
  <metadata
     id="metadata3768">
    <rdf:RDF>
      <cc:Work
         rdf:about="">
        <dc:format>image/svg+xml</dc:format>
        <dc:type
           rdf:resource="http://purl.org/dc/dcmitype/StillImage" />
        <dc:title />
      </cc:Work>
    </rdf:RDF>
  </metadata>
  <g
     inkscape:label="Calque 1"
     inkscape:groupmode="layer"
     id="layer1"
     transform="translate(-13.165108,-1.3708518)">
    <path
       style="fill:none;stroke:#000000;stroke-width:0.26458332px;stroke-linecap:butt;stroke-linejoin:miter;stroke-opacity:1"
       d="m 46.054662,61.33674 c -0.267206,-0.330293 -0.32054,-0.983035 -0.25367,-1.304229 0.149222,-0.716753 0.710397,-1.222233 1.066687,-1.554917 0.495779,-0.453923 1.879011,-1.387293 3.05911,-1.955166 0.78016,-0.261352 4.853121,-1.320108 7.569206,-1.957574 5.515302,-1.174241 9.862564,-1.541362 14.832515,-1.809334 l 21.912529,-2.66017 c 4.862335,0.08404 9.724661,0.03107 14.587001,0.25212 1.12661,0.157049 3.4597,0.519465 4.69395,0.848072 1.08189,0.287728 2.6331,0.912384 3.47613,1.602304 0.43019,0.303482 0.3038,1.19277 0.0359,1.681031 -0.4818,0.741882 -3.55163,1.295456 -4.3436,1.568491 -3.14943,0.90714 -5.1415,1.351145 -9.4461,2.048779 l -20.051263,2.488918 -23.902794,1.857259 c -3.66543,-0.05146 -9.573031,0.02179 -10.996291,-0.154387 -0.643626,-0.09369 -1.812109,-0.400166 -2.23929,-0.951197 z"
       id="path5675"
       inkscape:connector-curvature="0"
       sodipodi:nodetypes="csccccccccccccccc" />
    <path
       style="fill:none;stroke:#000000;stroke-width:0.26458332px;stroke-linecap:butt;stroke-linejoin:miter;stroke-opacity:1"
       d="m 14.034171,57.382378 0.757206,-1.219177 1.067199,-1.077271 1.972721,-1.532697 1.429451,-1.111455 1.692194,-2.109897 2.779271,-2.687728 2.769436,-2.515649 1.741061,-1.268883 c 0.567761,-0.414232 1.441774,-0.991733 1.876146,-1.262222 0.434921,-0.259148 1.161643,-0.718725 1.705011,-0.958883 0.416689,-0.170318 1.196734,-0.512602 1.871849,-0.733656 0.626647,-0.230775 1.251339,-0.440655 1.75068,-0.563593 0.332365,-0.09775 1.327388,-0.314626 1.946443,-0.410111 1.006112,-0.155186 1.813209,-0.228647 2.732651,-0.305458 2.146396,-0.17931 3.911434,-0.231499 5.965196,-0.386883 l 8.864329,-0.565728 10.042835,-0.52461 11.639424,-0.834503 8.698776,-0.56368 8.199609,-0.500361 6.083524,-0.323617 7.843927,-0.401032 10.91156,-0.435993 18.78037,-0.636445 19.12187,1.730537 8.80435,0.940784 1.98168,0.270777 1.96111,0.233859 1.44708,0.363819 c 0.0798,0.522541 0.0752,2.389861 0.0138,2.766963 l -3.31516,1.967033 -3.49851,1.481047 -24.83293,8.078035 -17.30637,3.672943 -38.416779,4.643807 -39.488431,3.252207 c -4.264803,0.414332 -13.637429,0.96372 -14.966702,1.005676 -1.534283,0.04843 -5.460777,0.174643 -6.342355,0.204895 -0.869614,-0.0034 -2.447717,-0.102274 -3.483867,-0.217013 -0.726903,-0.110135 -1.939158,-0.331459 -2.510405,-0.629477 -0.265968,-0.138754 -0.7441,-0.30991 -1.071524,-0.499258 0,0 -0.636644,-0.327296 -0.9136,-0.818055 l -0.602068,-0.888136 c -0.207565,-0.380392 -0.310954,-0.803018 -0.366382,-1.313461 l -0.0718,-1.088349 0.177681,-1.192291 z"
       id="path3775"
       inkscape:connector-curvature="0"
       sodipodi:nodetypes="cccccccccccccssccccccccccccccccccccccsccsscccccc" />
    <path
       style="fill:none;stroke:#000000;stroke-width:0.26458332px;stroke-linecap:butt;stroke-linejoin:miter;stroke-opacity:1"
       d="m 15.858576,55.08593 c 0.356359,3.747522 0.185113,6.035853 0.541472,9.163816"
       id="path3779"
       inkscape:connector-curvature="0"
       sodipodi:nodetypes="cc" />
    <path
       style="fill:none;stroke:#000000;stroke-width:0.26458332px;stroke-linecap:butt;stroke-linejoin:miter;stroke-opacity:1"
       d="m 21.186803,50.098019 c 1.268915,-0.280482 0.719342,-0.15162 0.719342,-0.15162 l -1.417411,2.196986 -1.227986,0.298393 v 0 0"
       id="path9"
       inkscape:connector-curvature="0"
       sodipodi:nodetypes="cccccc" />
    <path
       style="fill:none;stroke:#000000;stroke-width:0.26458332px;stroke-linecap:butt;stroke-linejoin:miter;stroke-opacity:1"
       d="m 22.449485,49.899152 -1.393786,2.196986 1.511904,-0.188988 0.259858,-2.078869 z"
       id="path11"
       inkscape:connector-curvature="0"
       sodipodi:nodetypes="ccccc" />
    <path
       style="fill:none;stroke:#000000;stroke-width:0.26458332px;stroke-linecap:butt;stroke-linejoin:miter;stroke-opacity:1"
       d="m 23.299932,49.781034 -0.141741,2.078868 1.063057,-0.04724 c 0.509691,-0.03813 0.614214,-0.614213 0.614214,-0.614213 l 1e-6,-1.063055 c 0.03649,-0.309518 -0.229356,-0.367089 -0.567448,-0.364455 z"
       id="path13"
       inkscape:connector-curvature="0"
       sodipodi:nodetypes="ccccccc" />
    <path
       style="fill:none;stroke:#000000;stroke-width:0.26458332px;stroke-linecap:butt;stroke-linejoin:miter;stroke-opacity:1"
       d="m 30.155959,49.308285 1.441952,-0.0035 c 0.244323,-0.0018 0.489526,-0.01816 0.624172,0.137941 0.115093,0.130282 0.113138,0.350146 0.115179,0.639028 l -0.0021,3.125199 c -0.0041,0.147337 0.0011,0.467634 -0.148821,0.598963 -0.156277,0.13688 -0.383102,0.128935 -0.58141,0.139722 l -1.536053,-0.005 c -0.292809,0.0064 -0.590317,0.07449 -0.842564,-0.162431 -0.106035,-0.122251 -0.08629,-0.496071 -0.111528,-0.779911 0.0071,-0.945688 0.02235,-2.521735 0.0213,-2.653316 0.0032,-0.436232 -0.0045,-0.666822 0.119492,-0.800275 0.147018,-0.158289 0.303225,-0.232211 0.900381,-0.23642 z"
       id="path15"
       inkscape:connector-curvature="0"
       sodipodi:nodetypes="cccccscccccsc" />
    <path
       style="fill:none;stroke:#000000;stroke-width:0.26458332px;stroke-linecap:butt;stroke-linejoin:miter;stroke-opacity:1"
       d="m 35.738353,48.961212 c -0.316435,0.179162 -0.308801,0.560488 -0.292326,0.923749 0.01675,0.369207 -0.04668,0.750599 0.280634,0.900366 0.330227,0.1511 0.881721,0.132115 1.122532,-0.07016 0.182981,-0.1537 0.210905,-0.394349 0.210476,-0.830208 -3.23e-4,-0.327774 0.01641,-0.767588 -0.233861,-0.923748 -0.209201,-0.130533 -0.856814,-0.130589 -1.087455,-3e-6 z"
       id="path4861"
       inkscape:connector-curvature="0"
       sodipodi:nodetypes="cssssssc" />
    <path
       style="fill:none;stroke:#000000;stroke-width:0.26458332px;stroke-linecap:butt;stroke-linejoin:miter;stroke-opacity:1"
       d="m 135.90068,42.749796 1.44196,-0.0035 c 0.24432,-0.0018 0.48952,-0.01816 0.62417,0.137941 0.11509,0.130282 0.11313,0.350146 0.11518,0.639028 l -0.002,3.125199 c -0.004,0.147337 0.001,0.467634 -0.14883,0.598963 -0.15627,0.13688 -0.3831,0.128935 -0.58141,0.139722 l -1.53605,-0.005 c -0.29283,0.0064 -0.59033,0.07449 -0.84258,-0.16243 -0.10604,-0.122251 -0.0863,-0.496071 -0.11153,-0.779911 0.007,-0.945688 0.0224,-2.521735 0.0213,-2.653316 0.003,-0.436233 -0.004,-0.666823 0.11949,-0.800276 0.14702,-0.158289 0.30323,-0.232211 0.90038,-0.23642 z"
       id="path15-5-4"
       inkscape:connector-curvature="0"
       sodipodi:nodetypes="cccccscccccsc" />
    <path
       style="fill:none;stroke:#000000;stroke-width:0.26458332px;stroke-linecap:butt;stroke-linejoin:miter;stroke-opacity:1"
       d="m 33.356172,49.159125 c -0.316435,0.179162 -0.308801,0.560488 -0.292326,0.923749 0.01675,0.369207 -0.04668,0.750599 0.280634,0.900366 0.330227,0.1511 0.881721,0.132115 1.122532,-0.07016 0.182981,-0.1537 0.210905,-0.394349 0.210476,-0.830208 -3.23e-4,-0.327774 0.01641,-0.767588 -0.233861,-0.923748 -0.209201,-0.130533 -0.856814,-0.130589 -1.087455,-3e-6 z"
       id="path4861-22"
       inkscape:connector-curvature="0"
       sodipodi:nodetypes="cssssssc" />
    <path
       style="fill:none;stroke:#000000;stroke-width:0.26458332px;stroke-linecap:butt;stroke-linejoin:miter;stroke-opacity:1"
       d="m 136.22401,36.286228 c -0.31643,0.179162 -0.3088,0.560488 -0.29232,0.923749 0.0168,0.369207 -0.0467,0.750599 0.28063,0.900366 0.33023,0.1511 0.88172,0.132115 1.12253,-0.07016 0.18298,-0.1537 0.21091,-0.394349 0.21048,-0.830208 -3.2e-4,-0.327774 0.0164,-0.767588 -0.23386,-0.923748 -0.2092,-0.130533 -0.85682,-0.130589 -1.08746,-3e-6 z"
       id="path4861-63"
       inkscape:connector-curvature="0"
       sodipodi:nodetypes="cssssssc" />
    <path
       style="fill:none;stroke:#000000;stroke-width:0.26458332px;stroke-linecap:butt;stroke-linejoin:miter;stroke-opacity:1"
       d="m 137.15504,34.452846 7.48451,-1.290124 c 0.54128,-0.114472 1.10137,-0.149607 1.55461,-0.438788 0.39705,-0.35863 0.90111,-0.710164 1.07483,-1.098095 L 165.58557,5.5024814 c 0.33354,-0.592714 1.39388,-1.953552 1.64036,-2.27539 0.32631,-0.41656 0.96954,-1.224428 1.29031,-1.428706 0.38233,-0.223945 2.43917,-0.246492 3.07949,-0.295206 l 8.36743,0.05985 -16.72597,35.3203696"
       id="path5391"
       inkscape:connector-curvature="0"
       sodipodi:nodetypes="cccccccccc" />
    <path
       style="fill:none;stroke:#000000;stroke-width:0.26458332px;stroke-linecap:butt;stroke-linejoin:miter;stroke-opacity:1"
       d="M 177.5427,1.5465494 154.98479,36.070316"
       id="path5393"
       inkscape:connector-curvature="0"
       sodipodi:nodetypes="cc" />
    <path
       style="fill:none;stroke:#000000;stroke-width:0.26458332px;stroke-linecap:butt;stroke-linejoin:miter;stroke-opacity:1"
       d="m 167.22853,17.388475 5.19245,0.132292 h -0.0661 0.0331"
       id="path5395"
       inkscape:connector-curvature="0" />
    <path
       style="fill:none;stroke:#000000;stroke-width:0.26458332px;stroke-linecap:butt;stroke-linejoin:miter;stroke-opacity:1"
       d="m 155.35536,35.479361 8.33437,0.529166 v 0 0"
       id="path5397"
       inkscape:connector-curvature="0" />
    <path
       style="fill:#ffffff;fill-opacity:1;stroke:#000000;stroke-width:0.26458332px;stroke-linecap:butt;stroke-linejoin:miter;stroke-opacity:1"
       d="m 144.9811,43.090958 c -0.0721,0.03016 -0.0331,0.183508 0.0577,0.257354 0.14804,0.120383 0.43395,0.359926 0.6017,0.487294 0.48105,0.129928 3.10857,0.585752 4.66285,0.878628 l 1.24857,0.171778 1.98411,-0.214753 8.41277,-2.57204 3.39724,-1.100508 2.98533,-0.803275 2.47107,-1.088293 c 0.0538,-0.03106 1.11728,-0.605029 1.2792,-0.751774 0.0678,-0.06148 0.57944,-0.357016 0.73933,-0.478794 0,0 -0.79267,-0.07063 -0.89627,-0.08711 -0.2003,-0.02013 -1.06604,-0.07167 -1.23859,-0.07796 -0.16656,0.0027 -2.48038,-0.19001 -3.12519,-0.187343 -0.72789,-0.01857 -1.53119,0.04414 -2.29967,0.13641 -0.55311,0.08518 -1.78688,0.354579 -2.39832,0.481104 -0.34495,0.103112 -2.93989,1.097364 -3.2453,1.186976 l -7.60525,2.760504 -1.55748,0.320115 -1.80347,0.25264 -2.82598,0.134906 c -0.28144,0.06621 -0.61764,0.163211 -0.84433,0.294088 z"
       id="path5399"
       inkscape:connector-curvature="0"
       sodipodi:nodetypes="csccccccccsccccccccccccc" />
    <g
       id="g5510"
       transform="translate(2.0623948,-34.441994)" />
    <path
       style="fill:none;stroke:#000000;stroke-width:0.26458332px;stroke-linecap:butt;stroke-linejoin:miter;stroke-opacity:1"
       d="m 118.95995,36.88154 c -0.31644,0.179162 -0.30881,0.560488 -0.29233,0.923749 0.0168,0.369207 -0.0467,0.750599 0.28063,0.900366 0.33023,0.1511 0.88172,0.132115 1.12254,-0.07016 0.18298,-0.1537 0.2109,-0.394349 0.21047,-0.830208 -3.2e-4,-0.327774 0.0164,-0.767588 -0.23386,-0.923748 -0.2092,-0.130533 -0.85681,-0.130589 -1.08745,-3e-6 z"
       id="path5671"
       inkscape:connector-curvature="0" />
    <path
       style="fill:none;stroke:#000000;stroke-width:0.26458332px;stroke-linecap:butt;stroke-linejoin:miter;stroke-opacity:1"
       d="m 116.84328,37.013832 c -0.31643,0.179162 -0.3088,0.560488 -0.29232,0.923749 0.0168,0.369207 -0.0467,0.750599 0.28063,0.900366 0.33023,0.1511 0.88172,0.132115 1.12253,-0.07016 0.18298,-0.1537 0.21091,-0.394349 0.21048,-0.830208 -3.2e-4,-0.327774 0.0164,-0.767588 -0.23386,-0.923748 -0.2092,-0.130533 -0.85682,-0.130589 -1.08746,-3e-6 z"
       id="path5669"
       inkscape:connector-curvature="0" />
    <path
       style="fill:none;stroke:#000000;stroke-width:0.26458332px;stroke-linecap:butt;stroke-linejoin:miter;stroke-opacity:1"
       d="m 114.52817,37.079972 c -0.31643,0.179162 -0.3088,0.560488 -0.29233,0.923749 0.0168,0.369207 -0.0467,0.750599 0.28064,0.900366 0.33023,0.1511 0.88172,0.132115 1.12253,-0.07016 0.18298,-0.1537 0.21091,-0.394349 0.21048,-0.830208 -3.3e-4,-0.327774 0.0164,-0.767588 -0.23386,-0.923748 -0.20921,-0.130533 -0.85682,-0.130589 -1.08746,-3e-6 z"
       id="path5667"
       inkscape:connector-curvature="0" />
    <path
       style="fill:none;stroke:#000000;stroke-width:0.26458332px;stroke-linecap:butt;stroke-linejoin:miter;stroke-opacity:1"
       d="m 91.906306,38.402889 c -0.316435,0.179162 -0.308801,0.560488 -0.292326,0.923749 0.01675,0.369207 -0.04668,0.750599 0.280634,0.900366 0.330227,0.1511 0.881721,0.132115 1.122532,-0.07016 0.182981,-0.1537 0.210905,-0.394349 0.210476,-0.830208 -3.23e-4,-0.327774 0.01641,-0.767588 -0.233861,-0.923748 -0.209201,-0.130533 -0.856814,-0.130589 -1.087455,-3e-6 z"
       id="path5665"
       inkscape:connector-curvature="0" />
    <path
       style="fill:none;stroke:#000000;stroke-width:0.26458332px;stroke-linecap:butt;stroke-linejoin:miter;stroke-opacity:1"
       d="m 89.591203,38.535181 c -0.316435,0.179162 -0.308801,0.560488 -0.292326,0.923749 0.01675,0.369207 -0.04668,0.750599 0.280634,0.900366 0.330227,0.1511 0.881721,0.132115 1.122532,-0.07016 0.182981,-0.1537 0.210905,-0.394349 0.210476,-0.830208 -3.23e-4,-0.327774 0.01641,-0.767588 -0.233861,-0.923748 -0.209201,-0.130533 -0.856814,-0.130589 -1.087455,-3e-6 z"
       id="path5663"
       inkscape:connector-curvature="0" />
    <path
       style="fill:none;stroke:#000000;stroke-width:0.26458332px;stroke-linecap:butt;stroke-linejoin:miter;stroke-opacity:1"
       d="m 80.26464,39.160182 c -0.316435,0.179162 -0.308801,0.560488 -0.292326,0.923749 0.01675,0.369207 -0.04668,0.750599 0.280634,0.900366 0.330227,0.1511 0.881721,0.132115 1.122532,-0.07016 0.182981,-0.1537 0.210905,-0.394349 0.210476,-0.830208 -3.23e-4,-0.327774 0.01641,-0.767588 -0.233861,-0.923748 -0.209201,-0.130533 -0.856814,-0.130589 -1.087455,-3e-6 z"
       id="path5661"
       inkscape:connector-curvature="0" />
    <path
       style="fill:none;stroke:#000000;stroke-width:0.26458332px;stroke-linecap:butt;stroke-linejoin:miter;stroke-opacity:1"
       d="m 78.015683,39.420076 c -0.316435,0.179162 -0.308801,0.560488 -0.292326,0.923749 0.01675,0.369207 -0.04668,0.750599 0.280634,0.900366 0.330227,0.1511 0.881721,0.132115 1.122532,-0.07016 0.182981,-0.1537 0.210905,-0.394349 0.210476,-0.830208 -3.23e-4,-0.327774 0.01641,-0.767588 -0.233861,-0.923748 -0.209201,-0.130533 -0.856814,-0.130589 -1.087455,-3e-6 z"
       id="path5659"
       inkscape:connector-curvature="0" />
    <path
       style="fill:none;stroke:#000000;stroke-width:0.26458332px;stroke-linecap:butt;stroke-linejoin:miter;stroke-opacity:1"
       d="m 75.675578,39.618514 c -0.316435,0.179162 -0.308801,0.560488 -0.292326,0.923749 0.01675,0.369207 -0.04668,0.750599 0.280634,0.900366 0.330227,0.1511 0.881721,0.132115 1.122532,-0.07016 0.182981,-0.1537 0.210905,-0.394349 0.210476,-0.830208 -3.23e-4,-0.327774 0.01641,-0.767588 -0.233861,-0.923748 -0.209201,-0.130533 -0.856814,-0.130589 -1.087455,-3e-6 z"
       id="path5657"
       inkscape:connector-curvature="0" />
    <path
       style="fill:none;stroke:#000000;stroke-width:0.26458332px;stroke-linecap:butt;stroke-linejoin:miter;stroke-opacity:1"
       d="m 73.43339,39.780495 c -0.316435,0.179162 -0.308801,0.560488 -0.292326,0.923749 0.01675,0.369207 -0.04668,0.750599 0.280634,0.900366 0.330227,0.1511 0.881721,0.132115 1.122532,-0.07016 0.182981,-0.1537 0.210905,-0.394349 0.210476,-0.830208 -3.23e-4,-0.327774 0.01641,-0.767588 -0.233861,-0.923748 -0.209201,-0.130533 -0.856814,-0.130589 -1.087455,-3e-6 z"
       id="path5655"
       inkscape:connector-curvature="0" />
    <path
       style="fill:none;stroke:#000000;stroke-width:0.26458332px;stroke-linecap:butt;stroke-linejoin:miter;stroke-opacity:1"
       d="m 51.821931,41.108097 c -0.316435,0.179162 -0.308801,0.560488 -0.292326,0.923749 0.01675,0.369207 -0.04668,0.750599 0.280634,0.900366 0.330227,0.1511 0.881721,0.132115 1.122532,-0.07016 0.182981,-0.1537 0.210905,-0.394349 0.210476,-0.830208 -3.23e-4,-0.327774 0.01641,-0.767588 -0.233861,-0.923748 -0.209201,-0.130533 -0.856814,-0.130589 -1.087455,-3e-6 z"
       id="path5653"
       inkscape:connector-curvature="0" />
    <path
       style="fill:none;stroke:#000000;stroke-width:0.26458332px;stroke-linecap:butt;stroke-linejoin:miter;stroke-opacity:1"
       d="m 49.566202,41.213306 c -0.316435,0.179162 -0.308801,0.560488 -0.292326,0.923749 0.01675,0.369207 -0.04668,0.750599 0.280634,0.900366 0.330227,0.1511 0.881721,0.132115 1.122532,-0.07016 0.182981,-0.1537 0.210905,-0.394349 0.210476,-0.830208 -3.23e-4,-0.327774 0.01641,-0.767588 -0.233861,-0.923748 -0.209201,-0.130533 -0.856814,-0.130589 -1.087455,-3e-6 z"
       id="path5651"
       inkscape:connector-curvature="0" />
    <path
       style="fill:none;stroke:#000000;stroke-width:0.26458332px;stroke-linecap:butt;stroke-linejoin:miter;stroke-opacity:1"
       d="m 132.98286,43.231535 c -0.31643,0.179162 -0.3088,0.560488 -0.29233,0.923749 0.0168,0.369207 -0.0467,0.750599 0.28064,0.900366 0.33023,0.1511 0.88172,0.132115 1.12253,-0.07016 0.18298,-0.1537 0.21091,-0.394349 0.21048,-0.830208 -3.3e-4,-0.327774 0.0164,-0.767588 -0.23386,-0.923748 -0.20921,-0.130533 -0.85682,-0.130589 -1.08746,-3e-6 z"
       id="path5649"
       inkscape:connector-curvature="0" />
    <path
       style="fill:none;stroke:#000000;stroke-width:0.26458332px;stroke-linecap:butt;stroke-linejoin:miter;stroke-opacity:1"
       d="m 130.80004,43.363826 c -0.31643,0.179162 -0.3088,0.560488 -0.29232,0.923749 0.0168,0.369207 -0.0467,0.750599 0.28063,0.900366 0.33023,0.1511 0.88172,0.132115 1.12253,-0.07016 0.18298,-0.1537 0.21091,-0.394349 0.21048,-0.830208 -3.2e-4,-0.327774 0.0164,-0.767588 -0.23386,-0.923748 -0.2092,-0.130533 -0.85682,-0.130589 -1.08746,-3e-6 z"
       id="path5647"
       inkscape:connector-curvature="0" />
    <path
       style="fill:none;stroke:#000000;stroke-width:0.26458332px;stroke-linecap:butt;stroke-linejoin:miter;stroke-opacity:1"
       d="m 128.68339,43.496117 c -0.31644,0.179163 -0.3088,0.560488 -0.29233,0.92375 0.0168,0.369207 -0.0467,0.750599 0.28064,0.900366 0.33022,0.1511 0.88172,0.132115 1.12253,-0.07016 0.18298,-0.1537 0.2109,-0.394349 0.21047,-0.830208 -3.2e-4,-0.327774 0.0164,-0.767589 -0.23386,-0.923749 -0.2092,-0.130533 -0.85681,-0.130589 -1.08745,-3e-6 z"
       id="path5645"
       inkscape:connector-curvature="0" />
    <path
       style="fill:none;stroke:#000000;stroke-width:0.26458332px;stroke-linecap:butt;stroke-linejoin:miter;stroke-opacity:1"
       d="m 126.36828,43.62841 c -0.31643,0.179162 -0.3088,0.560488 -0.29232,0.923749 0.0168,0.369207 -0.0467,0.750599 0.28063,0.900366 0.33023,0.1511 0.88172,0.132115 1.12253,-0.07016 0.18298,-0.1537 0.21091,-0.394349 0.21048,-0.830208 -3.2e-4,-0.327774 0.0164,-0.767588 -0.23386,-0.923748 -0.2092,-0.130533 -0.85682,-0.130589 -1.08746,-3e-6 z"
       id="path5643"
       inkscape:connector-curvature="0" />
    <path
       style="fill:none;stroke:#000000;stroke-width:0.26458332px;stroke-linecap:butt;stroke-linejoin:miter;stroke-opacity:1"
       d="m 108.70734,44.488306 c -0.31643,0.179162 -0.3088,0.560488 -0.29232,0.923749 0.0168,0.369207 -0.0467,0.750599 0.28063,0.900366 0.33023,0.1511 0.88172,0.132115 1.12253,-0.07016 0.18298,-0.1537 0.21091,-0.394349 0.21048,-0.830208 -3.2e-4,-0.327774 0.0164,-0.767588 -0.23386,-0.923748 -0.2092,-0.130533 -0.85682,-0.130589 -1.08746,-3e-6 z"
       id="path5641"
       inkscape:connector-curvature="0" />
    <path
       style="fill:none;stroke:#000000;stroke-width:0.26458332px;stroke-linecap:butt;stroke-linejoin:miter;stroke-opacity:1"
       d="m 106.59068,44.554456 c -0.31644,0.179162 -0.3088,0.560488 -0.29233,0.923749 0.0167,0.369207 -0.0467,0.750599 0.28064,0.900366 0.33022,0.1511 0.88172,0.132115 1.12253,-0.07016 0.18298,-0.1537 0.2109,-0.394349 0.21047,-0.830208 -3.2e-4,-0.327774 0.0164,-0.767588 -0.23386,-0.923748 -0.2092,-0.130533 -0.85681,-0.130589 -1.08745,-3e-6 z"
       id="path5639"
       inkscape:connector-curvature="0" />
    <path
       style="fill:none;stroke:#000000;stroke-width:0.26458332px;stroke-linecap:butt;stroke-linejoin:miter;stroke-opacity:1"
       d="m 104.40786,44.686748 c -0.31644,0.179162 -0.3088,0.560488 -0.29233,0.923749 0.0168,0.369207 -0.0467,0.750599 0.28064,0.900366 0.33022,0.1511 0.88172,0.132115 1.12253,-0.07016 0.18298,-0.1537 0.2109,-0.394349 0.21048,-0.830208 -3.3e-4,-0.327774 0.0164,-0.767588 -0.23387,-0.923748 -0.2092,-0.130533 -0.85681,-0.130589 -1.08745,-3e-6 z"
       id="path5637"
       inkscape:connector-curvature="0" />
    <path
       style="fill:none;stroke:#000000;stroke-width:0.26458332px;stroke-linecap:butt;stroke-linejoin:miter;stroke-opacity:1"
       d="m 102.02662,44.885184 c -0.31644,0.179163 -0.3088,0.560488 -0.29233,0.92375 0.0167,0.369207 -0.0467,0.750599 0.28063,0.900366 0.33023,0.1511 0.88173,0.132115 1.12254,-0.07016 0.18298,-0.1537 0.2109,-0.394349 0.21047,-0.830208 -3.2e-4,-0.327774 0.0164,-0.767589 -0.23386,-0.923749 -0.2092,-0.130533 -0.85681,-0.130589 -1.08745,-3e-6 z"
       id="path5635"
       inkscape:connector-curvature="0" />
    <path
       style="fill:none;stroke:#000000;stroke-width:0.26458332px;stroke-linecap:butt;stroke-linejoin:miter;stroke-opacity:1"
       d="m 51.644089,48.130137 c -0.316435,0.179162 -0.308801,0.560488 -0.292326,0.923749 0.01675,0.369207 -0.04668,0.750599 0.280634,0.900366 0.330227,0.1511 0.881721,0.132115 1.122532,-0.07016 0.182981,-0.1537 0.210905,-0.394349 0.210476,-0.830208 -3.23e-4,-0.327774 0.01641,-0.767588 -0.233861,-0.923748 -0.209201,-0.130533 -0.856814,-0.130589 -1.087455,-3e-6 z"
       id="path5633"
       inkscape:connector-curvature="0" />
    <path
       style="fill:none;stroke:#000000;stroke-width:0.26458332px;stroke-linecap:butt;stroke-linejoin:miter;stroke-opacity:1"
       d="m 65.703137,47.139897 c -0.316435,0.179162 -0.308801,0.560488 -0.292326,0.923749 0.01675,0.369207 -0.04668,0.750599 0.280634,0.900366 0.330227,0.1511 0.881721,0.132115 1.122532,-0.07016 0.182981,-0.1537 0.210905,-0.394349 0.210476,-0.830208 -3.23e-4,-0.327774 0.01641,-0.767588 -0.233861,-0.923748 -0.209201,-0.130533 -0.856814,-0.130589 -1.087455,-3e-6 z"
       id="path5631"
       inkscape:connector-curvature="0" />
    <path
       style="fill:none;stroke:#000000;stroke-width:0.26458332px;stroke-linecap:butt;stroke-linejoin:miter;stroke-opacity:1"
       d="m 67.994974,46.978953 c -0.316435,0.179162 -0.308801,0.560488 -0.292326,0.923749 0.01675,0.369207 -0.04668,0.750599 0.280634,0.900366 0.330227,0.1511 0.881721,0.132115 1.122532,-0.07016 0.182981,-0.1537 0.210905,-0.394349 0.210476,-0.830208 -3.23e-4,-0.327774 0.01641,-0.767588 -0.233861,-0.923748 -0.209201,-0.130533 -0.856814,-0.130589 -1.087455,-3e-6 z"
       id="path5629"
       inkscape:connector-curvature="0" />
    <path
       style="fill:none;stroke:#000000;stroke-width:0.26458332px;stroke-linecap:butt;stroke-linejoin:miter;stroke-opacity:1"
       d="m 63.430675,47.288238 c -0.316435,0.179162 -0.308801,0.560488 -0.292326,0.923749 0.01675,0.369207 -0.04668,0.750599 0.280634,0.900366 0.330227,0.1511 0.881721,0.132115 1.122532,-0.07016 0.182981,-0.1537 0.210905,-0.394349 0.210476,-0.830208 -3.23e-4,-0.327774 0.01641,-0.767588 -0.233861,-0.923748 -0.209201,-0.130533 -0.856814,-0.130589 -1.087455,-3e-6 z"
       id="path5627"
       inkscape:connector-curvature="0" />
    <path
       style="fill:none;stroke:#000000;stroke-width:0.26458332px;stroke-linecap:butt;stroke-linejoin:miter;stroke-opacity:1"
       d="m 45.142759,48.41077 c -0.316435,0.179162 -0.308801,0.560488 -0.292326,0.923749 0.01675,0.369207 -0.04668,0.750599 0.280634,0.900366 0.330227,0.1511 0.881721,0.132115 1.122532,-0.07016 0.182981,-0.1537 0.210905,-0.394349 0.210476,-0.830208 -3.23e-4,-0.327774 0.01641,-0.767588 -0.233861,-0.923748 -0.209201,-0.130533 -0.856814,-0.130589 -1.087455,-3e-6 z"
       id="path5625"
       inkscape:connector-curvature="0" />
    <path
       style="fill:none;stroke:#000000;stroke-width:0.26458332px;stroke-linecap:butt;stroke-linejoin:miter;stroke-opacity:1"
       d="m 131.7261,36.418519 c -0.31644,0.179162 -0.3088,0.560488 -0.29233,0.923749 0.0168,0.369207 -0.0467,0.750599 0.28063,0.900366 0.33023,0.1511 0.88173,0.132115 1.12254,-0.07016 0.18298,-0.1537 0.2109,-0.394349 0.21047,-0.830208 -3.2e-4,-0.327774 0.0164,-0.767588 -0.23386,-0.923748 -0.2092,-0.130533 -0.85681,-0.130589 -1.08745,-3e-6 z"
       id="path5623"
       inkscape:connector-curvature="0" />
    <path
       style="fill:none;stroke:#000000;stroke-width:0.26458332px;stroke-linecap:butt;stroke-linejoin:miter;stroke-opacity:1"
       d="m 133.97505,36.352369 c -0.31644,0.179162 -0.3088,0.560488 -0.29233,0.923749 0.0168,0.369207 -0.0467,0.750599 0.28064,0.900366 0.33022,0.1511 0.88172,0.132115 1.12253,-0.07016 0.18298,-0.1537 0.2109,-0.394349 0.21048,-0.830208 -3.3e-4,-0.327774 0.0164,-0.767588 -0.23387,-0.923748 -0.2092,-0.130533 -0.85681,-0.130589 -1.08745,-3e-6 z"
       id="path5621"
       inkscape:connector-curvature="0" />
    <path
       style="fill:none;stroke:#000000;stroke-width:0.26458332px;stroke-linecap:butt;stroke-linejoin:miter;stroke-opacity:1"
       d="m 129.47714,36.484661 c -0.31644,0.179162 -0.3088,0.560488 -0.29233,0.923749 0.0168,0.369207 -0.0467,0.750599 0.28064,0.900366 0.33022,0.1511 0.88172,0.132115 1.12253,-0.07016 0.18298,-0.1537 0.2109,-0.394349 0.21047,-0.830208 -3.2e-4,-0.327774 0.0164,-0.767588 -0.23386,-0.923748 -0.2092,-0.130533 -0.85681,-0.130589 -1.08745,-3e-6 z"
       id="path5619"
       inkscape:connector-curvature="0" />
    <path
       style="fill:none;stroke:#000000;stroke-width:0.26458332px;stroke-linecap:butt;stroke-linejoin:miter;stroke-opacity:1"
       d="m 127.29432,36.616952 c -0.31643,0.179162 -0.3088,0.560488 -0.29232,0.923749 0.0168,0.369207 -0.0467,0.750599 0.28063,0.900366 0.33023,0.1511 0.88172,0.132115 1.12253,-0.07016 0.18299,-0.1537 0.21091,-0.394349 0.21048,-0.830208 -3.2e-4,-0.327774 0.0164,-0.767588 -0.23386,-0.923748 -0.2092,-0.130533 -0.85681,-0.130589 -1.08746,-3e-6 z"
       id="path5617"
       inkscape:connector-curvature="0" />
    <path
       style="fill:none;stroke:#000000;stroke-width:0.26458332px;stroke-linecap:butt;stroke-linejoin:miter;stroke-opacity:1"
       d="m 124.25161,43.694557 c -0.31643,0.179162 -0.3088,0.560488 -0.29232,0.923749 0.0168,0.369207 -0.0467,0.750599 0.28063,0.900366 0.33023,0.1511 0.88172,0.132115 1.12253,-0.07016 0.18299,-0.1537 0.21091,-0.394349 0.21048,-0.830208 -3.2e-4,-0.327774 0.0164,-0.767588 -0.23386,-0.923748 -0.2092,-0.130533 -0.85681,-0.130589 -1.08746,-3e-6 z"
       id="path5615"
       inkscape:connector-curvature="0" />
    <path
       style="fill:none;stroke:#000000;stroke-width:0.26458332px;stroke-linecap:butt;stroke-linejoin:miter;stroke-opacity:1"
       d="m 121.93651,43.760707 c -0.31643,0.179162 -0.3088,0.560488 -0.29232,0.923749 0.0168,0.369207 -0.0467,0.750599 0.28063,0.900366 0.33023,0.1511 0.88172,0.132115 1.12253,-0.07016 0.18298,-0.1537 0.21091,-0.394349 0.21048,-0.830208 -3.2e-4,-0.327774 0.0164,-0.767588 -0.23386,-0.923748 -0.2092,-0.130533 -0.85682,-0.130589 -1.08746,-3e-6 z"
       id="path5613"
       inkscape:connector-curvature="0" />
    <path
       style="fill:none;stroke:#000000;stroke-width:0.26458332px;stroke-linecap:butt;stroke-linejoin:miter;stroke-opacity:1"
       d="m 119.62141,43.892999 c -0.31644,0.179162 -0.3088,0.560488 -0.29233,0.923749 0.0168,0.369207 -0.0467,0.750599 0.28063,0.900366 0.33023,0.1511 0.88173,0.132115 1.12254,-0.07016 0.18298,-0.1537 0.2109,-0.394349 0.21047,-0.830208 -3.2e-4,-0.327774 0.0164,-0.767588 -0.23386,-0.923748 -0.2092,-0.130533 -0.85681,-0.130589 -1.08745,-3e-6 z"
       id="path5611"
       inkscape:connector-curvature="0" />
    <path
       style="fill:none;stroke:#000000;stroke-width:0.26458332px;stroke-linecap:butt;stroke-linejoin:miter;stroke-opacity:1"
       d="m 117.24015,43.959149 c -0.31643,0.179162 -0.3088,0.560488 -0.29232,0.923749 0.0168,0.369207 -0.0467,0.750599 0.28063,0.900366 0.33023,0.1511 0.88172,0.132115 1.12253,-0.07016 0.18299,-0.1537 0.21091,-0.394349 0.21048,-0.830208 -3.2e-4,-0.327774 0.0164,-0.767588 -0.23386,-0.923748 -0.2092,-0.130533 -0.85681,-0.130589 -1.08746,-3e-6 z"
       id="path5609"
       inkscape:connector-curvature="0" />
    <path
       style="fill:none;stroke:#000000;stroke-width:0.26458332px;stroke-linecap:butt;stroke-linejoin:miter;stroke-opacity:1"
       d="m 114.92505,44.091441 c -0.31644,0.179162 -0.3088,0.560488 -0.29233,0.923749 0.0168,0.369207 -0.0467,0.750599 0.28063,0.900366 0.33023,0.1511 0.88173,0.132115 1.12254,-0.07016 0.18298,-0.1537 0.2109,-0.394349 0.21047,-0.830208 -3.2e-4,-0.327774 0.0164,-0.767588 -0.23386,-0.923748 -0.2092,-0.130533 -0.85681,-0.130589 -1.08745,-3e-6 z"
       id="path5607"
       inkscape:connector-curvature="0" />
    <path
       style="fill:none;stroke:#000000;stroke-width:0.26458332px;stroke-linecap:butt;stroke-linejoin:miter;stroke-opacity:1"
       d="m 105.20161,37.476857 c -0.31643,0.179162 -0.3088,0.560488 -0.29232,0.923749 0.0168,0.369207 -0.0467,0.750599 0.28063,0.900366 0.33023,0.1511 0.88172,0.132115 1.12253,-0.07016 0.18298,-0.1537 0.21091,-0.394349 0.21048,-0.830208 -3.2e-4,-0.327774 0.0164,-0.767588 -0.23386,-0.923748 -0.2092,-0.130533 -0.85682,-0.130589 -1.08746,-3e-6 z"
       id="path5605"
       inkscape:connector-curvature="0" />
    <path
       style="fill:none;stroke:#000000;stroke-width:0.26458332px;stroke-linecap:butt;stroke-linejoin:miter;stroke-opacity:1"
       d="m 109.96411,37.344567 c -0.31643,0.179162 -0.3088,0.560488 -0.29232,0.923749 0.0168,0.369207 -0.0467,0.750599 0.28063,0.900366 0.33023,0.1511 0.88172,0.132115 1.12253,-0.07016 0.18298,-0.1537 0.21091,-0.394349 0.21048,-0.830208 -3.3e-4,-0.327774 0.0164,-0.767588 -0.23386,-0.923748 -0.2092,-0.130533 -0.85682,-0.130589 -1.08746,-3e-6 z"
       id="path5603"
       inkscape:connector-curvature="0" />
    <path
       style="fill:none;stroke:#000000;stroke-width:0.26458332px;stroke-linecap:butt;stroke-linejoin:miter;stroke-opacity:1"
       d="m 112.34536,37.212275 c -0.31644,0.179162 -0.3088,0.560488 -0.29233,0.923749 0.0168,0.369207 -0.0467,0.750599 0.28063,0.900366 0.33023,0.1511 0.88173,0.132115 1.12254,-0.07016 0.18298,-0.1537 0.2109,-0.394349 0.21047,-0.830208 -3.2e-4,-0.327774 0.0164,-0.767588 -0.23386,-0.923748 -0.2092,-0.130533 -0.85681,-0.130589 -1.08745,-3e-6 z"
       id="path5601"
       inkscape:connector-curvature="0" />
    <path
       style="fill:none;stroke:#000000;stroke-width:0.26458332px;stroke-linecap:butt;stroke-linejoin:miter;stroke-opacity:1"
       d="m 107.58286,37.410712 c -0.31643,0.179162 -0.3088,0.560488 -0.29232,0.923749 0.0168,0.369207 -0.0467,0.750599 0.28063,0.900366 0.33023,0.1511 0.88172,0.132115 1.12253,-0.07016 0.18298,-0.1537 0.21091,-0.394349 0.21048,-0.830208 -3.2e-4,-0.327774 0.0164,-0.767588 -0.23386,-0.923748 -0.2092,-0.130533 -0.85682,-0.130589 -1.08746,-3e-6 z"
       id="path5599"
       inkscape:connector-curvature="0" />
    <path
       style="fill:none;stroke:#000000;stroke-width:0.26458332px;stroke-linecap:butt;stroke-linejoin:miter;stroke-opacity:1"
       d="m 102.95266,37.675295 c -0.31644,0.179162 -0.3088,0.560488 -0.29233,0.923749 0.0168,0.369207 -0.0467,0.750599 0.28064,0.900366 0.33022,0.1511 0.88172,0.132115 1.12253,-0.07016 0.18298,-0.1537 0.2109,-0.394349 0.21048,-0.830208 -3.3e-4,-0.327774 0.0164,-0.767588 -0.23387,-0.923748 -0.2092,-0.130533 -0.85681,-0.130589 -1.08745,-3e-6 z"
       id="path5597"
       inkscape:connector-curvature="0" />
    <path
       style="fill:none;stroke:#000000;stroke-width:0.26458332px;stroke-linecap:butt;stroke-linejoin:miter;stroke-opacity:1"
       d="m 100.7037,37.807587 c -0.31643,0.179162 -0.3088,0.560488 -0.29232,0.923749 0.0168,0.369207 -0.0467,0.750599 0.28063,0.900366 0.33023,0.1511 0.88172,0.132115 1.12253,-0.07016 0.18299,-0.1537 0.21091,-0.394349 0.21048,-0.830208 -3.2e-4,-0.327774 0.0164,-0.767588 -0.23386,-0.923748 -0.2092,-0.130533 -0.85681,-0.130589 -1.08746,-3e-6 z"
       id="path5595"
       inkscape:connector-curvature="0" />
    <path
       style="fill:none;stroke:#000000;stroke-width:0.26458332px;stroke-linecap:butt;stroke-linejoin:miter;stroke-opacity:1"
       d="m 98.52089,37.939879 c -0.316435,0.179162 -0.308801,0.560488 -0.292326,0.923749 0.01675,0.369207 -0.04668,0.750599 0.280634,0.900366 0.330227,0.1511 0.881721,0.132115 1.122532,-0.07016 0.182981,-0.1537 0.210905,-0.394349 0.210476,-0.830208 -3.23e-4,-0.327774 0.01641,-0.767588 -0.233861,-0.923748 -0.209201,-0.130533 -0.856814,-0.130589 -1.087455,-3e-6 z"
       id="path5593"
       inkscape:connector-curvature="0" />
    <path
       style="fill:none;stroke:#000000;stroke-width:0.26458332px;stroke-linecap:butt;stroke-linejoin:miter;stroke-opacity:1"
       d="m 99.579227,45.017483 c -0.31644,0.179162 -0.3088,0.560488 -0.29233,0.923749 0.0168,0.369207 -0.0467,0.750599 0.28063,0.900366 0.33023,0.1511 0.881733,0.132115 1.122543,-0.07016 0.18298,-0.1537 0.2109,-0.394349 0.21047,-0.830208 -3.2e-4,-0.327774 0.0164,-0.767588 -0.23386,-0.923748 -0.2092,-0.130533 -0.856813,-0.130589 -1.087453,-3e-6 z"
       id="path5591"
       inkscape:connector-curvature="0" />
    <path
       style="fill:none;stroke:#000000;stroke-width:0.26458332px;stroke-linecap:butt;stroke-linejoin:miter;stroke-opacity:1"
       d="m 97.065679,45.083623 c -0.31643,0.179162 -0.3088,0.560488 -0.29232,0.923749 0.0168,0.369207 -0.0467,0.750599 0.28063,0.900366 0.33023,0.1511 0.88172,0.132115 1.12253,-0.07016 0.18298,-0.1537 0.21091,-0.394349 0.21048,-0.830208 -3.2e-4,-0.327774 0.0164,-0.767588 -0.23386,-0.923748 -0.2092,-0.130533 -0.85682,-0.130589 -1.08746,-3e-6 z"
       id="path5589"
       inkscape:connector-curvature="0" />
    <path
       style="fill:none;stroke:#000000;stroke-width:0.26458332px;stroke-linecap:butt;stroke-linejoin:miter;stroke-opacity:1"
       d="m 94.816723,45.149773 c -0.316435,0.179162 -0.308801,0.560488 -0.292326,0.923749 0.01675,0.369207 -0.04668,0.750599 0.280634,0.900366 0.330227,0.1511 0.881721,0.132115 1.122532,-0.07016 0.182981,-0.1537 0.210905,-0.394349 0.210476,-0.830208 -3.23e-4,-0.327774 0.01641,-0.767588 -0.233861,-0.923748 -0.209201,-0.130533 -0.856814,-0.130589 -1.087455,-3e-6 z"
       id="path5587"
       inkscape:connector-curvature="0" />
    <path
       style="fill:none;stroke:#000000;stroke-width:0.26458332px;stroke-linecap:butt;stroke-linejoin:miter;stroke-opacity:1"
       d="m 92.435474,45.414357 c -0.316435,0.179162 -0.308801,0.560488 -0.292326,0.923749 0.01675,0.369207 -0.04668,0.750599 0.280634,0.900366 0.330227,0.1511 0.881721,0.132115 1.122532,-0.07016 0.182981,-0.1537 0.210905,-0.394349 0.210476,-0.830208 -3.23e-4,-0.327774 0.01641,-0.767588 -0.233861,-0.923748 -0.209201,-0.130533 -0.856814,-0.130589 -1.087455,-3e-6 z"
       id="path5585"
       inkscape:connector-curvature="0" />
    <path
       style="fill:none;stroke:#000000;stroke-width:0.26458332px;stroke-linecap:butt;stroke-linejoin:miter;stroke-opacity:1"
       d="m 90.186514,45.414357 c -0.316435,0.179162 -0.308801,0.560488 -0.292326,0.923749 0.01675,0.369207 -0.04668,0.750599 0.280634,0.900366 0.330227,0.1511 0.881721,0.132115 1.122532,-0.07016 0.182981,-0.1537 0.210905,-0.394349 0.210476,-0.830208 -3.23e-4,-0.327774 0.01641,-0.767588 -0.233861,-0.923748 -0.209201,-0.130533 -0.856814,-0.130589 -1.087455,-3e-6 z"
       id="path5583"
       inkscape:connector-curvature="0" />
    <path
       style="fill:none;stroke:#000000;stroke-width:0.26458332px;stroke-linecap:butt;stroke-linejoin:miter;stroke-opacity:1"
       d="m 88.003702,45.67894 c -0.316435,0.179162 -0.308801,0.560488 -0.292326,0.923749 0.01675,0.369207 -0.04668,0.750599 0.280634,0.900366 0.330227,0.1511 0.881721,0.132115 1.122532,-0.07016 0.182981,-0.1537 0.210905,-0.394349 0.210476,-0.830208 -3.23e-4,-0.327774 0.01641,-0.767588 -0.233861,-0.923748 -0.209201,-0.130533 -0.856814,-0.130589 -1.087455,-3e-6 z"
       id="path5581"
       inkscape:connector-curvature="0" />
    <path
       style="fill:none;stroke:#000000;stroke-width:0.26458332px;stroke-linecap:butt;stroke-linejoin:miter;stroke-opacity:1"
       d="m 85.688599,45.811233 c -0.316435,0.179162 -0.308801,0.560488 -0.292326,0.923749 0.01675,0.369207 -0.04668,0.750599 0.280634,0.900366 0.330227,0.1511 0.881721,0.132115 1.122532,-0.07016 0.182981,-0.1537 0.210905,-0.394349 0.210476,-0.830208 -3.23e-4,-0.327774 0.01641,-0.767588 -0.233861,-0.923748 -0.209201,-0.130533 -0.856814,-0.130589 -1.087455,-3e-6 z"
       id="path5579"
       inkscape:connector-curvature="0" />
    <path
       style="fill:none;stroke:#000000;stroke-width:0.26458332px;stroke-linecap:butt;stroke-linejoin:miter;stroke-opacity:1"
       d="m 83.43964,45.877373 c -0.316435,0.179162 -0.308801,0.560488 -0.292326,0.923749 0.01675,0.369207 -0.04668,0.750599 0.280634,0.900366 0.330227,0.1511 0.881721,0.132115 1.122532,-0.07016 0.182981,-0.1537 0.210905,-0.394349 0.210476,-0.830208 -3.23e-4,-0.327774 0.01641,-0.767588 -0.233861,-0.923748 -0.209201,-0.130533 -0.856814,-0.130589 -1.087455,-3e-6 z"
       id="path5577"
       inkscape:connector-curvature="0" />
    <path
       style="fill:none;stroke:#000000;stroke-width:0.26458332px;stroke-linecap:butt;stroke-linejoin:miter;stroke-opacity:1"
       d="m 87.342244,38.733624 c -0.316435,0.179162 -0.308801,0.560488 -0.292326,0.923749 0.01675,0.369207 -0.04668,0.750599 0.280634,0.900366 0.330227,0.1511 0.881721,0.132115 1.122532,-0.07016 0.182981,-0.1537 0.210905,-0.394349 0.210476,-0.830208 -3.23e-4,-0.327774 0.01641,-0.767588 -0.233861,-0.923748 -0.209201,-0.130533 -0.856814,-0.130589 -1.087455,-3e-6 z"
       id="path5575"
       inkscape:connector-curvature="0" />
    <path
       style="fill:none;stroke:#000000;stroke-width:0.26458332px;stroke-linecap:butt;stroke-linejoin:miter;stroke-opacity:1"
       d="m 84.894848,38.865915 c -0.316435,0.179162 -0.308801,0.560488 -0.292326,0.923749 0.01675,0.369207 -0.04668,0.750599 0.280634,0.900366 0.330227,0.1511 0.881721,0.132115 1.122532,-0.07016 0.182981,-0.1537 0.210905,-0.394349 0.210476,-0.830208 -3.23e-4,-0.327774 0.01641,-0.767588 -0.233861,-0.923748 -0.209201,-0.130533 -0.856814,-0.130589 -1.087455,-3e-6 z"
       id="path5573"
       inkscape:connector-curvature="0" />
    <path
       style="fill:none;stroke:#000000;stroke-width:0.26458332px;stroke-linecap:butt;stroke-linejoin:miter;stroke-opacity:1"
       d="m 82.531827,39.034665 c -0.316435,0.179162 -0.308801,0.560488 -0.292326,0.923749 0.01675,0.369207 -0.04668,0.750599 0.280634,0.900366 0.330227,0.1511 0.881721,0.132115 1.122532,-0.07016 0.182981,-0.1537 0.210905,-0.394349 0.210476,-0.830208 -3.23e-4,-0.327774 0.01641,-0.767588 -0.233861,-0.923748 -0.209201,-0.130533 -0.856814,-0.130589 -1.087455,-3e-6 z"
       id="path5571"
       inkscape:connector-curvature="0" />
    <path
       style="fill:none;stroke:#000000;stroke-width:0.26458332px;stroke-linecap:butt;stroke-linejoin:miter;stroke-opacity:1"
       d="m 71.172973,39.93102 c -0.316435,0.179162 -0.308801,0.560488 -0.292326,0.923749 0.01675,0.369207 -0.04668,0.750599 0.280634,0.900366 0.330227,0.1511 0.881721,0.132115 1.122532,-0.07016 0.182981,-0.1537 0.210905,-0.394349 0.210476,-0.830208 -3.23e-4,-0.327774 0.01641,-0.767588 -0.233861,-0.923748 -0.209201,-0.130533 -0.856814,-0.130589 -1.087455,-3e-6 z"
       id="path5569"
       inkscape:connector-curvature="0" />
    <path
       style="fill:none;stroke:#000000;stroke-width:0.26458332px;stroke-linecap:butt;stroke-linejoin:miter;stroke-opacity:1"
       d="m 68.887557,40.111227 c -0.316435,0.179162 -0.308801,0.560488 -0.292326,0.923749 0.01675,0.369207 -0.04668,0.750599 0.280634,0.900366 0.330227,0.1511 0.881721,0.132115 1.122532,-0.07016 0.182981,-0.1537 0.210905,-0.394349 0.210476,-0.830208 -3.23e-4,-0.327774 0.01641,-0.767588 -0.233861,-0.923748 -0.209201,-0.130533 -0.856814,-0.130589 -1.087455,-3e-6 z"
       id="path5567"
       inkscape:connector-curvature="0" />
    <path
       style="fill:none;stroke:#000000;stroke-width:0.26458332px;stroke-linecap:butt;stroke-linejoin:miter;stroke-opacity:1"
       d="m 66.722973,40.309665 c -0.316435,0.179162 -0.308801,0.560488 -0.292326,0.923749 0.01675,0.369207 -0.04668,0.750599 0.280634,0.900366 0.330227,0.1511 0.881721,0.132115 1.122532,-0.07016 0.182981,-0.1537 0.210905,-0.394349 0.210476,-0.830208 -3.23e-4,-0.327774 0.01641,-0.767588 -0.233861,-0.923748 -0.209201,-0.130533 -0.856814,-0.130589 -1.087455,-3e-6 z"
       id="path5565"
       inkscape:connector-curvature="0" />
    <path
       style="fill:none;stroke:#000000;stroke-width:0.26458332px;stroke-linecap:butt;stroke-linejoin:miter;stroke-opacity:1"
       d="m 64.54016,40.544561 c -0.316435,0.179162 -0.308801,0.560488 -0.292326,0.923749 0.01675,0.369207 -0.04668,0.750599 0.280634,0.900366 0.330227,0.1511 0.881721,0.132115 1.122532,-0.07016 0.182981,-0.1537 0.210905,-0.394349 0.210476,-0.830208 -3.23e-4,-0.327774 0.01641,-0.767588 -0.233861,-0.923748 -0.209201,-0.130533 -0.856814,-0.130589 -1.087455,-3e-6 z"
       id="path5563"
       inkscape:connector-curvature="0" />
    <path
       style="fill:none;stroke:#000000;stroke-width:0.26458332px;stroke-linecap:butt;stroke-linejoin:miter;stroke-opacity:1"
       d="m 62.405265,40.622165 c -0.316435,0.179162 -0.308801,0.560488 -0.292326,0.923749 0.01675,0.369207 -0.04668,0.750599 0.280634,0.900366 0.330227,0.1511 0.881721,0.132115 1.122532,-0.07016 0.182981,-0.1537 0.210905,-0.394349 0.210476,-0.830208 -3.23e-4,-0.327774 0.01641,-0.767588 -0.233861,-0.923748 -0.209201,-0.130533 -0.856814,-0.130589 -1.087455,-3e-6 z"
       id="path5561"
       inkscape:connector-curvature="0" />
    <path
       style="fill:none;stroke:#000000;stroke-width:0.26458332px;stroke-linecap:butt;stroke-linejoin:miter;stroke-opacity:1"
       d="m 60.222453,40.754457 c -0.316435,0.179162 -0.308801,0.560488 -0.292326,0.923749 0.01675,0.369207 -0.04668,0.750599 0.280634,0.900366 0.330227,0.1511 0.881721,0.132115 1.122532,-0.07016 0.182981,-0.1537 0.210905,-0.394349 0.210476,-0.830208 -3.23e-4,-0.327774 0.01641,-0.767588 -0.233861,-0.923748 -0.209201,-0.130533 -0.856814,-0.130589 -1.087455,-3e-6 z"
       id="path5559"
       inkscape:connector-curvature="0" />
    <path
       style="fill:none;stroke:#000000;stroke-width:0.26458332px;stroke-linecap:butt;stroke-linejoin:miter;stroke-opacity:1"
       d="m 57.973494,40.886749 c -0.316435,0.179162 -0.308801,0.560488 -0.292326,0.923749 0.01675,0.369207 -0.04668,0.750599 0.280634,0.900366 0.330227,0.1511 0.881721,0.132115 1.122532,-0.07016 0.182981,-0.1537 0.210905,-0.394349 0.210476,-0.830208 -3.23e-4,-0.327774 0.01641,-0.767588 -0.233861,-0.923748 -0.209201,-0.130533 -0.856814,-0.130589 -1.087455,-3e-6 z"
       id="path5557"
       inkscape:connector-curvature="0" />
    <path
       style="fill:none;stroke:#000000;stroke-width:0.26458332px;stroke-linecap:butt;stroke-linejoin:miter;stroke-opacity:1"
       d="m 47.317244,41.491436 c -0.316435,0.179162 -0.308801,0.560488 -0.292326,0.923749 0.01675,0.369207 -0.04668,0.750599 0.280634,0.900366 0.330227,0.1511 0.881721,0.132115 1.122532,-0.07016 0.182981,-0.1537 0.210905,-0.394349 0.210476,-0.830208 -3.23e-4,-0.327774 0.01641,-0.767588 -0.233861,-0.923748 -0.209201,-0.130533 -0.856814,-0.130589 -1.087455,-3e-6 z"
       id="path5555"
       inkscape:connector-curvature="0" />
    <path
       style="fill:none;stroke:#000000;stroke-width:0.26458332px;stroke-linecap:butt;stroke-linejoin:miter;stroke-opacity:1"
       d="m 45.075056,41.616957 c -0.316435,0.179162 -0.308801,0.560488 -0.292326,0.923749 0.01675,0.369207 -0.04668,0.750599 0.280634,0.900366 0.330227,0.1511 0.881721,0.132115 1.122532,-0.07016 0.182981,-0.1537 0.210905,-0.394349 0.210476,-0.830208 -3.23e-4,-0.327774 0.01641,-0.767588 -0.233861,-0.923748 -0.209201,-0.130533 -0.856814,-0.130589 -1.087455,-3e-6 z"
       id="path5553"
       inkscape:connector-curvature="0" />
    <path
       style="fill:none;stroke:#000000;stroke-width:0.26458332px;stroke-linecap:butt;stroke-linejoin:miter;stroke-opacity:1"
       d="m 42.816983,43.65713 c -0.316435,-0.179162 -0.308801,-0.560488 -0.292326,-0.923749 0.01675,-0.369207 -0.04668,-0.750599 0.280634,-0.900366 0.330227,-0.1511 0.881721,-0.132115 1.122532,0.07016 0.182981,0.1537 0.210905,0.394349 0.210476,0.830208 -3.23e-4,0.327774 0.01641,0.767588 -0.233861,0.923748 -0.209201,0.130533 -0.856814,0.130589 -1.087455,3e-6 z"
       id="path5551"
       inkscape:connector-curvature="0" />
    <path
       style="fill:none;stroke:#000000;stroke-width:0.26458332px;stroke-linecap:butt;stroke-linejoin:miter;stroke-opacity:1"
       d="m 40.510994,42.10029 c -0.316435,0.179162 -0.308801,0.560488 -0.292326,0.923749 0.01675,0.369207 -0.04668,0.750599 0.280634,0.900366 0.330227,0.1511 0.881721,0.132115 1.122532,-0.07016 0.182981,-0.1537 0.210905,-0.394349 0.210476,-0.830208 -3.23e-4,-0.327774 0.01641,-0.767588 -0.233861,-0.923748 -0.209201,-0.130533 -0.856814,-0.130589 -1.087455,-3e-6 z"
       id="path5549"
       inkscape:connector-curvature="0" />
    <path
       style="fill:none;stroke:#000000;stroke-width:0.26458332px;stroke-linecap:butt;stroke-linejoin:miter;stroke-opacity:1"
       d="m 77.223309,46.275282 c -0.316435,0.179162 -0.308801,0.560488 -0.292326,0.923749 0.01675,0.369207 -0.04668,0.750599 0.280634,0.900366 0.330227,0.1511 0.881721,0.132115 1.122532,-0.07016 0.182981,-0.1537 0.210905,-0.394349 0.210476,-0.830208 -3.23e-4,-0.327774 0.01641,-0.767588 -0.233861,-0.923748 -0.209201,-0.130533 -0.856814,-0.130589 -1.087455,-3e-6 z"
       id="path5547"
       inkscape:connector-curvature="0" />
    <path
       style="fill:none;stroke:#000000;stroke-width:0.26458332px;stroke-linecap:butt;stroke-linejoin:miter;stroke-opacity:1"
       d="m 74.906257,46.45767 c -0.316435,0.179162 -0.308801,0.560488 -0.292326,0.923749 0.01675,0.369207 -0.04668,0.750599 0.280634,0.900366 0.330227,0.1511 0.881721,0.132115 1.122532,-0.07016 0.182981,-0.1537 0.210905,-0.394349 0.210476,-0.830208 -3.23e-4,-0.327774 0.01641,-0.767588 -0.233861,-0.923748 -0.209201,-0.130533 -0.856814,-0.130589 -1.087455,-3e-6 z"
       id="path5545"
       inkscape:connector-curvature="0" />
    <path
       style="fill:none;stroke:#000000;stroke-width:0.26458332px;stroke-linecap:butt;stroke-linejoin:miter;stroke-opacity:1"
       d="m 72.59723,46.60131 c -0.316435,0.179162 -0.308801,0.560488 -0.292326,0.923749 0.01675,0.369207 -0.04668,0.750599 0.280634,0.900366 0.330227,0.1511 0.881721,0.132115 1.122532,-0.07016 0.182981,-0.1537 0.210905,-0.394349 0.210476,-0.830208 -3.23e-4,-0.327774 0.01641,-0.767588 -0.233861,-0.923748 -0.209201,-0.130533 -0.856814,-0.130589 -1.087455,-3e-6 z"
       id="path5543"
       inkscape:connector-curvature="0" />
    <path
       style="fill:none;stroke:#000000;stroke-width:0.26458332px;stroke-linecap:butt;stroke-linejoin:miter;stroke-opacity:1"
       d="m 70.304253,46.815798 c -0.316435,0.179162 -0.308801,0.560488 -0.292326,0.923749 0.01675,0.369207 -0.04668,0.750599 0.280634,0.900366 0.330227,0.1511 0.881721,0.132115 1.122532,-0.07016 0.182981,-0.1537 0.210905,-0.394349 0.210476,-0.830208 -3.23e-4,-0.327774 0.01641,-0.767588 -0.233861,-0.923748 -0.209201,-0.130533 -0.856814,-0.130589 -1.087455,-3e-6 z"
       id="path5541"
       inkscape:connector-curvature="0" />
    <path
       style="fill:none;stroke:#000000;stroke-width:0.26458332px;stroke-linecap:butt;stroke-linejoin:miter;stroke-opacity:1"
       d="m 61.127743,47.501331 c -0.316435,0.179162 -0.308801,0.560488 -0.292326,0.923749 0.01675,0.369207 -0.04668,0.750599 0.280634,0.900366 0.330227,0.1511 0.881721,0.132115 1.122532,-0.07016 0.182981,-0.1537 0.210905,-0.394349 0.210476,-0.830208 -3.23e-4,-0.327774 0.01641,-0.767588 -0.233861,-0.923748 -0.209201,-0.130533 -0.856814,-0.130589 -1.087455,-3e-6 z"
       id="path5539"
       inkscape:connector-curvature="0" />
    <path
       style="fill:none;stroke:#000000;stroke-width:0.26458332px;stroke-linecap:butt;stroke-linejoin:miter;stroke-opacity:1"
       d="m 58.849439,47.67466 c -0.316435,0.179162 -0.308801,0.560488 -0.292326,0.923749 0.01675,0.369207 -0.04668,0.750599 0.280634,0.900366 0.330227,0.1511 0.881721,0.132115 1.122532,-0.07016 0.182981,-0.1537 0.210905,-0.394349 0.210476,-0.830208 -3.23e-4,-0.327774 0.01641,-0.767588 -0.233861,-0.923748 -0.209201,-0.130533 -0.856814,-0.130589 -1.087455,-3e-6 z"
       id="path5537"
       inkscape:connector-curvature="0" />
    <path
       style="fill:none;stroke:#000000;stroke-width:0.26458332px;stroke-linecap:butt;stroke-linejoin:miter;stroke-opacity:1"
       d="m 56.516339,47.845699 c -0.316435,0.179162 -0.308801,0.560488 -0.292326,0.923749 0.01675,0.369207 -0.04668,0.750599 0.280634,0.900366 0.330227,0.1511 0.881721,0.132115 1.122532,-0.07016 0.182981,-0.1537 0.210905,-0.394349 0.210476,-0.830208 -3.23e-4,-0.327774 0.01641,-0.767588 -0.233861,-0.923748 -0.209201,-0.130533 -0.856814,-0.130589 -1.087455,-3e-6 z"
       id="path5535"
       inkscape:connector-curvature="0" />
    <path
       style="fill:none;stroke:#000000;stroke-width:0.26458332px;stroke-linecap:butt;stroke-linejoin:miter;stroke-opacity:1"
       d="m 54.105743,47.977989 c -0.316435,0.179162 -0.308801,0.560488 -0.292326,0.923749 0.01675,0.369207 -0.04668,0.750599 0.280634,0.900366 0.330227,0.1511 0.881721,0.132115 1.122532,-0.07016 0.182981,-0.1537 0.210905,-0.394349 0.210476,-0.830208 -3.23e-4,-0.327774 0.01641,-0.767588 -0.233861,-0.923748 -0.209201,-0.130533 -0.856814,-0.130589 -1.087455,-3e-6 z"
       id="path5533"
       inkscape:connector-curvature="0" />
    <path
       style="fill:none;stroke:#000000;stroke-width:0.26458332px;stroke-linecap:butt;stroke-linejoin:miter;stroke-opacity:1"
       d="m 42.802024,48.531232 c -0.316435,0.179162 -0.308801,0.560488 -0.292326,0.923749 0.01675,0.369207 -0.04668,0.750599 0.280634,0.900366 0.330227,0.1511 0.881721,0.132115 1.122532,-0.07016 0.182981,-0.1537 0.210905,-0.394349 0.210476,-0.830208 -3.23e-4,-0.327774 0.01641,-0.767588 -0.233861,-0.923748 -0.209201,-0.130533 -0.856814,-0.130589 -1.087455,-3e-6 z"
       id="path5531"
       inkscape:connector-curvature="0" />
    <path
       style="fill:none;stroke:#000000;stroke-width:0.26458332px;stroke-linecap:butt;stroke-linejoin:miter;stroke-opacity:1"
       d="m 40.554442,48.63945 c -0.316435,0.179162 -0.308801,0.560488 -0.292326,0.923749 0.01675,0.369207 -0.04668,0.750599 0.280634,0.900366 0.330227,0.1511 0.881721,0.132115 1.122532,-0.07016 0.182981,-0.1537 0.210905,-0.394349 0.210476,-0.830208 -3.23e-4,-0.327774 0.01641,-0.767588 -0.233861,-0.923748 -0.209201,-0.130533 -0.856814,-0.130589 -1.087455,-3e-6 z"
       id="path5529"
       inkscape:connector-curvature="0" />
    <path
       style="fill:none;stroke:#000000;stroke-width:0.26458332px;stroke-linecap:butt;stroke-linejoin:miter;stroke-opacity:1"
       d="m 38.166544,48.779765 c -0.316435,0.179162 -0.308802,0.560488 -0.292326,0.923749 0.01675,0.369207 -0.04668,0.750599 0.280634,0.900366 0.330227,0.1511 0.88172,0.132115 1.122531,-0.07016 0.182981,-0.1537 0.210905,-0.394349 0.210476,-0.830208 -3.23e-4,-0.327774 0.01641,-0.767588 -0.233861,-0.923748 -0.209201,-0.130533 -0.856813,-0.130589 -1.087454,-3e-6 z"
       id="path5527"
       inkscape:connector-curvature="0" />
    <path
       style="fill:none;stroke:#000000;stroke-width:0.26458332px;stroke-linecap:butt;stroke-linejoin:miter;stroke-opacity:1"
       d="m 111.75746,44.006566 1.44195,-0.0035 c 0.24432,-0.0018 0.48952,-0.01816 0.62417,0.137941 0.11509,0.130282 0.11314,0.350146 0.11518,0.639028 l -0.002,3.125199 c -0.004,0.147337 10e-4,0.467634 -0.14882,0.598963 -0.15628,0.13688 -0.3831,0.128935 -0.58141,0.139722 l -1.53605,-0.005 c -0.29283,0.0064 -0.59034,0.07449 -0.84259,-0.162429 -0.10603,-0.122251 -0.0863,-0.496071 -0.11153,-0.779911 0.007,-0.945688 0.0224,-2.521735 0.0213,-2.653316 0.003,-0.436233 -0.004,-0.666823 0.1195,-0.800276 0.14701,-0.15829 0.30322,-0.232212 0.90038,-0.236421 z"
       id="path5525"
       inkscape:connector-curvature="0" />
    <path
       style="fill:none;stroke:#000000;stroke-width:0.26458332px;stroke-linecap:butt;stroke-linejoin:miter;stroke-opacity:1"
       d="m 80.376938,45.89602 1.441952,-0.0035 c 0.244322,-0.0018 0.489526,-0.01816 0.624171,0.137941 0.115093,0.130282 0.113138,0.350146 0.115179,0.639028 l -0.0021,3.125199 c -0.0041,0.147337 0.0011,0.467634 -0.148821,0.598963 -0.156276,0.13688 -0.383101,0.128935 -0.58141,0.139722 l -1.536053,-0.005 c -0.292828,0.0064 -0.590336,0.07449 -0.842583,-0.162429 -0.106035,-0.122251 -0.08629,-0.496071 -0.111528,-0.779911 0.0071,-0.945688 0.02235,-2.521736 0.0213,-2.653317 0.0032,-0.436233 -0.0045,-0.666823 0.119492,-0.800276 0.147018,-0.158289 0.303225,-0.232211 0.900381,-0.23642 z"
       id="path5523"
       inkscape:connector-curvature="0" />
    <path
       style="fill:none;stroke:#000000;stroke-width:0.26458332px;stroke-linecap:butt;stroke-linejoin:miter;stroke-opacity:1"
       d="m 48.307552,48.173754 1.441952,-0.0035 c 0.244323,-0.0018 0.489526,-0.01816 0.624172,0.137941 0.115093,0.130282 0.113138,0.350146 0.115179,0.639028 l -0.0021,3.125199 c -0.0041,0.147337 0.0011,0.467634 -0.148821,0.598963 -0.156277,0.13688 -0.383102,0.128935 -0.58141,0.139722 l -1.536053,-0.005 c -0.292819,0.0064 -0.590327,0.07449 -0.842574,-0.16243 -0.106035,-0.122251 -0.08629,-0.496071 -0.111528,-0.779911 0.0071,-0.945688 0.02235,-2.521735 0.0213,-2.653316 0.0032,-0.436233 -0.0045,-0.666823 0.119492,-0.800276 0.147018,-0.158289 0.303225,-0.232211 0.900381,-0.23642 z"
       id="path5521"
       inkscape:connector-curvature="0" />
    <path
       style="fill:none;stroke:#000000;stroke-width:0.26458332px;stroke-linecap:butt;stroke-linejoin:miter;stroke-opacity:1"
       d="m 121.85359,36.367925 1.44196,-0.0035 c 0.24432,-0.0018 0.48952,-0.01816 0.62417,0.137941 0.11509,0.130282 0.11313,0.350146 0.11518,0.639028 l -0.002,3.125199 c -0.004,0.147337 0.001,0.467634 -0.14883,0.598963 -0.15627,0.13688 -0.3831,0.128935 -0.58141,0.139722 l -1.53605,-0.005 c -0.29283,0.0064 -0.59033,0.07449 -0.84258,-0.162431 -0.10604,-0.122251 -0.0863,-0.496071 -0.11153,-0.779911 0.007,-0.945688 0.0224,-2.521735 0.0213,-2.653316 0.003,-0.436232 -0.004,-0.666822 0.11949,-0.800275 0.14702,-0.158289 0.30323,-0.232211 0.90038,-0.23642 z"
       id="path5519"
       inkscape:connector-curvature="0" />
    <path
       style="fill:none;stroke:#000000;stroke-width:0.26458332px;stroke-linecap:butt;stroke-linejoin:miter;stroke-opacity:1"
       d="m 95.221002,37.987296 1.441952,-0.0035 c 0.244323,-0.0018 0.489526,-0.01816 0.624172,0.137941 0.115093,0.130282 0.113138,0.350146 0.115179,0.639028 l -0.0021,3.125199 c -0.0041,0.147337 0.0011,0.467634 -0.148821,0.598963 -0.156277,0.13688 -0.383102,0.128935 -0.58141,0.139722 l -1.536053,-0.005 c -0.292829,0.0064 -0.590337,0.07449 -0.842584,-0.16243 -0.106035,-0.122251 -0.08629,-0.496071 -0.111528,-0.779911 0.0071,-0.945688 0.02235,-2.521735 0.0213,-2.653316 0.0032,-0.436232 -0.0045,-0.666823 0.119492,-0.800276 0.147018,-0.158289 0.303225,-0.232211 0.900381,-0.23642 z"
       id="path5517"
       inkscape:connector-curvature="0" />
    <path
       style="fill:none;stroke:#000000;stroke-width:0.26458332px;stroke-linecap:butt;stroke-linejoin:miter;stroke-opacity:1"
       d="m 54.762053,40.912632 1.441952,-0.0035 c 0.244323,-0.0018 0.489526,-0.01816 0.624172,0.137941 0.115093,0.130282 0.113138,0.350146 0.115179,0.639028 l -0.0021,3.125199 c -0.0041,0.147337 0.0011,0.467634 -0.148821,0.598963 -0.156277,0.13688 -0.383102,0.128935 -0.58141,0.139722 l -1.536053,-0.005 c -0.292819,0.0064 -0.590327,0.07449 -0.842574,-0.162431 -0.106035,-0.122251 -0.08629,-0.496071 -0.111528,-0.779911 0.0071,-0.945688 0.02235,-2.521735 0.0213,-2.653316 0.0032,-0.436232 -0.0045,-0.666822 0.119492,-0.800275 0.147018,-0.158289 0.303225,-0.232211 0.900381,-0.23642 z"
       id="path5409"
       inkscape:connector-curvature="0" />
    <path
       inkscape:connector-curvature="0"
       style="fill:none;stroke:#000000;stroke-width:0.26458332px;stroke-linecap:butt;stroke-linejoin:miter;stroke-opacity:1"
       d="m 125.00213,36.685645 c -0.31644,0.179162 -0.30881,0.560488 -0.29233,0.923749 0.0168,0.369207 -0.0467,0.750599 0.28063,0.900366 0.33023,0.1511 0.88172,0.132115 1.12254,-0.07016 0.18298,-0.1537 0.2109,-0.394349 0.21047,-0.830208 -3.2e-4,-0.327774 0.0164,-0.767588 -0.23386,-0.923748 -0.2092,-0.130533 -0.85681,-0.130589 -1.08745,-3e-6 z"
       id="path5671-7" />
    <path
       style="opacity:1;fill:#ffffff;fill-opacity:1;fill-rule:nonzero;stroke:#000000;stroke-width:0.26458332px;stroke-linecap:butt;stroke-linejoin:miter;stroke-opacity:1"
       d="m 53.145052,57.291344 c -0.0038,-0.34329 0.07665,-0.51237 0.321673,-0.77382 0.415552,-0.32703 0.744679,-0.47888 1.085991,-0.59025 l 70.296884,-17.915902 1.92249,-0.444956 1.41253,-0.199913 c -1.6024,1.035772 -7.50865,3.317036 -8.42647,3.798767 L 91.227015,54.559078 61.057658,58.746743 c -0.983716,0.10585 -3.961902,0.45469 -4.653098,0.33962 -0.470733,-0.0784 -0.841979,-0.18897 -1.080432,-0.3881 -0.262492,-0.20781 -0.479264,-0.47651 -0.823027,-0.6022 -0.285305,-0.0422 -0.506471,-0.15257 -0.801146,-0.29786 -0.207906,-0.13041 -0.523711,-0.23476 -0.554903,-0.50681 z"
       id="path5677"
       inkscape:connector-curvature="0"
       sodipodi:nodetypes="ccccccccccccccc" />
    <path
       style="fill:#ffffff;fill-opacity:1;stroke:#000000;stroke-width:0.26458332px;stroke-linecap:butt;stroke-linejoin:miter;stroke-opacity:1"
       d="m 92.599607,52.866446 4.730618,-0.116009 c 0.552388,-0.01879 1.46354,-0.118783 1.745752,-0.173825 0.793885,-0.282793 1.280393,-0.802056 1.444843,-0.942262 -0.0144,-0.240976 0.009,-0.451634 -0.002,-0.668336 l -0.41677,0.0185 -1.778819,-0.167569 -1.637025,0.141791 -3.402952,0.283577 -0.696057,0.05156 z"
       id="path1317"
       inkscape:connector-curvature="0"
       sodipodi:nodetypes="ccccccccccc" />
    <path
       style="fill:none;stroke:#000000;stroke-width:0.26458332px;stroke-linecap:butt;stroke-linejoin:miter;stroke-opacity:1"
       d="m 119.18554,39.431279 0.38962,0.440483 c 0.0584,0.07027 0.22205,0.231467 0.32045,0.275038 0.12149,0.05584 0.75509,-0.168875 0.87222,-0.207353 l 6.06783,-1.862006 v 0 0"
       id="path1095"
       inkscape:connector-curvature="0"
       sodipodi:nodetypes="ccccccc" />
    <path
       style="fill:#ffffff;fill-opacity:1;stroke:#000000;stroke-width:0.26458332px;stroke-linecap:butt;stroke-linejoin:miter;stroke-opacity:1"
       d="m 125.96561,38.016965 c 0.29612,-0.311073 0.87446,-0.838012 1.15904,-1.095825 0.27202,-0.219363 0.43721,-0.424218 0.84415,-0.723463 0.0515,-0.0317 0.20655,-0.153349 0.32496,-0.21878 0.11762,-0.04885 0.30124,-0.029 0.35378,-0.03136 l 0.4662,-0.0057 c 0.0824,0.0078 0.26841,-0.01727 0.3373,0.01759 -0.0865,0.09646 -0.16283,0.189977 -0.2224,0.244849 l -0.78951,0.795157 0.0375,2.12941 -0.79647,0.0068 c -0.0654,-0.109752 -0.40509,-0.564149 -0.5896,-0.694662 -0.3536,-0.197516 -0.76172,-0.262508 -1.12495,-0.424021 z"
       id="path288"
       inkscape:connector-curvature="0"
       sodipodi:nodetypes="cccccccccccccc" />
    <path
       style="fill:#ffffff;fill-opacity:1;stroke:#000000;stroke-width:0.26458332px;stroke-linecap:butt;stroke-linejoin:miter;stroke-opacity:1"
       d="m 75.388389,54.617248 c 1.583798,0.225477 1.935147,0.316548 3.366982,0.472503 l 0.233754,1.225595 -2.791178,1.725444"
       id="path1099-0-6"
       inkscape:connector-curvature="0"
       sodipodi:nodetypes="cccc" />
    <path
       style="fill:#ffffff;fill-opacity:1;stroke:#000000;stroke-width:0.26458332px;stroke-linecap:butt;stroke-linejoin:miter;stroke-opacity:1"
       d="m 61.53844,56.450729 c -0.03241,0.173546 -0.037,0.787425 0.0563,1.100115 l 0.764596,3.116845 c 0.0966,0.311829 0.188022,0.718648 0.392485,0.93573 0.21525,0.199338 0.669642,0.528584 1.10041,0.598496 0.896968,0.148895 2.300556,0.168532 3.204679,0.143391 2.046109,-0.0569 3.337514,-0.594024 4.576188,-0.903054 1.155722,-0.412275 2.7962,-1.045538 3.449859,-1.385919 0.100197,-0.05218 0.666329,-0.535974 1.096583,-0.890971 0.320133,-0.264139 0.514181,-0.555912 0.585566,-0.892553 -0.04987,-0.540511 -0.148343,-0.984129 -0.255565,-1.603307 -0.09515,-0.485167 -0.147263,-1.317756 -0.302604,-1.878018 -0.06477,-0.233609 -0.360145,-0.502796 -0.496096,-0.618377 -0.116184,-0.10129 -0.739475,-0.351277 -1.07714,-0.45414 -0.629049,-0.191628 -3.04199,-0.367363 -4.432701,-0.372688 -2.519816,-0.0096 -3.410197,0.166182 -4.727246,0.544322 -1.317049,0.37814 -1.755471,0.658461 -3.126485,1.48927 -0.574555,0.381924 -0.773555,0.747768 -0.808831,1.070866 z"
       id="path1097"
       inkscape:connector-curvature="0"
       sodipodi:nodetypes="cccccscssccscsssccc" />
    <path
       style="fill:#ffffff;fill-opacity:1;stroke:#000000;stroke-width:0.26458332px;stroke-linecap:butt;stroke-linejoin:miter;stroke-opacity:1"
       d="m 105.2824,49.480588 c 0.46446,0.100632 1.22333,0.204375 1.35345,0.451149 0.14692,0.246975 -0.91207,0.75138 -1.20521,0.812068 -3.53519,0.218176 -6.893979,0.408182 -10.395753,0.592938 l -2.242852,0.09023 3.63497,-1.327666 z"
       id="path1319"
       inkscape:connector-curvature="0"
       sodipodi:nodetypes="ccccccc" />
    <path
       style="fill:#ffffff;fill-opacity:1;stroke:#000000;stroke-width:0.26458332px;stroke-linecap:butt;stroke-linejoin:miter;stroke-opacity:1"
       d="m 107.66671,47.95725 c 0.25795,0.139967 1.49622,0.401791 1.35148,0.721324 -0.0885,0.17161 -0.79832,0.548766 -1.0666,0.570986 l -10.114611,1.061386"
       id="path1251"
       inkscape:connector-curvature="0"
       sodipodi:nodetypes="cccc" />
    <path
       style="fill:#ffffff;fill-opacity:1;stroke:#000000;stroke-width:0.26458332px;stroke-linecap:butt;stroke-linejoin:miter;stroke-opacity:1"
       d="m 90.331818,55.266918 3.007813,0.273436 4.529949,-1.385415 -0.06379,-1.276043 -1.268973,-0.108383 -5.721914,-0.292659 -0.720051,1.01172 z"
       id="path1315"
       inkscape:connector-curvature="0"
       sodipodi:nodetypes="cccccccc" />
    <path
       style="fill:#ffffff;fill-opacity:1;stroke:#000000;stroke-width:0.26458332px;stroke-linecap:butt;stroke-linejoin:miter;stroke-opacity:1"
       d="m 84.019442,50.245453 c 0.3254,-0.09331 1.062221,-0.56582 2.294813,-1.05441 0.637307,-0.252622 2.446001,-0.271854 3.720355,-0.530913 1.089444,-0.221469 3.010879,-1.352033 3.076599,-1.396654 0.29,-0.06854 2.114322,0.528865 3.102042,0.717472 1.45787,0.2048 2.066021,0.304649 4.327689,0.185009 1.62459,-0.07705 5.13033,-1.905907 6.28345,-1.971237 0.97099,-0.05501 2.39901,0.06109 3.32844,0.174274 0.91002,0.13972 3.26435,0.219486 2.66479,0.647568 -1.03024,0.492169 -1.70233,0.827326 -2.93386,0.978548 -0.68952,0.06723 -2.09431,0.136357 -4.38295,0.362133 l -7.971048,3.070379 -8.788131,1.156448 z"
       id="path1219"
       inkscape:connector-curvature="0"
       sodipodi:nodetypes="csscccsccccccc" />
    <path
       style="fill:#ffffff;fill-opacity:1;stroke:#000000;stroke-width:0.26458332px;stroke-linecap:butt;stroke-linejoin:miter;stroke-opacity:1"
       d="m 91.751647,50.870722 c 1.583798,0.225477 1.935147,0.316548 3.366982,0.472503 l 0.233754,1.225595 -2.791178,1.725444"
       id="path1099-0"
       inkscape:connector-curvature="0"
       sodipodi:nodetypes="cccc" />
    <path
       style="fill:#ffffff;fill-opacity:1;stroke:#000000;stroke-width:0.26458332px;stroke-linecap:butt;stroke-linejoin:miter;stroke-opacity:1"
       d="m 77.829385,52.429277 c -0.03241,0.173546 -0.037,0.787425 0.0563,1.100115 l 0.764596,3.116845 c 0.0966,0.311829 0.188022,0.718648 0.392485,0.93573 0.21525,0.199338 0.669642,0.528584 1.10041,0.598496 0.896968,0.148895 2.300556,0.168532 3.204679,0.143391 2.046109,-0.0569 3.337514,-0.594024 4.576189,-0.903054 1.155722,-0.412275 2.7962,-1.045538 3.449859,-1.385919 0.100197,-0.05218 0.666329,-0.535974 1.096583,-0.890971 0.320133,-0.264139 0.514181,-0.555912 0.585566,-0.892553 -0.04987,-0.540511 -0.148343,-0.984129 -0.255565,-1.603307 -0.09515,-0.485167 -0.147263,-1.317756 -0.302604,-1.878018 -0.06477,-0.233609 -0.360145,-0.502796 -0.496096,-0.618377 -0.116184,-0.10129 -0.739475,-0.351277 -1.07714,-0.45414 -0.629049,-0.191628 -3.04199,-0.367363 -4.432702,-0.372688 -2.519816,-0.0096 -3.410197,0.166182 -4.727246,0.544322 -1.317049,0.37814 -1.755471,0.658461 -3.126485,1.48927 -0.574555,0.381924 -0.773555,0.747768 -0.808831,1.070866 z"
       id="path1097-6"
       inkscape:connector-curvature="0"
       sodipodi:nodetypes="cccccscssccscsssccc" />
    <path
       style="fill:none;stroke:#000000;stroke-width:0.26458332px;stroke-linecap:butt;stroke-linejoin:miter;stroke-opacity:1"
       d="m 33.984399,57.449622 c -0.07455,0.114916 -0.167185,0.275987 -0.153689,0.482975 l 0.267953,5.038355 c 0.01746,0.172463 0.04708,0.262895 0.138793,0.362442 0.07805,0.09197 0.288311,0.148218 0.457658,0.132357 l 8.044744,-0.637222 c 0.216972,-0.0054 0.402848,-0.09417 0.597245,-0.244387 0.12775,-0.150245 0.147939,-0.39305 0.134489,-0.59931 l -0.268446,-4.761335 c -0.0094,-0.169735 -0.06709,-0.286753 -0.149033,-0.382928 -0.07604,-0.113439 -0.39889,-0.205236 -0.583836,-0.186745 l -7.899113,0.551331 c -0.226639,0.02207 -0.488883,0.123646 -0.586755,0.244468 z"
       id="path1366"
       inkscape:connector-curvature="0"
       sodipodi:nodetypes="cccccccccccccc" />
    <path
       style="fill:none;stroke:#000000;stroke-width:0.26458332px;stroke-linecap:butt;stroke-linejoin:miter;stroke-opacity:1"
       d="m 118.69479,49.508548 c -0.0746,0.114916 -0.16719,0.275987 -0.15369,0.482975 l 0.26795,5.038355 c 0.0175,0.172463 0.0471,0.262895 0.1388,0.362442 0.078,0.09197 0.28831,0.148218 0.45765,0.132357 l 7.77131,-1.493993 c 0.21536,-0.04568 0.56853,-0.378475 0.66141,-0.530304 0.1213,-0.19536 0.16576,-0.796619 0.1797,-1.006101 l -0.10438,-3.211856 c -0.009,-0.169735 -0.0671,-0.286753 -0.14904,-0.382928 -0.076,-0.113439 -0.39889,-0.205236 -0.58383,-0.186745 l -7.89912,0.551331 c -0.22663,0.02207 -0.48888,0.123646 -0.58675,0.244468 z"
       id="path1366-8"
       inkscape:connector-curvature="0"
       sodipodi:nodetypes="cccccccccccccc" />
  </g>
</svg>
