<?xml version="1.0" encoding="UTF-8" standalone="no"?>
<!-- Created with Inkscape (http://www.inkscape.org/) -->

<svg
   xmlns:dc="http://purl.org/dc/elements/1.1/"
   xmlns:cc="http://creativecommons.org/ns#"
   xmlns:rdf="http://www.w3.org/1999/02/22-rdf-syntax-ns#"
   xmlns:svg="http://www.w3.org/2000/svg"
   xmlns="http://www.w3.org/2000/svg"
   xmlns:sodipodi="http://sodipodi.sourceforge.net/DTD/sodipodi-0.dtd"
   xmlns:inkscape="http://www.inkscape.org/namespaces/inkscape"
   width="834.88538"
   height="953.27222"
   viewBox="0 0 220.89676 252.21994"
   version="1.1"
   id="svg7811"
   inkscape:version="0.92.2 (5c3e80d, 2017-08-06)"
   sodipodi:docname="boat-nz.svg">
  <defs
     id="defs7805" />
  <sodipodi:namedview
     id="base"
     pagecolor="#ffffff"
     bordercolor="#666666"
     borderopacity="1.0"
     inkscape:pageopacity="0.0"
     inkscape:pageshadow="2"
     inkscape:zoom="3.959798"
     inkscape:cx="722.30738"
     inkscape:cy="40.906739"
     inkscape:document-units="mm"
     inkscape:current-layer="layer1"
     showgrid="false"
     inkscape:window-width="1680"
     inkscape:window-height="987"
     inkscape:window-x="-8"
     inkscape:window-y="14"
     inkscape:window-maximized="1"
     units="px" />
  <metadata
     id="metadata7808">
    <rdf:RDF>
      <cc:Work
         rdf:about="">
        <dc:format>image/svg+xml</dc:format>
        <dc:type
           rdf:resource="http://purl.org/dc/dcmitype/StillImage" />
        <dc:title></dc:title>
      </cc:Work>
    </rdf:RDF>
  </metadata>
  <g
     inkscape:label="Calque 1"
     inkscape:groupmode="layer"
     id="layer1"
     transform="translate(-21.047758,50.908703)">
    <path
       style="fill:#ffffff;fill-opacity:1;stroke:#000000;stroke-width:1.05833328;stroke-linecap:butt;stroke-linejoin:miter;stroke-miterlimit:4;stroke-dasharray:none;stroke-opacity:1"
       d="M 224.23913,163.09796 145.92916,-1.5400623 127.75483,164.16704 Z"
       id="path8366"
       inkscape:connector-curvature="0" />
    <path
       style="fill:#ffffff;fill-opacity:1;stroke:#000000;stroke-width:1.05833328;stroke-linecap:butt;stroke-linejoin:miter;stroke-miterlimit:4;stroke-dasharray:none;stroke-opacity:1"
       d="m 140.22917,-50.360119 c -33.07353,1.339528 -42.504434,21.491572 -51.1557,57.7251449 L 62.994545,160.74952 l 82.996685,-5.2129 -0.0621,-157.0766823 z"
       id="path8374"
       inkscape:connector-curvature="0"
       sodipodi:nodetypes="cccccc" />
    <path
       style="fill:#000000;fill-opacity:1;stroke:#000000;stroke-width:1.05833328;stroke-linecap:butt;stroke-linejoin:miter;stroke-miterlimit:4;stroke-dasharray:none;stroke-opacity:1"
       d="m 23.636434,170.84688 30.413226,6.89027 c 20.622374,3.6387 33.831423,7.34188 50.60551,7.72524 61.95405,1.41591 99.88433,-1.67302 115.81119,-2.70347 2.08353,-0.23757 19.11218,-5.63863 20.72227,-7.40395 0.13809,-1.17571 0.21456,-2.47465 0.22666,-3.90234 -0.0703,-2.49873 0.0845,-3.42268 -2.20368,-3.42558 l -215.548664,0.0559 c -2.660926,-0.10495 -2.887942,0.58354 -0.02651,2.76393 z"
       id="path8356"
       inkscape:connector-curvature="0"
       sodipodi:nodetypes="ccsccccccc" />
    <path
       style="fill:none;stroke:#000000;stroke-width:1.58749998;stroke-linecap:butt;stroke-linejoin:miter;stroke-miterlimit:4;stroke-dasharray:none;stroke-opacity:1"
       d="M 146.4637,167.90882 145.89881,0.66666665 C 145.07418,-16.21627 143.25298,-33.477182 140.22917,-50.360119"
       id="path8358"
       inkscape:connector-curvature="0"
       sodipodi:nodetypes="ccc" />
    <path
       style="fill:#000004;fill-opacity:1;stroke:#000000;stroke-width:1.05833328;stroke-linecap:butt;stroke-linejoin:miter;stroke-miterlimit:4;stroke-dasharray:none;stroke-opacity:1"
       d="m 55.725697,178.06506 -2.539061,22.04973 c -0.206693,0.97817 0.544841,0.76574 0.70747,0.10716 l 7.44425,-21.22145"
       id="path8360"
       inkscape:connector-curvature="0"
       sodipodi:nodetypes="cccc" />
    <path
       style="fill:none;stroke:#000000;stroke-width:1.58749998;stroke-linecap:butt;stroke-linejoin:miter;stroke-miterlimit:4;stroke-dasharray:none;stroke-opacity:1"
       d="m 224.23913,163.09796 -96.4843,1.06908"
       id="path8364"
       inkscape:connector-curvature="0" />
    <path
       style="fill:none;stroke:#000000;stroke-width:1.05833328;stroke-linecap:butt;stroke-linejoin:miter;stroke-miterlimit:4;stroke-dasharray:none;stroke-opacity:1"
       d="m 147.26551,117.12761 54.52298,-0.53454"
       id="path8368"
       inkscape:connector-curvature="0" />
    <path
       style="fill:none;stroke:#000000;stroke-width:1.05833328;stroke-linecap:butt;stroke-linejoin:miter;stroke-miterlimit:4;stroke-dasharray:none;stroke-opacity:1"
       d="m 146.73097,74.364481 35.27958,0.267272"
       id="path8370"
       inkscape:connector-curvature="0" />
    <path
       style="fill:none;stroke:#000000;stroke-width:1.05833328;stroke-linecap:butt;stroke-linejoin:miter;stroke-miterlimit:4;stroke-dasharray:none;stroke-opacity:1"
       d="m 146.4637,27.859585 h 13.36347"
       id="path8372"
       inkscape:connector-curvature="0" />
    <path
       style="fill:#00000b;fill-opacity:1;stroke:#000000;stroke-width:0.26458332px;stroke-linecap:butt;stroke-linejoin:miter;stroke-opacity:1"
       d="m 62.994545,160.74952 82.996685,-5.2129 0.2723,-35.74259 -77.116754,3.55278 z"
       id="path8376"
       inkscape:connector-curvature="0"
       sodipodi:nodetypes="ccccc" />
    <path
       style="fill:none;stroke:#000000;stroke-width:1.05833328;stroke-linecap:butt;stroke-linejoin:miter;stroke-miterlimit:4;stroke-dasharray:none;stroke-opacity:1"
       d="M 72.505657,108.7577 145.3949,105.56193"
       id="path8380"
       inkscape:connector-curvature="0"
       sodipodi:nodetypes="cc" />
    <path
       style="fill:none;stroke:#000000;stroke-width:1.05833328;stroke-linecap:butt;stroke-linejoin:miter;stroke-miterlimit:4;stroke-dasharray:none;stroke-opacity:1"
       d="M 79.196402,70.248941 145.24456,67.375796"
       id="path8380-4"
       inkscape:connector-curvature="0"
       sodipodi:nodetypes="cc" />
    <path
       style="fill:none;stroke:#000000;stroke-width:1.05833328;stroke-linecap:butt;stroke-linejoin:miter;stroke-miterlimit:4;stroke-dasharray:none;stroke-opacity:1"
       d="M 86.898117,24.629758 145.14078,22.426177"
       id="path8380-1"
       inkscape:connector-curvature="0"
       sodipodi:nodetypes="cc" />
    <path
       style="fill:none;stroke:#000000;stroke-width:1.05833328;stroke-linecap:butt;stroke-linejoin:miter;stroke-miterlimit:4;stroke-dasharray:none;stroke-opacity:1"
       d="M 90.474771,4.2333682 145.03217,2.9274811"
       id="path8380-13"
       inkscape:connector-curvature="0"
       sodipodi:nodetypes="cc" />
    <path
       style="fill:none;stroke:#000000;stroke-width:1.05833328;stroke-linecap:butt;stroke-linejoin:miter;stroke-miterlimit:4;stroke-dasharray:none;stroke-opacity:1"
       d="M 92.893319,-4.2218315 144.71038,-5.2442364"
       id="path8380-13-4"
       inkscape:connector-curvature="0"
       sodipodi:nodetypes="cc" />
    <path
       style="fill:none;stroke:#000000;stroke-width:1.05833328;stroke-linecap:butt;stroke-linejoin:miter;stroke-miterlimit:4;stroke-dasharray:none;stroke-opacity:1"
       d="M 96.720328,-16.553305 143.4185,-17.670204"
       id="path8380-13-4-2"
       inkscape:connector-curvature="0"
       sodipodi:nodetypes="cc" />
    <path
       style="fill:none;stroke:#000000;stroke-width:1.05833328;stroke-linecap:butt;stroke-linejoin:miter;stroke-miterlimit:4;stroke-dasharray:none;stroke-opacity:1"
       d="m 103.4772,-30.467205 38.29296,-0.48885"
       id="path8380-13-4-8"
       inkscape:connector-curvature="0"
       sodipodi:nodetypes="cc" />
    <path
       style="fill:none;stroke:#000000;stroke-width:1.05833328;stroke-linecap:butt;stroke-linejoin:miter;stroke-miterlimit:4;stroke-dasharray:none;stroke-opacity:1"
       d="m 112.78432,-40.838275 27.83752,-0.33327"
       id="path8380-13-4-7"
       inkscape:connector-curvature="0"
       sodipodi:nodetypes="cc" />
    <path
       style="fill:#ffffff;fill-opacity:1;stroke:#000000;stroke-width:0.26458332px;stroke-linecap:butt;stroke-linejoin:miter;stroke-opacity:1"
       d="m 56.661423,178.45969 c 5.528362,-1.93848 10.650509,-4.2732 11.626223,-9.72193 l 0.601358,0.4009 c -0.759636,5.68582 -6.046772,7.67864 -11.325548,9.62171 z"
       id="path8455"
       inkscape:connector-curvature="0"
       sodipodi:nodetypes="ccccc" />
    <path
       style="fill:#fffffd;fill-opacity:1;stroke:none;stroke-width:0.26458332px;stroke-linecap:butt;stroke-linejoin:miter;stroke-opacity:1"
       d="m 57.72326,178.27831 c -0.219106,-0.45414 -0.477487,-0.70106 -1.068459,-0.84801 -0.636369,-0.15824 -2.319086,0.0632 -2.404198,-0.69933 l 0.283481,-0.51971 c 0.290936,0.51235 1.386672,0.86428 2.265354,0.69371 0.846008,-0.16421 1.224994,0.64241 1.549844,1.16073 z"
       id="path8457"
       inkscape:connector-curvature="0"
       sodipodi:nodetypes="csccscc" />
    <path
       style="fill:#fffffd;fill-opacity:1;stroke:none;stroke-width:0.26458332px;stroke-linecap:butt;stroke-linejoin:miter;stroke-opacity:1"
       d="m 59.057989,177.73498 c -1.297921,-0.9234 -1.304777,-1.18666 -2.672544,-1.08592 -0.729319,0.0537 -1.808029,-0.34974 -1.665339,-1.06921 l 0.411978,-0.63353 c 0.0547,0.52416 1.010237,1.05989 1.903878,1.00907 0.810572,-0.0461 2.335011,0.97778 2.742543,1.53154 z"
       id="path8457-0"
       inkscape:connector-curvature="0"
       sodipodi:nodetypes="csccscc" />
    <path
       style="fill:#fffffd;fill-opacity:1;stroke:none;stroke-width:0.26458332px;stroke-linecap:butt;stroke-linejoin:miter;stroke-opacity:1"
       d="m 60.392514,177.2217 c -1.368792,-0.87615 -1.989859,-1.67095 -3.357626,-1.57021 -0.729319,0.0537 -1.808029,-0.43242 -1.665339,-1.15189 l 0.624589,-1.0115 c 0.0547,0.52416 0.576349,1.77023 1.455031,1.59966 0.846008,-0.16421 3.327199,1.36757 3.652049,1.88589 z"
       id="path8457-0-0"
       inkscape:connector-curvature="0"
       sodipodi:nodetypes="csccscc" />
    <path
       style="fill:#fffffd;fill-opacity:1;stroke:none;stroke-width:0.26458332px;stroke-linecap:butt;stroke-linejoin:miter;stroke-opacity:1"
       d="m 61.698201,176.60749 c -1.297921,-0.9234 -2.663129,-2.00167 -4.030896,-1.90093 -0.729319,0.0537 -1.489112,-1.02301 -1.346422,-1.74248 l 0.884449,-0.68078 c 0.0547,0.52416 0.301378,1.75399 1.195171,1.70597 0.85782,-0.0461 3.776047,1.71011 4.100897,2.22843 z"
       id="path8457-0-0-8"
       inkscape:connector-curvature="0"
       sodipodi:nodetypes="csccscc" />
    <path
       style="fill:#fffffd;fill-opacity:1;stroke:none;stroke-width:0.26458332px;stroke-linecap:butt;stroke-linejoin:miter;stroke-opacity:1"
       d="m 63.032626,175.95572 c -1.297921,-0.9234 -2.734695,-2.33528 -4.102462,-2.23454 -0.729319,0.0537 -1.246798,-1.06655 -1.104108,-1.78602 l 0.889689,-0.29252 c 0.0547,0.52416 0.0378,1.30261 1.955322,1.91118 0.821421,0.26069 2.804472,1.43473 3.129322,1.95305 z"
       id="path8457-0-0-8-8"
       inkscape:connector-curvature="0"
       sodipodi:nodetypes="csccscc" />
    <path
       style="fill:#fffffd;fill-opacity:1;stroke:none;stroke-width:0.26458332px;stroke-linecap:butt;stroke-linejoin:miter;stroke-opacity:1"
       d="m 64.220354,175.11645 c -1.297921,-0.9234 -2.439749,-1.76411 -3.623768,-1.94734 -0.72269,-0.11184 -1.240573,-0.94306 -1.097883,-1.66253 l 1.107192,-0.16546 c 0.0547,0.52416 -0.287548,1.46476 1.028621,1.62232 0.855686,0.10243 2.993316,1.32758 3.318166,1.8459 z"
       id="path8457-0-0-8-8-1"
       inkscape:connector-curvature="0"
       sodipodi:nodetypes="csccscc" />
    <path
       style="fill:#fffffd;fill-opacity:1;stroke:none;stroke-width:0.26458332px;stroke-linecap:butt;stroke-linejoin:miter;stroke-opacity:1"
       d="m 65.295513,174.26621 c -1.297921,-0.9234 -1.505038,-1.44384 -2.28519,-1.44332 -0.729475,4.8e-4 -1.548076,-0.29558 -1.508603,-1.63436 l 0.90234,-0.0927 c 0.0547,0.52416 -0.148924,0.99706 0.873215,1.05318 0.858557,0.0471 2.302706,1.00614 2.627556,1.52446 z"
       id="path8457-0-0-8-8-2"
       inkscape:connector-curvature="0"
       sodipodi:nodetypes="csccscc" />
    <path
       style="fill:#fffffd;fill-opacity:1;stroke:none;stroke-width:0.26458332px;stroke-linecap:butt;stroke-linejoin:miter;stroke-opacity:1"
       d="m 66.555986,173.13681 c -0.589215,-0.94703 -1.388621,-1.01011 -2.103991,-1.08191 -0.598228,-0.06 -0.859115,-0.0477 -1.170433,-1.01898 l 1.08357,-0.12513 c 0.0547,0.52416 0.272465,0.72571 1.052735,0.71975 0.861768,-0.007 1.321173,0.40783 1.646023,0.92615 z"
       id="path8457-0-0-8-8-2-1"
       inkscape:connector-curvature="0"
       sodipodi:nodetypes="csccscc" />
    <path
       style="fill:#fffffd;fill-opacity:1;stroke:none;stroke-width:0.26458332px;stroke-linecap:butt;stroke-linejoin:miter;stroke-opacity:1"
       d="m 67.368775,171.98065 c -0.258486,-0.48637 -0.336834,-0.51637 -0.810604,-0.59762 -0.715197,-0.12266 -1.071725,0.21215 -1.583843,-0.58195 l 0.587476,-0.26687 c 0.113758,0.52416 0.443735,0.36545 0.934617,0.38902 0.860801,0.0413 0.996349,0.0772 1.321199,0.59543 z"
       id="path8457-0-0-8-8-2-1-5"
       inkscape:connector-curvature="0"
       sodipodi:nodetypes="csccscc" />
    <path
       style="fill:#fffffd;fill-opacity:1;stroke:none;stroke-width:0.26458332px;stroke-linecap:butt;stroke-linejoin:miter;stroke-opacity:1"
       d="m 67.808831,170.79827 c -0.199427,-0.19698 -0.410433,-0.27411 -0.692487,-0.1783 -0.308904,0.10493 -0.70556,0.18262 -1.093655,-0.31619 l 0.48117,-0.26687 c 0.261406,0.471 0.555388,0.0877 0.834217,0.0229 0.274709,-0.0638 0.606562,0.0713 0.783765,0.30013 z"
       id="path8457-0-0-8-8-2-1-5-1"
       inkscape:connector-curvature="0"
       sodipodi:nodetypes="csccscc" />
    <path
       style="fill:#fffffd;fill-opacity:1;stroke:none;stroke-width:0.26458332px;stroke-linecap:butt;stroke-linejoin:miter;stroke-opacity:1"
       d="m 68.142477,170.06505 c -0.02225,-0.47456 -0.359752,-0.23754 -0.633428,-0.22555 -0.288594,0.0126 -0.386643,0.20624 -0.745209,0.003 l 0.386677,-0.33774 c 0.208252,0.20524 0.119734,0.0198 0.462146,-0.007 0.320094,-0.0247 0.488444,-0.20041 0.943224,0.15248 z"
       id="path8457-0-0-8-8-2-1-5-1-9"
       inkscape:connector-curvature="0"
       sodipodi:nodetypes="csccscc" />
    <path
       style="fill:#fffffd;fill-opacity:1;stroke:none;stroke-width:0.26458332px;stroke-linecap:butt;stroke-linejoin:miter;stroke-opacity:1"
       d="m 68.401771,169.21388 c -0.08426,-0.11725 -0.322713,0.0579 -0.426723,0.0757 -0.19357,0.0331 -0.327584,0.0674 -0.520785,-0.0236 l 0.2095,-0.2462 c 0.134429,0.12846 0.325043,0.008 0.426711,-0.0129 0.144794,-0.0297 0.240397,-0.11772 0.376259,0.0107 z"
       id="path8457-0-0-8-8-2-1-5-1-9-4"
       inkscape:connector-curvature="0"
       sodipodi:nodetypes="csccscc" />
    <path
       style="fill:#ffffff;fill-opacity:1;stroke:none;stroke-width:0.26458332px;stroke-linecap:butt;stroke-linejoin:miter;stroke-opacity:1"
       d="m 68.603171,169.34998 c 0.07272,0.0141 0.198767,0.14496 0.290918,0.20559 0.06912,0.0455 0.107387,0.0411 0.18857,0.005 l -9.4e-5,-0.19978 c -0.07484,0.005 -0.108021,0.0476 -0.176336,0.009 -0.09012,-0.0511 -0.164833,-0.20964 -0.247583,-0.21921 z"
       id="path8621-7-1-6-9-8-5"
       inkscape:connector-curvature="0"
       sodipodi:nodetypes="csccscc" />
    <path
       style="fill:#ffffff;fill-opacity:1;stroke:none;stroke-width:0.26458332px;stroke-linecap:butt;stroke-linejoin:miter;stroke-opacity:1"
       d="m 68.563445,170.05279 c 0.06786,0.0131 0.130738,0.12516 0.193446,0.16647 0.08298,0.0547 0.23473,0.0246 0.331813,0.0485 l -0.01926,-0.25441 c -0.08402,0.004 -0.188323,0.003 -0.243447,-0.0221 -0.09031,-0.0409 -0.115745,-0.13123 -0.201143,-0.25919 z"
       id="path8621-7-1-6-9-8-5-3"
       inkscape:connector-curvature="0"
       sodipodi:nodetypes="csccscc" />
    <path
       style="fill:#ffffff;fill-opacity:1;stroke:none;stroke-width:0.26458332px;stroke-linecap:butt;stroke-linejoin:miter;stroke-opacity:1"
       d="m 68.443144,170.50994 c 0.05979,0.11556 0.161737,0.26493 0.252477,0.27216 0.164394,-0.0216 0.252423,-0.0737 0.365193,-0.11588 l 0.0017,0.27108 c -0.09638,0.0867 -0.188331,0.12552 -0.421641,0.1314 -0.172296,-0.005 -0.282799,-0.0617 -0.345109,-0.11052 z"
       id="path8764"
       inkscape:connector-curvature="0"
       sodipodi:nodetypes="ccccccc" />
    <path
       style="fill:#ffffff;fill-opacity:1;stroke:none;stroke-width:0.26458332px;stroke-linecap:butt;stroke-linejoin:miter;stroke-opacity:1"
       d="m 68.034948,171.49857 c 0.05979,0.11556 0.178528,0.36668 0.369668,0.37686 0.164394,-0.0216 0.562902,-0.37878 0.675672,-0.42096 l 0.0022,0.46099 c -0.09638,0.0867 -0.501676,0.38724 -0.734986,0.39312 -0.172296,-0.005 -0.489172,-0.2421 -0.551482,-0.2909 z"
       id="path8764-6"
       inkscape:connector-curvature="0"
       sodipodi:nodetypes="ccccccc" />
    <path
       style="fill:#ffffff;fill-opacity:1;stroke:none;stroke-width:0.26458332px;stroke-linecap:butt;stroke-linejoin:miter;stroke-opacity:1"
       d="m 67.421132,172.58479 -0.431129,0.5965 c 0.307663,0.12838 0.582376,0.22553 1.163455,0.28939 0.507622,-0.0346 0.585301,-0.23224 0.939805,-0.38561 l 0.04736,-0.47665 c -0.303224,0.0826 -0.582661,0.29033 -0.975359,0.34845 -0.450955,0.041 -0.556091,-0.21201 -0.744135,-0.37208 z"
       id="path8781"
       inkscape:connector-curvature="0"
       sodipodi:nodetypes="ccccccc" />
    <path
       style="fill:#ffffff;fill-opacity:1;stroke:none;stroke-width:0.26458332px;stroke-linecap:butt;stroke-linejoin:miter;stroke-opacity:1"
       d="m 66.345842,173.93158 c 0.314073,0.18812 0.295179,0.5094 1.086679,0.63784 0.609062,0.0502 1.048276,-0.16503 1.500094,-0.55516 l -0.236234,0.85046 c -0.458132,0.19783 -0.577731,0.47023 -1.488282,0.36616 -0.883648,-0.25592 -1.098882,-0.47641 -1.535529,-0.73233 z"
       id="path8783"
       inkscape:connector-curvature="0"
       sodipodi:nodetypes="ccccccc" />
    <path
       style="fill:#ffffff;fill-opacity:1;stroke:none;stroke-width:0.26458332px;stroke-linecap:butt;stroke-linejoin:miter;stroke-opacity:1"
       d="m 65.113821,174.95178 c 0.381351,0.42647 0.610651,0.7748 1.731519,0.98377 0.535994,0.0611 1.124722,-0.0851 1.575942,-0.25713 l -0.247945,0.63173 c -0.363452,0.22194 -0.863881,0.22543 -1.83276,0.23367 -0.935397,-0.17557 -1.336006,-0.70715 -1.803056,-1.21619 z"
       id="path8785"
       inkscape:connector-curvature="0"
       sodipodi:nodetypes="ccccccc" />
    <path
       style="fill:#ffffff;fill-opacity:1;stroke:none;stroke-width:0.26458332px;stroke-linecap:butt;stroke-linejoin:miter;stroke-opacity:1"
       d="m 63.977583,175.7506 c 0.55961,0.50591 0.601025,0.99578 1.677271,1.52962 0.705309,0.0795 1.444846,-0.1301 2.01981,-0.22443 l -0.348446,0.64965 c -0.292168,0.18424 -0.825794,0.33365 -2.196987,0.21852 -1.098375,-0.39622 -1.206483,-1.11973 -1.8072,-1.79539 z"
       id="path8787"
       inkscape:connector-curvature="0"
       sodipodi:nodetypes="ccccccc" />
    <path
       style="fill:#ffffff;fill-opacity:1;stroke:none;stroke-width:0.26458332px;stroke-linecap:butt;stroke-linejoin:miter;stroke-opacity:1"
       d="m 62.601515,176.50655 c 0.195089,0.55712 0.359012,1.11627 0.883682,1.54346 0.528456,0.2786 1.349468,0.54321 2.405001,0.52476 l -1.112977,0.39497 c -0.823451,-0.0121 -1.700722,-0.32869 -2.025367,-0.54029 -0.323665,-0.28777 -0.711539,-1.05603 -0.805892,-1.58623 z"
       id="path8789"
       inkscape:connector-curvature="0"
       sodipodi:nodetypes="ccccccc" />
    <path
       style="fill:#ffffff;fill-opacity:1;stroke:none;stroke-width:0.26458332px;stroke-linecap:butt;stroke-linejoin:miter;stroke-opacity:1"
       d="m 61.146539,177.1651 c 0.330975,0.56944 0.04716,0.93509 0.85192,1.52427 0.415431,0.33484 1.142278,0.44344 1.720548,0.51367 l -1.002261,0.2088 c -0.60443,-0.10202 -1.235955,-0.28799 -1.570206,-0.70994 -0.371524,-0.47329 -0.377129,-0.8213 -0.551245,-1.29458 z"
       id="path8791"
       inkscape:connector-curvature="0"
       sodipodi:nodetypes="ccccccc" />
    <path
       style="fill:#ffffff;fill-opacity:1;stroke:none;stroke-width:0.26458332px;stroke-linecap:butt;stroke-linejoin:miter;stroke-opacity:1"
       d="m 59.34247,177.9168 c 0.02002,0.40986 0.208448,0.80676 0.517834,1.19436 l 0.534541,0.29233 1.035669,0.0835 -0.927092,-0.61806 c -0.417605,-0.39534 -0.582493,-0.79067 -0.668174,-1.18601 z"
       id="path8801"
       inkscape:connector-curvature="0"
       sodipodi:nodetypes="ccccccc" />
    <path
       style="fill:#ffffff;fill-opacity:1;stroke:none;stroke-width:0.26458332px;stroke-linecap:butt;stroke-linejoin:miter;stroke-opacity:1"
       d="m 58.381969,178.29265 c -0.02793,0.21437 -0.0049,0.42874 0.275621,0.64311 l 0.584653,0.33409 -0.92709,-0.25056 c -0.249431,-0.1527 -0.379745,-0.30359 -0.434314,-0.5429 z"
       id="path8803"
       inkscape:connector-curvature="0"
       sodipodi:nodetypes="cccccc" />
    <text
       xml:space="preserve"
       style="font-style:normal;font-weight:normal;font-size:7.28033543px;line-height:1.25;font-family:sans-serif;letter-spacing:0px;word-spacing:0px;fill:#ffffff;fill-opacity:1;stroke:none;stroke-width:0.18200837"
       x="67.688881"
       y="191.93866"
       id="text8807"
       transform="scale(1.0828271,0.92350847)"><tspan
         sodipodi:role="line"
         id="tspan8805"
         x="67.688881"
         y="191.93866"
         style="fill:#ffffff;fill-opacity:1;stroke-width:0.18200837">NEW ZEALAND</tspan></text>
    <path
       style="fill:#ffffff;fill-opacity:1;stroke:#000000;stroke-width:0.28897348px;stroke-linecap:butt;stroke-linejoin:miter;stroke-opacity:1"
       d="m 17.726577,178.23594 c 7.063162,4.28704 16.707374,2.75062 22.165104,2.32714 4.003265,-2.88204 7.005461,-1.568 10.20212,-1.06908 8.07668,3.62529 16.15336,2.29209 24.23004,2.6727 5.391333,-3.37014 8.244223,-1.42022 12.115017,-1.60362 3.582213,3.10712 8.108195,3.8407 13.390282,2.6727 5.44774,-3.34649 12.08741,-5.02761 20.08543,-4.81085 3.7976,3.75231 9.48757,5.60094 17.53489,5.07812 6.69515,-4.73805 13.39029,-4.04874 20.08543,-5.61266 2.67159,4.53118 8.49362,6.42129 16.25964,6.68173 8.75309,-7.45167 13.19329,-5.04769 20.40424,-6.68173 1.9765,3.85492 6.64066,5.39256 11.15857,4.27631 8.28922,-6.53724 16.57844,-5.10101 24.86766,-7.21628 1.74522,7.08432 14.63536,5.85383 18.64822,7.86882 l -3.2e-4,21.26355 -231.143487,-0.40089 z"
       id="path8832"
       inkscape:connector-curvature="0"
       sodipodi:nodetypes="ccccccccccccccccc" />
    <path
       style="fill:#ffffff;fill-opacity:1;stroke:#000000;stroke-width:0.26458332px;stroke-linecap:butt;stroke-linejoin:miter;stroke-opacity:1"
       d="m 191.99455,181.16477 c 0.66936,-4.29533 0.38735,-8.79095 7.55953,-11.71726 5.71868,-0.93821 16.11379,3.70302 15.49309,11.37008 -2.34084,-1.63108 -4.51459,-4.20979 -10.61807,-3.1044 l -3.6114,4.67329 z"
       id="path8809"
       inkscape:connector-curvature="0"
       sodipodi:nodetypes="cccccc" />
    <path
       style="fill:#ffffff;fill-opacity:1;stroke:#000000;stroke-width:0.26458332px;stroke-linecap:butt;stroke-linejoin:miter;stroke-opacity:1"
       d="m 145.10034,181.34197 c 0.66936,-4.29533 0.38735,-8.79095 7.55953,-11.71726 11.59861,-0.80458 16.11379,3.83665 15.49309,11.50371 -3.27628,-3.23469 -4.64822,-3.14071 -10.61807,-3.23803 l -3.6114,4.67329 z"
       id="path8809-2"
       inkscape:connector-curvature="0"
       sodipodi:nodetypes="cccccc" />
  </g>
</svg>
