<?xml version="1.0" encoding="UTF-8" standalone="no"?>
<!-- Created with Inkscape (http://www.inkscape.org/) -->

<svg
   xmlns:dc="http://purl.org/dc/elements/1.1/"
   xmlns:cc="http://creativecommons.org/ns#"
   xmlns:rdf="http://www.w3.org/1999/02/22-rdf-syntax-ns#"
   xmlns:svg="http://www.w3.org/2000/svg"
   xmlns="http://www.w3.org/2000/svg"
   xmlns:xlink="http://www.w3.org/1999/xlink"
   xmlns:sodipodi="http://sodipodi.sourceforge.net/DTD/sodipodi-0.dtd"
   xmlns:inkscape="http://www.inkscape.org/namespaces/inkscape"
   width="622.45288"
   height="258.98511"
   viewBox="0 0 164.69066 68.52314"
   version="1.1"
   id="svg4032"
   inkscape:version="0.92.2 (5c3e80d, 2017-08-06)"
   sodipodi:docname="fishing-boat.svg">
  <defs
     id="defs4026">
    <linearGradient
       inkscape:collect="always"
       id="linearGradient7469">
      <stop
         style="stop-color:#ff311a;stop-opacity:1;"
         offset="0"
         id="stop7465" />
      <stop
         style="stop-color:#ff311a;stop-opacity:0;"
         offset="1"
         id="stop7467" />
    </linearGradient>
    <linearGradient
       inkscape:collect="always"
       xlink:href="#linearGradient7469"
       id="linearGradient7471"
       x1="93.636086"
       y1="69.032509"
       x2="85.91378"
       y2="149.21336"
       gradientUnits="userSpaceOnUse" />
  </defs>
  <sodipodi:namedview
     id="base"
     pagecolor="#ffffff"
     bordercolor="#666666"
     borderopacity="1.0"
     inkscape:pageopacity="0.0"
     inkscape:pageshadow="2"
     inkscape:zoom="0.7"
     inkscape:cx="341.18568"
     inkscape:cy="-245.32325"
     inkscape:document-units="mm"
     inkscape:current-layer="layer1"
     showgrid="false"
     inkscape:window-width="1920"
     inkscape:window-height="1017"
     inkscape:window-x="1912"
     inkscape:window-y="103"
     inkscape:window-maximized="1"
     units="px" />
  <metadata
     id="metadata4029">
    <rdf:RDF>
      <cc:Work
         rdf:about="">
        <dc:format>image/svg+xml</dc:format>
        <dc:type
           rdf:resource="http://purl.org/dc/dcmitype/StillImage" />
        <dc:title />
      </cc:Work>
    </rdf:RDF>
  </metadata>
  <g
     inkscape:label="Calque 1"
     inkscape:groupmode="layer"
     id="layer1"
     transform="translate(-36.44041,-64.794798)">
    <path
       style="fill:none;stroke:#000000;stroke-width:0.5291667;stroke-linecap:butt;stroke-linejoin:miter;stroke-miterlimit:4;stroke-dasharray:none;stroke-opacity:1"
       d="m 124.07068,98.373511 0.0253,13.614669"
       id="path4711"
       inkscape:connector-curvature="0"
       sodipodi:nodetypes="cc" />
    <path
       style="fill:none;stroke:#000000;stroke-width:0.45119235px;stroke-linecap:butt;stroke-linejoin:miter;stroke-opacity:1"
       d="m 197.39412,124.94125 c 0,0 -2.57191,-0.39961 -4.00263,-0.3342 -1.41352,0.0646 -4.01917,0.6947 -4.01917,0.6947"
       id="path4581-7"
       inkscape:connector-curvature="0"
       sodipodi:nodetypes="cac" />
    <path
       style="fill:none;stroke:#000000;stroke-width:0.45119235px;stroke-linecap:butt;stroke-linejoin:miter;stroke-opacity:1"
       d="m 199.35207,128.74401 c 0,0 1.52068,-0.99052 1.55264,-1.49789 0.0322,-0.50126 -1.35586,-1.34783 -1.35586,-1.34783"
       id="path4581-9-7"
       inkscape:connector-curvature="0"
       sodipodi:nodetypes="cac" />
    <path
       style="fill:none;stroke:#000000;stroke-width:0.45119235px;stroke-linecap:butt;stroke-linejoin:miter;stroke-opacity:1"
       d="m 189.05089,129.85953 c 0,0 2.5719,0.39961 4.00264,0.3342 1.4135,-0.0645 4.01914,-0.69469 4.01914,-0.69469"
       id="path4581-0-7"
       inkscape:connector-curvature="0"
       sodipodi:nodetypes="cac" />
    <path
       style="fill:none;stroke:#000000;stroke-width:0.45119235px;stroke-linecap:butt;stroke-linejoin:miter;stroke-opacity:1"
       d="m 187.24941,126.38545 c 0,0 -1.5207,0.99058 -1.55271,1.49797 -0.0322,0.50125 1.35587,1.34784 1.35587,1.34784"
       id="path4581-5-0"
       inkscape:connector-curvature="0"
       sodipodi:nodetypes="cac" />
    <path
       style="fill:none;stroke:#000000;stroke-width:0.29711777px;stroke-linecap:butt;stroke-linejoin:miter;stroke-opacity:1"
       d="m 197.69346,126.36398 c 0,0 -1.06571,-0.53137 -1.89075,-0.64233 -0.81568,-0.1093 -2.73273,0.0175 -2.73273,0.0175"
       id="path4581-55-1"
       inkscape:connector-curvature="0"
       sodipodi:nodetypes="cac" />
    <path
       style="fill:none;stroke:#000000;stroke-width:0.29711777px;stroke-linecap:butt;stroke-linejoin:miter;stroke-opacity:1"
       d="m 195.67221,129.01811 c 0,0 1.62309,-0.47447 2.05108,-0.79729 0.42296,-0.31883 0.35901,-1.01136 0.35901,-1.01136"
       id="path4581-9-4-2"
       inkscape:connector-curvature="0"
       sodipodi:nodetypes="cac" />
    <path
       style="fill:none;stroke:#000000;stroke-width:0.29711777px;stroke-linecap:butt;stroke-linejoin:miter;stroke-opacity:1"
       d="m 189.20666,128.63518 c 0,0 1.0658,0.53139 1.89081,0.64237 0.81563,0.1093 2.73269,-0.0175 2.73269,-0.0175"
       id="path4581-0-1-1"
       inkscape:connector-curvature="0"
       sodipodi:nodetypes="cac" />
    <path
       style="fill:none;stroke:#000000;stroke-width:0.29711777px;stroke-linecap:butt;stroke-linejoin:miter;stroke-opacity:1"
       d="m 191.04628,126.20915 c 0,0 -1.623,0.47443 -2.05106,0.79729 -0.42299,0.31885 -0.35901,1.01137 -0.35901,1.01137"
       id="path4581-5-8-9"
       inkscape:connector-curvature="0"
       sodipodi:nodetypes="cac" />
    <path
       style="fill:none;stroke:#000000;stroke-width:0.15256445px;stroke-linecap:butt;stroke-linejoin:miter;stroke-opacity:1"
       d="m 194.71627,126.68209 c 0,0 -0.82284,-0.14698 -1.28137,-0.126 -0.45278,0.0205 -1.28911,0.24126 -1.28911,0.24126"
       id="path4581-51-8"
       inkscape:connector-curvature="0"
       sodipodi:nodetypes="cac" />
    <path
       style="fill:none;stroke:#000000;stroke-width:0.15256445px;stroke-linecap:butt;stroke-linejoin:miter;stroke-opacity:1"
       d="m 195.33446,128.04255 c 0,0 0.48945,-0.35105 0.50104,-0.53201 0.0122,-0.17894 -0.43127,-0.48328 -0.43127,-0.48328"
       id="path4581-9-5-0"
       inkscape:connector-curvature="0"
       sodipodi:nodetypes="cac" />
    <path
       style="fill:none;stroke:#000000;stroke-width:0.15256445px;stroke-linecap:butt;stroke-linejoin:miter;stroke-opacity:1"
       d="m 192.03188,128.4236 c 0,0 0.82287,0.14699 1.28138,0.126 0.4528,-0.0206 1.28913,-0.24129 1.28913,-0.24129"
       id="path4581-0-9-6"
       inkscape:connector-curvature="0"
       sodipodi:nodetypes="cac" />
    <path
       style="fill:none;stroke:#000000;stroke-width:0.15256445px;stroke-linecap:butt;stroke-linejoin:miter;stroke-opacity:1"
       d="m 191.46296,127.18074 c 0,0 -0.48939,0.35105 -0.501,0.532 -0.01,0.17894 0.43123,0.48328 0.43123,0.48328"
       id="path4581-5-3-1"
       inkscape:connector-curvature="0"
       sodipodi:nodetypes="cac" />
    <path
       style="fill:url(#linearGradient7471);fill-opacity:1;stroke:#000000;stroke-width:1.05833328;stroke-linecap:butt;stroke-linejoin:miter;stroke-miterlimit:4;stroke-dasharray:none;stroke-opacity:1"
       d="m 37.371317,99.66782 13.787613,27.13647 79.67037,4.72366 15.47829,-16.68269 z"
       id="path4577"
       inkscape:connector-curvature="0" />
    <path
       style="fill:none;stroke:#000000;stroke-width:0.5291667;stroke-linecap:butt;stroke-linejoin:miter;stroke-miterlimit:4;stroke-dasharray:none;stroke-opacity:1"
       d="m 130.96875,108.95684 c 4.44647,-5.47295 8.44779,-10.765517 12.65003,-15.697121 11.06215,-12.982146 23.51663,-23.462912 49.14908,-28.148114 l 0.56696,62.744045"
       id="path4579"
       inkscape:connector-curvature="0"
       sodipodi:nodetypes="cscc" />
    <path
       style="fill:#0095de;fill-opacity:1;stroke:#000000;stroke-width:1.05833333;stroke-linecap:butt;stroke-linejoin:miter;stroke-opacity:1;stroke-miterlimit:4;stroke-dasharray:none"
       d="m 95.393444,130.95013 c 0,0 12.144416,-4.98442 16.592486,-4.60173 3.68389,0.31695 6.59348,4.23294 10.28988,4.14268 3.72605,-0.091 6.43164,-4.53911 10.15624,-4.67721 3.94398,-0.14624 7.14516,4.10684 11.09169,4.14267 2.40903,0.0219 4.41307,-2.58673 6.81537,-2.40542 2.26535,0.17098 9.03737,5.66408 9.03737,5.66408"
       id="path4707"
       inkscape:connector-curvature="0"
       sodipodi:nodetypes="csssssc" />
    <ellipse
       style="opacity:1;fill:#ffffff;fill-opacity:1;fill-rule:nonzero;stroke:#000000;stroke-width:0.52916664;stroke-miterlimit:4;stroke-dasharray:none;stroke-dashoffset:0;stroke-opacity:1"
       id="path4709"
       cx="124.28033"
       cy="95.478775"
       rx="3.0735996"
       ry="2.9399648" />
    <path
       style="fill:none;stroke:#000000;stroke-width:0.5291667;stroke-linecap:butt;stroke-linejoin:miter;stroke-miterlimit:4;stroke-dasharray:none;stroke-opacity:1"
       d="m 125.34635,103.09821 5.95313,3.68527"
       id="path4713"
       inkscape:connector-curvature="0" />
  </g>
</svg>
