<?xml version="1.0" encoding="UTF-8" standalone="no"?>
<!-- Created with Inkscape (http://www.inkscape.org/) -->

<svg
   xmlns:dc="http://purl.org/dc/elements/1.1/"
   xmlns:cc="http://creativecommons.org/ns#"
   xmlns:rdf="http://www.w3.org/1999/02/22-rdf-syntax-ns#"
   xmlns:svg="http://www.w3.org/2000/svg"
   xmlns="http://www.w3.org/2000/svg"
   xmlns:sodipodi="http://sodipodi.sourceforge.net/DTD/sodipodi-0.dtd"
   xmlns:inkscape="http://www.inkscape.org/namespaces/inkscape"
   width="955.82233"
   height="710.03406"
   viewBox="0 0 252.89465 187.86317"
   version="1.1"
   id="svg5809"
   inkscape:version="0.92.2 (5c3e80d, 2017-08-06)"
   sodipodi:docname="gollum-waterfall.svg">
  <defs
     id="defs5803" />
  <sodipodi:namedview
     id="base"
     pagecolor="#ffffff"
     bordercolor="#666666"
     borderopacity="1.0"
     inkscape:pageopacity="0.0"
     inkscape:pageshadow="2"
     inkscape:zoom="0.7"
     inkscape:cx="668.72431"
     inkscape:cy="408.65932"
     inkscape:document-units="mm"
     inkscape:current-layer="layer1"
     showgrid="false"
     showguides="false"
     inkscape:window-width="1920"
     inkscape:window-height="1017"
     inkscape:window-x="1912"
     inkscape:window-y="103"
     inkscape:window-maximized="1"
     units="px" />
  <metadata
     id="metadata5806">
    <rdf:RDF>
      <cc:Work
         rdf:about="">
        <dc:format>image/svg+xml</dc:format>
        <dc:type
           rdf:resource="http://purl.org/dc/dcmitype/StillImage" />
        <dc:title></dc:title>
      </cc:Work>
    </rdf:RDF>
  </metadata>
  <g
     inkscape:label="Calque 1"
     inkscape:groupmode="layer"
     id="layer1"
     transform="translate(12.163883,-89.653813)">
    <path
       style="fill:none;stroke:#0066d8;stroke-width:1.05833328;stroke-linecap:butt;stroke-linejoin:miter;stroke-miterlimit:4;stroke-dasharray:none;stroke-opacity:1"
       d="m 98.055808,113.86691 c 0,0 -12.530606,-1.19645 -21.893463,5.85862 -6.237037,4.69971 -7.559932,14.5003 -7.181546,22.3006 0.445676,9.18748 5.252229,20.13566 5.348649,29.33344 0.139794,13.3354 -16.700652,19.16725 -17.791743,34.10171 -1.390757,19.03617 -29.122208,29.48674 -29.122208,29.48674"
       id="path6389"
       inkscape:connector-curvature="0"
       sodipodi:nodetypes="cssssc" />
    <path
       style="fill:none;stroke:#0066d8;stroke-width:1.05833328;stroke-linecap:butt;stroke-linejoin:miter;stroke-miterlimit:4;stroke-dasharray:none;stroke-opacity:1"
       d="m 124.20337,133.23901 c 0,0 -4.49885,14.82926 -5.29167,22.48959 -1.46582,14.16303 4.03653,28.77865 1.06063,42.70288 -1.27027,5.94361 -7.8642,16.45039 -7.8642,16.45039"
       id="path6409"
       inkscape:connector-curvature="0"
       sodipodi:nodetypes="cssc" />
    <path
       style="fill:#ffffff;fill-opacity:1;stroke:#000000;stroke-width:1.05833328;stroke-linecap:butt;stroke-linejoin:miter;stroke-miterlimit:4;stroke-dasharray:none;stroke-opacity:1"
       d="m 138.81441,144.26882 c -4.58766,0.0572 -10.44425,-1.02554 -13.56393,2.33861 -3.49912,3.77332 -3.52627,10.65063 -1.46998,15.36799 0.90782,2.08264 5.41562,1.87078 5.41221,4.14268 -0.01,6.54825 -15.66644,5.34531 -15.63527,11.89349 0.0312,6.55696 9.22357,11.36828 15.7689,11.75986 5.17884,0.30983 9.62991,-4.29233 13.49712,-7.75081 4.32338,-3.86644 11.44852,-8.34847 10.28987,-14.03165 -0.66233,-3.2487 -8.22759,-1.77856 -8.55262,-5.07812 -0.37187,-3.77503 7.31895,-3.99094 8.46334,-7.6075 0.95548,-3.01955 0.20103,-7.11215 -2.12611,-9.26041 -2.99132,-2.76138 -8.01282,-1.82493 -12.08353,-1.77414 z"
       id="path6387"
       inkscape:connector-curvature="0"
       sodipodi:nodetypes="ssssssssssss" />
    <path
       style="fill:none;stroke:#000000;stroke-width:1.05833328;stroke-linecap:butt;stroke-linejoin:miter;stroke-miterlimit:4;stroke-dasharray:none;stroke-opacity:1"
       d="m -6.1100211,123.88327 c 4.1748515,-5.46146 11.652016,-9.34757 18.5208331,-9.07143 4.685085,0.18835 9.612747,3.20377 12.095239,7.18155 2.47621,3.96771 3.495795,9.94829 1.133928,13.98512 -3.501711,5.98501 -12.078605,7.44159 -18.8988094,8.69345 -5.4652188,1.00315 -13.24013,3.26803 -16.6309514,-1.13393 -4.0713092,-5.28537 -0.2719702,-14.35437 3.7797607,-19.65476 z"
       id="path6379"
       inkscape:connector-curvature="0"
       sodipodi:nodetypes="sssssss" />
    <path
       style="fill:#ffffff;fill-opacity:1;stroke:#000000;stroke-width:1.05833328;stroke-linecap:butt;stroke-linejoin:miter;stroke-miterlimit:4;stroke-dasharray:none;stroke-opacity:1"
       d="m 62.979036,154.76825 c -2.464726,3.48825 -6.843439,4.95294 -10.066686,4.93736 -3.565062,-0.0172 2.1737,8.01752 -0.249379,10.3936 -4.831846,4.73812 -18.460477,1.54843 -18.520833,8.31547 -0.04223,4.73416 8.117202,5.98899 12.851191,6.04762 8.12269,0.1006 16.310082,-4.34085 22.300594,-9.82738 6.362299,-5.82703 14.593536,-14.31571 12.473215,-22.67857 -1.546047,-6.09784 -6.94524,-10.87681 -13.22917,-10.58334 -2.515544,0.11748 -0.577625,6.34534 -5.558932,13.39524 z"
       id="path6381"
       inkscape:connector-curvature="0"
       sodipodi:nodetypes="sssssssss" />
    <path
       style="fill:none;stroke:#000000;stroke-width:1.05833328;stroke-linecap:butt;stroke-linejoin:miter;stroke-miterlimit:4;stroke-dasharray:none;stroke-opacity:1"
       d="m 157.84325,146.46818 15.11905,-8.88244 19.65476,2.07887 c 0,0 9.69702,2.22923 10.77233,6.23661 2.39157,8.91271 -6.52085,18.32468 -13.79615,24.00148 -3.09724,2.41673 -7.41514,3.39893 -11.33928,3.2128 -3.64587,-0.17293 -7.55827,-1.45575 -10.20536,-3.96875 -6.01198,-5.70742 -10.20535,-22.67857 -10.20535,-22.67857 z"
       id="path6385"
       inkscape:connector-curvature="0"
       sodipodi:nodetypes="cccssssc" />
    <path
       style="fill:#ffffff;fill-opacity:1;stroke:#000000;stroke-width:1.05833328;stroke-linecap:butt;stroke-linejoin:miter;stroke-miterlimit:4;stroke-dasharray:none;stroke-opacity:1"
       d="m 206.96814,124.15679 c 1.71094,-2.24045 4.53428,-3.5417 7.21627,-4.40995 3.82568,-1.2385 8.11172,-1.85152 12.02714,-0.93545 4.74579,1.11035 10.15362,3.24601 12.56165,7.48355 1.6506,2.90464 2.1425,7.4592 0,10.02261 -3.54135,4.23707 -10.78515,2.73398 -16.30344,2.93996 -4.29646,0.16037 -8.87585,0.35434 -12.82893,-1.33634 -2.15011,-0.91957 -4.672,-2.30413 -5.34538,-4.54358 -0.92148,-3.06457 0.73047,-6.67748 2.67269,-9.2208 z"
       id="path6383"
       inkscape:connector-curvature="0"
       sodipodi:nodetypes="sssssssss" />
    <path
       style="fill:none;stroke:#000000;stroke-width:1.05833328;stroke-linecap:butt;stroke-linejoin:miter;stroke-miterlimit:4;stroke-dasharray:none;stroke-opacity:1"
       d="m 36.223312,103.09458 c -5.128134,1.51371 -11.105031,4.16459 -13.229167,9.07143 -1.316674,3.04157 0.08808,6.83447 1.511906,9.82738 3.065631,6.44404 7.667567,13.40646 14.363094,15.875 6.436948,2.37321 14.221448,0.3138 20.410715,-2.64583 3.617693,-1.72993 5.885601,-5.45255 8.693451,-8.31548 2.996897,-3.05568 6.368257,-5.85607 8.693452,-9.4494 1.042559,-1.61116 2.882718,-3.47378 2.267857,-5.29167 -1.807548,-5.34417 -14.741069,-8.31548 -14.741069,-8.31548 0,0 -19.024983,-3.39639 -27.970239,-0.75595 z"
       id="path6373"
       inkscape:connector-curvature="0"
       sodipodi:nodetypes="sssssssscs" />
    <path
       style="fill:#ffffff;fill-opacity:1;stroke:#000000;stroke-width:1.05833328;stroke-linecap:butt;stroke-linejoin:miter;stroke-miterlimit:4;stroke-dasharray:none;stroke-opacity:1"
       d="m 124.20337,133.23901 c -1.05553,-7.43973 6.69542,-14.2115 12.85119,-18.52083 4.05568,-2.83917 9.86037,-1.72187 14.36309,-3.77976 5.27618,-2.41139 8.74791,-8.37047 14.3631,-9.82738 6.61369,-1.715978 13.99104,-0.44961 20.41072,1.88988 7.06004,2.57286 14.14718,6.74095 18.52083,12.85119 3.73713,5.22098 7.9468,12.67489 5.29167,18.52083 -2.93669,6.46588 -12.4246,7.2062 -19.2768,9.07143 -10.62108,2.89115 -21.88216,3.38097 -32.88392,3.02381 -7.26669,-0.23591 -14.90441,-0.44075 -21.54464,-3.40179 -4.74445,-2.11566 -11.36552,-4.6841 -12.09524,-9.82738 z"
       id="path6375"
       inkscape:connector-curvature="0"
       sodipodi:nodetypes="sssssssssss" />
    <path
       style="fill:#ffffff;fill-opacity:1;stroke:#000000;stroke-width:1.05833328;stroke-linecap:butt;stroke-linejoin:miter;stroke-miterlimit:4;stroke-dasharray:none;stroke-opacity:1"
       d="m 6.7411696,144.67196 c 3.3018044,-6.09758 12.0370544,-7.69412 18.8988094,-8.69345 4.407989,-0.64197 8.774766,1.86096 13.229163,1.88988 6.860352,0.0445 20.410715,-2.64583 20.410715,-2.64583 0,0 13.062891,5.37957 14.363097,11.33928 1.297152,5.94571 -2.844037,13.58888 -8.315476,16.25298 -7.731146,3.76437 -16.7546,-5.62046 -25.324406,-4.91369 -5.760992,0.47512 -10.494129,6.54808 -16.252975,6.04762 -5.963143,-0.51821 -12.146285,-4.11157 -15.4970242,-9.07143 -1.9250989,-2.84958 -3.1493983,-7.18133 -1.5119032,-10.20536 z"
       id="path6377"
       inkscape:connector-curvature="0"
       sodipodi:nodetypes="ssscssssss" />
    <path
       style="fill:none;stroke:#0066d8;stroke-width:1.05833328;stroke-linecap:butt;stroke-linejoin:miter;stroke-miterlimit:4;stroke-dasharray:none;stroke-opacity:1"
       d="m 98.365663,121.68027 c 0,0 -11.254362,-0.0811 -13.418153,3.77976 -1.377345,2.45762 4.857884,4.9567 3.779763,7.55952 -1.219755,2.94475 -7.992801,0.0245 -9.07143,3.02381 -0.804465,2.23696 3.779764,6.04762 3.779764,6.04762"
       id="path6391"
       inkscape:connector-curvature="0"
       sodipodi:nodetypes="csssc" />
    <path
       style="fill:none;stroke:#0066d8;stroke-width:1.05833328;stroke-linecap:butt;stroke-linejoin:miter;stroke-miterlimit:4;stroke-dasharray:none;stroke-opacity:1"
       d="m 84.237416,147.43637 c 0,0 3.8766,9.70669 3.770757,18.33406 -0.08181,6.66813 -1.474204,10.61331 -2.825815,13.9829 -2.309634,5.75796 -8.205234,13.7309 -5.858633,22.11162"
       id="path6393"
       inkscape:connector-curvature="0"
       sodipodi:nodetypes="cssc" />
    <path
       style="fill:none;stroke:#0066d8;stroke-width:1.05833328;stroke-linecap:butt;stroke-linejoin:miter;stroke-miterlimit:4;stroke-dasharray:none;stroke-opacity:1"
       d="m 70.241169,213.8416 c -4.042397,14.53822 -11.708496,27.03811 -23.8125,37.04167"
       id="path6395"
       inkscape:connector-curvature="0"
       sodipodi:nodetypes="cc" />
    <path
       style="fill:none;stroke:#0066d8;stroke-width:1.05833328;stroke-linecap:butt;stroke-linejoin:miter;stroke-miterlimit:4;stroke-dasharray:none;stroke-opacity:1"
       d="m 105.17485,135.05292 c 0,0 -6.459386,18.64734 -7.937496,28.34821 -1.93662,12.71005 3.377556,26.51437 -1.13393,38.55357 -1.60201,4.27506 -8.693449,10.58334 -8.693449,10.58334"
       id="path6397"
       inkscape:connector-curvature="0"
       sodipodi:nodetypes="cssc" />
    <path
       style="fill:none;stroke:#0066d8;stroke-width:1.05833328;stroke-linecap:butt;stroke-linejoin:miter;stroke-miterlimit:4;stroke-dasharray:none;stroke-opacity:1"
       d="m 107.86649,192.85049 c -4.68472,16.31374 -14.519363,31.04289 -25.702382,45.35715"
       id="path6399"
       inkscape:connector-curvature="0"
       sodipodi:nodetypes="cc" />
    <path
       style="fill:none;stroke:#0066d8;stroke-width:1.05833328;stroke-linecap:butt;stroke-linejoin:miter;stroke-miterlimit:4;stroke-dasharray:none;stroke-opacity:1"
       d="m 106.01465,217.73799 c 0,0 -6.639171,4.68429 -7.559521,8.31548 -2.07212,8.17543 7.421141,16.2471 6.047621,24.56845 -0.87655,5.31053 -9.063661,8.23751 -8.693451,13.60714 0.38727,5.61697 10.961301,12.85119 10.961301,12.85119"
       id="path6401"
       inkscape:connector-curvature="0"
       sodipodi:nodetypes="csssc" />
    <path
       style="fill:none;stroke:#0066d8;stroke-width:1.05833328;stroke-linecap:butt;stroke-linejoin:miter;stroke-miterlimit:4;stroke-dasharray:none;stroke-opacity:1"
       d="m 116.64384,214.50389 c 0,0 -7.27269,14.35492 -6.42559,21.92262 1.41168,12.61146 18.52083,33.26191 18.52083,33.26191"
       id="path6405"
       inkscape:connector-curvature="0"
       sodipodi:nodetypes="csc" />
    <path
       style="fill:none;stroke:#0066d8;stroke-width:1.05833328;stroke-linecap:butt;stroke-linejoin:miter;stroke-miterlimit:4;stroke-dasharray:none;stroke-opacity:1"
       d="m 123.98095,116.94051 c -7.26997,-0.31123 -12.05157,3.04462 -12.56167,12.6953"
       id="path6413"
       inkscape:connector-curvature="0"
       sodipodi:nodetypes="cc" />
    <path
       style="fill:none;stroke:#0066d8;stroke-width:1.05833328;stroke-linecap:butt;stroke-linejoin:miter;stroke-miterlimit:4;stroke-dasharray:none;stroke-opacity:1"
       d="m 104.47028,113.86691 c 0,0 1.91631,-2.6057 3.34087,-2.67269 1.70309,-0.0801 2.5716,2.77641 4.27631,2.80633 1.45892,0.0256 2.28603,-2.37142 3.74177,-2.27179 0.91617,0.0627 1.24987,1.97015 2.13816,1.73725 3.28859,-0.86224 0.39129,-8.91138 3.74177,-9.48807 1.80469,-0.31062 2.86069,2.47094 3.60814,4.14268 0.58635,1.31142 -0.23364,3.06243 0.53454,4.27631 0.62116,0.98156 1.78255,1.77248 2.93996,1.87089 1.49202,0.12686 2.67901,-2.05332 4.14268,-1.73726 0.83186,0.17963 1.73725,1.87089 1.73725,1.87089"
       id="path6415"
       inkscape:connector-curvature="0"
       sodipodi:nodetypes="csssssssssc" />
    <path
       style="fill:#57a326;fill-opacity:1;stroke:#000000;stroke-width:0.69852024;stroke-linecap:butt;stroke-linejoin:miter;stroke-miterlimit:4;stroke-dasharray:none;stroke-opacity:1"
       d="m 52.990559,103.66011 c 0,0 -0.01776,-5.139032 -1.175728,-7.225559 -1.064681,-1.916818 -4.870814,-4.075967 -4.870814,-4.075967 0,0 4.928893,0.763714 6.550426,2.593804 1.484959,1.675983 2.015494,6.669752 2.015494,6.669752 0,0 0.778768,-6.055859 0,-8.892995 -0.292482,-1.065585 -1.679592,-2.779075 -1.679592,-2.779075 0,0 3.1755,1.982658 3.863067,3.705426 0.88007,2.205083 -0.167882,7.225564 -0.167882,7.225564 0,0 0.636137,-5.69466 2.519397,-7.225564 1.355112,-1.101574 5.038775,-0.37054 5.038775,-0.37054 0,0 -2.111173,0.952771 -2.8553,1.852703 -2.12658,2.571816 -4.031028,9.448821 -4.031028,9.448821 l 2.351437,-2.5938 1.51163,2.77905 h -14.44452 l 0.503884,-2.77905 z"
       id="path1392-0-7"
       inkscape:connector-curvature="0"
       sodipodi:nodetypes="cacacacacacacccccc" />
    <path
       style="fill:#57a326;fill-opacity:1;stroke:#000000;stroke-width:0.56704831;stroke-linecap:butt;stroke-linejoin:miter;stroke-miterlimit:4;stroke-dasharray:none;stroke-opacity:1"
       d="m 22.602668,135.18845 c 0,0 -0.0154,-3.90257 -1.02028,-5.48707 -0.92392,-1.45563 -4.22682,-3.09529 -4.22682,-3.09529 0,0 4.27722,0.57997 5.68436,1.96973 1.28863,1.27274 1.74902,5.065 1.74902,5.065 0,0 0.6758,-4.59881 0,-6.75332 -0.25381,-0.80921 -1.45753,-2.11043 -1.45753,-2.11043 0,0 2.75566,1.50563 3.35232,2.8139 0.76371,1.67453 -0.14569,5.48707 -0.14569,5.48707 0,0 0.55203,-4.32451 2.1863,-5.48707 1.17595,-0.83654 4.37258,-0.28139 4.37258,-0.28139 0,0 -1.83205,0.72353 -2.47779,1.40694 -1.84542,1.95303 -3.49807,7.17542 -3.49807,7.17542 l 2.04054,-1.96973 1.31178,2.1104 h -12.53476 l 0.43727,-2.1104 z"
       id="path1392-0-7-9-7"
       inkscape:connector-curvature="0"
       sodipodi:nodetypes="cacacacacacacccccc" />
    <path
       style="fill:#57a326;fill-opacity:1;stroke:#000000;stroke-width:0.56704831;stroke-linecap:butt;stroke-linejoin:miter;stroke-miterlimit:4;stroke-dasharray:none;stroke-opacity:1"
       d="m 144.57159,165.22778 c 0,0 -0.0154,-3.90257 -1.02028,-5.48708 -0.92392,-1.45563 -4.22682,-3.09528 -4.22682,-3.09528 0,0 4.27722,0.57996 5.68436,1.96973 1.28863,1.27274 1.74902,5.065 1.74902,5.065 0,0 0.6758,-4.59881 0,-6.75333 -0.25381,-0.8092 -1.45753,-2.11042 -1.45753,-2.11042 0,0 2.75566,1.50563 3.35232,2.81389 0.76371,1.67454 -0.14569,5.48708 -0.14569,5.48708 0,0 0.55203,-4.32451 2.1863,-5.48708 1.17595,-0.83653 4.37258,-0.28139 4.37258,-0.28139 0,0 -1.83205,0.72354 -2.47779,1.40694 -1.84542,1.95304 -3.49807,7.17543 -3.49807,7.17543 l 2.04054,-1.96973 1.31178,2.1104 h -12.53476 l 0.43727,-2.1104 z"
       id="path1392-0-7-9-77"
       inkscape:connector-curvature="0"
       sodipodi:nodetypes="cacacacacacacccccc" />
    <path
       style="fill:#57a326;fill-opacity:1;stroke:#000000;stroke-width:0.56704831;stroke-linecap:butt;stroke-linejoin:miter;stroke-miterlimit:4;stroke-dasharray:none;stroke-opacity:1"
       d="m 168.90719,103.49583 c 0,0 -0.0154,-3.902565 -1.02028,-5.487075 -0.92392,-1.45562 -4.22682,-3.09528 -4.22682,-3.09528 0,0 4.27722,0.57996 5.68436,1.96973 1.28863,1.27274 1.74902,5.064995 1.74902,5.064995 0,0 0.6758,-4.598805 0,-6.753325 -0.25381,-0.8092 -1.45753,-2.11042 -1.45753,-2.11042 0,0 2.75566,1.50563 3.35232,2.81389 0.76371,1.67454 -0.14569,5.487075 -0.14569,5.487075 0,0 0.55203,-4.324505 2.1863,-5.487075 1.17595,-0.83653 4.37258,-0.28138 4.37258,-0.28138 0,0 -1.83205,0.72353 -2.47779,1.40694 -1.84542,1.95303 -3.49807,7.175415 -3.49807,7.175415 l 2.04054,-1.96973 1.31178,2.1104 h -12.53476 l 0.43727,-2.1104 z"
       id="path1392-0-7-9"
       inkscape:connector-curvature="0"
       sodipodi:nodetypes="cacacacacacacccccc" />
  </g>
</svg>
