<?xml version="1.0" encoding="UTF-8" standalone="no"?>
<!-- Created with Inkscape (http://www.inkscape.org/) -->

<svg
   xmlns:dc="http://purl.org/dc/elements/1.1/"
   xmlns:cc="http://creativecommons.org/ns#"
   xmlns:rdf="http://www.w3.org/1999/02/22-rdf-syntax-ns#"
   xmlns:svg="http://www.w3.org/2000/svg"
   xmlns="http://www.w3.org/2000/svg"
   xmlns:sodipodi="http://sodipodi.sourceforge.net/DTD/sodipodi-0.dtd"
   xmlns:inkscape="http://www.inkscape.org/namespaces/inkscape"
   width="495.70245"
   height="795.32947"
   viewBox="0 0 131.1546 210.43092"
   version="1.1"
   id="svg1567"
   inkscape:version="0.92.2 (5c3e80d, 2017-08-06)"
   sodipodi:docname="himatangi-beach.svg">
  <defs
     id="defs1561" />
  <sodipodi:namedview
     id="base"
     pagecolor="#ffffff"
     bordercolor="#666666"
     borderopacity="1.0"
     inkscape:pageopacity="0.0"
     inkscape:pageshadow="2"
     inkscape:zoom="0.35"
     inkscape:cx="-138.37343"
     inkscape:cy="266.86733"
     inkscape:document-units="mm"
     inkscape:current-layer="layer1"
     showgrid="false"
     inkscape:window-width="1920"
     inkscape:window-height="1017"
     inkscape:window-x="1912"
     inkscape:window-y="103"
     inkscape:window-maximized="1"
     units="px" />
  <metadata
     id="metadata1564">
    <rdf:RDF>
      <cc:Work
         rdf:about="">
        <dc:format>image/svg+xml</dc:format>
        <dc:type
           rdf:resource="http://purl.org/dc/dcmitype/StillImage" />
        <dc:title />
      </cc:Work>
    </rdf:RDF>
  </metadata>
  <g
     inkscape:label="Calque 1"
     inkscape:groupmode="layer"
     id="layer1"
     transform="translate(-72.914853,-49.953593)">
    <path
       style="fill:none;stroke:#000000;stroke-width:1.05833328;stroke-linecap:butt;stroke-linejoin:miter;stroke-miterlimit:4;stroke-dasharray:none;stroke-opacity:1"
       d="m 73.064044,98.783913 c 0,0 5.454127,-1.602728 7.444881,-3.485632 1.578501,-1.492985 2.428313,-3.670096 3.087989,-5.74024 2.743654,-8.609926 3.337609,-26.90328 3.337609,-26.90328"
       id="path2117"
       inkscape:connector-curvature="0"
       sodipodi:nodetypes="caac" />
    <path
       style="fill:none;stroke:#000000;stroke-width:1.05833328;stroke-linecap:butt;stroke-linejoin:miter;stroke-miterlimit:4;stroke-dasharray:none;stroke-opacity:1"
       d="m 99.407273,98.785367 c 0,0 -1.632435,0.06576 -4.90581,-1.882014 C 90.861014,94.737157 91.460141,93.029173 90.847,89.590607 89.033437,79.419926 92.285356,62.990301 92.285356,62.990301"
       id="path2117-1"
       inkscape:connector-curvature="0"
       sodipodi:nodetypes="cssc" />
    <path
       style="fill:#009400;fill-opacity:1;stroke:#000000;stroke-width:1.05833328;stroke-linecap:butt;stroke-linejoin:miter;stroke-miterlimit:4;stroke-dasharray:none;stroke-opacity:1"
       d="m 87.643228,61.757068 c 0,0 -5.988363,-1.346363 -8.397814,0.713922 -1.847216,1.579526 -3.207234,6.548101 -3.207234,6.548101 0,0 -0.652905,-6.42775 1.202714,-8.686257 2.423526,-2.949717 10.304696,-2.70234 10.304696,-2.70234 0,0 -5.380778,-4.172946 -8.96835,-2.643051 -1.560272,0.665367 -4.409947,3.207234 -4.409947,3.207234 0,0 1.454673,-4.87775 3.073599,-6.280835 1.397008,-1.210754 3.967792,-1.733495 6.149031,-1.237083 3.724299,0.847587 7.08081,3.642509 7.08081,3.642509"
       id="path2134"
       inkscape:connector-curvature="0"
       sodipodi:nodetypes="cscscscssc" />
    <path
       style="fill:#009900;fill-opacity:1;stroke:#000000;stroke-width:1.05833328;stroke-linecap:butt;stroke-linejoin:miter;stroke-miterlimit:4;stroke-dasharray:none;stroke-opacity:1"
       d="m 91.706471,61.949414 c 0,0 4.169836,0.828328 6.283855,1.933769 1.299118,0.679323 4.630214,4.960939 4.630214,4.960939 0,0 -0.40592,-5.474731 -1.41741,-6.567338 -2.013799,-2.17529 -8.97694,-3.354539 -8.97694,-3.354539 0,0 6.976971,-3.188765 10.20536,-1.937126 2.12919,0.825481 4.11049,5.480653 4.11049,5.480653 0,0 0.36837,-5.848346 -1.6064,-7.908839 -1.25694,-1.311497 -4.58679,-2.57357 -7.113615,-2.623484 -2.575748,-0.05088 -7.382052,2.287387 -7.351292,2.385819"
       id="path2136"
       inkscape:connector-curvature="0"
       sodipodi:nodetypes="cscscscsac" />
    <path
       style="fill:none;stroke:#000000;stroke-width:1.05833328;stroke-linecap:butt;stroke-linejoin:miter;stroke-miterlimit:4;stroke-dasharray:none;stroke-opacity:1"
       d="m 85.110991,231.94764 c 0,0 5.454127,-1.60273 7.444881,-3.48564 1.578501,-1.49298 2.428314,-3.67009 3.08799,-5.74024 2.743654,-8.60992 3.337609,-26.90328 3.337609,-26.90328"
       id="path2117-6"
       inkscape:connector-curvature="0"
       sodipodi:nodetypes="caac" />
    <path
       style="fill:none;stroke:#000000;stroke-width:1.05833328;stroke-linecap:butt;stroke-linejoin:miter;stroke-miterlimit:4;stroke-dasharray:none;stroke-opacity:1"
       d="m 111.45422,231.94909 c 0,0 -1.63243,0.0658 -4.90581,-1.88201 -3.64045,-2.1662 -3.04132,-3.87418 -3.65446,-7.31275 -1.81356,-10.17068 1.43835,-26.60031 1.43835,-26.60031"
       id="path2117-1-1"
       inkscape:connector-curvature="0"
       sodipodi:nodetypes="cssc" />
    <path
       style="fill:#009400;fill-opacity:1;stroke:#000000;stroke-width:1.05833328;stroke-linecap:butt;stroke-linejoin:miter;stroke-miterlimit:4;stroke-dasharray:none;stroke-opacity:1"
       d="m 99.690176,194.92079 c 0,0 -5.988364,-1.34636 -8.397815,0.71392 -1.847216,1.57953 -3.207234,6.5481 -3.207234,6.5481 0,0 -0.652905,-6.42775 1.202714,-8.68625 2.423526,-2.94972 10.304697,-2.70234 10.304697,-2.70234 0,0 -5.380779,-4.17295 -8.968351,-2.64306 -1.560272,0.66537 -4.409947,3.20724 -4.409947,3.20724 0,0 1.454673,-4.87775 3.073599,-6.28084 1.397008,-1.21075 3.967792,-1.73349 6.149032,-1.23708 3.724299,0.84759 7.080809,3.64251 7.080809,3.64251"
       id="path2134-2"
       inkscape:connector-curvature="0"
       sodipodi:nodetypes="cscscscssc" />
    <path
       style="fill:#009900;fill-opacity:1;stroke:#000000;stroke-width:1.05833328;stroke-linecap:butt;stroke-linejoin:miter;stroke-miterlimit:4;stroke-dasharray:none;stroke-opacity:1"
       d="m 103.75342,195.11314 c 0,0 4.16984,0.82832 6.28385,1.93377 1.29912,0.67932 4.63022,4.96093 4.63022,4.96093 0,0 -0.40592,-5.47473 -1.41741,-6.56733 -2.0138,-2.17529 -8.97694,-3.35454 -8.97694,-3.35454 0,0 6.97697,-3.18877 10.20536,-1.93713 2.12919,0.82548 4.11049,5.48065 4.11049,5.48065 0,0 0.36837,-5.84834 -1.6064,-7.90884 -1.25694,-1.31149 -4.58679,-2.57357 -7.11362,-2.62348 -2.57574,-0.0509 -7.38205,2.28739 -7.35129,2.38582"
       id="path2136-4"
       inkscape:connector-curvature="0"
       sodipodi:nodetypes="cscscscsac" />
    <path
       style="fill:#e8ba00;fill-opacity:1;stroke:#000000;stroke-width:1.05833328;stroke-linecap:butt;stroke-linejoin:miter;stroke-miterlimit:4;stroke-dasharray:none;stroke-opacity:1"
       d="m 115.66071,105.36607 c 0,0 21.37423,-14.695997 32.88394,-13.607144 9.68023,0.915778 16.93537,9.374864 26.45832,11.339284 8.96965,1.85028 26.08036,4.53572 26.08036,4.53572"
       id="path2222"
       inkscape:connector-curvature="0"
       sodipodi:nodetypes="cssc" />
    <path
       style="fill:#e8ba00;fill-opacity:1;stroke:#000000;stroke-width:1.05833328;stroke-linecap:butt;stroke-linejoin:miter;stroke-miterlimit:4;stroke-dasharray:none;stroke-opacity:1"
       d="m 108.47917,259.95833 c 0,0 10.44771,-13.55977 18.14285,-15.875 4.50461,-1.3553 9.34467,2.66097 13.98512,1.88988 8.05957,-1.33924 13.81013,-11.92968 21.92262,-10.96131 7.3684,0.87955 11.21338,9.72861 17.00893,14.3631 4.56578,3.65108 13.98512,10.58333 13.98512,10.58333"
       id="path2224"
       inkscape:connector-curvature="0"
       sodipodi:nodetypes="cssssc" />
    <path
       style="fill:none;stroke:#000000;stroke-width:1.05833328;stroke-linecap:butt;stroke-linejoin:miter;stroke-miterlimit:4;stroke-dasharray:8.46666667, 8.46666667;stroke-dashoffset:0;stroke-opacity:1"
       d="m 109.99107,136.73809 c 0,0 26.04328,-8.34303 33.63988,-1.5119 7.46662,6.71425 6.69741,19.39534 9.07143,28.72619 2.20918,8.68299 4.36492,19.07012 11.71726,24.19047 7.47918,5.20869 38.8405,5.1849 38.8405,5.1849"
       id="path2230"
       inkscape:connector-curvature="0"
       sodipodi:nodetypes="csssc" />
    <path
       style="fill:none;stroke:#000000;stroke-width:1.11559713;stroke-linecap:butt;stroke-linejoin:miter;stroke-miterlimit:4;stroke-dasharray:8.92477753, 8.92477753;stroke-dashoffset:0;stroke-opacity:1"
       d="m 111.59259,125.33965 c 0,0 26.93351,-5.38999 37.17314,1.02965 9.16033,5.74298 10.51032,21.50154 14.10532,30.68338 3.31477,8.46612 0.71538,18.77143 8.89837,23.88334 8.32415,5.20011 32.29337,4.91327 32.29337,4.91327"
       id="path2230-8"
       inkscape:connector-curvature="0"
       sodipodi:nodetypes="csssc" />
    <path
       style="fill:#e8ba00;fill-opacity:1;stroke:#000000;stroke-width:1.05833328;stroke-linecap:butt;stroke-linejoin:miter;stroke-miterlimit:4;stroke-dasharray:none;stroke-opacity:1"
       d="m 113.20387,163.76339 c 0,0 5.12049,-11.45206 8.88243,-14.74107 2.90861,-2.54294 8.59684,3.1205 12.28447,3.13088 3.94402,0.0111 5.33172,-3.19749 8.69322,-0.86302 4.14746,2.88031 8.31547,12.6622 8.31547,12.6622"
       id="path2247"
       inkscape:connector-curvature="0"
       sodipodi:nodetypes="csssc" />
    <path
       style="fill:#e8ba00;fill-opacity:1;stroke:#000000;stroke-width:1.05833328;stroke-linecap:butt;stroke-linejoin:miter;stroke-miterlimit:4;stroke-dasharray:none;stroke-opacity:1"
       d="m 165.55357,163.95238 c 0,0 3.34233,-7.44432 6.80357,-8.69345 2.78941,-1.00667 5.98917,0.67289 8.69345,1.88988 2.91851,1.3134 7.74852,5.66964 7.74852,5.66964"
       id="path2249"
       inkscape:connector-curvature="0"
       sodipodi:nodetypes="cssc" />
  </g>
</svg>
