<?xml version="1.0" encoding="UTF-8" standalone="no"?>
<!-- Created with Inkscape (http://www.inkscape.org/) -->

<svg
   xmlns:dc="http://purl.org/dc/elements/1.1/"
   xmlns:cc="http://creativecommons.org/ns#"
   xmlns:rdf="http://www.w3.org/1999/02/22-rdf-syntax-ns#"
   xmlns:svg="http://www.w3.org/2000/svg"
   xmlns="http://www.w3.org/2000/svg"
   xmlns:sodipodi="http://sodipodi.sourceforge.net/DTD/sodipodi-0.dtd"
   xmlns:inkscape="http://www.inkscape.org/namespaces/inkscape"
   width="212.44302mm"
   height="87.134163mm"
   viewBox="0 0 212.44303 87.134162"
   version="1.1"
   id="svg8"
   inkscape:version="0.92.2 (5c3e80d, 2017-08-06)"
   sodipodi:docname="kapiti-boat-revert.svg">
  <defs
     id="defs2" />
  <sodipodi:namedview
     id="base"
     pagecolor="#ffffff"
     bordercolor="#666666"
     borderopacity="1.0"
     inkscape:pageopacity="0.0"
     inkscape:pageshadow="2"
     inkscape:zoom="0.7"
     inkscape:cx="-12.531934"
     inkscape:cy="59.575689"
     inkscape:document-units="mm"
     inkscape:current-layer="layer1"
     showgrid="false"
     inkscape:window-width="1920"
     inkscape:window-height="1017"
     inkscape:window-x="-8"
     inkscape:window-y="-8"
     inkscape:window-maximized="1" />
  <metadata
     id="metadata5">
    <rdf:RDF>
      <cc:Work
         rdf:about="">
        <dc:format>image/svg+xml</dc:format>
        <dc:type
           rdf:resource="http://purl.org/dc/dcmitype/StillImage" />
        <dc:title></dc:title>
      </cc:Work>
    </rdf:RDF>
  </metadata>
  <g
     inkscape:label="Calque 1"
     inkscape:groupmode="layer"
     id="layer1"
     transform="translate(-9.214021,-104.78326)">
    <path
       style="fill:#ffffff;fill-opacity:1;stroke:#000000;stroke-width:0.5291667;stroke-linecap:butt;stroke-linejoin:miter;stroke-miterlimit:4;stroke-dasharray:none;stroke-opacity:1"
       d="m 64.854154,187.71353 c -0.99528,-1.15917 -8.28452,-9.43325 -10.67505,-9.91214 -3.17973,-0.37071 -5.51315,4.89256 -7.71723,5.42785 -2.05503,0.23397 -1.15218,-1.04045 -3.34256,-0.45012 -2.3453,1.14008 0.0547,1.42881 -3.07191,3.08941 -4.01649,-2.74827 -3.68483,-0.1109 -5.70044,0.57535 -4.07647,-2.23384 -5.42066,-1.15095 -7.81845,1.01581 -3.28005,-1.26553 -3.83008,-0.81689 -7.7541,0.30477 -1.02567,0.10623 -0.59785,-0.18123 -2.70349,0.0262 -1.23933,0.23664 -1.16123,1.15143 -2.06175,1.72178 -1.10641,0.76053 -1.85398,0.1413 -2.8667,0.25945 -0.97884,0.18627 -1.2531603,0.36704 -1.8210003,0.6194"
       id="path920"
       inkscape:connector-curvature="0"
       sodipodi:nodetypes="cccccccccccc" />
    <path
       style="fill:#ffffff;fill-opacity:1;stroke:#000000;stroke-width:0.5291667;stroke-linecap:butt;stroke-linejoin:miter;stroke-miterlimit:4;stroke-dasharray:none;stroke-opacity:1"
       d="m 62.013604,190.04461 c -1.27844,-2.46578 -11.40844,-9.52866 -13.53051,-9.45466 -2.42308,0.23454 -1.9978,4.2493 -4.975,4.21933 -1.50288,0.18522 -2.55602,-1.44973 -4.19025,-0.9819 -2.48348,0.84058 -1.46743,1.5923 -3.45972,2.44488 -3.91929,0.37783 -2.48182,-0.64264 -4.53571,-0.54335 -2.96155,0.40179 -3.93852,1.74241 -6.54036,2.18987 -2.05763,0.0663 -4.22831,-1.29534 -6.21298,-0.87407 -1.51614,0.4043 -3.11504,2.30669 -3.20597,3.18402"
       id="path922"
       inkscape:connector-curvature="0"
       sodipodi:nodetypes="ccccccccc" />
    <path
       style="fill:#ffffff;fill-opacity:1;stroke:#000000;stroke-width:0.5291667;stroke-linecap:butt;stroke-linejoin:miter;stroke-miterlimit:4;stroke-dasharray:none;stroke-opacity:1"
       d="m 199.91371,160.3557 -13.57923,16.94466 -125.552696,12.73238 -5.00819,-7.37054"
       id="path4506"
       inkscape:connector-curvature="0"
       sodipodi:nodetypes="cccc" />
    <path
       style="fill:#ffffff;fill-opacity:1;stroke:#000000;stroke-width:0.5291667;stroke-linecap:butt;stroke-linejoin:miter;stroke-miterlimit:4;stroke-dasharray:none;stroke-opacity:1"
       d="m 215.29806,134.47777 -30.68901,5.71259 -18.57251,3.41765 -114.515176,11.1312 -1.99387,18.4166 6.2461,9.50639 93.854076,-9.51026 50.28604,-12.79624 z"
       id="path4504"
       inkscape:connector-curvature="0"
       sodipodi:nodetypes="ccccccccc" />
    <path
       style="fill:#ffffff;fill-opacity:1;stroke:#000000;stroke-width:0.5291667;stroke-linecap:butt;stroke-linejoin:miter;stroke-miterlimit:4;stroke-dasharray:none;stroke-opacity:1"
       d="m 204.05802,136.66455 -28.41242,-26.04694 -8.67081,3.5165 -15.48925,2.95396 -10.09166,2.26312 -5.20585,27.16704"
       id="path4510"
       inkscape:connector-curvature="0"
       sodipodi:nodetypes="cccccc" />
    <path
       style="fill:#ffffff;fill-opacity:1;stroke:#000000;stroke-width:0.5291667;stroke-linecap:butt;stroke-linejoin:miter;stroke-miterlimit:4;stroke-dasharray:none;stroke-opacity:1"
       d="m 141.39388,119.35119 -7.6627,-0.18898 -0.21404,26.91051"
       id="path4512"
       inkscape:connector-curvature="0"
       sodipodi:nodetypes="ccc" />
    <path
       style="fill:#ffffff;fill-opacity:1;stroke:#000000;stroke-width:0.5291667;stroke-linecap:butt;stroke-linejoin:miter;stroke-miterlimit:4;stroke-dasharray:none;stroke-opacity:1"
       d="m 133.73119,119.1622 -44.601196,5.66964 -26.08036,0.79231 -11.52827,29.11506"
       id="path4514"
       inkscape:connector-curvature="0"
       sodipodi:nodetypes="cccc" />
    <path
       style="fill:#ffffff;fill-opacity:1;stroke:#000000;stroke-width:0.5291667;stroke-linecap:butt;stroke-linejoin:miter;stroke-miterlimit:4;stroke-dasharray:none;stroke-opacity:1"
       d="m 120.46141,115.70261 -1.93661,-4.37322 -13.91301,1.93406 -0.26826,5.33179"
       id="path4526"
       inkscape:connector-curvature="0"
       sodipodi:nodetypes="cccc" />
    <path
       style="fill:#ffffff;fill-opacity:1;stroke:#000000;stroke-width:0.5291667;stroke-linecap:butt;stroke-linejoin:miter;stroke-miterlimit:4;stroke-dasharray:none;stroke-opacity:1"
       d="m 106.74994,118.0743 -1.68211,-3.88642 -11.105576,1.63679 -0.7684,4.64381"
       id="path4530"
       inkscape:connector-curvature="0"
       sodipodi:nodetypes="cccc" />
    <path
       style="fill:#ffffff;fill-opacity:1;stroke:#000000;stroke-width:0.5291667;stroke-linecap:butt;stroke-linejoin:miter;stroke-miterlimit:4;stroke-dasharray:none;stroke-opacity:1"
       d="m 97.503574,119.73349 -2.40682,-2.94677 -11.02348,1.27632 -1.1693,3.70837"
       id="path4532"
       inkscape:connector-curvature="0"
       sodipodi:nodetypes="cccc" />
    <path
       style="fill:#ffffff;fill-opacity:1;stroke:#000000;stroke-width:0.5291667;stroke-linecap:butt;stroke-linejoin:miter;stroke-miterlimit:4;stroke-dasharray:none;stroke-opacity:1"
       d="m 79.496284,122.03868 -0.0417,-0.85191 c -0.002,-0.26009 -0.17416,-0.66197 -0.58376,-0.74161 l -13.38311,1.13533 c -0.33494,0.0542 -0.52341,0.45574 -0.50776,0.7548 l 0.11726,1.40722"
       id="path4534"
       inkscape:connector-curvature="0"
       sodipodi:nodetypes="cccccc" />
    <path
       style="fill:#ffffff;fill-opacity:1;stroke:#000000;stroke-width:0.5291667;stroke-linecap:butt;stroke-linejoin:miter;stroke-miterlimit:4;stroke-dasharray:none;stroke-opacity:1"
       d="m 152.46909,119.20749 -10.17929,1.46757 -3.1501,19.00381 21.62083,-2.31677 z"
       id="path4544"
       inkscape:connector-curvature="0"
       sodipodi:nodetypes="ccccc" />
    <path
       style="fill:#ffffff;fill-opacity:1;stroke:#000000;stroke-width:0.5291667;stroke-linecap:butt;stroke-linejoin:miter;stroke-miterlimit:4;stroke-dasharray:none;stroke-opacity:1"
       d="m 168.73218,115.80897 15.32057,17.69624 13.20481,-1.66389 -20.30982,-18.21131 z"
       id="path4546"
       inkscape:connector-curvature="0"
       sodipodi:nodetypes="ccccc" />
    <path
       style="fill:#ffffff;fill-opacity:1;stroke:#000000;stroke-width:0.5291667;stroke-linecap:butt;stroke-linejoin:miter;stroke-miterlimit:4;stroke-dasharray:none;stroke-opacity:1"
       d="m 166.38861,116.41169 -10.95535,2.23593 9.20892,18.39156 16.97498,-3.05485 z"
       id="path4558"
       inkscape:connector-curvature="0"
       sodipodi:nodetypes="ccccc" />
    <path
       style="fill:#ffffff;fill-opacity:1;stroke:#000000;stroke-width:1.05833328;stroke-linecap:butt;stroke-linejoin:miter;stroke-miterlimit:4;stroke-dasharray:none;stroke-opacity:1"
       d="m 89.129994,124.83184 -3.1183,25.60789"
       id="path865"
       inkscape:connector-curvature="0"
       sodipodi:nodetypes="cc" />
    <path
       style="fill:#ffffff;fill-opacity:1;stroke:#000000;stroke-width:1.05833328;stroke-linecap:butt;stroke-linejoin:miter;stroke-miterlimit:4;stroke-dasharray:none;stroke-opacity:1"
       d="m 108.97374,122.2805 -1.5897,25.98824"
       id="path867"
       inkscape:connector-curvature="0"
       sodipodi:nodetypes="cc" />
    <path
       style="fill:#ffffff;fill-opacity:1;stroke:#000000;stroke-width:1.05833328;stroke-linecap:butt;stroke-linejoin:miter;stroke-miterlimit:4;stroke-dasharray:none;stroke-opacity:1"
       d="m 133.4477,133.14732 -45.735116,4.06324"
       id="path869"
       inkscape:connector-curvature="0" />
    <path
       style="fill:#ffffff;fill-opacity:1;stroke:#000000;stroke-width:0.5291667;stroke-linecap:butt;stroke-linejoin:miter;stroke-miterlimit:4;stroke-dasharray:none;stroke-opacity:1"
       d="m 133.01413,146.05169 0.20333,-26.15116"
       id="path871"
       inkscape:connector-curvature="0"
       sodipodi:nodetypes="cc" />
    <path
       style="fill:#ffffff;fill-opacity:1;stroke:#000000;stroke-width:1.05833328;stroke-linecap:butt;stroke-linejoin:miter;stroke-miterlimit:4;stroke-dasharray:none;stroke-opacity:1"
       d="m 132.87981,145.27492 -46.454706,4.69234"
       id="path873"
       inkscape:connector-curvature="0"
       sodipodi:nodetypes="cc" />
    <path
       style="fill:#ffffff;fill-opacity:1;stroke:#000000;stroke-width:1.05833328;stroke-linecap:butt;stroke-linejoin:miter;stroke-miterlimit:4;stroke-dasharray:none;stroke-opacity:1"
       d="m 83.698964,125.33535 -2.24256,25.09864 -28.96717,2.65632 10.73758,-26.8883 z"
       id="path875"
       inkscape:connector-curvature="0"
       sodipodi:nodetypes="ccccc" />
    <path
       style="fill:#ffffff;fill-opacity:1;stroke:#000000;stroke-width:1.05833328;stroke-linecap:butt;stroke-linejoin:miter;stroke-miterlimit:4;stroke-dasharray:none;stroke-opacity:1"
       d="m 82.369424,137.44009 -23.96531,1.00226"
       id="path877"
       inkscape:connector-curvature="0"
       sodipodi:nodetypes="cc" />
    <path
       style="fill:#ffffff;fill-opacity:1;stroke:#000000;stroke-width:0.52899998;stroke-linecap:butt;stroke-linejoin:miter;stroke-miterlimit:4;stroke-dasharray:none;stroke-opacity:1"
       d="m 63.188204,124.92141 -0.47518,1.57151 1.01399,-0.0218 22.7457,-0.63299 66.732966,-7.66809 30.13821,-6.27152 5.63057,-1.05305 -14.16195,-5.78649 -29.26953,6.26024 -55.279016,9.73288 -26.47535,2.15243 -0.62089,1.77954"
       id="path4516"
       inkscape:connector-curvature="0"
       sodipodi:nodetypes="cccccccccccc" />
    <path
       style="fill:none;fill-opacity:1;stroke:#000000;stroke-width:0.5291667;stroke-linecap:butt;stroke-linejoin:miter;stroke-miterlimit:4;stroke-dasharray:none;stroke-opacity:1"
       d="m 166.03654,143.60801 6.10647,-5.78324 26.74182,-3.59077 18.42634,-4.15774 -15.26079,4.72471"
       id="path881"
       inkscape:connector-curvature="0"
       sodipodi:nodetypes="ccccc" />
    <path
       style="fill:#ffffff;fill-opacity:1;stroke:#000000;stroke-width:0.5291667;stroke-linecap:butt;stroke-linejoin:miter;stroke-miterlimit:4;stroke-dasharray:none;stroke-opacity:1"
       d="m 205.36933,133.7893 -1.31131,2.87525"
       id="path883"
       inkscape:connector-curvature="0"
       sodipodi:nodetypes="cc" />
    <path
       style="fill:#ffffff;fill-opacity:1;stroke:#000000;stroke-width:0.5291667;stroke-linecap:butt;stroke-linejoin:miter;stroke-miterlimit:4;stroke-dasharray:none;stroke-opacity:1"
       d="m 209.69258,131.65904 -1.44103,4.13411"
       id="path885"
       inkscape:connector-curvature="0" />
    <path
       style="fill:#ffffff;fill-opacity:1;stroke:#000000;stroke-width:0.5291667;stroke-linecap:butt;stroke-linejoin:miter;stroke-miterlimit:4;stroke-dasharray:none;stroke-opacity:1"
       d="m 203.32013,133.18528 -1.9135,3.94512"
       id="path887"
       inkscape:connector-curvature="0" />
    <path
       style="fill:#ffffff;fill-opacity:1;stroke:#000000;stroke-width:0.5291667;stroke-linecap:butt;stroke-linejoin:miter;stroke-miterlimit:4;stroke-dasharray:none;stroke-opacity:1"
       d="M 212.53922,131.58817 211.11,135.20256"
       id="path889"
       inkscape:connector-curvature="0"
       sodipodi:nodetypes="cc" />
    <path
       style="fill:#ffffff;fill-opacity:1;stroke:#000000;stroke-width:0.5291667;stroke-linecap:butt;stroke-linejoin:miter;stroke-miterlimit:4;stroke-dasharray:none;stroke-opacity:1"
       d="m 193.62037,134.93444 -2.85644,4.15938"
       id="path891"
       inkscape:connector-curvature="0"
       sodipodi:nodetypes="cc" />
    <path
       style="fill:#ffffff;fill-opacity:1;stroke:#000000;stroke-width:0.5291667;stroke-linecap:butt;stroke-linejoin:miter;stroke-miterlimit:4;stroke-dasharray:none;stroke-opacity:1"
       d="m 182.62891,136.43783 -2.80633,4.71062"
       id="path893"
       inkscape:connector-curvature="0"
       sodipodi:nodetypes="cc" />
    <path
       style="fill:#ffffff;fill-opacity:1;stroke:#000000;stroke-width:0.5291667;stroke-linecap:butt;stroke-linejoin:miter;stroke-miterlimit:4;stroke-dasharray:none;stroke-opacity:1"
       d="m 128.40408,114.21307 -2.15611,-3.02751 -8.70982,1.04255 -0.81589,3.91028"
       id="path4522"
       inkscape:connector-curvature="0"
       sodipodi:nodetypes="cccc" />
    <path
       style="fill:#ffffff;fill-opacity:1;stroke:#000000;stroke-width:0.5291667;stroke-linecap:butt;stroke-linejoin:miter;stroke-miterlimit:4;stroke-dasharray:none;stroke-opacity:1"
       d="m 79.017104,119.22134 0.0418,0.52619 c 0.005,0.2374 -0.10166,0.46748 -0.41983,0.48773 l -12.82911,1.1841 c -0.5238,0.0411 -0.53153,-0.28484 -0.54885,-0.46077 l 0.008,-0.34244 c -0.0209,-0.26928 0.0769,-0.61863 0.3746,-0.64629 l 12.63996,-1.27983 c 0.58015,-0.10916 0.66859,0.1089 0.73343,0.53131 z"
       id="path882"
       inkscape:connector-curvature="0"
       sodipodi:nodetypes="ccccccccc" />
    <path
       style="fill:#ffffff;fill-opacity:1;stroke:#000000;stroke-width:0.5291667;stroke-linecap:butt;stroke-linejoin:miter;stroke-miterlimit:4;stroke-dasharray:none;stroke-opacity:1"
       d="m 50.664934,162.45341 -37.20003,-28.3528 -3.34758,6.87402 2.80986,2.43326 6.61706,-2.21816 30.9188,23.21208 z"
       id="path884"
       inkscape:connector-curvature="0"
       sodipodi:nodetypes="ccccccc" />
    <path
       style="fill:#ffffff;fill-opacity:1;stroke:#000000;stroke-width:0.5291667;stroke-linecap:butt;stroke-linejoin:miter;stroke-miterlimit:4;stroke-dasharray:none;stroke-opacity:1"
       d="m 53.805004,149.86812 -31.403,-23.27595 c -0.38165,-0.32332 -0.75624,-0.23684 -0.95813,-0.0508 l -7.89629,7.34666"
       id="path886"
       inkscape:connector-curvature="0"
       sodipodi:nodetypes="cccc" />
    <path
       style="fill:#ffffff;fill-opacity:1;stroke:#000000;stroke-width:0.5291667;stroke-linecap:butt;stroke-linejoin:miter;stroke-miterlimit:4;stroke-dasharray:none;stroke-opacity:1"
       d="m 29.598744,132.20238 -7.98475,7.9375"
       id="path888"
       inkscape:connector-curvature="0" />
    <path
       style="fill:#ffffff;fill-opacity:1;stroke:#000000;stroke-width:0.5291667;stroke-linecap:butt;stroke-linejoin:miter;stroke-miterlimit:4;stroke-dasharray:none;stroke-opacity:1"
       d="m 40.134834,139.80915 -7.9375,8.6462"
       id="path890"
       inkscape:connector-curvature="0" />
    <path
       style="fill:#ffffff;fill-opacity:1;stroke:#000000;stroke-width:0.5291667;stroke-linecap:butt;stroke-linejoin:miter;stroke-miterlimit:4;stroke-dasharray:none;stroke-opacity:1"
       d="m 50.103954,147.08519 -7.51228,9.11868"
       id="path892"
       inkscape:connector-curvature="0" />
    <text
       xml:space="preserve"
       style="font-style:normal;font-weight:normal;font-size:3.96874976px;line-height:1.25;font-family:sans-serif;letter-spacing:0px;word-spacing:0px;fill:#000000;fill-opacity:1;stroke:none;stroke-width:0.09921874"
       x="-148.76701"
       y="158.44188"
       id="text896"
       transform="matrix(-1.0065852,0.28457055,0.11646703,0.96053163,0,0)"><tspan
         sodipodi:role="line"
         id="tspan894"
         x="-148.76701"
         y="158.44188"
         style="fill:#000000;fill-opacity:1;stroke-width:0.09921874">Kiwi</tspan></text>
    <text
       xml:space="preserve"
       style="font-style:normal;font-weight:normal;font-size:3.96874976px;line-height:1.25;font-family:sans-serif;letter-spacing:0px;word-spacing:0px;fill:#000000;fill-opacity:1;stroke:none;stroke-width:0.09921874"
       x="-148.03812"
       y="151.49059"
       id="text900"
       transform="matrix(-0.98811466,0.23494462,0.17322231,0.97084113,0,0)"><tspan
         sodipodi:role="line"
         id="tspan898"
         x="-148.03812"
         y="151.49059"
         style="fill:#000000;fill-opacity:1;stroke-width:0.09921874">Express</tspan></text>
    <path
       style="fill:#ffffff;fill-opacity:1;stroke:#000000;stroke-width:0.5291667;stroke-linecap:butt;stroke-linejoin:miter;stroke-miterlimit:4;stroke-dasharray:none;stroke-opacity:1"
       d="m 56.484474,189.97779 c -2.31633,-1.87089 -3.01796,-5.35648 -6.949,-5.61266 -2.79456,0.32285 -2.12642,4.51866 -4.14268,4.54359 -1.66392,-0.31595 -1.95805,-3.45 -3.74178,-3.74178 -1.57861,0.34544 -0.47356,3.38745 -2.3386,3.47451 -1.01339,-0.0757 -1.60919,-0.78023 -2.60588,-0.60971 -1.35106,0.30241 -1.00003,1.46294 -2.07134,1.67878 -1.29095,-0.0591 -1.05908,-1.67054 -2.27179,-1.73725 -2.01214,-0.0267 -2.30945,1.15848 -3.60814,1.33635 -1.19645,0.13011 -2.23755,-0.62339 -3.40769,-0.26727 -1.53166,0.6264 -2.14627,1.77921 -3.20723,2.67269"
       id="path924"
       inkscape:connector-curvature="0"
       sodipodi:nodetypes="ccccccccccc" />
    <path
       style="fill:#ffffff;fill-opacity:1;stroke:#000000;stroke-width:0.5291667;stroke-linecap:butt;stroke-linejoin:miter;stroke-miterlimit:4;stroke-dasharray:none;stroke-opacity:1"
       d="m 101.06447,182.53568 c -1.859296,-1.93202 -7.415436,-5.86906 -11.377406,-6.04193 -3.659,-0.15965 -4.45135,3.16643 -7.2969,3.54117 -3.50185,0.46117 -8.09244,-1.21963 -10.33537,-0.75929 -2.1127,0.68323 -3.80201,1.98533 -4.75199,2.53312 -0.69276,0.39947 -2.61287,-0.76428 -5.0096,-0.77237 -1.46561,-0.005 -2.53751,1.22033 -3.82406,1.67806 -0.65049,0.23142 -2.12238,-0.45104 -2.85934,-0.30601 -0.80718,0.15886 -6.01588,6.93355 -6.10248,7.32812"
       id="path910"
       inkscape:connector-curvature="0"
       sodipodi:nodetypes="csscssssc" />
    <path
       style="fill:#ffffff;fill-opacity:1;stroke:#000000;stroke-width:0.5291667;stroke-linecap:butt;stroke-linejoin:miter;stroke-miterlimit:4;stroke-dasharray:none;stroke-opacity:1"
       d="m 179.89644,180.66775 c -4.45987,-2.42708 -16.25373,-10.55401 -22.87938,-10.72507 -7.57292,0.4572 -6.50052,4.99451 -10.98493,7.3351 -5.22969,2.26638 -7.8113,-5.80368 -15.80414,-4.60658 -7.20442,0.92873 -4.49176,5.84277 -10.70145,6.83901 -6.96224,0.90624 -9.22467,-3.82845 -13.9615,-3.47266 -4.75761,0.8623 -5.942976,5.18157 -10.347086,5.74051 -3.27893,0.28218 -3.30765,-2.63376 -5.45703,-2.33872 -2.62581,0.17454 -3.74296,2.93435 -6.37835,2.97655 -2.7438,0.38145 -2.25667,-0.99295 -4.34337,-0.77251 -1.18515,0.0833 -1.9309,0.94587 -3.23977,1.1623 -1.0535,0.1033 -1.23933,-0.24014 -2.34684,-0.0203 -0.96104,0.26313 -1.26223,1.03973 -2.64282,1.42946 -0.84468,0.23846 -1.48793,-0.49346 -2.68894,-0.24948 -1.42775,0.29004 -1.23127,1.40858 -3.94673,1.17634 -1.42994,-0.12229 -2.00984,-0.80311 -3.26963,-0.69921 -1.26056,0.10395 -1.69209,1.34177 -3.54257,1.01868 -2.41445,-0.42156 -5.42276,5.18892 -7.00875,6.05804"
       id="path906"
       inkscape:connector-curvature="0"
       sodipodi:nodetypes="ccccccccccccsssssc" />
    <path
       style="fill:#ffffff;fill-opacity:1;stroke:#000000;stroke-width:0.5291667;stroke-linecap:butt;stroke-linejoin:miter;stroke-miterlimit:4;stroke-dasharray:none;stroke-opacity:1"
       d="m 221.39846,176.68113 c -1.35453,-6.25105 -5.22021,-11.94196 -10.04045,-16.3479 -2.03545,-1.78569 -4.61049,-2.74522 -6.08901,-1.5667 2.62423,5.53099 1.68791,11.11465 -0.39353,14.33635 -2.75335,3.11982 -9.68997,-2.67131 -12.34212,-1.51573 -1.43369,0.46029 -2.76134,3.35048 -3.84212,4.20536 -1.20213,0.95087 -2.33627,0.33741 -3.93637,0.32421 -2.20783,0.23507 -1.36459,3.44693 -4.5078,2.5628 -1.79579,-0.42496 -3.45194,-1.89986 -4.42575,-1.96095 -2.40203,-0.1507 -4.6878,4.06618 -6.0984,5.42643"
       id="path904"
       inkscape:connector-curvature="0"
       sodipodi:nodetypes="cccccsccsc" />
  </g>
</svg>
