<?xml version="1.0" encoding="UTF-8" standalone="no"?>
<!-- Created with Inkscape (http://www.inkscape.org/) -->

<svg
   xmlns:dc="http://purl.org/dc/elements/1.1/"
   xmlns:cc="http://creativecommons.org/ns#"
   xmlns:rdf="http://www.w3.org/1999/02/22-rdf-syntax-ns#"
   xmlns:svg="http://www.w3.org/2000/svg"
   xmlns="http://www.w3.org/2000/svg"
   xmlns:sodipodi="http://sodipodi.sourceforge.net/DTD/sodipodi-0.dtd"
   xmlns:inkscape="http://www.inkscape.org/namespaces/inkscape"
   width="1077.5266"
   height="396.50381"
   viewBox="0 0 285.09559 104.9083"
   version="1.1"
   id="svg900"
   inkscape:version="0.92.2 (5c3e80d, 2017-08-06)"
   sodipodi:docname="kapiti-island.svg">
  <defs
     id="defs894" />
  <sodipodi:namedview
     id="base"
     pagecolor="#ffffff"
     bordercolor="#666666"
     borderopacity="1.0"
     inkscape:pageopacity="0.0"
     inkscape:pageshadow="2"
     inkscape:zoom="0.98994949"
     inkscape:cx="695.40124"
     inkscape:cy="20.389617"
     inkscape:document-units="mm"
     inkscape:current-layer="layer1"
     showgrid="false"
     inkscape:window-width="1920"
     inkscape:window-height="1017"
     inkscape:window-x="1912"
     inkscape:window-y="103"
     inkscape:window-maximized="1"
     units="px" />
  <metadata
     id="metadata897">
    <rdf:RDF>
      <cc:Work
         rdf:about="">
        <dc:format>image/svg+xml</dc:format>
        <dc:type
           rdf:resource="http://purl.org/dc/dcmitype/StillImage" />
        <dc:title></dc:title>
      </cc:Work>
    </rdf:RDF>
  </metadata>
  <g
     inkscape:label="Calque 1"
     inkscape:groupmode="layer"
     id="layer1"
     transform="translate(9.7208762,-102.29701)">
    <path
       style="fill:#ffffff;stroke:#000000;stroke-width:1.05833328;stroke-linecap:butt;stroke-linejoin:miter;stroke-miterlimit:4;stroke-dasharray:none;stroke-opacity:1;fill-opacity:1"
       d="m 26.459682,186.61768 15.234365,-16.57071 5.34539,-15.23436 10.958049,-16.03617 13.898015,-9.6217 13.096208,-1.06908 9.087165,-5.07812 10.423516,4.00904 13.36347,-2.13816 9.88897,5.34539 8.01809,-4.00904 7.75082,-10.95805 10.69078,-4.00904 15.50163,0.8018 10.95805,9.08717 7.48355,3.4745 6.68174,8.55263 16.30344,1.33635 5.87993,6.68174 7.48354,11.22532 5.61266,16.83798 14.69983,18.17432 c 0,0 -7.29066,9.19981 -12.56167,10.95805 -5.76234,1.92213 -10.93738,-0.24455 -16.94591,0.64804 -5.38415,0.79984 -11.02207,3.72969 -16.46278,3.89555 -5.88596,0.17943 -11.6182,-3.03387 -17.50615,-2.93996 -4.81766,0.0768 -8.14537,2.30442 -12.96258,2.40542 -5.77585,0.1211 -10.25943,-1.93869 -16.03617,-2.00452 -6.57112,-0.0749 -12.94275,2.48994 -19.51067,2.27179 -5.85777,-0.19456 -9.37421,-2.63829 -15.23437,-2.53906 -5.83914,0.0989 -11.80341,3.27847 -17.639787,3.0736 -6.411758,-0.22507 -10.694136,-3.23179 -17.105249,-3.47451 -5.918727,-0.22408 -10.933936,2.0767 -16.837981,1.60362 -5.45267,-0.43691 -9.78446,-4.47433 -15.234363,-4.94449 -6.347438,-0.54759 -8.518778,1.91443 -14.833459,1.06908 -5.620038,-0.75236 -15.816387,-7.65747 -15.816387,-7.65747 z"
       id="path1447"
       inkscape:connector-curvature="0"
       sodipodi:nodetypes="ccccccccccccccccccccccssssssssssssscc" />
    <path
       style="fill:#4c9d2a;fill-opacity:1;stroke:#000000;stroke-width:1.05833328;stroke-linecap:butt;stroke-linejoin:miter;stroke-miterlimit:4;stroke-dasharray:none;stroke-opacity:1"
       d="m 230.11906,169.24517 c 0,0 -6.82755,13.15657 -15.4502,16.04404 -6.73519,2.25541 -16.20985,-0.2268 -23.30388,0.12576 -7.04925,0.35033 -13.12618,6.14171 -20.17885,6.41447 -8.18397,0.31652 -13.06426,-5.66978 -21.24792,-5.34539 -5.84167,0.23155 -13.53235,4.94326 -19.37705,5.07812 -8.7178,0.20115 -16.53745,-6.71338 -25.25697,-6.81537 -8.988192,-0.10513 -18.141719,5.75809 -26.948362,3.95762 -6.109907,-1.24913 -8.23358,-6.99081 -14.211141,-8.76847 -3.594216,-1.06888 -7.698077,2.00756 -11.22532,0.73499 -4.846124,-1.74841 -11.22532,-10.62397 -11.22532,-10.62397 l -4.409948,-13.36347 8.018086,-16.97162 12.828937,-13.63075 c 0,0 7.670151,-5.57666 12.17245,-5.97399 4.538263,-0.4005 13.13467,3.77976 13.13467,3.77976 0,0 5.943084,-3.80045 9.838822,-4.62114 5.071992,-1.06847 12.294396,2.13816 12.294396,2.13816 0,0 8.04286,-2.24837 12.02713,-1.87088 4.20519,0.39842 10.69078,4.27631 10.69078,4.27631 l 6.94901,-4.81086 5.07812,-12.02713 12.6953,-4.14267 17.90706,0.53454 12.56167,11.62622 c 0,0 7.93576,0.0845 11.09168,2.13816 3.72854,2.4263 8.41899,8.81989 8.41899,8.81989 0,0 9.14811,-0.7677 13.76438,0.80181 4.6556,1.58288 10.82442,10.02261 10.82442,10.02261 l 6.41447,15.23436 1.60362,14.56619 c -1.82634,0.8909 -3.65269,1.7818 -5.47903,2.6727"
       id="path1457"
       inkscape:connector-curvature="0"
       sodipodi:nodetypes="csssssssssccccscscsccccccscscccc" />
    <path
       style="fill:none;stroke:#000000;stroke-width:1.05833328;stroke-linecap:butt;stroke-linejoin:miter;stroke-miterlimit:4;stroke-dasharray:none;stroke-opacity:1"
       d="m 65.481032,160.158 7.216278,-5.87993 -3.741772,-8.28535 11.225318,-11.49259"
       id="path1459"
       inkscape:connector-curvature="0" />
    <path
       style="fill:none;stroke:#000000;stroke-width:1.05833328;stroke-linecap:butt;stroke-linejoin:miter;stroke-miterlimit:4;stroke-dasharray:none;stroke-opacity:1"
       d="m 109.84778,130.49108 6.949,7.75082 -0.26727,7.48354"
       id="path1461"
       inkscape:connector-curvature="0" />
    <path
       style="fill:none;stroke:#000000;stroke-width:1.05833328;stroke-linecap:butt;stroke-linejoin:miter;stroke-miterlimit:4;stroke-dasharray:none;stroke-opacity:1"
       d="m 124.01306,170.58151 15.23436,-7.21628 2.40543,-7.75081"
       id="path1463"
       inkscape:connector-curvature="0" />
    <path
       style="fill:none;stroke:#000000;stroke-width:1.05833328;stroke-linecap:butt;stroke-linejoin:miter;stroke-miterlimit:4;stroke-dasharray:none;stroke-opacity:1"
       d="m 151.00728,121.93846 7.75082,5.61266 -2.13816,5.87993"
       id="path1465"
       inkscape:connector-curvature="0" />
    <path
       style="fill:none;stroke:#000000;stroke-width:1.05833328;stroke-linecap:butt;stroke-linejoin:miter;stroke-miterlimit:4;stroke-dasharray:none;stroke-opacity:1"
       d="m 206.59934,142.25094 1.60362,16.03617 9.35443,3.20724"
       id="path1467"
       inkscape:connector-curvature="0" />
    <path
       style="fill:none;stroke:#000000;stroke-width:1.05833328;stroke-linecap:butt;stroke-linejoin:miter;stroke-miterlimit:4;stroke-dasharray:none;stroke-opacity:1"
       d="m 188.69228,135.03466 -1.06907,10.69078 -4.00905,0.53454"
       id="path1469"
       inkscape:connector-curvature="0" />
    <path
       style="fill:none;stroke:#000000;stroke-width:1.05833328;stroke-linecap:butt;stroke-linejoin:miter;stroke-miterlimit:4;stroke-dasharray:none;stroke-opacity:1"
       d="m 167.84526,161.22708 3.74177,12.02713 7.21628,1.06908"
       id="path1471"
       inkscape:connector-curvature="0" />
    <path
       style="fill:#d4bb2a;fill-opacity:1;stroke:none;stroke-width:0.26458332px;stroke-linecap:butt;stroke-linejoin:miter;stroke-opacity:1"
       d="m 26.827178,187.11881 10.686957,4.42583 14.268604,-0.28348 14.174104,6.3311 16.441965,-2.36235 17.670392,4.53571 19.18229,-4.06324 13.98512,3.1183 18.80431,-2.45684 15.875,2.83482 13.22917,-3.30729 16.90163,3.48843 16.57071,-3.8754 14.63301,0.33408 12.19145,-11.60596 2.55018,3.21059 c 0,0 -6.19963,8.22978 -11.05927,10.08062 -5.13632,1.95622 -10.9755,0.4966 -16.54709,0.78224 -5.83494,0.29914 -11.18041,3.92349 -17.06946,4.04721 -6.08606,0.12785 -11.80685,-3.03686 -18.02399,-2.93997 -4.69737,0.0732 -8.72438,2.31321 -13.31336,2.38872 -5.19113,0.0854 -9.11245,-1.71619 -15.68538,-2.07133 -6.13195,0.0527 -12.31078,2.14965 -18.92602,2.38871 -6.18597,-0.29628 -9.98544,-2.75904 -15.34033,-2.56337 -5.87748,0.0347 -11.10017,2.76938 -17.53383,3.0311 -6.63005,-0.15051 -11.325488,-3.28569 -17.933222,-3.52537 -7.818324,0.39236 -10.722072,1.86434 -16.143251,1.76435 -4.940986,-0.5019 -11.298142,-4.64978 -15.42685,-5.11079 -3.706934,-0.27066 -9.768275,1.468 -12.908917,1.30908 -4.45329,0.01 -10.277381,-2.98451 -16.680206,-7.13945 z"
       id="path1477"
       inkscape:connector-curvature="0"
       sodipodi:nodetypes="ccccccccccccccccssssscccccccccc" />
    <path
       style="fill:#00bbe0;fill-opacity:1;stroke:none;stroke-width:0.26458332px;stroke-linecap:butt;stroke-linejoin:miter;stroke-opacity:1"
       d="m -9.7208762,207.19793 20.8209692,-14.17013 7.991836,-3.19592 c 0,0 10.826086,7.2364 17.053394,8.24941 4.353009,0.70811 9.709359,-1.63381 14.098466,-1.20271 5.945828,0.58401 10.122809,4.40359 16.069582,4.97789 5.31635,0.51342 11.170635,-1.77335 16.506266,-1.53205 6.096999,0.27573 11.577077,3.27825 17.679813,3.35569 6.02316,0.0764 11.64678,-3.0217 17.67039,-3.00019 5.04698,0.018 9.90701,2.45501 14.95281,2.56539 6.1779,0.13513 12.90413,-2.29825 19.08348,-2.3138 5.59144,-0.0141 10.57564,2.24163 16.16505,2.09091 4.44945,-0.11998 8.824,-2.44418 13.27504,-2.46062 5.62894,-0.0208 11.30133,3.02281 16.92925,2.91311 6.39616,-0.12468 10.83277,-3.28695 17.18686,-4.02983 5.01866,-0.58675 11.6302,1.19788 16.40849,-0.44505 5.59274,-1.92297 13.48328,-11.51372 13.48328,-11.51372 l 8.09133,6.10128 9.20913,5.74013 12.42015,7.87759"
       id="path1481"
       inkscape:connector-curvature="0"
       sodipodi:nodetypes="cccssssssssssssscccc" />
  </g>
</svg>
