<?xml version="1.0" encoding="UTF-8" standalone="no"?>
<!-- Created with Inkscape (http://www.inkscape.org/) -->

<svg
   xmlns:dc="http://purl.org/dc/elements/1.1/"
   xmlns:cc="http://creativecommons.org/ns#"
   xmlns:rdf="http://www.w3.org/1999/02/22-rdf-syntax-ns#"
   xmlns:svg="http://www.w3.org/2000/svg"
   xmlns="http://www.w3.org/2000/svg"
   xmlns:sodipodi="http://sodipodi.sourceforge.net/DTD/sodipodi-0.dtd"
   xmlns:inkscape="http://www.inkscape.org/namespaces/inkscape"
   width="533.93481"
   height="670.97449"
   viewBox="0 0 141.27025 177.52867"
   version="1.1"
   id="svg1427"
   inkscape:version="0.92.2 (5c3e80d, 2017-08-06)"
   sodipodi:docname="lake.svg"
   inkscape:export-filename="C:\Users\Mathieu\Pictures\Dessin svg\project-nz\Décor\image.png"
   inkscape:export-xdpi="96"
   inkscape:export-ydpi="96">
  <defs
     id="defs1421" />
  <sodipodi:namedview
     id="base"
     pagecolor="#ffffff"
     bordercolor="#666666"
     borderopacity="1.0"
     inkscape:pageopacity="0.0"
     inkscape:pageshadow="2"
     inkscape:zoom="0.98994949"
     inkscape:cx="468.73691"
     inkscape:cy="337.58488"
     inkscape:document-units="mm"
     inkscape:current-layer="layer1"
     showgrid="false"
     inkscape:window-width="1680"
     inkscape:window-height="987"
     inkscape:window-x="-8"
     inkscape:window-y="14"
     inkscape:window-maximized="1"
     units="px" />
  <metadata
     id="metadata1424">
    <rdf:RDF>
      <cc:Work
         rdf:about="">
        <dc:format>image/svg+xml</dc:format>
        <dc:type
           rdf:resource="http://purl.org/dc/dcmitype/StillImage" />
        <dc:title></dc:title>
      </cc:Work>
    </rdf:RDF>
  </metadata>
  <g
     inkscape:label="Calque 1"
     inkscape:groupmode="layer"
     id="layer1"
     transform="translate(-54.485448,-39.27149)">
    <path
       style="fill:#195b9a;fill-opacity:1;stroke:#000000;stroke-width:1.05833328;stroke-linecap:butt;stroke-linejoin:miter;stroke-miterlimit:4;stroke-dasharray:none;stroke-opacity:1"
       d="m 80.130951,71.348213 c -7.009135,5.019371 -19.526337,3.85217 -23.056546,11.717263 -5.280843,11.765398 0.177204,28.864764 9.827379,37.419644 7.613315,6.74921 22.925651,-2.91634 30.238096,4.15773 6.43122,6.22157 6.44252,17.71577 4.53571,26.45834 -1.56067,7.15556 -10.874634,10.97811 -12.392623,18.14285 -1.924025,9.08118 -0.458315,19.90498 5.032263,27.38985 7.77515,10.59925 21.84317,16.58592 34.8563,18.44485 13.38228,1.91166 28.87018,-0.11272 39.72224,-8.17329 7.83753,-5.82148 25.91376,-8.31937 13.93926,-25.75937 -6.40872,-9.33384 17.79492,-25.71335 11.27118,-36.73641 -8.75312,-14.79 -38.97427,2.29968 -50.48573,-10.46149 -4.97248,-5.5123 -3.28787,-14.805 -2.25539,-22.15652 0.75491,-5.37515 5.55136,-9.71387 6.04762,-15.119042 0.88105,-9.596179 0.54214,-20.980943 -5.66964,-28.348214 -4.5248,-5.366481 -12.87202,-5.751967 -19.65476,-7.559524 -8.74689,-2.330989 -18.2143,-6.915008 -26.836311,-4.157737 -6.704191,2.143963 -9.396419,10.642989 -15.119048,14.74107 z"
       id="path1975"
       inkscape:connector-curvature="0"
       sodipodi:nodetypes="aaaaaaaassaaaaaaaa" />
    <path
       style="fill:#57a326;fill-opacity:1;stroke:#000000;stroke-width:0.34481001;stroke-linecap:butt;stroke-linejoin:miter;stroke-miterlimit:4;stroke-dasharray:none;stroke-opacity:1"
       d="m 144.53613,68.293928 c 0,0 -0.009,-2.470354 -0.59598,-3.473347 -0.53969,-0.921421 -2.46903,-1.95933 -2.46903,-1.95933 0,0 2.49847,0.367118 3.32043,1.246846 0.75273,0.805646 1.02166,3.206169 1.02166,3.206169 0,0 0.39476,-2.911073 0,-4.274894 -0.14826,-0.512223 -0.85139,-1.335903 -0.85139,-1.335903 0,0 1.60967,0.95307 1.9582,1.781208 0.44611,1.059989 -0.0851,3.473348 -0.0851,3.473348 0,0 0.32246,-2.737439 1.27709,-3.473348 0.68691,-0.52953 2.55417,-0.17812 2.55417,-0.17812 0,0 -1.07016,0.458001 -1.44736,0.890597 -1.07797,1.236283 -2.04334,4.542079 -2.04334,4.542079 l 1.19195,-1.246846 0.76625,1.335903 h -7.32197 l 0.25542,-1.335903 z"
       id="path1392-0"
       inkscape:connector-curvature="0"
       sodipodi:nodetypes="cacacacacacacccccc" />
    <path
       style="fill:#57a326;fill-opacity:1;stroke:#000000;stroke-width:0.34481001;stroke-linecap:butt;stroke-linejoin:miter;stroke-miterlimit:4;stroke-dasharray:none;stroke-opacity:1"
       d="m 158.5755,138.58523 c 0,0 -0.009,-2.47036 -0.59598,-3.47335 -0.53969,-0.92142 -2.46903,-1.95933 -2.46903,-1.95933 0,0 2.49847,0.36712 3.32043,1.24685 0.75273,0.80564 1.02166,3.20617 1.02166,3.20617 0,0 0.39476,-2.91108 0,-4.2749 -0.14826,-0.51222 -0.85139,-1.3359 -0.85139,-1.3359 0,0 1.60967,0.95307 1.9582,1.78121 0.44611,1.05999 -0.0851,3.47335 -0.0851,3.47335 0,0 0.32246,-2.73744 1.27709,-3.47335 0.68691,-0.52953 2.55417,-0.17812 2.55417,-0.17812 0,0 -1.07016,0.458 -1.44736,0.89059 -1.07797,1.23629 -2.04334,4.54208 -2.04334,4.54208 l 1.19195,-1.24684 0.76625,1.3359 h -7.32197 l 0.25542,-1.3359 z"
       id="path1392-0-3"
       inkscape:connector-curvature="0"
       sodipodi:nodetypes="cacacacacacacccccc" />
    <path
       style="fill:#57a326;fill-opacity:1;stroke:#000000;stroke-width:0.34481001;stroke-linecap:butt;stroke-linejoin:miter;stroke-miterlimit:4;stroke-dasharray:none;stroke-opacity:1"
       d="m 91.223584,161.03587 c 0,0 -0.009,-2.47036 -0.595981,-3.47335 -0.539689,-0.92142 -2.46903,-1.95933 -2.46903,-1.95933 0,0 2.49847,0.36712 3.320431,1.24685 0.75273,0.80564 1.021659,3.20617 1.021659,3.20617 0,0 0.39476,-2.91108 0,-4.2749 -0.14826,-0.51222 -0.85139,-1.3359 -0.85139,-1.3359 0,0 1.60967,0.95307 1.958201,1.78121 0.44611,1.05999 -0.0851,3.47335 -0.0851,3.47335 0,0 0.32246,-2.73744 1.27709,-3.47335 0.68691,-0.52953 2.55417,-0.17812 2.55417,-0.17812 0,0 -1.07016,0.458 -1.44736,0.89059 -1.07797,1.23629 -2.043341,4.54208 -2.043341,4.54208 l 1.191951,-1.24684 0.76625,1.3359 h -7.321971 l 0.25542,-1.3359 z"
       id="path1392-0-0"
       inkscape:connector-curvature="0"
       sodipodi:nodetypes="cacacacacacacccccc" />
    <path
       style="fill:#57a326;fill-opacity:1;stroke:#000000;stroke-width:0.34481001;stroke-linecap:butt;stroke-linejoin:miter;stroke-miterlimit:4;stroke-dasharray:none;stroke-opacity:1"
       d="m 152.69557,216.09339 c 0,0 -0.009,-2.47036 -0.59598,-3.47335 -0.53969,-0.92142 -2.46903,-1.95933 -2.46903,-1.95933 0,0 2.49847,0.36712 3.32043,1.24685 0.75273,0.80564 1.02166,3.20617 1.02166,3.20617 0,0 0.39476,-2.91108 0,-4.2749 -0.14826,-0.51222 -0.85139,-1.3359 -0.85139,-1.3359 0,0 1.60967,0.95307 1.9582,1.78121 0.44611,1.05999 -0.0851,3.47334 -0.0851,3.47334 0,0 0.32246,-2.73743 1.27709,-3.47334 0.68691,-0.52953 2.55417,-0.17812 2.55417,-0.17812 0,0 -1.07016,0.458 -1.44736,0.89059 -1.07797,1.23629 -2.04334,4.54208 -2.04334,4.54208 l 1.19195,-1.24684 0.76625,1.3359 h -7.32197 l 0.25542,-1.3359 z"
       id="path1392-0-4"
       inkscape:connector-curvature="0"
       sodipodi:nodetypes="cacacacacacacccccc" />
    <path
       style="fill:#57a326;fill-opacity:1;stroke:#000000;stroke-width:0.34481001;stroke-linecap:butt;stroke-linejoin:miter;stroke-miterlimit:4;stroke-dasharray:none;stroke-opacity:1"
       d="m 66.902058,75.509617 c 0,0 -0.009,-2.47035 -0.59598,-3.47335 -0.53969,-0.92142 -2.46903,-1.95933 -2.46903,-1.95933 0,0 2.49847,0.36712 3.32043,1.24685 0.75273,0.80565 1.02166,3.20617 1.02166,3.20617 0,0 0.39476,-2.91107 0,-4.27489 -0.14826,-0.51223 -0.85139,-1.33591 -0.85139,-1.33591 0,0 1.60967,0.95307 1.9582,1.78121 0.44611,1.05999 -0.0851,3.47335 -0.0851,3.47335 0,0 0.32246,-2.73744 1.27709,-3.47335 0.68691,-0.52953 2.55417,-0.17812 2.55417,-0.17812 0,0 -1.07016,0.458 -1.44736,0.8906 -1.07797,1.23628 -2.04334,4.54208 -2.04334,4.54208 l 1.19195,-1.24685 0.76625,1.3359 h -7.32197 l 0.25542,-1.3359 z"
       id="path1392-0-7"
       inkscape:connector-curvature="0"
       sodipodi:nodetypes="cacacacacacacccccc" />
    <path
       style="fill:#3f7746;fill-opacity:1;stroke:#000000;stroke-width:0.19801725px;stroke-linecap:butt;stroke-linejoin:miter;stroke-opacity:1"
       d="m 143.97857,116.96535 -1.91133,-11.13931 -4.34394,-6.821747 5.96567,6.303637 1.96926,10.79391 -0.46336,-11.13932 -2.31676,-6.174104 3.47515,6.087764 0.97588,11.39132 0.64584,-11.65038 -1.33214,-5.785529 2.37469,5.612829 -0.11584,10.2758 2.08508,-10.70755 -2.25884,-7.685265 3.41723,7.253505 -1.27423,11.13931 3.0118,-11.31202 1.04255,-5.828701 0.11583,5.915061 -3.47514,12.26187 5.7919,-11.83012 2.31677,-3.972153 -1.85341,4.576623 -4.40185,11.1393 5.67607,-10.70756 3.3014,-1.94289 -2.60637,2.72006 -8.2556,13.69449 -0.65298,-0.051 -3.86187,0.051 z"
       id="path2025"
       inkscape:connector-curvature="0"
       sodipodi:nodetypes="cccccccccccccccccccccccccccccccc" />
    <path
       style="fill:#326c16;fill-opacity:1;stroke:#000000;stroke-width:0.33392107px;stroke-linecap:butt;stroke-linejoin:miter;stroke-opacity:1"
       d="m 156.02989,112.18128 10.66091,-5.04277 -11.84546,4.20231 -2.72445,3.51193 1.5399,-3.87213 5.80428,-4.44244 4.73818,-3.12171 -11.37163,6.60362 -2.22103,3.57196 2.10257,-7.17393 4.1459,-1.801 -5.56736,1.20066 -2.07296,7.98439 0.53306,-9.66531 -4.26437,-3.24178 2.48755,3.72204 -0.11846,9.00495 -1.89529,-7.68422 -6.98881,-3.72204 5.80427,4.32237 1.77682,6.84376 -2.84292,-5.28291 -8.05489,-3.96217 6.87035,4.9227 2.72447,4.80264 -4.14592,-2.52138 -3.19826,-4.32238 1.18453,5.76317 5.09355,1.32073 -5.80428,-0.24014 -5.33045,-4.68257 5.09354,6.12336 6.2781,-0.3602 0.11847,1.80099 2.48023,2.6904 2.49485,-0.52921 c 0.74619,0.0567 1.23004,0.37573 1.57787,0.0135 1.69287,-1.76303 2.24035,-2.89387 4.93714,-6.73716 z"
       id="path2029"
       inkscape:connector-curvature="0"
       sodipodi:nodetypes="ccccccccccccccccccccccccccccccccccccsc" />
    <path
       style="fill:#446216;fill-opacity:1;stroke:#000000;stroke-width:0.2610763px;stroke-linecap:butt;stroke-linejoin:miter;stroke-opacity:1"
       d="m 147.02003,119.43418 h 4.51485 l 1.3279,-2.61886 6.63948,-1.96416 6.3739,-3.53548 -6.77227,2.74982 -6.5067,1.44038 5.04601,-3.27359 4.38206,-6.80907 -5.31158,5.63057 -4.24928,3.53548 3.05417,-6.28529 0.66395,-4.97587 -3.18696,5.63059 -2.12463,5.76152 -1.06231,-6.2853 0.26557,-6.67813 -1.59347,6.67813 1.1951,5.76152 -3.18696,-5.23774 -3.31973,-5.63059 1.1951,5.49964 4.24928,6.2853 -4.91322,-4.84492 -2.65579,-6.94002 1.32789,8.51135 4.91323,3.66642 -5.17881,-1.70227 -5.04601,-6.54719 3.71812,7.98757 5.57716,1.70227 -5.04601,0.52377 -3.98369,-2.88076 3.71812,4.1902 5.17879,-0.52377 z"
       id="path2027"
       inkscape:connector-curvature="0" />
    <path
       style="fill:#9c8116;fill-opacity:1;stroke:#000000;stroke-width:0.2262235px;stroke-linecap:butt;stroke-linejoin:miter;stroke-opacity:1"
       d="m 147.02003,119.43418 h 4.51485 l 1.27272,-2.28826 2.74266,1.45422 -2.97607,-2.23725 -1.75064,2.29318 1.22544,-2.90843 3.96811,1.45422 -3.96811,-2.34912 -1.69227,3.07622 0.70024,-4.58636 3.32621,1.56607 -3.85139,-2.6847 -0.70026,5.31347 -0.46683,-6.37617 -2.33418,2.12539 1.9257,-1.17455 0.40848,5.31347 -1.22545,-3.85926 -3.90975,-0.11187 3.44292,0.83897 1.10874,3.24402 -3.26786,-2.96436 -2.50925,1.73387 2.5676,-0.83896 2.04241,2.57284 -3.26785,-0.89491 -1.16709,1.78981 1.63392,-1.17456 z"
       id="path2031"
       inkscape:connector-curvature="0"
       sodipodi:nodetypes="cccccccccccccccccccccccccccccc" />
    <path
       style="fill:#3f7746;fill-opacity:1;stroke:#000000;stroke-width:0.19801725px;stroke-linecap:butt;stroke-linejoin:miter;stroke-opacity:1"
       d="m 76.535618,123.82961 -1.91133,-11.13931 -4.34394,-6.82175 5.96567,6.30364 1.96926,10.79391 -0.46336,-11.13932 -2.31676,-6.1741 3.47515,6.08776 0.97588,11.39132 0.64584,-11.65038 -1.33214,-5.78553 2.37469,5.61283 -0.11584,10.2758 2.08508,-10.70755 -2.25884,-7.68527 3.41723,7.25351 -1.27423,11.13931 3.0118,-11.31202 1.04255,-5.8287 0.11583,5.91506 -3.47514,12.26187 5.7919,-11.83012 2.316771,-3.97215 -1.853411,4.57662 -4.40185,11.1393 5.67607,-10.70756 3.301399,-1.94289 -2.606368,2.72006 -8.255601,13.69449 -0.65298,-0.051 -3.86187,0.051 z"
       id="path2025-6"
       inkscape:connector-curvature="0"
       sodipodi:nodetypes="cccccccccccccccccccccccccccccccc" />
    <path
       style="fill:#326c16;fill-opacity:1;stroke:#000000;stroke-width:0.33392107px;stroke-linecap:butt;stroke-linejoin:miter;stroke-opacity:1"
       d="m 88.586938,119.04554 10.660911,-5.04277 -11.845461,4.20231 -2.72445,3.51193 1.5399,-3.87213 5.80428,-4.44244 4.73818,-3.12171 -11.37163,6.60362 -2.22103,3.57196 2.10257,-7.17393 4.1459,-1.801 -5.56736,1.20066 -2.07296,7.98439 0.53306,-9.66531 -4.26437,-3.24178 2.48755,3.72204 -0.11846,9.00495 -1.89529,-7.68422 -6.98881,-3.72204 5.80427,4.32237 1.77682,6.84376 -2.84292,-5.28291 -8.05489,-3.96217 6.87035,4.9227 2.72447,4.80264 -4.14592,-2.52138 -3.19826,-4.32238 1.18453,5.76317 5.09355,1.32073 -5.80428,-0.24014 -5.33045,-4.68257 5.09354,6.12336 6.2781,-0.3602 0.11847,1.80099 2.48023,2.6904 2.49485,-0.52921 c 0.74619,0.0567 1.23004,0.37573 1.57787,0.0135 1.69287,-1.76303 2.24035,-2.89387 4.93714,-6.73716 z"
       id="path2029-7"
       inkscape:connector-curvature="0"
       sodipodi:nodetypes="ccccccccccccccccccccccccccccccccccccsc" />
    <path
       style="fill:#446216;fill-opacity:1;stroke:#000000;stroke-width:0.2610763px;stroke-linecap:butt;stroke-linejoin:miter;stroke-opacity:1"
       d="m 79.577078,126.29844 h 4.51485 l 1.3279,-2.61886 6.63948,-1.96416 6.3739,-3.53548 -6.77227,2.74982 -6.5067,1.44038 5.04601,-3.27359 4.382061,-6.80907 -5.311581,5.63057 -4.24928,3.53548 3.05417,-6.28529 0.66395,-4.97587 -3.18696,5.63059 -2.12463,5.76152 -1.06231,-6.2853 0.26557,-6.67813 -1.59347,6.67813 1.1951,5.76152 -3.18696,-5.23774 -3.31973,-5.63059 1.1951,5.49964 4.24928,6.2853 -4.91322,-4.84492 -2.65579,-6.94002 1.32789,8.51135 4.91323,3.66642 -5.17881,-1.70227 -5.04601,-6.54719 3.71812,7.98757 5.57716,1.70227 -5.04601,0.52377 -3.98369,-2.88076 3.71812,4.1902 5.17879,-0.52377 z"
       id="path2027-6"
       inkscape:connector-curvature="0" />
    <path
       style="fill:#9c8116;fill-opacity:1;stroke:#000000;stroke-width:0.2262235px;stroke-linecap:butt;stroke-linejoin:miter;stroke-opacity:1"
       d="m 79.577078,126.29844 h 4.51485 l 1.27272,-2.28826 2.74266,1.45422 -2.97607,-2.23725 -1.75064,2.29318 1.22544,-2.90843 3.96811,1.45422 -3.96811,-2.34912 -1.69227,3.07622 0.70024,-4.58636 3.32621,1.56607 -3.85139,-2.6847 -0.70026,5.31347 -0.46683,-6.37617 -2.33418,2.12539 1.9257,-1.17455 0.40848,5.31347 -1.22545,-3.85926 -3.90975,-0.11187 3.44292,0.83897 1.10874,3.24402 -3.26786,-2.96436 -2.50925,1.73387 2.5676,-0.83896 2.04241,2.57284 -3.26785,-0.89491 -1.16709,1.78981 1.63392,-1.17456 z"
       id="path2031-8"
       inkscape:connector-curvature="0"
       sodipodi:nodetypes="cccccccccccccccccccccccccccccc" />
    <path
       style="fill:#3f7746;fill-opacity:1;stroke:#000000;stroke-width:0.19801725px;stroke-linecap:butt;stroke-linejoin:miter;stroke-opacity:1"
       d="m 102.61597,206.98437 -1.91133,-11.13931 -4.343937,-6.82175 5.965667,6.30364 1.96926,10.79391 -0.46336,-11.13932 -2.31676,-6.1741 3.47515,6.08776 0.97588,11.39132 0.64584,-11.65038 -1.33214,-5.78553 2.37469,5.61283 -0.11584,10.2758 2.08508,-10.70755 -2.25884,-7.68526 3.41723,7.2535 -1.27423,11.13931 3.0118,-11.31202 1.04255,-5.8287 0.11583,5.91506 -3.47514,12.26187 5.7919,-11.83012 2.31677,-3.97215 -1.85341,4.57662 -4.40185,11.1393 5.67607,-10.70756 3.3014,-1.94289 -2.60637,2.72006 -8.2556,13.69449 -0.65298,-0.051 -3.86187,0.051 z"
       id="path2025-1"
       inkscape:connector-curvature="0"
       sodipodi:nodetypes="cccccccccccccccccccccccccccccccc" />
    <path
       style="fill:#326c16;fill-opacity:1;stroke:#000000;stroke-width:0.33392107px;stroke-linecap:butt;stroke-linejoin:miter;stroke-opacity:1"
       d="m 114.66729,202.2003 10.66091,-5.04277 -11.84546,4.20231 -2.72445,3.51193 1.5399,-3.87213 5.80428,-4.44244 4.73818,-3.12171 -11.37163,6.60362 -2.22103,3.57196 2.10257,-7.17393 4.1459,-1.801 -5.56736,1.20066 -2.07296,7.98439 0.53306,-9.66531 -4.26437,-3.24178 2.48755,3.72204 -0.11846,9.00495 -1.89529,-7.68422 -6.988807,-3.72204 5.804267,4.32237 1.77682,6.84376 -2.84292,-5.28291 -8.054887,-3.96217 6.870347,4.9227 2.72447,4.80264 -4.145917,-2.52138 -3.19826,-4.32238 1.18453,5.76317 5.093547,1.32073 -5.804277,-0.24014 -5.33045,-4.68257 5.09354,6.12336 6.278097,-0.3602 0.11847,1.80099 2.48023,2.6904 2.49485,-0.52921 c 0.74619,0.0567 1.23004,0.37573 1.57787,0.0135 1.69287,-1.76303 2.24035,-2.89387 4.93714,-6.73716 z"
       id="path2029-8"
       inkscape:connector-curvature="0"
       sodipodi:nodetypes="ccccccccccccccccccccccccccccccccccccsc" />
    <path
       style="fill:#446216;fill-opacity:1;stroke:#000000;stroke-width:0.2610763px;stroke-linecap:butt;stroke-linejoin:miter;stroke-opacity:1"
       d="m 105.65743,209.4532 h 4.51485 l 1.3279,-2.61886 6.63948,-1.96416 6.3739,-3.53548 -6.77227,2.74982 -6.5067,1.44038 5.04601,-3.27359 4.38206,-6.80907 -5.31158,5.63057 -4.24928,3.53548 3.05417,-6.28529 0.66395,-4.97587 -3.18696,5.63059 -2.12463,5.76152 -1.06231,-6.2853 0.26557,-6.67813 -1.59347,6.67813 1.1951,5.76152 -3.18696,-5.23774 -3.31973,-5.63059 1.1951,5.49964 4.24928,6.2853 -4.91322,-4.84492 -2.655787,-6.94002 1.327887,8.51135 4.91323,3.66642 -5.17881,-1.70227 -5.046007,-6.54719 3.71812,7.98757 5.577157,1.70227 -5.046007,0.52377 -3.98369,-2.88076 3.71812,4.1902 5.178787,-0.52377 z"
       id="path2027-1"
       inkscape:connector-curvature="0" />
    <path
       style="fill:#9c8116;fill-opacity:1;stroke:#000000;stroke-width:0.2262235px;stroke-linecap:butt;stroke-linejoin:miter;stroke-opacity:1"
       d="m 105.65743,209.4532 h 4.51485 l 1.27272,-2.28826 2.74266,1.45422 -2.97607,-2.23725 -1.75064,2.29318 1.22544,-2.90843 3.96811,1.45422 -3.96811,-2.34912 -1.69227,3.07622 0.70024,-4.58636 3.32621,1.56607 -3.85139,-2.6847 -0.70026,5.31347 -0.46683,-6.37617 -2.33418,2.12539 1.9257,-1.17455 0.40848,5.31347 -1.22545,-3.85926 -3.90975,-0.11187 3.44292,0.83897 1.10874,3.24402 -3.26786,-2.96436 -2.50925,1.73387 2.5676,-0.83896 2.04241,2.57284 -3.26785,-0.89491 -1.16709,1.78981 1.63392,-1.17456 z"
       id="path2031-7"
       inkscape:connector-curvature="0"
       sodipodi:nodetypes="cccccccccccccccccccccccccccccc" />
    <path
       style="fill:#3f7746;fill-opacity:1;stroke:#000000;stroke-width:0.19801725px;stroke-linecap:butt;stroke-linejoin:miter;stroke-opacity:1"
       d="m 104.50585,59.951631 -1.91133,-11.13931 -4.343934,-6.821747 5.965664,6.303637 1.96926,10.79391 -0.46336,-11.13932 -2.31676,-6.174104 3.47515,6.087764 0.97588,11.39132 0.64584,-11.65038 -1.33214,-5.785529 2.37469,5.612829 -0.11584,10.2758 2.08508,-10.70755 -2.25884,-7.685265 3.41723,7.253505 -1.27423,11.13931 3.0118,-11.31202 1.04255,-5.828701 0.11583,5.915061 -3.47514,12.26187 5.7919,-11.83012 2.31678,-3.972153 -1.85342,4.576623 -4.40185,11.1393 5.67607,-10.70756 3.3014,-1.94289 -2.60636,2.72006 -8.25561,13.69449 -0.65298,-0.051 -3.86187,0.051 z"
       id="path2025-5"
       inkscape:connector-curvature="0"
       sodipodi:nodetypes="cccccccccccccccccccccccccccccccc" />
    <path
       style="fill:#326c16;fill-opacity:1;stroke:#000000;stroke-width:0.33392107px;stroke-linecap:butt;stroke-linejoin:miter;stroke-opacity:1"
       d="m 116.55717,55.167561 10.66092,-5.04277 -11.84547,4.20231 -2.72445,3.51193 1.5399,-3.87213 5.80428,-4.44244 4.73818,-3.12171 -11.37163,6.60362 -2.22103,3.57196 2.10257,-7.17393 4.1459,-1.801 -5.56736,1.20066 -2.07296,7.98439 0.53306,-9.66531 -4.26437,-3.24178 2.48755,3.72204 -0.11846,9.00495 -1.89529,-7.68422 -6.988804,-3.72204 5.804264,4.32237 1.77682,6.84376 -2.84292,-5.28291 -8.054884,-3.96217 6.870344,4.9227 2.72447,4.80264 -4.14591,-2.52138 -3.198264,-4.32238 1.18453,5.76317 5.093544,1.32073 -5.804274,-0.24014 -5.33045,-4.68257 5.09354,6.12336 6.278094,-0.3602 0.11847,1.80099 2.48023,2.6904 2.49485,-0.529209 c 0.74619,0.0567 1.23004,0.375729 1.57787,0.0135 1.69287,-1.76303 2.24035,-2.89387 4.93714,-6.73716 z"
       id="path2029-0"
       inkscape:connector-curvature="0"
       sodipodi:nodetypes="ccccccccccccccccccccccccccccccccccccsc" />
    <path
       style="fill:#446216;fill-opacity:1;stroke:#000000;stroke-width:0.2610763px;stroke-linecap:butt;stroke-linejoin:miter;stroke-opacity:1"
       d="m 107.54731,62.420461 h 4.51485 l 1.3279,-2.61886 6.63948,-1.96416 6.3739,-3.53548 -6.77227,2.74982 -6.5067,1.44038 5.04601,-3.27359 4.38207,-6.80907 -5.31159,5.63057 -4.24928,3.53548 3.05417,-6.28529 0.66395,-4.97587 -3.18696,5.63059 -2.12463,5.76152 -1.06231,-6.2853 0.26557,-6.67813 -1.59347,6.67813 1.1951,5.76152 -3.18696,-5.23774 -3.31973,-5.63059 1.1951,5.49964 4.24928,6.2853 -4.91322,-4.84492 -2.65578,-6.94002 1.32788,8.51135 4.91323,3.66642 -5.17881,-1.70227 -5.046004,-6.54719 3.718124,7.98757 5.57715,1.70227 -5.046,0.52377 -3.983694,-2.88076 3.718124,4.1902 5.17878,-0.52377 z"
       id="path2027-19"
       inkscape:connector-curvature="0" />
    <path
       style="fill:#9c8116;fill-opacity:1;stroke:#000000;stroke-width:0.2262235px;stroke-linecap:butt;stroke-linejoin:miter;stroke-opacity:1"
       d="m 107.54731,62.420461 h 4.51485 l 1.27272,-2.28826 2.74266,1.45422 -2.97607,-2.23725 -1.75064,2.29318 1.22544,-2.90843 3.96811,1.45422 -3.96811,-2.34912 -1.69227,3.07622 0.70024,-4.58636 3.32621,1.56607 -3.85139,-2.6847 -0.70026,5.31347 -0.46683,-6.37617 -2.33418,2.12539 1.9257,-1.17455 0.40848,5.31347 -1.22545,-3.85926 -3.90975,-0.11187 3.44292,0.83897 1.10874,3.24402 -3.26786,-2.96436 -2.50925,1.73387 2.5676,-0.83896 2.04241,2.57284 -3.26785,-0.89491 -1.16709,1.78981 1.63392,-1.17456 z"
       id="path2031-3"
       inkscape:connector-curvature="0"
       sodipodi:nodetypes="cccccccccccccccccccccccccccccc" />
  </g>
</svg>
