<?xml version="1.0" encoding="UTF-8" standalone="no"?>
<!-- Created with Inkscape (http://www.inkscape.org/) -->

<svg
   xmlns:dc="http://purl.org/dc/elements/1.1/"
   xmlns:cc="http://creativecommons.org/ns#"
   xmlns:rdf="http://www.w3.org/1999/02/22-rdf-syntax-ns#"
   xmlns:svg="http://www.w3.org/2000/svg"
   xmlns="http://www.w3.org/2000/svg"
   xmlns:sodipodi="http://sodipodi.sourceforge.net/DTD/sodipodi-0.dtd"
   xmlns:inkscape="http://www.inkscape.org/namespaces/inkscape"
   width="106.27515mm"
   height="64.522919mm"
   viewBox="0 0 106.27515 64.522919"
   version="1.1"
   id="svg36"
   inkscape:version="0.92.2 (5c3e80d, 2017-08-06)"
   sodipodi:docname="nuage_2.svg">
  <defs
     id="defs30" />
  <sodipodi:namedview
     id="base"
     pagecolor="#ffffff"
     bordercolor="#666666"
     borderopacity="1.0"
     inkscape:pageopacity="0.0"
     inkscape:pageshadow="2"
     inkscape:zoom="1.4"
     inkscape:cx="241.03218"
     inkscape:cy="97.479678"
     inkscape:document-units="mm"
     inkscape:current-layer="layer1"
     showgrid="false"
     inkscape:window-width="1920"
     inkscape:window-height="1017"
     inkscape:window-x="-8"
     inkscape:window-y="-8"
     inkscape:window-maximized="1" />
  <metadata
     id="metadata33">
    <rdf:RDF>
      <cc:Work
         rdf:about="">
        <dc:format>image/svg+xml</dc:format>
        <dc:type
           rdf:resource="http://purl.org/dc/dcmitype/StillImage" />
        <dc:title />
      </cc:Work>
    </rdf:RDF>
  </metadata>
  <g
     inkscape:label="Calque 1"
     inkscape:groupmode="layer"
     id="layer1"
     transform="translate(-19.119221,-113.55973)">
    <path
       style="fill:#ffffff;stroke:#000000;stroke-width:0.26458332px;stroke-linecap:butt;stroke-linejoin:miter;stroke-opacity:1;fill-opacity:1"
       d="m 19.251513,147.70687 c 0.529172,-8.58333 8.638574,-15.5224 16.075888,-15.20669 2.249378,-14.45454 12.526148,-19.03515 24.028547,-18.79959 16.831977,0.59347 21.643684,6.76449 25.234857,15.85505 7.275269,-3.70204 13.562346,-3.16015 18.683165,-0.87535 5.78244,2.65168 7.38024,8.56675 7.91015,12.50157 8.94589,-0.70373 17.45016,11.98572 12.72872,19.2601 -5.91397,8.59996 -11.36932,9.43566 -19.74454,4.99461 -3.69298,6.65756 -13.406911,10.90527 -25.591059,12.36122 -10.901107,0.74888 -20.544539,-1.2448 -23.25245,-6.34765 -4.396083,4.60661 -12.684347,3.45724 -17.606379,2.27179 -5.061818,-1.19593 -9.299288,-7.05751 -8.352173,-11.05828 -4.088794,-1.0175 -10.113923,-7.06374 -10.114726,-14.95678 z"
       id="path38"
       inkscape:connector-curvature="0"
       sodipodi:nodetypes="ccccccccccccc" />
    <path
       style="fill:none;stroke:#000000;stroke-width:0.26458332px;stroke-linecap:butt;stroke-linejoin:miter;stroke-opacity:1"
       d="m 35.327402,132.50018 c 2.1458,0.0794 3.483817,0.66357 4.896661,1.99995"
       id="path40"
       inkscape:connector-curvature="0"
       sodipodi:nodetypes="cc" />
    <path
       style="fill:none;stroke:#000000;stroke-width:0.26458332px;stroke-linecap:butt;stroke-linejoin:miter;stroke-opacity:1"
       d="m 29.366239,162.66365 c 1.964451,0.271 3.781798,0.0853 4.944486,-0.53454"
       id="path42"
       inkscape:connector-curvature="0"
       sodipodi:nodetypes="cc" />
    <path
       style="fill:none;stroke:#000000;stroke-width:0.26458332px;stroke-linecap:butt;stroke-linejoin:miter;stroke-opacity:1"
       d="m 84.590804,129.55564 c 0.506518,1.68553 0.852575,3.78967 0.113488,5.43386"
       id="path44"
       inkscape:connector-curvature="0"
       sodipodi:nodetypes="cc" />
    <path
       style="fill:none;stroke:#000000;stroke-width:0.26458332px;stroke-linecap:butt;stroke-linejoin:miter;stroke-opacity:1"
       d="m 111.18412,141.18186 c -1.36441,0.0998 -3.65748,0.47465 -4.71063,1.60362"
       id="path46"
       inkscape:connector-curvature="0"
       sodipodi:nodetypes="cc" />
    <path
       style="fill:none;stroke:#000000;stroke-width:0.26458332px;stroke-linecap:butt;stroke-linejoin:miter;stroke-opacity:1"
       d="m 104.1683,165.43657 c -1.79626,-1.04319 -2.66798,-2.31752 -3.47451,-3.60814"
       id="path48"
       inkscape:connector-curvature="0"
       sodipodi:nodetypes="cc" />
    <path
       style="fill:none;stroke:#000000;stroke-width:0.26458332px;stroke-linecap:butt;stroke-linejoin:miter;stroke-opacity:1"
       d="m 55.32479,171.45014 c 0.921595,-1.07618 1.563532,-2.05689 1.371637,-2.98567"
       id="path50"
       inkscape:connector-curvature="0"
       sodipodi:nodetypes="cc" />
  </g>
</svg>
