<?xml version="1.0" encoding="UTF-8" standalone="no"?>
<!-- Created with Inkscape (http://www.inkscape.org/) -->

<svg
   xmlns:dc="http://purl.org/dc/elements/1.1/"
   xmlns:cc="http://creativecommons.org/ns#"
   xmlns:rdf="http://www.w3.org/1999/02/22-rdf-syntax-ns#"
   xmlns:svg="http://www.w3.org/2000/svg"
   xmlns="http://www.w3.org/2000/svg"
   xmlns:sodipodi="http://sodipodi.sourceforge.net/DTD/sodipodi-0.dtd"
   xmlns:inkscape="http://www.inkscape.org/namespaces/inkscape"
   width="107.07311mm"
   height="49.825432mm"
   viewBox="0 0 107.07311 49.825432"
   version="1.1"
   id="svg8"
   inkscape:version="0.92.2 (5c3e80d, 2017-08-06)"
   sodipodi:docname="nuage_1.svg">
  <defs
     id="defs2" />
  <sodipodi:namedview
     id="base"
     pagecolor="#ffffff"
     bordercolor="#666666"
     borderopacity="1.0"
     inkscape:pageopacity="0.0"
     inkscape:pageshadow="2"
     inkscape:zoom="1.979899"
     inkscape:cx="127.82011"
     inkscape:cy="11.87835"
     inkscape:document-units="mm"
     inkscape:current-layer="layer1"
     showgrid="false"
     inkscape:window-width="1920"
     inkscape:window-height="1017"
     inkscape:window-x="-8"
     inkscape:window-y="-8"
     inkscape:window-maximized="1" />
  <metadata
     id="metadata5">
    <rdf:RDF>
      <cc:Work
         rdf:about="">
        <dc:format>image/svg+xml</dc:format>
        <dc:type
           rdf:resource="http://purl.org/dc/dcmitype/StillImage" />
        <dc:title />
      </cc:Work>
    </rdf:RDF>
  </metadata>
  <g
     inkscape:label="Calque 1"
     inkscape:groupmode="layer"
     id="layer1"
     transform="translate(-11.584879,-105.17931)">
    <path
       style="fill:#ffffff;stroke:#000000;stroke-width:0.26458332px;stroke-linecap:butt;stroke-linejoin:miter;stroke-opacity:1;fill-opacity:1"
       d="m 11.717262,145.80952 c -0.02707,-5.20198 5.916532,-8.02236 11.575521,-6.47285 -2.346799,-7.38218 -2.365765,-10.37037 2.315104,-14.88279 4.591067,-4.23426 10.673899,-3.37386 14.835565,0.0945 1.980625,-14.56015 11.007815,-19.84297 21.639135,-19.1823 12.86148,0.35168 15.403043,5.95357 19.560269,14.36309 7.136294,-3.15585 12.331275,-2.25465 16.252976,1.13393 6.033238,5.02833 5.650838,9.3164 5.291668,13.60715 12.42375,0.78582 14.96422,4.61099 15.30804,9.82738 0.3963,6.79698 -3.04757,10.15925 -12.75671,8.88244 -4.59946,-0.32026 -9.429419,-2.72647 -12.378713,-5.48066 -0.73198,1.65895 -2.147527,2.53519 -4.141429,2.85808 -2.189544,0.35456 -4.694876,-0.87967 -5.898563,-1.7714 -0.89631,0.98119 -2.615518,2.60217 -4.481226,2.83163 -2.08785,0.25677 -3.960812,-0.0626 -5.795002,-1.65045 -2.017375,3.22834 -4.448914,3.8272 -7.819381,4.29948 -3.190184,0.22481 -6.746174,0.0233 -9.496652,-3.89788 -3.014769,3.90244 -6.942079,4.81675 -14.244977,4.4176 -5.921626,-0.26773 -11.386534,-4.11049 -12.756697,-6.70908 -0.941602,2.29043 -2.575002,2.77809 -4.181361,3.18918 -7.976452,2.11667 -12.83464,-1.54058 -12.827567,-5.45704 z"
       id="path10"
       inkscape:connector-curvature="0"
       sodipodi:nodetypes="cccccccccccscscccccccc" />
    <path
       style="fill:none;stroke:#000000;stroke-width:0.26458332px;stroke-linecap:butt;stroke-linejoin:miter;stroke-opacity:1"
       d="m 23.292783,139.33667 c 1.234222,0.37798 1.259527,0.56697 1.700892,0.94495"
       id="path12"
       inkscape:connector-curvature="0"
       sodipodi:nodetypes="cc" />
    <path
       style="fill:none;stroke:#000000;stroke-width:0.26458332px;stroke-linecap:butt;stroke-linejoin:miter;stroke-opacity:1"
       d="m 28.72619,148.07739 c 0.230422,-0.71077 0.238305,-1.48248 0.165364,-1.88989"
       id="path14"
       inkscape:connector-curvature="0"
       sodipodi:nodetypes="cc" />
    <path
       style="fill:none;stroke:#000000;stroke-width:0.26458332px;stroke-linecap:butt;stroke-linejoin:miter;stroke-opacity:1"
       d="m 40.443451,124.54838 c -0.187726,1.13851 -0.175649,2.39201 0.312139,3.22606"
       id="path16"
       inkscape:connector-curvature="0"
       sodipodi:nodetypes="cc" />
    <path
       style="fill:none;stroke:#000000;stroke-width:0.26458332px;stroke-linecap:butt;stroke-linejoin:miter;stroke-opacity:1"
       d="m 81.642854,119.72917 c 0.551621,1.49867 0.303109,3.1822 -0.09224,3.77115"
       id="path18"
       inkscape:connector-curvature="0"
       sodipodi:nodetypes="cc" />
    <path
       style="fill:none;stroke:#000000;stroke-width:0.26458332px;stroke-linecap:butt;stroke-linejoin:miter;stroke-opacity:1"
       d="m 103.1875,134.47025 c -1.26019,-0.0867 -3.03187,-0.0812 -3.931187,0.62101"
       id="path20"
       inkscape:connector-curvature="0"
       sodipodi:nodetypes="cc" />
    <path
       style="fill:none;stroke:#000000;stroke-width:0.26458332px;stroke-linecap:butt;stroke-linejoin:miter;stroke-opacity:1"
       d="m 93.360117,147.69941 c -0.379816,-0.37912 -1.171909,-1.37135 -1.15213,-2.04078"
       id="path22"
       inkscape:connector-curvature="0"
       sodipodi:nodetypes="cc" />
    <path
       style="fill:none;stroke:#000000;stroke-width:0.26458332px;stroke-linecap:butt;stroke-linejoin:miter;stroke-opacity:1"
       d="m 55.727864,150.36887 c 0.497759,-0.62683 0.737299,-1.08307 0.685083,-1.7009"
       id="path24"
       inkscape:connector-curvature="0"
       sodipodi:nodetypes="cc" />
    <path
       style="fill:none;stroke:#000000;stroke-width:0.26458332px;stroke-linecap:butt;stroke-linejoin:miter;stroke-opacity:1"
       d="m 73.043896,149.96727 c -0.921845,-0.84678 -1.144268,-1.34384 -1.275668,-1.7954"
       id="path26"
       inkscape:connector-curvature="0"
       sodipodi:nodetypes="cc" />
    <path
       style="fill:none;stroke:#000000;stroke-width:0.26458332px;stroke-linecap:butt;stroke-linejoin:miter;stroke-opacity:1"
       d="m 83.320124,148.78609 c -0.60348,-0.44916 -0.964986,-1.06783 -1.00111,-1.47373"
       id="path28"
       inkscape:connector-curvature="0"
       sodipodi:nodetypes="cc" />
  </g>
</svg>
