<?xml version="1.0" encoding="UTF-8" standalone="no"?>
<!-- Created with Inkscape (http://www.inkscape.org/) -->

<svg
   xmlns:dc="http://purl.org/dc/elements/1.1/"
   xmlns:cc="http://creativecommons.org/ns#"
   xmlns:rdf="http://www.w3.org/1999/02/22-rdf-syntax-ns#"
   xmlns:svg="http://www.w3.org/2000/svg"
   xmlns="http://www.w3.org/2000/svg"
   xmlns:sodipodi="http://sodipodi.sourceforge.net/DTD/sodipodi-0.dtd"
   xmlns:inkscape="http://www.inkscape.org/namespaces/inkscape"
   width="295.67953"
   height="140.79192"
   viewBox="0 0 78.23188 37.251194"
   version="1.1"
   id="svg5225"
   sodipodi:docname="ocean.svg"
   inkscape:version="0.92.2 (5c3e80d, 2017-08-06)"
   inkscape:export-filename="C:\Users\Mathieu\Pictures\Dessin svg\project-nz\Décor\path5776.png"
   inkscape:export-xdpi="96"
   inkscape:export-ydpi="96">
  <defs
     id="defs5219" />
  <sodipodi:namedview
     id="base"
     pagecolor="#ffffff"
     bordercolor="#666666"
     borderopacity="1.0"
     inkscape:pageopacity="0.0"
     inkscape:pageshadow="2"
     inkscape:zoom="0.98994949"
     inkscape:cx="243.23124"
     inkscape:cy="116.44649"
     inkscape:document-units="mm"
     inkscape:current-layer="layer1"
     showgrid="false"
     inkscape:window-width="1920"
     inkscape:window-height="1017"
     inkscape:window-x="1912"
     inkscape:window-y="103"
     inkscape:window-maximized="1"
     units="px" />
  <metadata
     id="metadata5222">
    <rdf:RDF>
      <cc:Work
         rdf:about="">
        <dc:format>image/svg+xml</dc:format>
        <dc:type
           rdf:resource="http://purl.org/dc/dcmitype/StillImage" />
        <dc:title></dc:title>
      </cc:Work>
    </rdf:RDF>
  </metadata>
  <g
     inkscape:label="Calque 1"
     inkscape:groupmode="layer"
     id="layer1"
     transform="translate(-16.600132,-124.00596)">
    <path
       style="fill:#0095de;stroke:#000000;stroke-width:1.05833328;stroke-linecap:butt;stroke-linejoin:miter;stroke-miterlimit:4;stroke-dasharray:none;stroke-opacity:1;fill-opacity:1"
       d="m 66.583573,146.62006 c -0.511456,-1.03227 -2.129894,1.21234 -2.850143,1.7375 -1.754353,1.27919 -1.347126,1.51861 -3.764866,1.12234 -2.767861,-0.45366 -4.708362,-3.51647 -5.660553,-6.12954 -1.039289,-2.85208 -1.222793,-6.54771 0.425647,-9.09666 0.608825,-0.94142 1.890356,-1.35842 2.999557,-1.52153 1.18625,-0.17445 2.435334,0.16996 3.540566,0.63481 2.914327,1.4049 4.408122,3.21832 5.556827,6.27705 0.215797,0.24495 1.65912,-3.2325 1.434683,-4.92886 -0.391575,-2.95963 -2.292167,-5.82559 -4.653305,-7.65255 -2.308365,-1.78612 -5.465544,-2.56987 -8.383908,-2.52571 -3.674256,0.0556 -7.378943,1.48664 -10.454404,3.4978 -3.422228,2.23793 -5.894586,5.60603 -8.229627,9.09687 -3.276737,4.89866 -4.429642,12.92615 -11.988664,12.99525 l 44.485753,0.17944 c 0.248557,-1.18233 -1.476193,-1.70553 -2.457564,-3.68624 z"
       id="path5776"
       inkscape:connector-curvature="0"
       sodipodi:nodetypes="cssaaaccaaaasccsc"
       inkscape:export-xdpi="96"
       inkscape:export-ydpi="96" />
    <path
       style="fill:#0095de;fill-opacity:1;stroke:#000000;stroke-width:1.05833328;stroke-linecap:butt;stroke-linejoin:miter;stroke-miterlimit:4;stroke-dasharray:none;stroke-opacity:1"
       d="m 16.787515,150.85095 c 4.545793,-1.72124 6.906344,-2.84974 9.351469,-6.96503 0.570532,-0.96024 0.836083,-1.20505 1.258025,0.0627 1.052018,3.16084 2.297672,4.03621 4.268033,4.9883 2.550149,1.23225 5.917411,1.49867 8.490908,0.31595 1.478959,-0.67969 2.505392,-1.77487 3.040028,-3.82125 0.534636,-2.04638 0.947771,-1.39415 1.315097,0.0166 0.661449,2.54035 1.846391,3.08373 3.404466,3.70374 2.449228,0.97463 5.563821,0.68908 7.888684,-0.55335 1.05488,-0.56374 1.763741,-1.06482 2.197822,-2.83632 0.636267,-2.59663 1.129442,-1.75738 1.456585,-0.49155 0.386377,1.49503 0.894083,2.40362 1.924549,2.9884 2.636199,1.49601 6.230447,1.31684 9.088148,0.30633 1.417812,-0.50135 2.540799,-0.84981 3.411157,-2.95261 0.538274,-1.30048 0.575183,-1.60444 1.402179,0.14245 1.109022,2.34263 1.463045,2.35335 2.669794,2.82506 1.821524,0.71202 4.101691,0.46858 5.853503,-0.40094 1.024264,-0.5084 1.864362,-1.35793 2.256146,-2.5842 0.471924,-1.4771 0.574919,-1.77796 1.205247,-0.14857 0.528218,1.36543 1.495287,2.01067 2.453035,2.79935 1.494164,1.23041 3.665013,2.68577 5.020173,2.91819"
       id="path5772"
       inkscape:connector-curvature="0"
       sodipodi:nodetypes="cssaazsaassaassaassac"
       inkscape:export-xdpi="96"
       inkscape:export-ydpi="96" />
    <path
       style="fill:#0095de;fill-opacity:1;stroke:#000000;stroke-width:1.05833328;stroke-linecap:butt;stroke-linejoin:miter;stroke-miterlimit:4;stroke-dasharray:none;stroke-opacity:1"
       d="m 27.559319,160.48387 c 4.545794,-1.72124 6.906344,-2.84974 9.35147,-6.96503 0.570531,-0.96024 0.836082,-1.20505 1.258024,0.0627 1.052018,3.16084 2.297672,4.03621 4.268033,4.9883 2.550149,1.23225 5.917411,1.49867 8.490908,0.31595 1.478959,-0.67969 2.505392,-1.77487 3.040027,-3.82125 0.534638,-2.04638 0.947772,-1.39415 1.315098,0.0166 0.661448,2.54035 1.846393,3.08373 3.404466,3.70374 2.449229,0.97463 5.563822,0.68908 7.888684,-0.55335 1.054881,-0.56374 1.763742,-1.06482 2.197822,-2.83632 0.636268,-2.59663 1.12944,-1.75738 1.456584,-0.49155 0.181606,0.70269 0.571746,2.47934 1.440236,3.31383 1.712065,1.64502 6.094597,2.26617 6.640723,2.57609"
       id="path5772-5"
       inkscape:connector-curvature="0"
       sodipodi:nodetypes="cssaazsaassac"
       inkscape:export-xdpi="96"
       inkscape:export-ydpi="96" />
    <path
       style="fill:none;stroke:#000000;stroke-width:1.27360427;stroke-linecap:butt;stroke-linejoin:miter;stroke-miterlimit:4;stroke-dasharray:none;stroke-opacity:1"
       d="m 59.32876,135.36624 c 0,0 2.138397,0.9225 2.920132,1.70858 1.045104,1.05093 2.472586,3.2171 2.144947,3.79834 -0.235572,0.41791 -1.248451,0.38503 -1.769271,0.11562 -0.795617,-0.41157 -0.972252,-2.83135 -1.288963,-2.2415 -0.577614,1.07578 -2.125603,0.70318 -2.581924,0.0168 -0.367488,-0.55278 0.859313,-1.0698 0.952601,-1.70827 0.08287,-0.5671 -0.377527,-1.68955 -0.377527,-1.68955 z"
       id="path5793"
       inkscape:connector-curvature="0"
       sodipodi:nodetypes="casasaacc"
       inkscape:export-xdpi="96"
       inkscape:export-ydpi="96" />
  </g>
</svg>
