<?xml version="1.0" encoding="UTF-8" standalone="no"?>
<!-- Created with Inkscape (http://www.inkscape.org/) -->

<svg
   xmlns:dc="http://purl.org/dc/elements/1.1/"
   xmlns:cc="http://creativecommons.org/ns#"
   xmlns:rdf="http://www.w3.org/1999/02/22-rdf-syntax-ns#"
   xmlns:svg="http://www.w3.org/2000/svg"
   xmlns="http://www.w3.org/2000/svg"
   xmlns:sodipodi="http://sodipodi.sourceforge.net/DTD/sodipodi-0.dtd"
   xmlns:inkscape="http://www.inkscape.org/namespaces/inkscape"
   width="793.70081"
   height="1122.5197"
   viewBox="0 0 210 297"
   version="1.1"
   id="svg3819"
   inkscape:version="0.92.2 (5c3e80d, 2017-08-06)"
   sodipodi:docname="rivendell.svg">
  <defs
     id="defs3813" />
  <sodipodi:namedview
     id="base"
     pagecolor="#ffffff"
     bordercolor="#666666"
     borderopacity="1.0"
     inkscape:pageopacity="0.0"
     inkscape:pageshadow="2"
     inkscape:zoom="0.24748737"
     inkscape:cx="1106.7867"
     inkscape:cy="183.00611"
     inkscape:document-units="mm"
     inkscape:current-layer="layer1"
     showgrid="false"
     inkscape:window-width="1920"
     inkscape:window-height="1017"
     inkscape:window-x="1912"
     inkscape:window-y="103"
     inkscape:window-maximized="1"
     units="px" />
  <metadata
     id="metadata3816">
    <rdf:RDF>
      <cc:Work
         rdf:about="">
        <dc:format>image/svg+xml</dc:format>
        <dc:type
           rdf:resource="http://purl.org/dc/dcmitype/StillImage" />
        <dc:title></dc:title>
      </cc:Work>
    </rdf:RDF>
  </metadata>
  <g
     inkscape:label="Calque 1"
     inkscape:groupmode="layer"
     id="layer1">
    <path
       style="fill:#b9c0b3;fill-opacity:1;stroke:#000000;stroke-width:1.05833328;stroke-linecap:butt;stroke-linejoin:miter;stroke-miterlimit:4;stroke-dasharray:none;stroke-opacity:1"
       d="m 23.856389,261.76633 -0.05732,-201.00145 161.787241,-0.188989 -0.0688,200.838979 -30.27216,0.23489 -2.16501,-121.50984 c 0,0 0.007,-44.561671 -51.78274,-43.467261 -48.393611,1.022638 -48.002977,46.113091 -48.002977,46.113091 l -0.645246,118.99766 z"
       id="path4364"
       inkscape:connector-curvature="0"
       sodipodi:nodetypes="ccccccsccc" />
    <path
       style="fill:none;stroke:#000000;stroke-width:1.05833328;stroke-linecap:butt;stroke-linejoin:miter;stroke-miterlimit:4;stroke-dasharray:none;stroke-opacity:1"
       d="m 166.92972,260.25667 c 0,0 -8.45439,-9.24498 -7.83433,-15.29657 1.08084,-10.54859 21.63247,-16.82708 21.85777,-28.37606 0.26497,-13.58238 -18.97833,-17.34817 -19.27678,-30.92986 -0.21136,-9.618 17.55684,-13.80919 18.20771,-23.47087 0.38753,-5.75273 -3.90278,-14.95194 -9.6384,-14.36309 -2.62014,0.269 -4.44749,5.13326 -2.97795,7.31912 1.0918,1.624 4.97057,1.74113 5.87067,0.004 0.62623,-1.20891 -2.35818,-3.33491 -2.35818,-3.33491"
       id="path4366-8"
       inkscape:connector-curvature="0"
       sodipodi:nodetypes="cssssaaac" />
    <path
       style="fill:none;stroke:#000000;stroke-width:1.05833328;stroke-linecap:butt;stroke-linejoin:miter;stroke-miterlimit:4;stroke-dasharray:none;stroke-opacity:1"
       d="m 167.59823,96.461316 c 0,0 -4.16492,-0.233192 -5.10881,-1.984939 -0.94388,-1.751748 0.21719,-6.230217 2.84258,-7.132344 2.62539,-0.902127 6.65976,1.747967 7.74851,4.535714 1.72534,4.417764 -0.13774,11.090573 -4.15773,13.607143 -2.75651,1.72561 -7.10565,0.528 -9.6384,-1.51191 -4.47351,-3.60303 -7.6387,-10.493688 -6.2366,-16.063983 1.25425,-4.982899 6.64824,-9.175253 11.71726,-10.01637 5.55088,-0.921075 12.84531,1.379538 15.68601,6.236607 4.52486,7.736667 0.73431,18.857986 -3.59078,26.647316 -4.32508,7.78933 -11.1153,14.07915 -13.92414,22.41433 -3.17201,9.41291 -2.80273,29.66692 -2.80273,29.66692 0,0 13.76995,8.8053 15.03703,16.01832 2.3183,13.1973 -16.6597,23.55339 -15.87683,36.92987 0.71737,12.2573 19.10978,17.90728 20.75138,29.23719 0.83863,5.78806 -6.41447,15.23436 -6.41447,15.23436 0,0 -15.36799,-18.19653 -14.63301,-28.99874 0.85553,-12.57401 21.10008,-19.01906 21.44838,-31.1369 0.332,-11.55047 -17.62988,-27.02226 -19.77794,-30.60236 l -2.53906,-1.20272"
       id="path4368-0"
       inkscape:connector-curvature="0"
       sodipodi:nodetypes="cczaaaaaazacssscascc" />
    <path
       style="fill:none;stroke:#000000;stroke-width:1.05833328;stroke-linecap:butt;stroke-linejoin:miter;stroke-miterlimit:4;stroke-dasharray:none;stroke-opacity:1"
       d="m 166.92972,260.25667 c 0.88875,-1.34654 15.94874,-18.05748 15.48727,-29.00928 -0.36141,-8.57714 -13.81952,-13.11106 -13.99742,-21.61837 -0.18601,-8.89477 15.78772,-20.04533 13.49236,-30.29972 -1.76555,-7.88749 -18.08262,-15.64477 -18.08262,-15.64477 l -0.30641,-2.87789"
       id="path4370-0"
       inkscape:connector-curvature="0"
       sodipodi:nodetypes="casscc" />
    <path
       style="fill:none;stroke:#000000;stroke-width:1.05833328;stroke-linecap:butt;stroke-linejoin:miter;stroke-miterlimit:4;stroke-dasharray:none;stroke-opacity:1"
       d="m 41.758968,260.06957 c 0,0 8.45439,-9.24499 7.83433,-15.29658 -1.08084,-10.54859 -21.632471,-16.82708 -21.857769,-28.37606 -0.264972,-13.58238 18.978329,-17.34817 19.276779,-30.92986 0.21136,-9.618 -17.556839,-13.80919 -18.207709,-23.47087 -0.38753,-5.75273 3.902779,-14.95194 9.638399,-14.36309 2.62014,0.269 4.44749,5.13326 2.97795,7.31912 -1.0918,1.624 -4.97057,1.74113 -5.87067,0.004 -0.62623,-1.20891 2.35818,-3.33491 2.35818,-3.33491"
       id="path4366-8-3"
       inkscape:connector-curvature="0"
       sodipodi:nodetypes="cssssaaac" />
    <path
       style="fill:none;stroke:#000000;stroke-width:1.05833328;stroke-linecap:butt;stroke-linejoin:miter;stroke-miterlimit:4;stroke-dasharray:none;stroke-opacity:1"
       d="m 41.090458,96.274206 c 0,0 4.164921,-0.233192 5.10881,-1.984939 0.94388,-1.751748 -0.21719,-6.230217 -2.84258,-7.132344 -2.62539,-0.902126 -6.65976,1.747967 -7.74851,4.535714 -1.72534,4.417764 0.13774,11.090573 4.15773,13.607143 2.75651,1.72561 7.10565,0.528 9.6384,-1.51191 4.47351,-3.60303 7.6387,-10.493688 6.2366,-16.063983 -1.25425,-4.982898 -6.64824,-9.175252 -11.71726,-10.016369 -5.55088,-0.921075 -12.84531,1.379538 -15.686011,6.236607 -4.524859,7.736666 -0.734309,18.857985 3.590781,26.647315 4.32508,7.78933 11.1153,14.07915 13.92414,22.41433 3.17201,9.41291 2.80273,29.66692 2.80273,29.66692 0,0 -13.76995,8.8053 -15.03703,16.01832 -2.3183,13.1973 16.6597,23.55339 15.87683,36.92987 -0.71737,12.2573 -19.10978,17.90728 -20.751379,29.23719 -0.838631,5.78806 6.414469,15.23436 6.414469,15.23436 0,0 15.36799,-18.19653 14.63301,-28.99873 -0.85553,-12.57402 -21.100081,-19.01907 -21.448381,-31.13691 -0.331999,-11.55047 17.629881,-27.02226 19.777941,-30.60236 l 2.53906,-1.20272"
       id="path4368-0-1"
       inkscape:connector-curvature="0"
       sodipodi:nodetypes="cczaaaaaazacssscascc" />
    <path
       style="fill:none;stroke:#000000;stroke-width:1.05833328;stroke-linecap:butt;stroke-linejoin:miter;stroke-miterlimit:4;stroke-dasharray:none;stroke-opacity:1"
       d="m 41.758968,260.06957 c -0.88875,-1.34655 -15.94874,-18.05749 -15.48727,-29.00929 0.36141,-8.57714 13.81952,-13.11106 13.99742,-21.61837 0.18601,-8.89477 -15.78772,-20.04533 -13.492359,-30.29972 1.765548,-7.88749 18.082619,-15.64477 18.082619,-15.64477 l 0.30641,-2.87789"
       id="path4370-0-6"
       inkscape:connector-curvature="0"
       sodipodi:nodetypes="casscc" />
  </g>
</svg>
