<?xml version="1.0" encoding="UTF-8" standalone="no"?>
<!-- Created with Inkscape (http://www.inkscape.org/) -->

<svg
   xmlns:dc="http://purl.org/dc/elements/1.1/"
   xmlns:cc="http://creativecommons.org/ns#"
   xmlns:rdf="http://www.w3.org/1999/02/22-rdf-syntax-ns#"
   xmlns:svg="http://www.w3.org/2000/svg"
   xmlns="http://www.w3.org/2000/svg"
   xmlns:sodipodi="http://sodipodi.sourceforge.net/DTD/sodipodi-0.dtd"
   xmlns:inkscape="http://www.inkscape.org/namespaces/inkscape"
   width="1373.8362"
   height="507.57574"
   viewBox="0 0 363.49414 134.29608"
   version="1.1"
   id="svg2697"
   inkscape:version="0.92.2 (5c3e80d, 2017-08-06)"
   sodipodi:docname="road-to-rivendell.svg">
  <defs
     id="defs2691" />
  <sodipodi:namedview
     id="base"
     pagecolor="#ffffff"
     bordercolor="#666666"
     borderopacity="1.0"
     inkscape:pageopacity="0.0"
     inkscape:pageshadow="2"
     inkscape:zoom="0.35"
     inkscape:cx="623.26888"
     inkscape:cy="-242.33223"
     inkscape:document-units="mm"
     inkscape:current-layer="layer1"
     showgrid="false"
     inkscape:window-width="1920"
     inkscape:window-height="1017"
     inkscape:window-x="1912"
     inkscape:window-y="103"
     inkscape:window-maximized="1"
     units="px" />
  <metadata
     id="metadata2694">
    <rdf:RDF>
      <cc:Work
         rdf:about="">
        <dc:format>image/svg+xml</dc:format>
        <dc:type
           rdf:resource="http://purl.org/dc/dcmitype/StillImage" />
        <dc:title></dc:title>
      </cc:Work>
    </rdf:RDF>
  </metadata>
  <g
     inkscape:label="Calque 1"
     inkscape:groupmode="layer"
     id="layer1"
     transform="translate(1.3981409,-35.257163)">
    <path
       style="fill:#a17d3f;fill-opacity:1;stroke:#000000;stroke-width:1.05833328;stroke-linecap:butt;stroke-linejoin:miter;stroke-miterlimit:4;stroke-dasharray:none;stroke-opacity:1"
       d="m 91.644439,124.8781 36.111511,-59.19953 7.55952,-21.922618 15.11905,-7.9375 12.47322,3.02381 11.71726,9.071427 1.88988,16.630954 11.71726,-1.511906 15.875,4.913691 6.80357,11.717261 38.13108,51.910531"
       id="path3244"
       inkscape:connector-curvature="0"
       sodipodi:nodetypes="ccccccccccc" />
    <path
       style="fill:#a17d3f;fill-opacity:1;stroke:#000000;stroke-width:1.05833328;stroke-linecap:butt;stroke-linejoin:miter;stroke-miterlimit:4;stroke-dasharray:none;stroke-opacity:1"
       d="m 103.27053,169.17722 46.03006,-36.59687 37.41965,-18.14285 4.91369,-10.96131 12.85119,-3.02381 6.42559,-20.788691 15.49703,-20.032737 5.29166,-17.00893 13.98512,-1.133927 9.07143,10.583333 15.11905,-7.9375 11.33927,5.669643 7.55954,15.497024 12.09525,12.095236 -0.75597,17.386906 8.31548,5.291663 7.55952,24.94643 11.3393,3.77976 16.78248,19.55714 19.21695,21.76084"
       id="path3246"
       inkscape:connector-curvature="0"
       sodipodi:nodetypes="cccccccccccccccccccc" />
    <path
       style="fill:#a17d3f;fill-opacity:1;stroke:#000000;stroke-width:1.05833328;stroke-linecap:butt;stroke-linejoin:miter;stroke-miterlimit:4;stroke-dasharray:none;stroke-opacity:1"
       d="m -2.4568454,169.62202 23.6235114,-14.74107 4.535715,-15.11905 15.875,-9.07142 6.047618,-16.63096 8.315476,-4.53571 17.386906,-18.89881 13.607142,-2.267857 9.071427,-20.410715 24.19048,-18.898809 7.55952,16.630951 4.53571,12.095239 13.60715,11.339285 7.55952,25.702386 12.09524,13.60714 2.26786,21.92262 14.1741,19.84375"
       id="path3242"
       inkscape:connector-curvature="0"
       sodipodi:nodetypes="ccccccccccccccccc" />
    <path
       style="fill:#ffffff;fill-opacity:1;stroke:#000000;stroke-width:1.05833328;stroke-linecap:butt;stroke-linejoin:miter;stroke-miterlimit:4;stroke-dasharray:none;stroke-opacity:1"
       d="m 25.166965,169.22112 c 0,0 4.839263,-6.71446 8.208703,-8.36133 6.36412,-3.11058 14.281226,-0.22602 21.166666,-1.88988 4.88949,-1.18154 9.123623,-4.37773 13.985118,-5.66964 4.54629,-1.20814 9.443639,-0.66379 13.985121,-1.88988 5.398826,-1.45756 9.986381,-5.47449 15.497024,-6.4256 4.848463,-0.83682 9.920503,1.74082 14.741073,0.75595 5.90719,-1.20688 14.02299,-2.33584 16.25297,-7.9375 0.7963,-2.00028 -0.65464,-4.62188 -2.26786,-6.04762 -4.85436,-4.29022 -12.48269,-3.63882 -18.8988,-4.53571 -8.867205,-1.23952 -18.177351,1.14337 -26.836313,-1.13393 -6.430322,-1.69117 -17.960306,-2.42531 -17.764881,-9.07143 0.230488,-7.83854 17.506215,-3.89251 22.480088,-9.24895 3.673253,-3.95578 9.072087,-6.68771 14.653296,-7.20447 4.07315,-0.37714 5.91062,-5.526487 10.49162,-5.847171 3.82874,-0.268024 6.75195,4.762771 10.58333,4.535714 3.77524,-0.22373 7.02674,-3.128213 9.82738,-5.669642 3.21049,-2.913341 7.34691,-10.465215 7.34691,-10.465215 l 3.59077,2.976563 c 0,0 -5.81605,7.439169 -9.61476,10.323472 -3.61276,2.743111 -7.55983,6.154449 -12.09524,6.236609 -3.55018,0.0643 -5.62898,-4.254857 -9.17067,-4.001178 -3.56174,0.255115 -5.42284,4.500208 -8.94391,5.094478 -6.133415,1.03517 -10.54335,2.51756 -14.156107,7.1744 -3.191519,4.11386 -16.649141,2.71537 -16.63334,6.84185 0.01259,3.28735 6.879252,3.53167 10.633938,4.54521 8.733949,2.35765 18.177909,-0.33286 27.119789,1.03944 7.09953,1.08956 15.50799,0.8009 20.78869,5.66964 2.85692,2.63404 5.43847,7.36408 3.96875,10.96131 -2.99991,7.34243 -13.64199,8.90581 -21.45015,10.29985 -4.60963,0.82298 -9.34915,-1.98152 -13.985115,-1.32292 -6.014696,0.85446 -11.035552,5.30698 -16.948374,6.70169 -4.003724,0.94439 -8.294133,0.11015 -12.294399,1.06908 -4.858537,1.16468 -9.049155,4.40832 -13.898013,5.61266 -6.302004,1.56526 -13.476183,-0.70569 -19.377042,2.00451 -2.025716,0.93039 -5.190514,4.86482 -5.190514,4.86482 z"
       id="path3248"
       inkscape:connector-curvature="0"
       sodipodi:nodetypes="cssssssssssssssssccsssssssssssssssscc" />
    <path
       style="fill:#ffffff;stroke:#000000;stroke-width:1.05833328;stroke-linecap:butt;stroke-linejoin:miter;stroke-miterlimit:4;stroke-dasharray:none;stroke-opacity:1;fill-opacity:1"
       d="m 130.76664,72.935311 c 0,0 4.3398,-3.950139 7.08264,-4.409948 3.15454,-0.528827 6.18741,2.586205 9.35444,2.138156 3.2772,-0.463636 5.37754,-4.724482 8.68625,-4.81085 3.96315,-0.103451 6.76217,4.6796 10.69079,5.211755 2.64924,0.358856 5.22188,-1.710814 7.88445,-1.469983 2.61182,0.236241 4.95215,1.744174 7.34991,2.80633 3.24215,1.436204 5.94695,4.997002 9.48807,4.810852 2.70217,-0.142048 4.18531,-3.7738 6.81537,-4.409948 3.04587,-0.736723 9.35444,0.935445 9.35444,0.935445 l 2.00452,3.507912 c 0,0 -7.52271,-2.343503 -11.19191,-1.503391 -2.79699,0.640409 -4.31558,4.634927 -7.18287,4.744034 -4.07486,0.155057 -7.04216,-4.125727 -10.69078,-5.946747 -1.96271,-0.979586 -3.8314,-2.449159 -6.01357,-2.672695 -3.12901,-0.320529 -6.11884,2.52539 -9.2208,2.004521 -3.54855,-0.595858 -5.62346,-5.532631 -9.2208,-5.61266 -3.60752,-0.08025 -5.89589,4.869811 -9.48806,5.211756 -3.02909,0.288344 -5.67181,-3.22061 -8.68626,-2.80633 -2.59478,0.356605 -6.54811,4.34313 -6.54811,4.34313 z"
       id="path3250"
       inkscape:connector-curvature="0"
       sodipodi:nodetypes="cssssssssccsssssssscc" />
    <path
       style="fill:#ffffff;stroke:#000000;stroke-width:1.05833328;stroke-linecap:butt;stroke-linejoin:miter;stroke-miterlimit:4;stroke-dasharray:none;stroke-opacity:1;fill-opacity:1"
       d="m 210.14569,82.557013 c 0,0 6.35459,3.05324 9.76123,3.84147 4.6178,1.068467 9.99022,-1.093352 14.1741,1.133927 3.48247,1.853883 3.76664,7.6553 7.37054,9.260417 5.70755,2.54205 12.68583,-2.792126 18.70982,-1.133928 3.45348,0.950623 5.43698,5.068361 8.88245,6.047621 5.51957,1.56876 11.53377,-1.67465 17.19792,-0.75595 5.39313,0.87474 14.95304,0.40657 15.30802,5.85863 0.34429,5.28796 -9.01788,5.71352 -13.98511,7.55952 -7.43609,2.76352 -15.3126,5.07332 -23.24555,5.10268 -5.47337,0.0203 -10.60357,-3.77877 -16.06398,-3.40179 -7.2164,0.4982 -20.26483,0.13843 -20.41071,7.37054 -0.14816,7.34504 13.22413,6.79078 20.41071,8.31547 5.91884,1.25573 12.82537,-2.31983 18.14287,0.56697 3.97771,2.15945 4.97115,5.96907 9.41895,6.80717 6.53056,1.23055 14.25737,-0.72718 15.01388,6.05548 1.03096,9.24339 -17.72713,6.53456 -17.56998,9.94006 0.16566,3.59012 8.68935,2.34204 13.75027,4.0087 5.75039,1.89371 10.87033,2.91669 16.42854,5.31657 2.74336,1.18451 7.37053,5.10267 7.37053,5.10267 h -6.58564 c 0,0 -3.69342,-2.47049 -5.74627,-3.27405 -5.13154,-2.00868 -6.70796,-1.81009 -11.89349,-3.67495 -6.20485,-2.23143 -20.27536,-2.8982 -20.04522,-7.95127 0.24794,-5.44409 20.37031,-2.29227 19.44384,-9.15398 -0.626,-4.63632 -7.48937,-1.93521 -12.02713,-3.07361 -3.96707,-0.99522 -6.86682,-4.50427 -9.48807,-6.81537 -5.03484,-4.43911 -13.6035,0.63923 -20.11202,-1.00226 -8.99339,-2.26819 -25.51432,-2.69355 -25.12334,-11.96031 0.44708,-10.59646 19.18493,-10.69153 29.77823,-11.20803 5.21231,-0.25414 9.90301,3.90235 15.11904,4.06324 7.10053,0.21902 14.08882,-2.17809 20.88319,-4.25223 2.99866,-0.91541 8.62302,-0.4563 8.69344,-3.59078 0.0703,-3.12751 -5.43404,-3.36966 -8.50444,-3.96875 -6.03636,-1.17779 -12.58028,2.85499 -18.42635,0.94494 -2.89449,-0.9457 -4.19275,-4.817861 -7.08705,-5.764132 -6.77486,-2.214996 -14.89244,4.091982 -21.35565,1.08668 -3.35316,-1.559172 -3.47955,-7.033844 -6.70908,-8.835194 -4.00725,-2.235143 -9.2878,-0.06914 -13.70164,-1.322916 -3.19116,-0.906466 -8.92969,-4.393973 -8.92969,-4.393973 z"
       id="path3252"
       inkscape:connector-curvature="0"
       sodipodi:nodetypes="cssssssssssssssssssccsssssssssssssssssscc" />
  </g>
</svg>
