<?xml version="1.0" encoding="UTF-8" standalone="no"?>
<!-- Created with Inkscape (http://www.inkscape.org/) -->

<svg
   xmlns:dc="http://purl.org/dc/elements/1.1/"
   xmlns:cc="http://creativecommons.org/ns#"
   xmlns:rdf="http://www.w3.org/1999/02/22-rdf-syntax-ns#"
   xmlns:svg="http://www.w3.org/2000/svg"
   xmlns="http://www.w3.org/2000/svg"
   xmlns:sodipodi="http://sodipodi.sourceforge.net/DTD/sodipodi-0.dtd"
   xmlns:inkscape="http://www.inkscape.org/namespaces/inkscape"
   width="705.95374"
   height="436.4082"
   viewBox="0 0 186.78358 115.46634"
   version="1.1"
   id="svg4640"
   inkscape:version="0.92.2 (5c3e80d, 2017-08-06)"
   sodipodi:docname="ruatiti-valley.svg">
  <defs
     id="defs4634" />
  <sodipodi:namedview
     id="base"
     pagecolor="#ffffff"
     bordercolor="#666666"
     borderopacity="1.0"
     inkscape:pageopacity="0.0"
     inkscape:pageshadow="2"
     inkscape:zoom="0.24748737"
     inkscape:cx="145.63534"
     inkscape:cy="277.2435"
     inkscape:document-units="mm"
     inkscape:current-layer="layer1"
     showgrid="false"
     inkscape:window-width="1920"
     inkscape:window-height="1017"
     inkscape:window-x="1912"
     inkscape:window-y="103"
     inkscape:window-maximized="1"
     units="px" />
  <metadata
     id="metadata4637">
    <rdf:RDF>
      <cc:Work
         rdf:about="">
        <dc:format>image/svg+xml</dc:format>
        <dc:type
           rdf:resource="http://purl.org/dc/dcmitype/StillImage" />
        <dc:title></dc:title>
      </cc:Work>
    </rdf:RDF>
  </metadata>
  <g
     inkscape:label="Calque 1"
     inkscape:groupmode="layer"
     id="layer1"
     transform="translate(-21.420878,-75.567553)">
    <path
       style="fill:#34b05e;fill-opacity:1;stroke:#000000;stroke-width:0.26458332px;stroke-linecap:butt;stroke-linejoin:miter;stroke-opacity:1"
       d="m 50.916079,120.40127 11.072014,-21.082818 1.889882,-8.315476 5.71309,-5.71309 9.520715,-7.718168 13.630746,-1.870887 14.699824,1.603617 7.21628,8.552625 8.28535,1.870887 9.62171,6.681738 8.01808,13.096202 15.23436,12.82894"
       id="path5189"
       inkscape:connector-curvature="0"
       sodipodi:nodetypes="cccccccccccc" />
    <path
       style="fill:#34b05e;fill-opacity:1;stroke:#000000;stroke-width:0.26458332px;stroke-linecap:butt;stroke-linejoin:miter;stroke-opacity:1"
       d="m 72.949405,142.02976 13.607142,-26.08036 12.473213,-4.53571 13.98512,-13.229168 10.20536,-17.764879 16.34469,-4.333297 12.75947,3.963188 17.53235,-2.505008 9.67868,16.436401 9.31183,14.446953 12.50008,12.04937 6.73087,21.50666"
       id="path5187"
       inkscape:connector-curvature="0"
       sodipodi:nodetypes="cccccccccccc" />
    <path
       style="fill:#34b05e;fill-opacity:1;stroke:#000000;stroke-width:0.26458332px;stroke-linecap:butt;stroke-linejoin:miter;stroke-opacity:1"
       d="M 21.544642,141.27381 35.52976,104.23214 52.916666,90.247022 74.839284,89.49107 l 13.229167,14.74107 10.961309,7.18155 10.96131,9.4494 3.40179,22.3006"
       id="path5185"
       inkscape:connector-curvature="0" />
    <path
       style="fill:#d0cfd3;fill-opacity:1;stroke:#000000;stroke-width:0.26458332px;stroke-linecap:butt;stroke-linejoin:miter;stroke-opacity:1"
       d="m 76.256695,79.899925 c 0,0 13.191479,3.334301 17.670387,8.079239 5.066908,5.367864 8.126488,20.599706 8.126488,20.599706 l 4.8192,-4.53572 c 0,0 -5.22148,-13.950439 -10.677831,-19.087796 -4.667504,-4.39463 -17.083161,-7.383636 -17.083161,-7.383636 z"
       id="path5191"
       inkscape:connector-curvature="0"
       sodipodi:nodetypes="csccscc" />
    <path
       style="fill:none;stroke:#000000;stroke-width:0.26458332px;stroke-linecap:butt;stroke-linejoin:miter;stroke-opacity:1"
       d="m 169.3457,149.9808 c 0,0 -8.81451,6.07852 -13.8723,7.53414 -5.31088,1.52846 -5.83514,5.7462 -11.3475,6.14049 -2.74689,0.19648 -6.65823,3.70296 -10.30403,4.66235 -4.35648,1.1464 -9.65726,0.36437 -13.46002,1.21086 -3.51226,0.78182 -7.02316,1.62955 -10.42352,2.80633 -2.5385,0.87851 -5.4697,3.48328 -8.10072,4.29165 -4.816498,1.47985 -9.255442,1.33845 -12.879932,4.66189 -3.348862,3.07071 -5.746295,4.40994 -5.746295,4.40994"
       id="path5195"
       inkscape:connector-curvature="0"
       sodipodi:nodetypes="cssassssc" />
    <path
       style="fill:#d0cfd3;fill-opacity:1;stroke:#000000;stroke-width:0.26458332px;stroke-linecap:butt;stroke-linejoin:miter;stroke-opacity:1"
       d="m 102.05357,108.57887 c 0,0 8.81913,-0.38685 12.87232,1.06519 8.09688,2.90068 18.72452,7.58524 21.21599,14.68476 2.08863,5.95162 1.54951,16.42704 -3.55442,21.67732 -5.22303,5.37281 -16.01798,2.63414 -22.07151,4.26289 -4.05804,1.09185 -9.05344,1.32876 -11.75986,4.54358 -2.047932,2.43263 -3.017743,6.38855 -1.870887,9.35443 1.596962,4.1299 10.690777,7.88445 10.690777,7.88445 l 10.42352,-2.80633 c 0,0 -11.17157,-4.01439 -10.69079,-8.55262 0.27283,-2.57533 4.4954,-2.64592 6.94901,-3.47451 7.68948,-2.59676 18.17001,1.18368 23.92063,-4.54358 7.6593,-7.62819 10.10341,-21.76192 6.18124,-31.83519 -3.03968,-7.80682 -12.40764,-11.8933 -20.2129,-14.93697 -5.39551,-2.10398 -17.27392,-1.85914 -17.27392,-1.85914 z"
       id="path5193"
       inkscape:connector-curvature="0"
       sodipodi:nodetypes="casasssccssaaacc" />
    <path
       style="fill:none;stroke:#000000;stroke-width:0.26458332px;stroke-linecap:butt;stroke-linejoin:miter;stroke-opacity:1"
       d="m 173.60903,153.42845 c 0,0 -7.6375,7.03018 -12.69529,8.4858 -5.31088,1.52846 -8.78657,6.15381 -14.29893,6.5481 -3.44551,0.24645 -6.2809,3.9385 -9.78957,4.98863 -3.16624,0.94764 -6.73565,0.39745 -9.85473,1.09175 -3.51226,0.78182 -7.02316,1.62955 -10.42352,2.80633 -3.48632,1.20653 -7.0756,4.01115 -10.62492,5.2397 -3.76615,1.3036 -7.470489,1.06824 -10.355728,3.71384 -3.348861,3.07071 -6.815374,4.61039 -6.815374,4.61039"
       id="path5195-3"
       inkscape:connector-curvature="0"
       sodipodi:nodetypes="cssassssc" />
    <path
       style="fill:none;stroke:#000000;stroke-width:0.26458332px;stroke-linecap:butt;stroke-linejoin:miter;stroke-opacity:1"
       d="m 107.57598,172.05149 c 0,0 3.4651,-1.17687 5.28193,-0.70396 1.43567,0.48451 3.0698,1.66163 3.80524,2.57483 0.9596,1.20265 1.73725,4.27631 1.73725,4.27631"
       id="path5212"
       inkscape:connector-curvature="0"
       sodipodi:nodetypes="cccc" />
    <path
       style="fill:none;stroke:#000000;stroke-width:0.26458332px;stroke-linecap:butt;stroke-linejoin:miter;stroke-opacity:1"
       d="m 117.9995,169.24516 c 0,0 2.96901,-0.96425 4.78584,-0.49134 1.35106,0.35167 2.59436,1.25493 3.47451,2.33861 0.96999,1.19429 2.56407,4.29993 2.56407,4.29993"
       id="path5212-3"
       inkscape:connector-curvature="0"
       sodipodi:nodetypes="cssc" />
    <path
       style="fill:#d0cfd3;fill-opacity:1;stroke:#000000;stroke-width:0.26458332px;stroke-linecap:butt;stroke-linejoin:miter;stroke-opacity:1"
       d="m 118.4004,178.19869 10.42352,-2.80633 c 0,0 9.73532,5.83774 15.03391,6.54811 4.11447,0.55162 16.43707,0.4009 16.43707,0.4009 l -3.67496,7.01583 c 0,0 -10.91166,-0.3514 -15.23436,-0.80181 -8.92486,-0.92994 -22.98518,-10.3567 -22.98518,-10.3567 z"
       id="path5233"
       inkscape:connector-curvature="0"
       sodipodi:nodetypes="ccsccsc" />
    <path
       style="fill:#d0cfd3;fill-opacity:1;stroke:#000000;stroke-width:0.26458332px;stroke-linecap:butt;stroke-linejoin:miter;stroke-opacity:1"
       d="m 107.57598,172.05149 10.42352,-2.80633 c 2.85879,-0.97216 4.67679,-1.15305 6.39367,-0.29601 2.20413,1.10022 3.95069,3.71199 4.43075,6.44325 l -10.42352,2.80631 c -0.47215,-2.8832 -2.19404,-5.24947 -4.0056,-6.29638 -1.77805,-1.02754 -3.61998,-0.7711 -6.81882,0.1492"
       id="path5235"
       inkscape:connector-curvature="0"
       sodipodi:nodetypes="ccsccsc" />
    <path
       style="fill:none;stroke:#00abe4;stroke-width:0.26458332px;stroke-linecap:butt;stroke-linejoin:miter;stroke-opacity:1"
       d="m 91.005273,183.34363 c 0,0 2.786032,-2.59214 4.543583,-3.14042 1.382023,-0.43113 2.940123,0.35699 4.343128,0 1.670966,-0.42517 4.543586,-2.47224 4.543586,-2.47224"
       id="path5237"
       inkscape:connector-curvature="0"
       sodipodi:nodetypes="cssc" />
    <path
       style="fill:none;stroke:#00abe4;stroke-width:0.26458332px;stroke-linecap:butt;stroke-linejoin:miter;stroke-opacity:1"
       d="m 143.72419,166.7061 c 0.045,0.0593 2.96467,0.0443 4.3466,-2.11701 1.1291,-1.76591 3.81736,-1.85843 4.5067,-2.19271"
       id="path5243"
       inkscape:connector-curvature="0"
       sodipodi:nodetypes="csc" />
    <path
       style="fill:none;stroke:#00abe4;stroke-width:0.26458332px;stroke-linecap:butt;stroke-linejoin:miter;stroke-opacity:1"
       d="m 154.68224,158.82165 c 0,0 5.14415,-0.49317 7.41673,-1.60362 1.9037,-0.93021 4.87766,-4.07585 4.87766,-4.07585"
       id="path5245"
       inkscape:connector-curvature="0"
       sodipodi:nodetypes="csc" />
    <path
       style="fill:none;stroke:#00abe4;stroke-width:0.26458332px;stroke-linecap:butt;stroke-linejoin:miter;stroke-opacity:1"
       d="m 165.64029,157.15122 c 2.19328,-1.01197 4.3097,-2.04589 5.27857,-3.40769"
       id="path5247"
       inkscape:connector-curvature="0"
       sodipodi:nodetypes="cc" />
    <path
       style="fill:none;stroke:#00abe4;stroke-width:0.26458332px;stroke-linecap:butt;stroke-linejoin:miter;stroke-opacity:1"
       d="m 130.1567,172.42428 c 0.045,0.0593 2.96467,0.0443 4.3466,-2.11701 1.1291,-1.76591 3.81736,-1.85843 4.5067,-2.19271"
       id="path5243-9"
       inkscape:connector-curvature="0"
       sodipodi:nodetypes="csc" />
    <path
       style="fill:none;stroke:#00abe4;stroke-width:0.26458332px;stroke-linecap:butt;stroke-linejoin:miter;stroke-opacity:1"
       d="m 105.84586,180.07223 c 0.045,0.0593 2.96467,0.0443 4.3466,-2.11701 1.1291,-1.76591 3.81736,-1.85843 4.5067,-2.19271"
       id="path5243-3"
       inkscape:connector-curvature="0"
       sodipodi:nodetypes="csc" />
  </g>
</svg>
