<?xml version="1.0" encoding="UTF-8" standalone="no"?>
<!-- Created with Inkscape (http://www.inkscape.org/) -->

<svg
   xmlns:dc="http://purl.org/dc/elements/1.1/"
   xmlns:cc="http://creativecommons.org/ns#"
   xmlns:rdf="http://www.w3.org/1999/02/22-rdf-syntax-ns#"
   xmlns:svg="http://www.w3.org/2000/svg"
   xmlns="http://www.w3.org/2000/svg"
   xmlns:sodipodi="http://sodipodi.sourceforge.net/DTD/sodipodi-0.dtd"
   xmlns:inkscape="http://www.inkscape.org/namespaces/inkscape"
   width="389.96753"
   height="603.72906"
   viewBox="0 0 103.17891 159.73665"
   version="1.1"
   id="svg825"
   inkscape:version="0.92.2 (5c3e80d, 2017-08-06)"
   sodipodi:docname="rugby-tekauwhata.svg"
   inkscape:export-filename="C:\Users\Mathieu\Pictures\Dessin svg\project-nz\Décor\image.png"
   inkscape:export-xdpi="96"
   inkscape:export-ydpi="96">
  <defs
     id="defs819" />
  <sodipodi:namedview
     id="base"
     pagecolor="#ffffff"
     bordercolor="#666666"
     borderopacity="1.0"
     inkscape:pageopacity="0.0"
     inkscape:pageshadow="2"
     inkscape:zoom="0.35"
     inkscape:cx="215.64611"
     inkscape:cy="-60.14108"
     inkscape:document-units="mm"
     inkscape:current-layer="layer1"
     showgrid="false"
     inkscape:window-width="1680"
     inkscape:window-height="987"
     inkscape:window-x="-8"
     inkscape:window-y="14"
     inkscape:window-maximized="1"
     units="px" />
  <metadata
     id="metadata822">
    <rdf:RDF>
      <cc:Work
         rdf:about="">
        <dc:format>image/svg+xml</dc:format>
        <dc:type
           rdf:resource="http://purl.org/dc/dcmitype/StillImage" />
        <dc:title></dc:title>
      </cc:Work>
    </rdf:RDF>
  </metadata>
  <g
     inkscape:label="Calque 1"
     inkscape:groupmode="layer"
     id="layer1"
     transform="translate(-39.09883,-68.220747)">
    <path
       style="fill:#ffffff;fill-opacity:1;stroke:#000000;stroke-width:1.05833328;stroke-linecap:butt;stroke-linejoin:miter;stroke-miterlimit:4;stroke-dasharray:none;stroke-opacity:1"
       d="m 48.232653,68.778686 -0.05929,158.418104 7.777675,0.001 0.07632,-77.26087 62.637532,-0.12419 0.4456,77.44887 h 6.70443 l 0.0473,-158.477392 h -7.60212 l 0.31591,71.690292 -62.616451,-0.0611 -0.0071,-71.661638 z"
       id="path1373"
       inkscape:connector-curvature="0"
       sodipodi:nodetypes="ccccccccccccc" />
    <rect
       style="opacity:1;fill:#ffffff;fill-opacity:1;fill-rule:nonzero;stroke:#000000;stroke-width:1.05833328;stroke-miterlimit:4;stroke-dasharray:none;stroke-dashoffset:0;stroke-opacity:1"
       id="rect1375"
       width="15.599862"
       height="51.916367"
       x="43.955944"
       y="175.29167" />
    <rect
       style="opacity:1;fill:#ffffff;fill-opacity:1;fill-rule:nonzero;stroke:#000000;stroke-width:1.05833328;stroke-miterlimit:4;stroke-dasharray:none;stroke-dashoffset:0;stroke-opacity:1"
       id="rect1375-4"
       width="15.599862"
       height="51.916367"
       x="114.34224"
       y="175.49297" />
    <path
       style="fill:#57a326;fill-opacity:1;stroke:#000000;stroke-width:0.5291667;stroke-linecap:butt;stroke-linejoin:miter;stroke-miterlimit:4;stroke-dasharray:none;stroke-opacity:1"
       d="m 44.030686,226.52861 c 0,0 -0.01335,-3.70676 -0.935442,-5.21175 -0.8471,-1.38259 -3.87541,-2.93997 -3.87541,-2.93997 0,0 3.92161,0.55086 5.211757,1.87089 1.181503,1.20887 1.603616,4.81085 1.603616,4.81085 0,0 0.619604,-4.36806 0,-6.41447 -0.23271,-0.76859 -1.336347,-2.00452 -1.336347,-2.00452 0,0 2.526547,1.43008 3.073598,2.6727 0.700208,1.59051 -0.133633,5.21175 -0.133633,5.21175 0,0 0.506133,-4.10752 2.00452,-5.21175 1.078168,-0.79456 4.009044,-0.26727 4.009044,-0.26727 0,0 -1.679739,0.68723 -2.271792,1.33634 -1.691979,1.85504 -3.207234,6.81538 -3.207234,6.81538 l 1.870887,-1.87089 1.202714,2.00452 h -11.49259 l 0.400905,-2.00452 z"
       id="path1392"
       inkscape:connector-curvature="0"
       sodipodi:nodetypes="cacacacacacacccccc" />
    <path
       style="fill:#57a326;fill-opacity:1;stroke:#000000;stroke-width:0.52916676;stroke-linecap:butt;stroke-linejoin:miter;stroke-miterlimit:4;stroke-dasharray:none;stroke-opacity:1"
       d="m 110.19957,226.74115 c 0,0 -0.0134,-3.70676 -0.93545,-5.21175 -0.8471,-1.38259 -3.87541,-2.93997 -3.87541,-2.93997 0,0 3.92161,0.55086 5.21176,1.87089 1.1815,1.20887 1.60362,4.81085 1.60362,4.81085 0,0 0.6196,-4.36806 0,-6.41447 -0.23271,-0.76859 -1.33635,-2.00452 -1.33635,-2.00452 0,0 2.52655,1.43008 3.0736,2.6727 0.70021,1.59051 -0.13364,5.21175 -0.13364,5.21175 0,0 0.50614,-4.10752 2.00453,-5.21175 1.07816,-0.79456 4.00904,-0.26727 4.00904,-0.26727 0,0 -1.67974,0.68723 -2.27179,1.33634 -1.69198,1.85504 -3.20724,6.81538 -3.20724,6.81538 l 1.87089,-1.87089 1.20271,2.00452 h -11.49259 l 0.40091,-2.00452 z"
       id="path1392-2"
       inkscape:connector-curvature="0"
       sodipodi:nodetypes="cacacacacacacccccc"
       inkscape:transform-center-x="26.112733"
       inkscape:transform-center-y="5.8414678" />
    <path
       style="fill:#57a326;fill-opacity:1;stroke:#000000;stroke-width:0.52916676;stroke-linecap:butt;stroke-linejoin:miter;stroke-miterlimit:4;stroke-dasharray:none;stroke-opacity:1"
       d="m 61.092604,226.64009 c 0,0 -0.01335,-3.70676 -0.935442,-5.21175 -0.8471,-1.38259 -3.87541,-2.93997 -3.87541,-2.93997 0,0 3.92161,0.55086 5.211757,1.87089 1.181503,1.20887 1.603616,4.81085 1.603616,4.81085 0,0 0.619604,-4.36806 0,-6.41447 -0.23271,-0.76859 -1.336347,-2.00452 -1.336347,-2.00452 0,0 2.526547,1.43008 3.073598,2.6727 0.700208,1.59051 -0.133633,5.21175 -0.133633,5.21175 0,0 0.506133,-4.10752 2.004521,-5.21175 1.078168,-0.79456 4.009044,-0.26727 4.009044,-0.26727 0,0 -1.679739,0.68723 -2.271792,1.33634 -1.691979,1.85504 -3.207235,6.81538 -3.207235,6.81538 l 1.870888,-1.87089 1.202713,2.00452 h -11.49259 l 0.400905,-2.00452 z"
       id="path1392-8"
       inkscape:connector-curvature="0"
       sodipodi:nodetypes="cacacacacacacccccc"
       inkscape:transform-center-x="-15.464648"
       inkscape:transform-center-y="7.9203369" />
    <path
       style="fill:#57a326;fill-opacity:1;stroke:#000000;stroke-width:0.52916676;stroke-linecap:butt;stroke-linejoin:miter;stroke-miterlimit:4;stroke-dasharray:none;stroke-opacity:1"
       d="m 131.71433,226.891 c 0,0 -0.0134,-3.70676 -0.93544,-5.21175 -0.8471,-1.38259 -3.87541,-2.93997 -3.87541,-2.93997 0,0 3.92161,0.55086 5.21176,1.87089 1.1815,1.20887 1.60361,4.81085 1.60361,4.81085 0,0 0.61961,-4.36806 0,-6.41447 -0.23271,-0.76859 -1.33635,-2.00452 -1.33635,-2.00452 0,0 2.52655,1.43008 3.0736,2.6727 0.70021,1.59051 -0.13363,5.21175 -0.13363,5.21175 0,0 0.50613,-4.10752 2.00452,-5.21175 1.07817,-0.79456 4.00904,-0.26727 4.00904,-0.26727 0,0 -1.67974,0.68723 -2.27179,1.33634 -1.69198,1.85504 -3.20723,6.81538 -3.20723,6.81538 l 1.87088,-1.87089 1.20272,2.00452 h -11.49259 l 0.4009,-2.00452 z"
       id="path1392-0"
       inkscape:connector-curvature="0"
       sodipodi:nodetypes="cacacacacacacccccc" />
  </g>
</svg>
