<?xml version="1.0" encoding="UTF-8" standalone="no"?>
<!-- Created with Inkscape (http://www.inkscape.org/) -->

<svg
   xmlns:dc="http://purl.org/dc/elements/1.1/"
   xmlns:cc="http://creativecommons.org/ns#"
   xmlns:rdf="http://www.w3.org/1999/02/22-rdf-syntax-ns#"
   xmlns:svg="http://www.w3.org/2000/svg"
   xmlns="http://www.w3.org/2000/svg"
   xmlns:sodipodi="http://sodipodi.sourceforge.net/DTD/sodipodi-0.dtd"
   xmlns:inkscape="http://www.inkscape.org/namespaces/inkscape"
   width="159.89679mm"
   height="82.423454mm"
   viewBox="0 0 159.89679 82.423454"
   version="1.1"
   id="svg8"
   inkscape:version="0.92.2 (5c3e80d, 2017-08-06)"
   sodipodi:docname="van.svg"
   inkscape:export-filename="C:\Users\Mathieu\Pictures\Dessin svg\project-nz\camper-van\campervan.png"
   inkscape:export-xdpi="96"
   inkscape:export-ydpi="96">
  <defs
     id="defs2" />
  <sodipodi:namedview
     id="base"
     pagecolor="#ffffff"
     bordercolor="#666666"
     borderopacity="1.0"
     inkscape:pageopacity="0.0"
     inkscape:pageshadow="2"
     inkscape:zoom="1.4142136"
     inkscape:cx="36.86592"
     inkscape:cy="124.98468"
     inkscape:document-units="mm"
     inkscape:current-layer="layer1"
     showgrid="false"
     inkscape:window-width="1920"
     inkscape:window-height="1017"
     inkscape:window-x="-8"
     inkscape:window-y="-8"
     inkscape:window-maximized="1" />
  <metadata
     id="metadata5">
    <rdf:RDF>
      <cc:Work
         rdf:about="">
        <dc:format>image/svg+xml</dc:format>
        <dc:type
           rdf:resource="http://purl.org/dc/dcmitype/StillImage" />
        <dc:title></dc:title>
      </cc:Work>
    </rdf:RDF>
  </metadata>
  <g
     inkscape:label="Calque 1"
     inkscape:groupmode="layer"
     id="layer1"
     transform="translate(-7.7478804,-79.663709)">
    <g
       id="g39"
       style="fill:#ffffff;fill-opacity:1;stroke-width:0.79374999;stroke-miterlimit:4;stroke-dasharray:none">
      <path
         sodipodi:nodetypes="cccscccscsccccccccccccccc"
         inkscape:connector-curvature="0"
         id="path10"
         d="m 79.37905,151.33811 41.54664,0.13604 c -0.30952,-4.7953 1.62021,-7.44759 3.07439,-9.10022 1.64837,-1.63006 4.82326,-3.06074 8.60985,-2.98158 3.79903,0.0794 6.09972,1.30002 7.88931,2.76664 1.66428,1.71623 2.92152,3.96709 3.03792,9.10087 6.14272,-0.063 15.60455,-0.10445 16.21937,-0.14174 0.22715,-0.0156 1.46321,-0.014 2.19019,-0.0844 0.40278,-0.039 0.95922,-0.13333 1.35801,-0.44432 0.24934,-0.22205 0.88347,-0.96293 1.10459,-1.32122 0.2095,-0.33947 1.01195,-1.0528 1.12953,-2.81481 0.27207,-2.58362 -2.35979,-6.23031 -3.60805,-9.2864 l 0.007,-5.88581 c -0.001,-1.42124 0.11415,-2.68064 -0.17128,-3.53223 -0.33641,-1.09884 -0.83511,-2.3839 -1.34173,-3.19905 l -14.47512,-23.79785 -132.359054,0.70192 -4.7748664,27.33244 c 0.080404,9.34264 -0.099794,10.46251 -0.016451,19.80512 l 28.7318814,2.74534 c 0.04014,-3.12155 0.559267,-4.90891 1.073376,-6.39472 2.488974,-5.00874 4.680699,-6.42738 10.264006,-6.6023 4.776112,0.0565 8.610501,1.38691 10.701683,6.54556 0.448354,1.21659 1.125942,3.68252 1.167161,6.57662 z"
         style="fill:#ffffff;fill-opacity:1;stroke:#000000;stroke-width:0.79374999;stroke-linecap:butt;stroke-linejoin:miter;stroke-miterlimit:4;stroke-dasharray:none;stroke-opacity:1" />
      <path
         sodipodi:nodetypes="ccccscc"
         inkscape:connector-curvature="0"
         id="path294"
         d="m 159.55991,138.52587 0.008,0.98471 c 0.0127,0.13544 6.98578,0.064 7.45108,0.0698 0.45512,-0.005 0.0187,-0.77275 -0.0251,-0.89028 -0.0705,-0.15726 -0.87071,-0.17012 -1.11953,-0.16948 -0.3606,9.3e-4 -3.72616,0.0558 -6.31533,0.005 z"
         style="fill:#ffffff;fill-opacity:1;stroke:#000000;stroke-width:0.79374999;stroke-linecap:butt;stroke-linejoin:miter;stroke-miterlimit:4;stroke-dasharray:none;stroke-opacity:1" />
      <path
         sodipodi:nodetypes="cccccccsccccc"
         inkscape:connector-curvature="0"
         id="path16"
         d="m 145.55709,100.34461 -6.89017,-7.242836 c -0.42022,-0.395172 -0.66789,-0.712175 -1.2919,-1.12307 -0.88646,-0.420614 -3.3742,-1.088248 -4.94117,-1.292354 l -12.67581,-2.14471 c -2.09435,-0.487118 -3.35975,-1.041165 -4.7845,-2.148114 -1.03454,-0.768047 -1.92991,-1.417636 -2.91627,-2.09196 -1.16917,-0.808801 -2.03105,-1.341921 -3.62861,-1.968359 -1.20818,-0.473753 -3.86599,-0.606859 -4.58929,-0.618917 -26.946739,-0.125039 -52.102137,0.07243 -79.317452,0.08807 -1.542465,0.0021 -2.38635,0.464214 -2.754878,0.786362 -0.438065,0.474497 -0.565544,0.814628 -0.792502,1.427242 l -6.498174,16.835796"
         style="fill:#ffffff;fill-opacity:1;stroke:#000000;stroke-width:0.79374999;stroke-linecap:butt;stroke-linejoin:miter;stroke-miterlimit:4;stroke-dasharray:none;stroke-opacity:1" />
      <path
         sodipodi:nodetypes="cccc"
         inkscape:connector-curvature="0"
         id="path18"
         d="m 59.34226,81.742557 0.897694,-1.133928 10.73486,0.02102 0.757385,1.093599"
         style="fill:#ffffff;fill-opacity:1;stroke:#000000;stroke-width:0.79374999;stroke-linecap:butt;stroke-linejoin:miter;stroke-miterlimit:4;stroke-dasharray:none;stroke-opacity:1" />
      <path
         sodipodi:nodetypes="cccc"
         inkscape:connector-curvature="0"
         id="path20"
         d="m 60.239954,80.608627 0.446933,-0.547963 9.94326,0.0042 0.344667,0.573115"
         style="fill:#ffffff;fill-opacity:1;stroke:#000000;stroke-width:0.79374999;stroke-linecap:butt;stroke-linejoin:miter;stroke-miterlimit:4;stroke-dasharray:none;stroke-opacity:1" />
      <path
         inkscape:connector-curvature="0"
         id="path22"
         d="M 17.806832,92.471993 33.90982,92.338357 38.219541,96.714896 142.72193,97.38307"
         style="fill:#ffffff;fill-opacity:1;stroke:#000000;stroke-width:0.79374999;stroke-linecap:butt;stroke-linejoin:miter;stroke-miterlimit:4;stroke-dasharray:none;stroke-opacity:1" />
      <path
         sodipodi:nodetypes="cccccccccccccc"
         inkscape:connector-curvature="0"
         id="path24"
         d="m 23.152222,103.88106 c -0.249755,0.8074 -0.254013,1.58974 -0.273949,2.11316 l -0.381769,12.34334 c -0.0036,0.27606 -0.04128,1.1361 0.276287,1.39604 0.369402,0.26228 1.133349,0.20488 1.415522,0.21268 l 43.781652,-0.0114 c 0.670789,-0.0284 1.530488,-0.0321 1.931147,-0.39333 0.271441,-0.39024 0.30378,-1.06229 0.300678,-1.7544 l -0.177176,-12.65734 c -0.0229,-0.57731 0.131148,-0.93192 -0.454752,-1.54915 -0.46162,-0.44431 -0.97955,-0.46457 -1.463267,-0.47899 l -41.830777,0.11558 c -1.845334,0.12542 -2.884037,-0.0998 -3.123596,0.66378 z"
         style="fill:#ffffff;fill-opacity:1;stroke:#000000;stroke-width:0.79374999;stroke-linecap:butt;stroke-linejoin:miter;stroke-miterlimit:4;stroke-dasharray:none;stroke-opacity:1" />
      <path
         sodipodi:nodetypes="cccccccccccccc"
         inkscape:connector-curvature="0"
         id="path26"
         d="m 74.546745,103.44102 c -0.517799,0.46237 -0.425518,1.15503 -0.427514,1.77645 l 0.04014,12.86239 c 0.01676,0.68482 -0.0652,1.13568 0.342012,1.60351 0.368051,0.30424 0.917239,0.23394 1.503374,0.24539 l 34.907583,-0.0984 c 0.95122,0.0215 1.72787,-0.14079 1.99622,-0.44376 0.24062,-0.29924 0.38689,-0.89374 0.37798,-1.63001 l 0.0118,-13.11549 c 0,-0.5143 -0.0568,-1.00926 -0.40311,-1.25387 -0.37138,-0.22877 -0.80464,-0.25889 -1.37703,-0.2888 l -34.845331,0.005 c -0.864872,0.007 -1.60308,-0.0724 -2.126134,0.33764 z"
         style="fill:#ffffff;fill-opacity:1;stroke:#000000;stroke-width:0.79374999;stroke-linecap:butt;stroke-linejoin:miter;stroke-miterlimit:4;stroke-dasharray:none;stroke-opacity:1" />
      <path
         sodipodi:nodetypes="cccc"
         inkscape:connector-curvature="0"
         id="path30"
         d="m 9.0017848,128.99103 3.8145052,2.79944 0.09402,12.12286 -3.8998796,0.0221"
         style="fill:#ffffff;fill-opacity:1;stroke:#000000;stroke-width:0.79374999;stroke-linecap:butt;stroke-linejoin:miter;stroke-miterlimit:4;stroke-dasharray:none;stroke-opacity:1" />
      <path
         sodipodi:nodetypes="ccccc"
         inkscape:connector-curvature="0"
         id="path32"
         d="m 8.8182245,140.14398 0.022615,-2.33919 4.0214317,0.0145 0.01661,2.21644 -4.3500446,7.6e-4"
         style="fill:#ffffff;fill-opacity:1;stroke:#000000;stroke-width:0.79374999;stroke-linecap:butt;stroke-linejoin:miter;stroke-miterlimit:4;stroke-dasharray:none;stroke-opacity:1" />
      <path
         sodipodi:nodetypes="ccccccccccccccccccccc"
         inkscape:connector-curvature="0"
         id="path284"
         d="m 122.93676,101.11384 0.0945,18.52083 -1.5119,2.26786 -0.039,20.79696 1.64736,-0.0143 c 0.53673,-0.67046 1.37344,-1.45246 2.40668,-2.07225 1.41099,-0.87475 4.65134,-1.64595 6.90766,-1.69088 2.19466,0.0812 3.99406,0.30153 6.17059,1.341 1.19807,0.649 1.92691,1.27754 2.59168,1.91588 0.73807,0.68365 1.47611,2.0944 2.0143,3.20879 0.39496,0.89669 0.49955,1.81558 0.64077,2.65321 l 0.23505,2.52866 14.46501,-0.006 -0.0142,-19.60543 c 0.0269,-0.9115 0.0618,-1.63925 -0.25199,-2.76791 -0.40138,-1.08815 -0.75601,-1.82221 -1.15787,-2.45173 l -3.38384,-5.80496 -9.24196,-16.67908 c -0.17186,-0.36798 -0.80762,-0.79669 -1.49533,-1.29479 -0.37008,-0.24144 -1.91876,-0.87079 -2.48921,-0.92608 z"
         style="fill:#ffffff;fill-opacity:1;stroke:#000000;stroke-width:0.79374999;stroke-linecap:butt;stroke-linejoin:miter;stroke-miterlimit:4;stroke-dasharray:none;stroke-opacity:1" />
      <path
         sodipodi:nodetypes="ccccscc"
         inkscape:connector-curvature="0"
         id="path286"
         d="m 159.91904,146.05118 c 2.16286,-0.013 4.1837,0.0444 5.48458,0.0199 1.30793,-0.11293 1.68605,-0.73719 1.79932,-1.61913 0.0739,-0.86181 0.0341,-3.90593 0.0345,-4.25066 -0.006,-0.17219 -0.0105,-0.52688 -0.008,-0.68311 0,0 -0.16048,-0.006 -0.37015,-0.002 -2.91317,0.0395 -3.93781,0.0388 -6.85153,0.0415"
         style="fill:#ffffff;fill-opacity:1;stroke:#000000;stroke-width:0.79374999;stroke-linecap:butt;stroke-linejoin:miter;stroke-miterlimit:4;stroke-dasharray:none;stroke-opacity:1" />
      <path
         sodipodi:nodetypes="cccccc"
         inkscape:connector-curvature="0"
         id="path292"
         d="m 158.56973,136.6701 4.01289,0.0395 c 0.69442,0.015 1.58507,1.05945 2.02122,1.45245 0.49029,0.44114 -0.41612,0.27095 -0.79528,0.25844 l -5.02997,0.0325 z"
         style="fill:#ffffff;fill-opacity:1;stroke:#000000;stroke-width:0.79374999;stroke-linecap:butt;stroke-linejoin:miter;stroke-miterlimit:4;stroke-dasharray:none;stroke-opacity:1" />
      <path
         sodipodi:nodetypes="ccccc"
         inkscape:connector-curvature="0"
         id="path288"
         d="m 161.94048,136.6781 -3.37075,-0.008 0.0291,-6.68488 3.36003,0.009 z"
         style="fill:#ffffff;fill-opacity:1;stroke:#000000;stroke-width:0.79374999;stroke-linecap:butt;stroke-linejoin:miter;stroke-miterlimit:4;stroke-dasharray:none;stroke-opacity:1" />
      <path
         sodipodi:nodetypes="cc"
         inkscape:connector-curvature="0"
         id="path290"
         d="m 160.75477,130.01777 c -0.004,2.1816 0.001,4.36318 0.008,6.54477"
         style="fill:#ffffff;fill-opacity:1;stroke:#000000;stroke-width:0.79374999;stroke-linecap:butt;stroke-linejoin:miter;stroke-miterlimit:4;stroke-dasharray:none;stroke-opacity:1" />
      <path
         sodipodi:nodetypes="cccccccccc"
         inkscape:connector-curvature="0"
         id="path28"
         d="m 124.21351,103.02914 0.04,14.96974 c 0.003,0.36756 0.0556,1.08948 0.29258,1.30938 0.32272,0.32194 1.07977,0.47056 1.51489,0.46657 l 25.61447,-0.0413 c -2.80098,-5.05763 -8.22125,-15.02478 -8.40294,-15.1729 -0.16752,-0.17902 -0.79379,-0.59238 -1.23343,-0.87736 -0.43867,-0.28025 -1.65345,-0.60038 -1.89797,-0.64574 -0.33966,-0.051 -11.01528,-0.006 -16.32448,-0.008 z"
         style="fill:#ffffff;fill-opacity:1;stroke:#000000;stroke-width:0.79374999;stroke-linecap:butt;stroke-linejoin:miter;stroke-miterlimit:4;stroke-dasharray:none;stroke-opacity:1" />
    </g>
    <path
       style="fill:#ffffff;fill-opacity:1;stroke:#000000;stroke-width:0.79374999;stroke-linecap:butt;stroke-linejoin:miter;stroke-miterlimit:4;stroke-dasharray:none;stroke-opacity:1"
       d="m 13.937872,144.10863 -4.8900931,0.001 c -0.2362265,-0.009 -0.5964764,-0.0294 -0.7323029,0.11712 -0.1113265,0.14545 -0.1621151,0.34406 -0.1639205,0.50132 l -0.00678,3.17239 c 0.00967,0.20352 0.060675,0.44163 0.2002281,0.57852 0.1189787,0.1326 0.8386074,0.22692 0.9959529,0.25016 l 4.6441605,0.34043 z"
       id="path25"
       inkscape:connector-curvature="0"
       sodipodi:nodetypes="ccccccccc" />
    <path
       style="fill:#ffffff;fill-opacity:1;stroke:#000000;stroke-width:0.79374999;stroke-linecap:butt;stroke-linejoin:miter;stroke-miterlimit:4;stroke-dasharray:none;stroke-opacity:1"
       d="m 22.574014,122.01988 -0.03298,6.62679 c 0.0086,0.83464 0.359077,0.97058 1.162481,0.96288 l 9.273248,0.0337 c 0.751279,0.0283 1.073713,-0.27544 1.043625,-0.82099 l 0.014,-6.7129 c 0.01517,-0.61237 -0.246878,-0.92632 -0.725199,-0.9117 l -9.437692,-0.0182 c -1.083765,-0.0267 -1.252205,0.10432 -1.297478,0.84042 z"
       id="path832-9"
       inkscape:connector-curvature="0"
       sodipodi:nodetypes="ccccccccc" />
    <path
       style="fill:#ffffff;fill-opacity:1;stroke:#000000;stroke-width:0.79374999;stroke-linecap:butt;stroke-linejoin:miter;stroke-miterlimit:4;stroke-dasharray:none;stroke-opacity:1"
       d="m 23.489732,123.78744 2.39408,-3e-5"
       id="path834-9-9"
       inkscape:connector-curvature="0"
       sodipodi:nodetypes="cc" />
    <path
       style="fill:#ffffff;fill-opacity:1;stroke:#000000;stroke-width:0.79374999;stroke-linecap:butt;stroke-linejoin:miter;stroke-miterlimit:4;stroke-dasharray:none;stroke-opacity:1"
       d="m 23.489732,125.25827 2.39408,-3e-5"
       id="path834-3-8"
       inkscape:connector-curvature="0"
       sodipodi:nodetypes="cc" />
    <path
       style="fill:#ffffff;fill-opacity:1;stroke:#000000;stroke-width:0.79374999;stroke-linecap:butt;stroke-linejoin:miter;stroke-miterlimit:4;stroke-dasharray:none;stroke-opacity:1"
       d="m 23.489732,126.72911 2.39408,-3e-5"
       id="path834-40-1"
       inkscape:connector-curvature="0"
       sodipodi:nodetypes="cc" />
    <path
       style="fill:#ffffff;fill-opacity:1;stroke:#000000;stroke-width:0.79374999;stroke-linecap:butt;stroke-linejoin:miter;stroke-miterlimit:4;stroke-dasharray:none;stroke-opacity:1"
       d="m 23.489732,128.19993 2.39408,-3e-5"
       id="path834-0-30"
       inkscape:connector-curvature="0"
       sodipodi:nodetypes="cc" />
    <path
       style="fill:none;fill-opacity:1;stroke:#000000;stroke-width:0.79374999;stroke-linecap:butt;stroke-linejoin:miter;stroke-miterlimit:4;stroke-dasharray:none;stroke-opacity:1"
       d="m 121.51934,124.35937 c 0.8114,0.0711 2.43693,0.22643 2.42141,0.85046 l -0.0118,3.26003 c 0.0253,0.72492 -2.14474,0.8757 -2.80226,1.03319"
       id="path180"
       inkscape:connector-curvature="0"
       sodipodi:nodetypes="cccc" />
    <path
       style="fill:#ffffff;fill-opacity:1;stroke:#000000;stroke-width:0.79374999;stroke-linecap:butt;stroke-linejoin:miter;stroke-miterlimit:4;stroke-dasharray:none;stroke-opacity:1"
       d="m 93.466424,103.09822 -0.01182,16.77269"
       id="path987"
       inkscape:connector-curvature="0"
       sodipodi:nodetypes="cc" />
    <path
       style="fill:#ffffff;fill-opacity:1;stroke:#000000;stroke-width:0.79374999;stroke-linecap:butt;stroke-linejoin:miter;stroke-miterlimit:4;stroke-dasharray:none;stroke-opacity:1"
       d="M 93.879836,119.83547 V 103.11003"
       id="path989"
       inkscape:connector-curvature="0" />
    <path
       style="fill:#ffffff;fill-opacity:1;stroke:#000000;stroke-width:0.79374999;stroke-linecap:butt;stroke-linejoin:miter;stroke-miterlimit:4;stroke-dasharray:none;stroke-opacity:1"
       d="m 47.213271,103.14641 -0.01182,16.7727"
       id="path987-0"
       inkscape:connector-curvature="0"
       sodipodi:nodetypes="cc" />
    <path
       style="fill:#ffffff;fill-opacity:1;stroke:#000000;stroke-width:0.79374999;stroke-linecap:butt;stroke-linejoin:miter;stroke-miterlimit:4;stroke-dasharray:none;stroke-opacity:1"
       d="M 47.626683,119.88367 V 103.15822"
       id="path989-2"
       inkscape:connector-curvature="0" />
    <path
       style="fill:#ffffff;fill-opacity:1;stroke:#000000;stroke-width:0.79374999;stroke-linecap:butt;stroke-linejoin:miter;stroke-miterlimit:4;stroke-dasharray:none;stroke-opacity:1"
       d="M 140.11105,119.74097 V 103.01553"
       id="path989-0"
       inkscape:connector-curvature="0" />
    <path
       style="fill:#ffffff;fill-opacity:1;stroke:#000000;stroke-width:0.79374999;stroke-linecap:butt;stroke-linejoin:miter;stroke-miterlimit:4;stroke-dasharray:none;stroke-opacity:1"
       d="m 145.87065,100.07585 -0.71598,0.75135 11.54008,18.76002 0.70871,0.003"
       id="path1017"
       inkscape:connector-curvature="0"
       sodipodi:nodetypes="cccc" />
    <path
       style="fill:#ffffff;fill-opacity:1;stroke:#000000;stroke-width:0.79374999;stroke-linecap:butt;stroke-linejoin:miter;stroke-miterlimit:4;stroke-dasharray:none;stroke-opacity:1"
       d="m 157.6741,112.45282 0.8674,0.23234 c 0.20907,0.055 0.2591,0.17021 0.2471,0.3979 l -0.10992,4.65916 c 0.007,0.17779 -0.11051,0.28434 -0.28196,0.25959 l -1.09443,-0.29853 c -0.14313,-0.0317 -0.2108,-0.13594 -0.20135,-0.29494 l 0.10597,-4.63659 c 0.004,-0.25605 0.1614,-0.40844 0.46722,-0.31893 z"
       id="path1021"
       inkscape:connector-curvature="0"
       sodipodi:nodetypes="cccccccccc" />
    <path
       style="fill:#ffffff;fill-opacity:1;stroke:#000000;stroke-width:0.79374999;stroke-linecap:butt;stroke-linejoin:miter;stroke-miterlimit:4;stroke-dasharray:none;stroke-opacity:1"
       d="m 157.84187,117.79461 0.0915,1.93481 -0.49192,-0.004"
       id="path1023"
       inkscape:connector-curvature="0"
       sodipodi:nodetypes="ccc" />
    <path
       style="fill:#ffffff;fill-opacity:1;stroke:#000000;stroke-width:0.79374999;stroke-linecap:butt;stroke-linejoin:miter;stroke-miterlimit:4;stroke-dasharray:none;stroke-opacity:1"
       d="m 157.20662,112.79991 c -0.01,-0.22296 0.11559,-0.42549 0.36334,-0.39358 l 1.20188,0.2697 c 0.16312,0.0518 0.10527,0.25911 0.10694,0.46641 l -0.14758,4.77258 c -0.01,0.089 -0.0539,0.22156 -0.22758,0.1644 l -1.2745,-0.40092"
       id="path1025"
       inkscape:connector-curvature="0"
       sodipodi:nodetypes="ccccccc" />
    <path
       style="fill:#ffffff;fill-opacity:1;stroke:#000000;stroke-width:0.79374999;stroke-linecap:butt;stroke-linejoin:miter;stroke-miterlimit:4;stroke-dasharray:none;stroke-opacity:1"
       d="m 150.03232,112.40078 -0.003,5.83163 c -0.004,0.1205 0.17351,0.11856 0.19427,0.0793 0.10372,-0.19629 0.90073,-1.87078 0.9538,-1.98957 0.049,-0.11913 0.039,-2.33147 -0.006,-2.41922 -0.0644,-0.1273 -0.60556,-1.14184 -0.89372,-1.70106 -0.13435,-0.22846 -0.24177,-0.1078 -0.24573,0.19892 z"
       id="path200"
       inkscape:connector-curvature="0"
       sodipodi:nodetypes="ccscccc" />
    <path
       style="fill:#ffffff;fill-opacity:1;stroke:#000000;stroke-width:0.79374999;stroke-linecap:butt;stroke-linejoin:miter;stroke-miterlimit:4;stroke-dasharray:none;stroke-opacity:1"
       d="m 150.96133,115.2974 1.86862,0.0496 0.69453,1.68671"
       id="path1007"
       inkscape:connector-curvature="0" />
    <path
       style="fill:#ffffff;fill-opacity:1;stroke:#000000;stroke-width:0.79374999;stroke-linecap:butt;stroke-linejoin:miter;stroke-miterlimit:4;stroke-dasharray:none;stroke-opacity:1"
       d="m 124.90084,127.89433 c -0.003,0.31262 0.192,0.5583 0.52633,0.57092 0.32486,0.002 0.51876,-0.24043 0.51764,-0.534 0.004,-0.35523 -0.15406,-0.62789 -0.53602,-0.63105 -0.39736,0.0144 -0.50606,0.32847 -0.50795,0.59413 z"
       id="path1009"
       inkscape:connector-curvature="0"
       sodipodi:nodetypes="ccccc" />
    <path
       style="fill:#ffffff;fill-opacity:1;stroke:#000000;stroke-width:0.79374999;stroke-linecap:butt;stroke-linejoin:miter;stroke-miterlimit:4;stroke-dasharray:none;stroke-opacity:1"
       d="m 125.41956,127.64382 v 0.4268"
       id="path1011"
       inkscape:connector-curvature="0" />
    <path
       style="fill:#ffffff;fill-opacity:1;stroke:#000000;stroke-width:0.79374999;stroke-linecap:butt;stroke-linejoin:miter;stroke-miterlimit:4;stroke-dasharray:none;stroke-opacity:1"
       d="m 121.10593,124.37591 -1.93771,-0.003 -0.007,5.12914 1.96547,0.001"
       id="path1013"
       inkscape:connector-curvature="0"
       sodipodi:nodetypes="cccc" />
    <path
       style="fill:#ffffff;fill-opacity:1;stroke:#000000;stroke-width:0.79374999;stroke-linecap:butt;stroke-linejoin:miter;stroke-miterlimit:4;stroke-dasharray:none;stroke-opacity:1"
       d="m 68.507037,132.19345 c -1.656064,0.0328 -2.370455,1.46944 -2.370219,2.48622 0.0288,1.37362 1.043714,2.33046 2.39101,2.37892 1.438253,-0.0304 2.398673,-1.01736 2.454568,-2.34189 -0.02656,-1.6116 -0.905503,-2.48213 -2.475359,-2.52325 z"
       id="path1018"
       inkscape:connector-curvature="0"
       sodipodi:nodetypes="ccccc" />
    <path
       style="fill:#ffffff;fill-opacity:1;stroke:#000000;stroke-width:0.79374999;stroke-linecap:butt;stroke-linejoin:miter;stroke-miterlimit:4;stroke-dasharray:none;stroke-opacity:1"
       d="m 68.02445,134.64492 c -0.003,0.31262 0.192,0.5583 0.52633,0.57092 0.32486,0.002 0.51876,-0.24043 0.51764,-0.534 0.004,-0.35523 -0.15406,-0.62789 -0.53602,-0.63105 -0.39736,0.0144 -0.50606,0.32847 -0.50795,0.59413 z"
       id="path1009-6"
       inkscape:connector-curvature="0"
       sodipodi:nodetypes="ccccc" />
    <path
       style="fill:#ffffff;fill-opacity:1;stroke:#000000;stroke-width:0.79374999;stroke-linecap:butt;stroke-linejoin:miter;stroke-miterlimit:4;stroke-dasharray:none;stroke-opacity:1"
       d="m 158.55948,150.56363 -0.002,0.57736"
       id="path1035"
       inkscape:connector-curvature="0" />
    <path
       style="fill:#ffffff;fill-opacity:1;stroke:#000000;stroke-width:0.79374999;stroke-linecap:butt;stroke-linejoin:miter;stroke-miterlimit:4;stroke-dasharray:none;stroke-opacity:1"
       d="m 121.46403,132.13643 -3.41587,0.007 c -0.37775,-0.003 -0.53242,0.10272 -0.51502,0.50679 l 0.004,3.78756 c -0.007,0.33735 0.28579,0.45629 0.64015,0.45867 l 3.2799,-0.008 z"
       id="path1037"
       inkscape:connector-curvature="0"
       sodipodi:nodetypes="ccccccc" />
    <path
       style="fill:#ffffff;fill-opacity:1;stroke:#000000;stroke-width:0.79374999;stroke-linecap:butt;stroke-linejoin:miter;stroke-miterlimit:4;stroke-dasharray:none;stroke-opacity:1"
       d="m 12.766681,131.69125 145.741359,0.0135"
       id="path1048"
       inkscape:connector-curvature="0"
       sodipodi:nodetypes="cc" />
    <path
       style="fill:#ffffff;fill-opacity:1;stroke:#000000;stroke-width:0.79374999;stroke-linecap:butt;stroke-linejoin:miter;stroke-miterlimit:4;stroke-dasharray:none;stroke-opacity:1"
       d="m 22.549812,141.64128 -0.07378,6.62701 c 0.0108,0.83462 0.361664,0.96962 1.165045,0.95978 l 9.273305,0.009 c 0.751351,0.0263 1.072974,-0.2783 1.041431,-0.82377 l -0.0039,-6.71292 c 0.01354,-0.6124 -0.249348,-0.92565 -0.727628,-0.90976 l -9.437707,0.007 c -0.908489,-0.0126 -1.193203,-0.008 -1.236766,0.84366 z"
       id="path832-9-2"
       inkscape:connector-curvature="0"
       sodipodi:nodetypes="ccccccccc" />
    <path
       style="fill:none;fill-opacity:1;stroke:#000000;stroke-width:0.79374999;stroke-linecap:butt;stroke-linejoin:miter;stroke-miterlimit:4;stroke-dasharray:none;stroke-opacity:1"
       d="m 12.878879,140.03573 26.646158,0.0516 c 1.85949,-1.04166 1.708298,-1.40082 3.940328,-2.19412 0.735874,-0.23662 3.056081,-1.05897 5.251273,-1.03737 2.16955,0.0213 4.745038,0.64865 5.981431,1.11074 1.511187,0.72073 2.624187,1.15915 4.012925,2.10253 l 64.518966,0.29463 c 0.88817,-0.56719 1.17816,-0.97906 3.15598,-1.7076 1.09217,-0.40231 3.06306,-0.92382 6.57079,-1.00738 3.1779,0.10721 5.83833,1.01354 6.47238,1.33461 1.50848,0.76387 2.66397,1.37984 3.81956,1.38641 l 15.36686,-0.32496"
       id="path1155"
       inkscape:connector-curvature="0"
       sodipodi:nodetypes="cccscccscscc" />
    <path
       style="fill:#ffffff;fill-opacity:1;stroke:#000000;stroke-width:0.79374999;stroke-linecap:butt;stroke-linejoin:miter;stroke-miterlimit:4;stroke-dasharray:none;stroke-opacity:1"
       d="m 12.857502,137.83155 30.633384,0.002 c 1.711364,-0.34294 3.312249,-0.94366 5.14284,-1.00841 2.619384,0.0267 4.068267,0.56235 5.721615,1.00908 l 74.549479,0.11846 c 0.95968,-0.22821 2.80845,-0.36444 3.91914,-0.38095 1.08122,0.0211 1.91039,0.1668 3.00591,0.37221 l 22.73947,-0.10424"
       id="path1157"
       inkscape:connector-curvature="0"
       sodipodi:nodetypes="cccccccc" />
    <path
       style="fill:#ffffff;fill-opacity:1;stroke:#000000;stroke-width:0.79374999;stroke-linecap:butt;stroke-linejoin:miter;stroke-miterlimit:4;stroke-dasharray:none;stroke-opacity:1"
       d="m 38.798201,151.33209 c -0.06034,-8.61353 3.626761,-11.93996 10.360321,-12.00107 8.902596,0.35333 10.540586,6.38786 10.567185,12.14706 -0.03778,6.55835 -4.859997,9.29091 -10.435867,9.38087 -6.026939,-0.20743 -10.082854,-2.59971 -10.491639,-9.52686 z"
       id="path1159"
       inkscape:connector-curvature="0"
       sodipodi:nodetypes="ccccc" />
    <path
       style="fill:#ffffff;fill-opacity:1;stroke:#000000;stroke-width:0.79374999;stroke-linecap:butt;stroke-linejoin:miter;stroke-miterlimit:4;stroke-dasharray:none;stroke-opacity:1"
       d="m 122.01712,152.16332 c -0.0603,-8.61353 3.62676,-11.93996 10.36032,-12.00107 8.9026,0.35333 10.54059,6.38786 10.56719,12.14706 -0.0378,6.55835 -4.86,9.29091 -10.43587,9.38087 -6.02694,-0.20743 -10.08285,-2.59971 -10.49164,-9.52686 z"
       id="path1159-8"
       inkscape:connector-curvature="0"
       sodipodi:nodetypes="ccccc" />
    <path
       style="fill:#ffffff;fill-opacity:1;stroke:#000000;stroke-width:0.79374999;stroke-linecap:butt;stroke-linejoin:miter;stroke-miterlimit:4;stroke-dasharray:none;stroke-opacity:1"
       d="m 42.618825,150.86227 c -0.03906,-5.06103 2.347475,-7.01553 6.705871,-7.05144 5.762336,0.20761 6.82255,3.75331 6.839766,7.13722 -0.02445,3.85348 -3.145705,5.45904 -6.754769,5.5119 -3.901025,-0.12188 -6.526274,-1.52751 -6.790868,-5.59768 z"
       id="path1159-9"
       inkscape:connector-curvature="0"
       sodipodi:nodetypes="ccccc" />
    <path
       style="fill:#ffffff;fill-opacity:1;stroke:#000000;stroke-width:0.79374999;stroke-linecap:butt;stroke-linejoin:miter;stroke-miterlimit:4;stroke-dasharray:none;stroke-opacity:1"
       d="m 126.24489,151.78726 c -0.0372,-4.98822 2.23488,-6.9146 6.38423,-6.95 5.48597,0.20463 6.49533,3.69931 6.51172,7.03454 -0.0233,3.79804 -2.99483,5.38051 -6.43079,5.4326 -3.71392,-0.12012 -6.21326,-1.50553 -6.46516,-5.51714 z"
       id="path1159-9-7"
       inkscape:connector-curvature="0"
       sodipodi:nodetypes="ccccc" />
    <path
       style="fill:#ffffff;fill-opacity:1;stroke:#000000;stroke-width:0.79374999;stroke-linecap:butt;stroke-linejoin:miter;stroke-miterlimit:4;stroke-dasharray:none;stroke-opacity:1"
       d="m 47.386134,148.44474 c -0.0025,0.22279 0.157804,0.39787 0.432588,0.40686 0.267001,0.001 0.426367,-0.17134 0.425446,-0.38055 0.0033,-0.25316 -0.126621,-0.44747 -0.440552,-0.44972 -0.326588,0.0103 -0.415928,0.23408 -0.417482,0.42341 z"
       id="path1009-6-0"
       inkscape:connector-curvature="0"
       sodipodi:nodetypes="ccccc" />
    <path
       style="fill:#ffffff;fill-opacity:1;stroke:#000000;stroke-width:0.79374999;stroke-linecap:butt;stroke-linejoin:miter;stroke-miterlimit:4;stroke-dasharray:none;stroke-opacity:1"
       d="m 50.321357,148.46127 c -0.0025,0.22279 0.157804,0.39787 0.432588,0.40686 0.267001,0.001 0.426367,-0.17134 0.425446,-0.38055 0.0033,-0.25316 -0.126621,-0.44747 -0.440552,-0.44972 -0.326588,0.0103 -0.415928,0.23408 -0.417482,0.42341 z"
       id="path1009-6-0-3"
       inkscape:connector-curvature="0"
       sodipodi:nodetypes="ccccc" />
    <path
       style="fill:#ffffff;fill-opacity:1;stroke:#000000;stroke-width:0.79374999;stroke-linecap:butt;stroke-linejoin:miter;stroke-miterlimit:4;stroke-dasharray:none;stroke-opacity:1"
       d="m 50.35443,151.65281 c -0.0025,0.22279 0.157804,0.39787 0.432588,0.40686 0.267001,10e-4 0.426367,-0.17134 0.425446,-0.38055 0.0033,-0.25316 -0.126621,-0.44747 -0.440552,-0.44972 -0.326588,0.0103 -0.415928,0.23408 -0.417482,0.42341 z"
       id="path1009-6-0-4"
       inkscape:connector-curvature="0"
       sodipodi:nodetypes="ccccc" />
    <path
       style="fill:#ffffff;fill-opacity:1;stroke:#000000;stroke-width:0.79374999;stroke-linecap:butt;stroke-linejoin:miter;stroke-miterlimit:4;stroke-dasharray:none;stroke-opacity:1"
       d="m 47.328258,151.61974 c -0.0025,0.22279 0.157804,0.39787 0.432588,0.40686 0.267001,0.001 0.426367,-0.17134 0.425446,-0.38055 0.0033,-0.25316 -0.126621,-0.44747 -0.440552,-0.44972 -0.326588,0.0103 -0.415928,0.23408 -0.417482,0.42341 z"
       id="path1009-6-0-6"
       inkscape:connector-curvature="0"
       sodipodi:nodetypes="ccccc" />
    <path
       style="fill:#ffffff;fill-opacity:1;stroke:#000000;stroke-width:0.79374999;stroke-linecap:butt;stroke-linejoin:miter;stroke-miterlimit:4;stroke-dasharray:none;stroke-opacity:1"
       d="m 132.04051,148.6666 c -0.12792,0.18242 -0.0955,0.41724 0.12581,0.58037 0.21942,0.15215 0.44839,0.10048 0.5662,-0.0724 0.14595,-0.20688 0.14928,-0.44043 -0.10809,-0.6202 -0.27491,-0.17661 -0.47535,-0.0429 -0.58392,0.11224 z"
       id="path1009-6-0-0"
       inkscape:connector-curvature="0"
       sodipodi:nodetypes="ccccc" />
    <path
       style="fill:#ffffff;fill-opacity:1;stroke:#000000;stroke-width:0.79374999;stroke-linecap:butt;stroke-linejoin:miter;stroke-miterlimit:4;stroke-dasharray:none;stroke-opacity:1"
       d="m 134.44945,150.34373 c -0.12791,0.18242 -0.0955,0.41724 0.12583,0.58038 0.21941,0.15214 0.44838,0.10047 0.56619,-0.0724 0.14595,-0.20688 0.14928,-0.44043 -0.10809,-0.6202 -0.27492,-0.17661 -0.47535,-0.0429 -0.58393,0.11224 z"
       id="path1009-6-0-3-9"
       inkscape:connector-curvature="0"
       sodipodi:nodetypes="ccccc" />
    <path
       style="fill:#ffffff;fill-opacity:1;stroke:#000000;stroke-width:0.79374999;stroke-linecap:butt;stroke-linejoin:miter;stroke-miterlimit:4;stroke-dasharray:none;stroke-opacity:1"
       d="m 132.66792,152.99197 c -0.12791,0.18242 -0.0955,0.41724 0.12582,0.58038 0.21942,0.15214 0.44839,0.10047 0.5662,-0.0724 0.14595,-0.20687 0.14928,-0.44043 -0.1081,-0.6202 -0.2749,-0.1766 -0.47534,-0.0429 -0.58392,0.11224 z"
       id="path1009-6-0-4-8"
       inkscape:connector-curvature="0"
       sodipodi:nodetypes="ccccc" />
    <path
       style="fill:#ffffff;fill-opacity:1;stroke:#000000;stroke-width:0.79374999;stroke-linecap:butt;stroke-linejoin:miter;stroke-miterlimit:4;stroke-dasharray:none;stroke-opacity:1"
       d="m 130.19341,151.24967 c -0.12791,0.18242 -0.0955,0.41723 0.12583,0.58037 0.21941,0.15215 0.44839,0.10048 0.56619,-0.0724 0.14595,-0.20687 0.14928,-0.44042 -0.10809,-0.6202 -0.27492,-0.1766 -0.47535,-0.0429 -0.58393,0.11225 z"
       id="path1009-6-0-6-6"
       inkscape:connector-curvature="0"
       sodipodi:nodetypes="ccccc" />
    <path
       style="fill:#ffffff;fill-opacity:1;stroke:#000000;stroke-width:0.79374999;stroke-linecap:butt;stroke-linejoin:miter;stroke-miterlimit:4;stroke-dasharray:none;stroke-opacity:1"
       d="m 27.067095,123.77312 2.394079,-3e-5"
       id="path834-9-9-2"
       inkscape:connector-curvature="0"
       sodipodi:nodetypes="cc" />
    <path
       style="fill:#ffffff;fill-opacity:1;stroke:#000000;stroke-width:0.79374999;stroke-linecap:butt;stroke-linejoin:miter;stroke-miterlimit:4;stroke-dasharray:none;stroke-opacity:1"
       d="m 27.067095,125.24395 2.394079,-3e-5"
       id="path834-3-8-3"
       inkscape:connector-curvature="0"
       sodipodi:nodetypes="cc" />
    <path
       style="fill:#ffffff;fill-opacity:1;stroke:#000000;stroke-width:0.79374999;stroke-linecap:butt;stroke-linejoin:miter;stroke-miterlimit:4;stroke-dasharray:none;stroke-opacity:1"
       d="m 27.067095,126.71477 2.394079,-3e-5"
       id="path834-40-1-0"
       inkscape:connector-curvature="0"
       sodipodi:nodetypes="cc" />
    <path
       style="fill:#ffffff;fill-opacity:1;stroke:#000000;stroke-width:0.79374999;stroke-linecap:butt;stroke-linejoin:miter;stroke-miterlimit:4;stroke-dasharray:none;stroke-opacity:1"
       d="m 27.067095,128.1856 2.394079,-3e-5"
       id="path834-0-30-8"
       inkscape:connector-curvature="0"
       sodipodi:nodetypes="cc" />
    <path
       style="fill:#ffffff;fill-opacity:1;stroke:#000000;stroke-width:0.79374999;stroke-linecap:butt;stroke-linejoin:miter;stroke-miterlimit:4;stroke-dasharray:none;stroke-opacity:1"
       d="m 30.611388,123.78357 2.394079,-3e-5"
       id="path834-9-9-2-7"
       inkscape:connector-curvature="0"
       sodipodi:nodetypes="cc" />
    <path
       style="fill:#ffffff;fill-opacity:1;stroke:#000000;stroke-width:0.79374999;stroke-linecap:butt;stroke-linejoin:miter;stroke-miterlimit:4;stroke-dasharray:none;stroke-opacity:1"
       d="m 30.611388,125.26484 2.394079,-3e-5"
       id="path834-3-8-3-8"
       inkscape:connector-curvature="0"
       sodipodi:nodetypes="cc" />
    <path
       style="fill:#ffffff;fill-opacity:1;stroke:#000000;stroke-width:0.79374999;stroke-linecap:butt;stroke-linejoin:miter;stroke-miterlimit:4;stroke-dasharray:none;stroke-opacity:1"
       d="m 30.611388,126.74612 2.394079,-3e-5"
       id="path834-40-1-0-9"
       inkscape:connector-curvature="0"
       sodipodi:nodetypes="cc" />
    <path
       style="fill:#ffffff;fill-opacity:1;stroke:#000000;stroke-width:0.79374999;stroke-linecap:butt;stroke-linejoin:miter;stroke-miterlimit:4;stroke-dasharray:none;stroke-opacity:1"
       d="m 30.611388,128.2274 2.394079,-3e-5"
       id="path834-0-30-8-3"
       inkscape:connector-curvature="0"
       sodipodi:nodetypes="cc" />
    <path
       style="fill:#ffffff;fill-opacity:1;stroke:#000000;stroke-width:0.79374999;stroke-linecap:butt;stroke-linejoin:miter;stroke-miterlimit:4;stroke-dasharray:none;stroke-opacity:1"
       d="m 23.489732,122.30229 2.39408,-3e-5"
       id="path834-91"
       inkscape:connector-curvature="0"
       sodipodi:nodetypes="cc" />
    <path
       style="fill:#ffffff;fill-opacity:1;stroke:#000000;stroke-width:0.79374999;stroke-linecap:butt;stroke-linejoin:miter;stroke-miterlimit:4;stroke-dasharray:none;stroke-opacity:1"
       d="m 27.067095,122.30229 2.394079,-3e-5"
       id="path834-91-5"
       inkscape:connector-curvature="0"
       sodipodi:nodetypes="cc" />
    <path
       style="fill:#ffffff;fill-opacity:1;stroke:#000000;stroke-width:0.79374999;stroke-linecap:butt;stroke-linejoin:miter;stroke-miterlimit:4;stroke-dasharray:none;stroke-opacity:1"
       d="m 30.611388,122.30229 2.394078,-3e-5"
       id="path834-91-5-0"
       inkscape:connector-curvature="0"
       sodipodi:nodetypes="cc" />
    <path
       style="fill:#ffffff;fill-opacity:1;stroke:#000000;stroke-width:0.79374999;stroke-linecap:butt;stroke-linejoin:miter;stroke-miterlimit:4;stroke-dasharray:none;stroke-opacity:1"
       d="m 23.54483,143.49454 2.39408,-3e-5"
       id="path834-9-9-4"
       inkscape:connector-curvature="0"
       sodipodi:nodetypes="cc" />
    <path
       style="fill:#ffffff;fill-opacity:1;stroke:#000000;stroke-width:0.79374999;stroke-linecap:butt;stroke-linejoin:miter;stroke-miterlimit:4;stroke-dasharray:none;stroke-opacity:1"
       d="m 23.54483,144.96537 2.39408,-3e-5"
       id="path834-3-8-4"
       inkscape:connector-curvature="0"
       sodipodi:nodetypes="cc" />
    <path
       style="fill:#ffffff;fill-opacity:1;stroke:#000000;stroke-width:0.79374999;stroke-linecap:butt;stroke-linejoin:miter;stroke-miterlimit:4;stroke-dasharray:none;stroke-opacity:1"
       d="m 23.54483,146.43621 2.39408,-3e-5"
       id="path834-40-1-00"
       inkscape:connector-curvature="0"
       sodipodi:nodetypes="cc" />
    <path
       style="fill:#ffffff;fill-opacity:1;stroke:#000000;stroke-width:0.79374999;stroke-linecap:butt;stroke-linejoin:miter;stroke-miterlimit:4;stroke-dasharray:none;stroke-opacity:1"
       d="m 23.54483,147.90703 2.39408,-3e-5"
       id="path834-0-30-9"
       inkscape:connector-curvature="0"
       sodipodi:nodetypes="cc" />
    <path
       style="fill:#ffffff;fill-opacity:1;stroke:#000000;stroke-width:0.79374999;stroke-linecap:butt;stroke-linejoin:miter;stroke-miterlimit:4;stroke-dasharray:none;stroke-opacity:1"
       d="m 27.122193,143.48022 2.39408,-3e-5"
       id="path834-9-9-2-9"
       inkscape:connector-curvature="0"
       sodipodi:nodetypes="cc" />
    <path
       style="fill:#ffffff;fill-opacity:1;stroke:#000000;stroke-width:0.79374999;stroke-linecap:butt;stroke-linejoin:miter;stroke-miterlimit:4;stroke-dasharray:none;stroke-opacity:1"
       d="m 27.122193,144.95105 2.39408,-3e-5"
       id="path834-3-8-3-82"
       inkscape:connector-curvature="0"
       sodipodi:nodetypes="cc" />
    <path
       style="fill:#ffffff;fill-opacity:1;stroke:#000000;stroke-width:0.79374999;stroke-linecap:butt;stroke-linejoin:miter;stroke-miterlimit:4;stroke-dasharray:none;stroke-opacity:1"
       d="m 27.122193,146.42187 2.39408,-3e-5"
       id="path834-40-1-0-2"
       inkscape:connector-curvature="0"
       sodipodi:nodetypes="cc" />
    <path
       style="fill:#ffffff;fill-opacity:1;stroke:#000000;stroke-width:0.79374999;stroke-linecap:butt;stroke-linejoin:miter;stroke-miterlimit:4;stroke-dasharray:none;stroke-opacity:1"
       d="m 27.122193,147.8927 2.39408,-3e-5"
       id="path834-0-30-8-8"
       inkscape:connector-curvature="0"
       sodipodi:nodetypes="cc" />
    <path
       style="fill:#ffffff;fill-opacity:1;stroke:#000000;stroke-width:0.79374999;stroke-linecap:butt;stroke-linejoin:miter;stroke-miterlimit:4;stroke-dasharray:none;stroke-opacity:1"
       d="m 30.666486,143.49067 2.39408,-3e-5"
       id="path834-9-9-2-7-6"
       inkscape:connector-curvature="0"
       sodipodi:nodetypes="cc" />
    <path
       style="fill:#ffffff;fill-opacity:1;stroke:#000000;stroke-width:0.79374999;stroke-linecap:butt;stroke-linejoin:miter;stroke-miterlimit:4;stroke-dasharray:none;stroke-opacity:1"
       d="m 30.666486,144.97194 2.39408,-3e-5"
       id="path834-3-8-3-8-5"
       inkscape:connector-curvature="0"
       sodipodi:nodetypes="cc" />
    <path
       style="fill:#ffffff;fill-opacity:1;stroke:#000000;stroke-width:0.79374999;stroke-linecap:butt;stroke-linejoin:miter;stroke-miterlimit:4;stroke-dasharray:none;stroke-opacity:1"
       d="m 30.666486,146.45322 2.39408,-3e-5"
       id="path834-40-1-0-9-3"
       inkscape:connector-curvature="0"
       sodipodi:nodetypes="cc" />
    <path
       style="fill:#ffffff;fill-opacity:1;stroke:#000000;stroke-width:0.79374999;stroke-linecap:butt;stroke-linejoin:miter;stroke-miterlimit:4;stroke-dasharray:none;stroke-opacity:1"
       d="m 30.666486,147.9345 2.39408,-3e-5"
       id="path834-0-30-8-3-1"
       inkscape:connector-curvature="0"
       sodipodi:nodetypes="cc" />
    <path
       style="fill:#ffffff;fill-opacity:1;stroke:#000000;stroke-width:0.79374999;stroke-linecap:butt;stroke-linejoin:miter;stroke-miterlimit:4;stroke-dasharray:none;stroke-opacity:1"
       d="m 23.54483,142.00939 2.39408,-3e-5"
       id="path834-91-9"
       inkscape:connector-curvature="0"
       sodipodi:nodetypes="cc" />
    <path
       style="fill:#ffffff;fill-opacity:1;stroke:#000000;stroke-width:0.79374999;stroke-linecap:butt;stroke-linejoin:miter;stroke-miterlimit:4;stroke-dasharray:none;stroke-opacity:1"
       d="m 27.122193,142.00939 2.39408,-3e-5"
       id="path834-91-5-7"
       inkscape:connector-curvature="0"
       sodipodi:nodetypes="cc" />
    <path
       style="fill:#ffffff;fill-opacity:1;stroke:#000000;stroke-width:0.79374999;stroke-linecap:butt;stroke-linejoin:miter;stroke-miterlimit:4;stroke-dasharray:none;stroke-opacity:1"
       d="m 30.666486,142.00939 2.394078,-3e-5"
       id="path834-91-5-0-7"
       inkscape:connector-curvature="0"
       sodipodi:nodetypes="cc" />
  </g>
</svg>
