<?xml version="1.0" encoding="UTF-8" standalone="no"?>
<!-- Created with Inkscape (http://www.inkscape.org/) -->

<svg
   xmlns:dc="http://purl.org/dc/elements/1.1/"
   xmlns:cc="http://creativecommons.org/ns#"
   xmlns:rdf="http://www.w3.org/1999/02/22-rdf-syntax-ns#"
   xmlns:svg="http://www.w3.org/2000/svg"
   xmlns="http://www.w3.org/2000/svg"
   xmlns:xlink="http://www.w3.org/1999/xlink"
   xmlns:sodipodi="http://sodipodi.sourceforge.net/DTD/sodipodi-0.dtd"
   xmlns:inkscape="http://www.inkscape.org/namespaces/inkscape"
   width="686.07141"
   height="409.98932"
   viewBox="0 0 181.52305 108.47635"
   version="1.1"
   id="svg8"
   sodipodi:docname="volcano-ruapehu.svg"
   inkscape:version="0.92.2 (5c3e80d, 2017-08-06)">
  <defs
     id="defs2">
    <linearGradient
       inkscape:collect="always"
       id="linearGradient5081">
      <stop
         style="stop-color:#e87648;stop-opacity:1;"
         offset="0"
         id="stop5077" />
      <stop
         style="stop-color:#e87648;stop-opacity:0;"
         offset="1"
         id="stop5079" />
    </linearGradient>
    <linearGradient
       inkscape:collect="always"
       id="linearGradient5073">
      <stop
         style="stop-color:#e87648;stop-opacity:1;"
         offset="0"
         id="stop5069" />
      <stop
         style="stop-color:#e87648;stop-opacity:0;"
         offset="1"
         id="stop5071" />
    </linearGradient>
    <linearGradient
       inkscape:collect="always"
       id="linearGradient5065">
      <stop
         style="stop-color:#f2f2f2;stop-opacity:1;"
         offset="0"
         id="stop5061" />
      <stop
         style="stop-color:#f2f2f2;stop-opacity:0;"
         offset="1"
         id="stop5063" />
    </linearGradient>
    <linearGradient
       inkscape:collect="always"
       id="linearGradient5049">
      <stop
         style="stop-color:#ffffff;stop-opacity:1;"
         offset="0"
         id="stop5045" />
      <stop
         style="stop-color:#ffffff;stop-opacity:0;"
         offset="1"
         id="stop5047" />
    </linearGradient>
    <linearGradient
       inkscape:collect="always"
       id="linearGradient5039">
      <stop
         style="stop-color:#cccccc;stop-opacity:1;"
         offset="0"
         id="stop5035" />
      <stop
         style="stop-color:#cccccc;stop-opacity:0;"
         offset="1"
         id="stop5037" />
    </linearGradient>
    <linearGradient
       inkscape:collect="always"
       xlink:href="#linearGradient5039"
       id="linearGradient5041"
       x1="137.94995"
       y1="197.65562"
       x2="102.87601"
       y2="198.0564"
       gradientUnits="userSpaceOnUse" />
    <linearGradient
       inkscape:collect="always"
       xlink:href="#linearGradient5049"
       id="linearGradient5051"
       x1="3.2649262"
       y1="189.00154"
       x2="184.6563"
       y2="189.00154"
       gradientUnits="userSpaceOnUse" />
    <linearGradient
       inkscape:collect="always"
       xlink:href="#linearGradient5065"
       id="linearGradient5067"
       x1="81.120483"
       y1="200.98865"
       x2="50.68124"
       y2="202.05772"
       gradientUnits="userSpaceOnUse" />
    <radialGradient
       inkscape:collect="always"
       xlink:href="#linearGradient5073"
       id="radialGradient5075"
       cx="101.02761"
       cy="146.10866"
       fx="101.02761"
       fy="146.10866"
       r="23.055882"
       gradientTransform="matrix(1,0,0,0.25591092,0,108.71785)"
       gradientUnits="userSpaceOnUse" />
    <radialGradient
       inkscape:collect="always"
       xlink:href="#linearGradient5081"
       id="radialGradient5083"
       cx="83.372734"
       cy="163.63773"
       fx="83.372734"
       fy="163.63773"
       r="7.6506557"
       gradientTransform="matrix(0.26214642,0.57485565,-1.0669553,0.48655434,239.69388,46.749829)"
       gradientUnits="userSpaceOnUse" />
  </defs>
  <sodipodi:namedview
     id="base"
     pagecolor="#ffffff"
     bordercolor="#666666"
     borderopacity="1.0"
     inkscape:pageopacity="0.0"
     inkscape:pageshadow="2"
     inkscape:zoom="0.98994949"
     inkscape:cx="259.98319"
     inkscape:cy="335.91227"
     inkscape:document-units="mm"
     inkscape:current-layer="layer1"
     showgrid="false"
     inkscape:window-width="1680"
     inkscape:window-height="987"
     inkscape:window-x="3832"
     inkscape:window-y="14"
     inkscape:window-maximized="1"
     units="px" />
  <metadata
     id="metadata5">
    <rdf:RDF>
      <cc:Work
         rdf:about="">
        <dc:format>image/svg+xml</dc:format>
        <dc:type
           rdf:resource="http://purl.org/dc/dcmitype/StillImage" />
        <dc:title></dc:title>
      </cc:Work>
    </rdf:RDF>
  </metadata>
  <g
     inkscape:label="Calque 1"
     inkscape:groupmode="layer"
     id="layer1"
     transform="translate(-3.2649262,-140.2084)">
    <path
       style="fill:url(#linearGradient5051);fill-opacity:1;stroke:#000000;stroke-width:1.05833328;stroke-linecap:butt;stroke-linejoin:miter;stroke-miterlimit:4;stroke-dasharray:none;stroke-opacity:1"
       d="m 3.5907724,224.80654 22.4895846,-17.57589 9.071428,-19.84375 15.686012,-5.48065 6.236608,-14.3631 13.040177,-9.4494 8.504465,-12.28423 c 0.776806,1.74887 1.966784,3.18178 4.866442,3.30729 5.070228,-1.47592 5.210075,0.6812 8.59896,1.55916 4.774728,-1.70275 8.349531,-0.0297 10.347101,0.80319 2.68531,0.15998 4.98925,0.0853 6.04762,-0.75595 1.46239,-2.94193 5.95599,-1.0188 7.78764,-2.85578 3.75539,0.73815 5.10973,-1.89664 7.28752,-3.43224 l 4.39061,9.50082 11.71726,8.31547 3.96875,14.93006 12.28422,12.47322 2.83483,17.3869 10.01637,10.20536 -1.5119,9.4494 17.19791,7.18155"
       id="path827"
       inkscape:connector-curvature="0"
       sodipodi:nodetypes="ccccccccccccccccccccc" />
    <path
       style="fill:url(#linearGradient5067);fill-opacity:1;stroke:#000000;stroke-width:0.26458332px;stroke-linecap:butt;stroke-linejoin:miter;stroke-opacity:1"
       d="m 3.5907724,224.80654 22.4895846,-17.57589 9.071427,-19.84375 15.686013,-5.48065 6.236608,-14.3631 13.040177,-9.4494 8.504465,-12.28423 1.705774,2.33355 3.160668,0.97374 3.170433,-0.59576 5.428525,2.15492 4.068127,-0.832 6.278976,1.63519 0.56696,16.44197 5.29167,3.02381 -4.91369,11.1503 6.04762,11.15029 -2.83483,9.26042 -0.37797,10.58333 -6.04762,5.29167 12.09524,8.31548 -4.15774,10.58333 -17.008931,10.96131 -53.058133,-6.04399 z"
       id="path5043"
       inkscape:connector-curvature="0"
       sodipodi:nodetypes="ccccccccccccccccccccccccc" />
    <path
       style="fill:none;stroke:#000000;stroke-width:1.05833328;stroke-linecap:butt;stroke-linejoin:miter;stroke-miterlimit:4;stroke-dasharray:none;stroke-opacity:1"
       d="m 102.43155,151.47916 0.37797,8.69346 0.18899,7.74851 5.29167,3.02381 -4.91369,11.1503 6.04762,11.15029 -2.83483,9.26042 -0.37797,10.58333 -6.04762,5.29167 12.09524,8.31548 -4.15774,10.58333 -9.449406,6.04762 -7.559524,4.91369"
       id="path829"
       inkscape:connector-curvature="0" />
    <path
       style="fill:url(#radialGradient5075);fill-opacity:1;stroke:#000000;stroke-width:1.05833328;stroke-linecap:butt;stroke-linejoin:miter;stroke-miterlimit:4;stroke-dasharray:none;stroke-opacity:1"
       d="m 78.571798,145.66778 c 0.417587,-1.01714 0.466275,-2.54937 1.683677,-2.61787 1.217402,-0.0685 1.723209,-0.62343 2.759387,-0.77858 2.470575,0.55534 4.52661,0.62847 6.534936,0.408 l 3.365199,-1.9156 3.871063,0.71148 c 4.12735,-0.1203 4.01466,1.88209 6.74958,0.96971 l 4.0994,-1.29274 5.35233,0.50213 5.6791,0.0691 4.88786,2.71175 v 3e-5 l -2.49036,2.0856 -2.32732,1.33863 -2.46984,0.008 -2.06587,0.84261 -3.77977,0.28348 -1.942,1.72969 -2.6882,0.72716 -3.35942,0.0288 -6.278976,-1.63519 -4.068127,0.832 -5.428525,-2.15492 -3.170433,0.59576 -3.160668,-0.97374 z"
       id="path833"
       inkscape:connector-curvature="0"
       sodipodi:nodetypes="czccccccccc" />
    <path
       style="fill:url(#linearGradient5041);fill-opacity:1;stroke:#000000;stroke-width:0.26458332px;stroke-linecap:butt;stroke-linejoin:miter;stroke-opacity:1"
       d="m 91.092259,248.24107 17.008931,-10.96131 4.15774,-10.58333 -12.09524,-8.31548 6.04762,-5.29167 0.37797,-10.58333 2.83483,-9.26042 -6.04762,-11.15029 4.91369,-11.1503 -5.29167,-3.02381 -0.56696,-16.44197 3.35942,-0.0288 2.6882,-0.72716 1.942,-1.72969 3.77977,-0.28348 2.06587,-0.84261 2.46984,-0.008 2.32732,-1.33863 2.49036,-2.08581 4.39061,9.50085 11.71726,8.31547 3.96875,14.93006 12.28422,12.47322 2.83483,17.3869 10.01637,10.20536 -1.5119,9.4494 17.19791,7.18155 -32.71923,14.40587 z"
       id="path5025"
       inkscape:connector-curvature="0"
       sodipodi:nodetypes="ccccccccccccccccccccccccccccc" />
    <path
       style="fill:none;stroke:#000000;stroke-width:0.5291667;stroke-linecap:butt;stroke-linejoin:miter;stroke-miterlimit:4;stroke-dasharray:none;stroke-opacity:1"
       d="m 108.51143,157.75257 3.74177,-0.66817 3.0736,-2.40543 2.80633,1.60362 3.74177,-3.34087 1.87089,0.80181"
       id="path907"
       inkscape:connector-curvature="0" />
    <path
       style="fill:none;stroke:#000000;stroke-width:0.5291667;stroke-linecap:butt;stroke-linejoin:miter;stroke-miterlimit:4;stroke-dasharray:none;stroke-opacity:1"
       d="m 111.97545,174.6302 5.00818,-0.28347 2.45684,-2.45685 2.74033,1.13393"
       id="path967"
       inkscape:connector-curvature="0"
       sodipodi:nodetypes="cccc" />
    <path
       style="fill:none;stroke:#000000;stroke-width:0.5291667;stroke-linecap:butt;stroke-linejoin:miter;stroke-miterlimit:4;stroke-dasharray:none;stroke-opacity:1"
       d="m 124.44866,167.35416 4.06324,-0.18898 2.45685,-2.64583"
       id="path969"
       inkscape:connector-curvature="0"
       sodipodi:nodetypes="ccc" />
    <path
       style="fill:none;stroke:#000000;stroke-width:0.5291667;stroke-linecap:butt;stroke-linejoin:miter;stroke-miterlimit:4;stroke-dasharray:none;stroke-opacity:1"
       d="m 124.01811,192.18038 5.72221,0.0257 2.78619,-3.45714 5.97327,0.73302 0.63181,-4.42501 6.32161,0.27678"
       id="path973"
       inkscape:connector-curvature="0"
       sodipodi:nodetypes="cccccc" />
    <path
       style="fill:none;stroke:#000000;stroke-width:0.5291667;stroke-linecap:butt;stroke-linejoin:miter;stroke-miterlimit:4;stroke-dasharray:none;stroke-opacity:1"
       d="m 113.58184,205.15178 5.38617,1.22842 3.59077,-3.49627 4.34672,0.94493"
       id="path975"
       inkscape:connector-curvature="0"
       sodipodi:nodetypes="cccc" />
    <path
       style="fill:none;stroke:#000000;stroke-width:0.5291667;stroke-linecap:butt;stroke-linejoin:miter;stroke-miterlimit:4;stroke-dasharray:none;stroke-opacity:1"
       d="m 138.62277,210.53794 4.63021,0.85045 3.77975,-4.8192 4.15774,1.32292"
       id="path977"
       inkscape:connector-curvature="0"
       sodipodi:nodetypes="cccc" />
    <path
       style="fill:none;stroke:#000000;stroke-width:0.5291667;stroke-linecap:butt;stroke-linejoin:miter;stroke-miterlimit:4;stroke-dasharray:none;stroke-opacity:1"
       d="m 119.0625,223.76711 6.10955,0.55419 3.52692,-2.80684 4.37752,0.14318 2.78843,-2.69221"
       id="path979"
       inkscape:connector-curvature="0"
       sodipodi:nodetypes="ccccc" />
    <path
       style="fill:url(#radialGradient5083);fill-opacity:1;stroke:#000000;stroke-width:0.5291667;stroke-linecap:butt;stroke-linejoin:miter;stroke-miterlimit:4;stroke-dasharray:none;stroke-opacity:1"
       d="m 71.059523,178.31547 -1.13393,-6.61458 3.96875,-2.64583 5.10268,-1.88988 5.669643,3.40178 -0.18899,4.91369 -4.913688,4.34673"
       id="path983"
       inkscape:connector-curvature="0" />
    <path
       style="fill:none;stroke:#000000;stroke-width:0.5291667;stroke-linecap:butt;stroke-linejoin:miter;stroke-miterlimit:4;stroke-dasharray:none;stroke-opacity:1"
       d="m 71.059523,178.31547 8.504465,1.51191 -1.889881,3.59077 -4.913691,-0.56696 -6.992559,-1.32292 z"
       id="path985"
       inkscape:connector-curvature="0" />
    <path
       style="fill:none;stroke:#000000;stroke-width:0.5291667;stroke-linecap:butt;stroke-linejoin:miter;stroke-miterlimit:4;stroke-dasharray:none;stroke-opacity:1"
       d="m 65.767857,181.52827 -4.157739,3.77976 15.686013,3.02381 0.377976,-4.91369"
       id="path987"
       inkscape:connector-curvature="0" />
    <path
       style="fill:none;stroke:#000000;stroke-width:0.5291667;stroke-linecap:butt;stroke-linejoin:miter;stroke-miterlimit:4;stroke-dasharray:none;stroke-opacity:1"
       d="m 73.516368,211.57738 -5.386161,-0.0945 -2.929316,2.92931 -3.307292,0.47247 0.566966,5.76414 -1.752899,2.89849 4.209744,1.73171"
       id="path991"
       inkscape:connector-curvature="0"
       sodipodi:nodetypes="ccccccc" />
    <path
       style="fill:none;stroke:#000000;stroke-width:0.5291667;stroke-linecap:butt;stroke-linejoin:miter;stroke-miterlimit:4;stroke-dasharray:none;stroke-opacity:1"
       d="m 43.561757,199.57663 -4.063245,-0.85044 -0.283483,4.53571"
       id="path993"
       inkscape:connector-curvature="0"
       sodipodi:nodetypes="ccc" />
    <path
       style="fill:none;stroke:#000000;stroke-width:0.5291667;stroke-linecap:butt;stroke-linejoin:miter;stroke-miterlimit:4;stroke-dasharray:none;stroke-opacity:1"
       d="m 92.698659,192.96205 -6.520089,0.28348 -0.94494,3.40179 1.606397,2.83482"
       id="path995"
       inkscape:connector-curvature="0"
       sodipodi:nodetypes="cccc" />
  </g>
</svg>
