<?xml version="1.0" encoding="UTF-8" standalone="no"?>
<!-- Created with Inkscape (http://www.inkscape.org/) -->

<svg
   xmlns:dc="http://purl.org/dc/elements/1.1/"
   xmlns:cc="http://creativecommons.org/ns#"
   xmlns:rdf="http://www.w3.org/1999/02/22-rdf-syntax-ns#"
   xmlns:svg="http://www.w3.org/2000/svg"
   xmlns="http://www.w3.org/2000/svg"
   xmlns:sodipodi="http://sodipodi.sourceforge.net/DTD/sodipodi-0.dtd"
   xmlns:inkscape="http://www.inkscape.org/namespaces/inkscape"
   width="488.25891"
   height="288.84119"
   viewBox="0 0 129.18517 76.422565"
   version="1.1"
   id="svg1567"
   inkscape:version="0.92.2 (5c3e80d, 2017-08-06)"
   sodipodi:docname="w-beach.svg">
  <defs
     id="defs1561" />
  <sodipodi:namedview
     id="base"
     pagecolor="#ffffff"
     bordercolor="#666666"
     borderopacity="1.0"
     inkscape:pageopacity="0.0"
     inkscape:pageshadow="2"
     inkscape:zoom="11.2"
     inkscape:cx="74.342021"
     inkscape:cy="150.31688"
     inkscape:document-units="mm"
     inkscape:current-layer="layer1"
     showgrid="false"
     inkscape:window-width="1920"
     inkscape:window-height="1017"
     inkscape:window-x="1912"
     inkscape:window-y="103"
     inkscape:window-maximized="1"
     units="px" />
  <metadata
     id="metadata1564">
    <rdf:RDF>
      <cc:Work
         rdf:about="">
        <dc:format>image/svg+xml</dc:format>
        <dc:type
           rdf:resource="http://purl.org/dc/dcmitype/StillImage" />
        <dc:title></dc:title>
      </cc:Work>
    </rdf:RDF>
  </metadata>
  <g
     inkscape:label="Calque 1"
     inkscape:groupmode="layer"
     id="layer1"
     transform="translate(-69.06278,-87.956007)">
    <path
       style="fill:#e8ba00;fill-opacity:1;stroke:#000000;stroke-width:1.05833328;stroke-linecap:butt;stroke-linejoin:miter;stroke-miterlimit:4;stroke-dasharray:none;stroke-opacity:1"
       d="m 69.419741,135.06436 5.480657,-5.00819 6.142112,-2.36235 h 8.504465 l 5.953125,3.30729 1.511903,2.64583 4.535717,1.32292"
       id="path871"
       inkscape:connector-curvature="0"
       sodipodi:nodetypes="ccccccc" />
    <path
       style="fill:none;stroke:#000000;stroke-width:1.05833328;stroke-linecap:butt;stroke-linejoin:miter;stroke-miterlimit:4;stroke-dasharray:none;stroke-opacity:1"
       d="m 78.733687,133.46323 c 2.218029,-1.71272 1.953611,-5.00471 2.973346,-7.99745 1.296921,-4.0699 1.47268,-9.35574 3.936989,-14.23395 2.637259,-5.22057 2.42443,-9.17305 2.42443,-9.17305"
       id="path2117"
       inkscape:connector-curvature="0"
       sodipodi:nodetypes="ccsc" />
    <path
       style="fill:none;stroke:#000000;stroke-width:1.05833328;stroke-linecap:butt;stroke-linejoin:miter;stroke-miterlimit:4;stroke-dasharray:none;stroke-opacity:1"
       d="m 92.887184,133.55918 c -3.788676,-3.40691 -2.909541,-4.89265 -3.930065,-8.06083 -0.374089,-4.50229 -0.998382,-7.05591 0.962737,-11.52785 2.657156,-6.05913 4.160887,-10.53675 4.160887,-10.53675"
       id="path2117-1"
       inkscape:connector-curvature="0"
       sodipodi:nodetypes="ccsc" />
    <path
       style="fill:#e8ba00;fill-opacity:1;stroke:#000000;stroke-width:1.05833328;stroke-linecap:butt;stroke-linejoin:miter;stroke-miterlimit:4;stroke-dasharray:none;stroke-opacity:1"
       d="m 117.55059,100.0744 c 0,0 19.48435,-9.404327 30.99406,-8.315474 9.68023,0.915778 17.20264,6.434899 26.72559,8.399324 8.96965,1.85028 22.93798,2.90198 22.93798,2.90198"
       id="path2222"
       inkscape:connector-curvature="0"
       sodipodi:nodetypes="cssc" />
    <path
       style="fill:#e8ba00;fill-opacity:1;stroke:#000000;stroke-width:1.05833328;stroke-linecap:butt;stroke-linejoin:miter;stroke-miterlimit:4;stroke-dasharray:none;stroke-opacity:1"
       d="m 103.1875,163.95238 c 0,0 10.44771,-13.55977 18.14285,-15.875 4.50461,-1.3553 9.34467,2.66097 13.98512,1.88988 8.05957,-1.33924 13.81013,-11.92968 21.92262,-10.96131 7.3684,0.87955 11.21338,9.72861 17.00893,14.3631 4.56578,3.65108 13.98512,10.58333 13.98512,10.58333"
       id="path2224"
       inkscape:connector-curvature="0"
       sodipodi:nodetypes="cssssc" />
    <path
       style="fill:#ffffff;fill-opacity:1;stroke:none;stroke-width:0.26458332px;stroke-linecap:butt;stroke-linejoin:miter;stroke-opacity:1"
       d="m 79.064416,133.9357 c 0.474249,-0.64943 0.55453,-0.14466 1.623743,-2.32037 0.651252,-1.50404 0.874735,-3.7463 1.275668,-5.08497 l 6.69136,-0.23624 c 0.350306,1.49818 0.55806,3.29501 1.269765,4.61249 0.717176,1.07549 1.771066,2.25414 2.607879,3.03055"
       id="path873"
       inkscape:connector-curvature="0"
       sodipodi:nodetypes="cccccc" />
    <path
       style="fill:#6ba61e;fill-opacity:1;stroke:#000000;stroke-width:1.05833328;stroke-linecap:butt;stroke-linejoin:miter;stroke-miterlimit:4;stroke-dasharray:none;stroke-opacity:1"
       d="m 90.28697,100.43488 -9.020347,-0.668178 -4.610399,3.140418 4.34313,-5.412209 9.220798,1.670433"
       id="path875"
       inkscape:connector-curvature="0" />
    <path
       style="fill:#6ba61e;fill-opacity:1;stroke:#000000;stroke-width:1.05833328;stroke-linecap:butt;stroke-linejoin:miter;stroke-miterlimit:4;stroke-dasharray:none;stroke-opacity:1"
       d="m 93.026482,101.03623 7.550368,3.54132 1.33635,4.94449 0.20045,-6.74856 -8.686264,-2.47224"
       id="path877"
       inkscape:connector-curvature="0" />
    <path
       style="fill:#6ba61b;fill-opacity:1;stroke:#000000;stroke-width:1.05833328;stroke-linecap:butt;stroke-linejoin:miter;stroke-miterlimit:4;stroke-dasharray:none;stroke-opacity:1"
       d="m 91.356048,97.895815 -7.483546,-6.648331 -5.91334,2.739515 5.245166,-5.278573 8.719669,8.853302"
       id="path879"
       inkscape:connector-curvature="0" />
    <path
       style="fill:#6ba61e;fill-opacity:1;stroke:#000000;stroke-width:1.05833328;stroke-linecap:butt;stroke-linejoin:miter;stroke-miterlimit:4;stroke-dasharray:none;stroke-opacity:1"
       d="m 93.327162,98.898075 11.325548,0.868627 2.80633,6.046968 -1.16931,-7.717404 -12.962568,0.233863"
       id="path883"
       inkscape:connector-curvature="0" />
  </g>
</svg>
