<?xml version="1.0" encoding="UTF-8" standalone="no"?>
<!-- Created with Inkscape (http://www.inkscape.org/) -->

<svg
   xmlns:dc="http://purl.org/dc/elements/1.1/"
   xmlns:cc="http://creativecommons.org/ns#"
   xmlns:rdf="http://www.w3.org/1999/02/22-rdf-syntax-ns#"
   xmlns:svg="http://www.w3.org/2000/svg"
   xmlns="http://www.w3.org/2000/svg"
   xmlns:xlink="http://www.w3.org/1999/xlink"
   xmlns:sodipodi="http://sodipodi.sourceforge.net/DTD/sodipodi-0.dtd"
   xmlns:inkscape="http://www.inkscape.org/namespaces/inkscape"
   width="1120.7234"
   height="220.37921"
   viewBox="0 0 296.52472 58.308664"
   version="1.1"
   id="svg4721"
   inkscape:version="0.92.2 (5c3e80d, 2017-08-06)"
   sodipodi:docname="water-skiing.svg">
  <defs
     id="defs4715">
    <linearGradient
       inkscape:collect="always"
       id="linearGradient8106">
      <stop
         style="stop-color:#0095de;stop-opacity:1;"
         offset="0"
         id="stop8102" />
      <stop
         style="stop-color:#0095de;stop-opacity:0;"
         offset="1"
         id="stop8104" />
    </linearGradient>
    <linearGradient
       inkscape:collect="always"
       id="linearGradient8098">
      <stop
         style="stop-color:#ff311a;stop-opacity:1;"
         offset="0"
         id="stop8094" />
      <stop
         style="stop-color:#ff311a;stop-opacity:0;"
         offset="1"
         id="stop8096" />
    </linearGradient>
    <linearGradient
       inkscape:collect="always"
       xlink:href="#linearGradient8098"
       id="linearGradient8100"
       x1="81.732674"
       y1="134.09227"
       x2="75.883392"
       y2="190.03275"
       gradientUnits="userSpaceOnUse" />
    <linearGradient
       inkscape:collect="always"
       xlink:href="#linearGradient8106"
       id="linearGradient8110"
       x1="15.095087"
       y1="137.63881"
       x2="64.63279"
       y2="137.90608"
       gradientUnits="userSpaceOnUse" />
  </defs>
  <sodipodi:namedview
     id="base"
     pagecolor="#ffffff"
     bordercolor="#666666"
     borderopacity="1.0"
     inkscape:pageopacity="0.0"
     inkscape:pageshadow="2"
     inkscape:zoom="0.24748737"
     inkscape:cx="496.84075"
     inkscape:cy="-792.11171"
     inkscape:document-units="mm"
     inkscape:current-layer="layer1"
     showgrid="false"
     inkscape:window-width="1920"
     inkscape:window-height="1017"
     inkscape:window-x="1912"
     inkscape:window-y="103"
     inkscape:window-maximized="1"
     units="px" />
  <metadata
     id="metadata4718">
    <rdf:RDF>
      <cc:Work
         rdf:about="">
        <dc:format>image/svg+xml</dc:format>
        <dc:type
           rdf:resource="http://purl.org/dc/dcmitype/StillImage" />
        <dc:title />
      </cc:Work>
    </rdf:RDF>
  </metadata>
  <g
     inkscape:label="Calque 1"
     inkscape:groupmode="layer"
     id="layer1"
     transform="translate(-7.4095757,-123.81016)">
    <path
       style="fill:url(#linearGradient8100);fill-opacity:1;stroke:#000000;stroke-width:1.05833328;stroke-linecap:butt;stroke-linejoin:miter;stroke-miterlimit:4;stroke-dasharray:none;stroke-opacity:1"
       d="m 23.699298,143.92505 13.787614,27.13648 79.670368,4.72365 15.47829,-16.68268 z"
       id="path4577"
       inkscape:connector-curvature="0" />
    <path
       style="fill:url(#linearGradient8110);fill-opacity:1;stroke:#000000;stroke-width:1.05833328;stroke-linecap:butt;stroke-linejoin:miter;stroke-miterlimit:4;stroke-dasharray:none;stroke-opacity:1"
       d="m 35.822221,145.44196 17.498048,-15.21815 10.557148,-2.93996 -5.832684,21.41259 z"
       id="path5281"
       inkscape:connector-curvature="0"
       sodipodi:nodetypes="ccccc" />
    <path
       style="fill:#000000;fill-opacity:1;stroke:#000000;stroke-width:1.05833328;stroke-linecap:butt;stroke-linejoin:miter;stroke-miterlimit:4;stroke-dasharray:none;stroke-opacity:1"
       d="m 122.67,157.05967 6.81537,-12.99598 24.9897,1.46998 v 20.17885 H 144.987 l -3.47339,12.96287 h -3.74288 l 3.60709,-13.18981 -8.08386,0.0668 4.46487,-13.83188 -2.96357,-3.61418 -4.10718,-0.33409 -2.65063,10.07309 z"
       id="path5285"
       inkscape:connector-curvature="0"
       sodipodi:nodetypes="cccccccccccccc" />
    <path
       style="fill:#0095de;fill-opacity:1;stroke:#000000;stroke-width:1.05833328;stroke-linecap:butt;stroke-linejoin:miter;stroke-miterlimit:4;stroke-dasharray:none;stroke-opacity:1"
       d="m 130.10952,179.55386 c 0,0 2.28327,-6.65571 3.90881,-6.41447 1.44351,0.21423 -0.25344,4.11365 1.20272,4.2095 2.39879,0.15789 0.47656,-6.42644 2.87314,-6.61493 1.15802,-0.0911 0.72128,2.77355 1.87089,2.93997 0.90617,0.13118 1.22967,-2.16453 2.07134,-1.80407 1.37323,0.58811 -0.47557,3.14547 0.20156,4.47706 0.3877,0.76242 1.14939,1.65054 2.00341,1.60332 1.03785,-0.0574 1.72401,-1.2835 2.20497,-2.20497 0.29313,-0.5616 -0.29325,-1.78278 0.33409,-1.87089 1.25274,-0.17594 1.67044,3.40769 1.67044,3.40769 l 1.30294,2.37201"
       id="path5287"
       inkscape:connector-curvature="0"
       sodipodi:nodetypes="cssssssssscc" />
    <path
       style="fill:#0095de;fill-opacity:1;stroke:#000000;stroke-width:1.05833328;stroke-linecap:butt;stroke-linejoin:miter;stroke-miterlimit:4;stroke-dasharray:none;stroke-opacity:1"
       d="m 132.01741,179.80181 c 0,0 1.90174,-6.37279 3.52019,-6.52976 1.06501,-0.10329 1.10349,2.37963 2.17336,2.36235 0.60293,-0.01 0.59525,-1.51263 1.18118,-1.37016 1.05414,0.25632 -0.32774,3.1153 0.75595,3.16555 0.93033,0.0431 0.40594,-1.85492 0.89769,-2.64584 0.22344,-0.35938 0.49743,-1.03503 0.8977,-0.89769 1.3211,0.45328 -0.83785,3.82943 0.51971,4.15774 1.16761,0.28237 1.4518,-1.92449 2.03162,-2.97656 0.55497,-1.00699 0.23237,-3.33116 1.37017,-3.16556 1.17725,0.17134 -0.1895,2.52501 0.42522,3.54353 0.55686,0.92266 2.28667,0.82596 2.66069,1.83666 0.22116,0.59765 -0.7546,2.55019 -0.7546,2.55019"
       id="path5289"
       inkscape:connector-curvature="0"
       sodipodi:nodetypes="csssssssssssc" />
    <path
       style="fill:#0095de;fill-opacity:1;stroke:#000000;stroke-width:0.26458332;stroke-linecap:butt;stroke-linejoin:miter;stroke-miterlimit:4;stroke-dasharray:none;stroke-opacity:1"
       d="m 144.32554,167.50791 c -0.53202,0.13983 -0.70386,0.96346 -0.66146,1.51191 0.0317,0.40946 0.71906,0.2488 1.07907,0.44643 0.80073,0.43955 0.65377,1.34117 1.21188,0.61806 0.41778,-0.54129 0.97707,-1.445 0.59112,-2.00943 -0.32526,-0.47567 -0.80771,0.0994 -1.38277,0.0626 -0.31114,-0.02 -0.49998,-0.71832 -0.83784,-0.62952 z"
       id="path5291"
       inkscape:connector-curvature="0"
       sodipodi:nodetypes="asssssa" />
    <path
       style="fill:#0095de;fill-opacity:1;stroke:#000000;stroke-width:0.26458332px;stroke-linecap:butt;stroke-linejoin:miter;stroke-opacity:1"
       d="m 148.39804,170.16701 c -0.54958,-0.0236 -0.92006,1.0264 -0.66146,1.51191 0.17186,0.32265 0.74246,0.0533 1.07907,0.19586 0.45764,0.19388 0.80176,1.14937 1.21188,0.86863 0.31894,-0.21832 -0.44015,-0.7674 -0.2887,-1.12299 0.16454,-0.38631 1.21976,-0.29326 1.09698,-0.61917 -0.15189,-0.40315 -0.75511,-0.57765 -1.18232,-0.52205 -0.38291,0.0498 -0.53408,0.83202 -0.90466,0.72353 -0.34982,-0.10242 0.0134,-1.02008 -0.35079,-1.03572 z"
       id="path5291-8"
       inkscape:connector-curvature="0"
       sodipodi:nodetypes="aaaaasaaa" />
    <path
       style="fill:#0095de;fill-opacity:1;stroke:#000000;stroke-width:1.05833328;stroke-linecap:butt;stroke-linejoin:miter;stroke-miterlimit:4;stroke-dasharray:none;stroke-opacity:1"
       d="m 7.8277483,179.64462 c 0,0 18.4520707,-23.79568 23.5514677,-22.44834 5.191318,1.37163 -1.017083,13.76337 4.306433,14.46431 7.023284,0.92475 11.389913,-14.54379 18.381636,-13.40472 6.312961,1.02849 2.098754,9.63175 8.3479,10.99536 4.518212,0.98591 6.224719,-2.93703 10.827677,-2.4909 5.243794,0.50824 4.865029,5.3674 10.127074,5.62541 5.87557,0.28809 8.312316,-3.83766 14.187536,-3.54261 5.084198,0.25533 3.493838,4.62607 8.546388,5.24744 3.81607,0.46931 7.54821,-3.21628 11.32029,-2.4719 2.45274,0.48402 9.52887,7.91636 9.52887,7.91636"
       id="path5308"
       inkscape:connector-curvature="0"
       sodipodi:nodetypes="csssssssssc" />
    <path
       style="fill:none;stroke:#000000;stroke-width:0.5291667;stroke-linecap:butt;stroke-linejoin:miter;stroke-miterlimit:4;stroke-dasharray:none;stroke-opacity:1"
       d="m 240.35486,161.60719 50.10639,18.16185"
       id="path5310"
       inkscape:connector-curvature="0"
       sodipodi:nodetypes="cc" />
    <path
       style="fill:none;stroke:#000000;stroke-width:0.5291667;stroke-linecap:butt;stroke-linejoin:miter;stroke-miterlimit:4;stroke-dasharray:none;stroke-opacity:1"
       d="m 270.30947,172.28502 9.52171,-12.66157 2.79013,-25.80331"
       id="path5312"
       inkscape:connector-curvature="0"
       sodipodi:nodetypes="ccc" />
    <path
       style="fill:none;stroke:#000000;stroke-width:0.5291667;stroke-linecap:butt;stroke-linejoin:miter;stroke-miterlimit:4;stroke-dasharray:none;stroke-opacity:1"
       d="m 263.66138,139.71188 17.58927,3.18616"
       id="path5314"
       inkscape:connector-curvature="0"
       sodipodi:nodetypes="cc" />
    <ellipse
       style="opacity:1;fill:#ffffff;fill-opacity:1;fill-rule:nonzero;stroke:#000000;stroke-width:0.52916664;stroke-miterlimit:4;stroke-dasharray:none;stroke-dashoffset:0;stroke-opacity:1"
       id="path5316"
       cx="283.32767"
       cy="128.88063"
       rx="4.7256489"
       ry="4.8058853" />
    <path
       style="fill:none;stroke:#000000;stroke-width:0.5291667;stroke-linecap:butt;stroke-linejoin:miter;stroke-miterlimit:4;stroke-dasharray:none;stroke-opacity:1"
       d="m 107.44235,155.07988 22.71791,-25.39061 133.50112,10.02261"
       id="path5318"
       inkscape:connector-curvature="0"
       sodipodi:nodetypes="ccc" />
    <path
       style="fill:#0095de;fill-opacity:1;stroke:#000000;stroke-width:1.05833328;stroke-linecap:butt;stroke-linejoin:miter;stroke-miterlimit:4;stroke-dasharray:none;stroke-opacity:1"
       d="m 205.90497,181.37512 c 0,0 22.05412,-16.54277 26.19405,-16.11445 2.34877,0.243 4.88582,5.51249 7.16649,6.12427 2.31091,0.61989 7.96938,-4.85452 10.32786,-4.45187 3.69598,0.63099 1.65986,4.65561 5.3169,5.48296 2.10213,0.47558 6.33049,-2.36297 8.41506,-1.81553 2.80542,0.73675 1.72449,2.76608 4.557,3.39066 2.262,0.49878 4.12778,-3.04208 6.41448,-2.6727 2.21321,0.35751 2.86133,4.07537 5.07812,4.40995 1.63683,0.24705 2.90567,-2.24429 4.54359,-2.00452 1.96962,0.28832 2.56988,3.61646 4.54358,3.8754 2.15331,0.2825 3.70954,-2.88384 5.87992,-2.80633 2.25282,0.0805 9.22081,6.94901 9.22081,6.94901"
       id="path5320"
       inkscape:connector-curvature="0"
       sodipodi:nodetypes="csssssssssssc" />
  </g>
</svg>
