<?xml version="1.0" encoding="UTF-8" standalone="no"?>
<!-- Created with Inkscape (http://www.inkscape.org/) -->

<svg
   xmlns:dc="http://purl.org/dc/elements/1.1/"
   xmlns:cc="http://creativecommons.org/ns#"
   xmlns:rdf="http://www.w3.org/1999/02/22-rdf-syntax-ns#"
   xmlns:svg="http://www.w3.org/2000/svg"
   xmlns="http://www.w3.org/2000/svg"
   xmlns:sodipodi="http://sodipodi.sourceforge.net/DTD/sodipodi-0.dtd"
   xmlns:inkscape="http://www.inkscape.org/namespaces/inkscape"
   width="442.45139"
   height="263.21704"
   viewBox="0 0 117.06526 69.642843"
   version="1.1"
   id="svg1567"
   inkscape:version="0.92.2 (5c3e80d, 2017-08-06)"
   sodipodi:docname="windy-beach.svg">
  <defs
     id="defs1561" />
  <sodipodi:namedview
     id="base"
     pagecolor="#ffffff"
     bordercolor="#666666"
     borderopacity="1.0"
     inkscape:pageopacity="0.0"
     inkscape:pageshadow="2"
     inkscape:zoom="0.9899495"
     inkscape:cx="619.1563"
     inkscape:cy="171.93231"
     inkscape:document-units="mm"
     inkscape:current-layer="layer1"
     showgrid="false"
     inkscape:window-width="1920"
     inkscape:window-height="1017"
     inkscape:window-x="1912"
     inkscape:window-y="103"
     inkscape:window-maximized="1"
     units="px" />
  <metadata
     id="metadata1564">
    <rdf:RDF>
      <cc:Work
         rdf:about="">
        <dc:format>image/svg+xml</dc:format>
        <dc:type
           rdf:resource="http://purl.org/dc/dcmitype/StillImage" />
        <dc:title></dc:title>
      </cc:Work>
    </rdf:RDF>
  </metadata>
  <g
     inkscape:label="Calque 1"
     inkscape:groupmode="layer"
     id="layer1"
     transform="translate(-71.480534,-94.735728)">
    <path
       style="fill:#e8ba00;fill-opacity:1;stroke:#000000;stroke-width:1.05833328;stroke-linecap:butt;stroke-linejoin:miter;stroke-miterlimit:4;stroke-dasharray:none;stroke-opacity:1"
       d="m 105.14779,103.66938 c 0,0 19.48435,-9.404319 30.99406,-8.315466 9.68023,0.915778 22.54803,2.693126 32.07098,4.657546 5.05797,1.04337 10.0057,3.02262 13.35917,4.55049 2.59347,1.18162 4.23342,2.09326 4.23342,2.09326"
       id="path2222"
       inkscape:connector-curvature="0"
       sodipodi:nodetypes="csssc" />
    <path
       style="fill:#e8ba00;fill-opacity:1;stroke:#000000;stroke-width:1.05833328;stroke-linecap:butt;stroke-linejoin:miter;stroke-miterlimit:4;stroke-dasharray:none;stroke-opacity:1"
       d="m 103.1875,163.95238 c 0,0 8.30955,-10.61981 16.00469,-12.93504 4.50461,-1.3553 14.02189,1.45826 18.66234,0.68717 8.05957,-1.33924 14.21103,-15.00328 22.32352,-14.03491 7.3684,0.87955 8.27342,11.06496 14.06897,15.69945 4.56578,3.65108 13.98512,10.58333 13.98512,10.58333"
       id="path2224"
       inkscape:connector-curvature="0"
       sodipodi:nodetypes="cssssc" />
    <path
       style="fill:#00b700;fill-opacity:1;stroke:#000000;stroke-width:0.30006787;stroke-linecap:butt;stroke-linejoin:miter;stroke-miterlimit:4;stroke-dasharray:none;stroke-opacity:1"
       d="m 103.55299,123.68441 c 0,0 4.30669,-3.21566 6.99991,-3.94711 4.08391,-1.10913 12.65696,0 12.65696,0 0,0 -8.23155,-0.27269 -12.1981,0.71332 -2.69875,0.67086 -7.45877,3.23379 -7.45877,3.23379"
       id="path862"
       inkscape:connector-curvature="0"
       sodipodi:nodetypes="cscsc" />
    <path
       style="fill:#00b700;fill-opacity:1;stroke:#000000;stroke-width:0.30006787;stroke-linecap:butt;stroke-linejoin:miter;stroke-miterlimit:4;stroke-dasharray:none;stroke-opacity:1"
       d="m 103.55299,123.68441 c 0,0 5.63656,1.6359 8.14706,1.90963 3.88744,0.42386 11.05095,0.33789 11.05095,0.33789 0,0 -7.42704,1.46972 -11.12742,0.97613 -2.87786,-0.38389 -8.07059,-3.22365 -8.07059,-3.22365 z"
       id="path860"
       inkscape:connector-curvature="0"
       sodipodi:nodetypes="cscsc" />
    <path
       style="fill:#00b700;fill-opacity:1;stroke:#000000;stroke-width:0.30006787;stroke-linecap:butt;stroke-linejoin:miter;stroke-miterlimit:4;stroke-dasharray:none;stroke-opacity:1"
       d="m 103.55299,123.68441 6.96167,-4.58534 12.6952,-0.18772 -12.27457,0.93858 -7.3823,3.83448"
       id="path856"
       inkscape:connector-curvature="0" />
    <path
       style="fill:#00b700;fill-opacity:1;stroke:#000000;stroke-width:0.30006787;stroke-linecap:butt;stroke-linejoin:miter;stroke-miterlimit:4;stroke-dasharray:none;stroke-opacity:1"
       d="m 103.55299,123.68441 c 0,0 4.85029,1.93995 7.42054,2.17243 3.95688,0.35791 11.85394,-1.23892 11.85394,-1.23892 0,0 -7.17112,4.1229 -11.05094,3.75432 -3.15498,-0.29972 -8.22354,-4.68783 -8.22354,-4.68783 z"
       id="path852"
       inkscape:connector-curvature="0"
       sodipodi:nodetypes="cscsc" />
    <path
       style="fill:#00b700;fill-opacity:1;stroke:#000000;stroke-width:0.30006787;stroke-linecap:butt;stroke-linejoin:miter;stroke-miterlimit:4;stroke-dasharray:none;stroke-opacity:1"
       d="m 103.55299,123.68441 c 0,0 1.18697,-2.93695 2.44952,-3.75939 4.77388,-3.10977 16.93968,-2.85329 16.93968,-2.85329 0,0 -10.32485,1.93617 -15.10423,3.97958 -1.54489,0.66051 -4.28497,2.6331 -4.28497,2.6331"
       id="path848"
       inkscape:connector-curvature="0"
       sodipodi:nodetypes="cscsc" />
    <path
       style="fill:#00d700;fill-opacity:1;stroke:#000000;stroke-width:0.30006787;stroke-linecap:butt;stroke-linejoin:miter;stroke-miterlimit:4;stroke-dasharray:none;stroke-opacity:1"
       d="m 103.55299,123.68441 c 0,0 3.90911,-3.82962 6.36357,-4.94761 4.05346,-1.84632 13.14083,-2.60161 13.14083,-2.60161 0,0 -10.94503,-1.15854 -15.35801,1.43354 -2.14045,1.25726 -4.14639,6.11568 -4.14639,6.11568"
       id="path829"
       inkscape:connector-curvature="0"
       sodipodi:nodetypes="cscsc" />
    <path
       style="fill:#25b235;fill-opacity:1;stroke:#000000;stroke-width:0.30006787;stroke-linecap:butt;stroke-linejoin:miter;stroke-miterlimit:4;stroke-dasharray:none;stroke-opacity:1"
       d="m 122.227,114.86511 c -3.72416,0.12161 -7.543,0.41364 -11.87208,1.62411 -6.22878,1.51758 -6.95709,4.32099 -6.8447,7.32093 0.43285,5.36559 2.98268,5.35157 5.04749,6.57006 4.45746,1.09368 8.91492,0.69739 13.37238,0.664 -3.62526,-0.75439 -7.01104,-0.97978 -11.00159,-2.54115 -2.74937,-0.66889 -4.47718,-2.28503 -5.39164,-4.65537 -0.0162,-2.45504 2.22375,-4.32714 6.07993,-5.78166 3.61628,-1.45749 7.08594,-2.19518 10.61021,-3.20092 z"
       id="path831-0"
       inkscape:connector-curvature="0"
       sodipodi:nodetypes="ccccccccc" />
    <path
       style="fill:none;stroke:#000000;stroke-width:0.30006787;stroke-linecap:butt;stroke-linejoin:miter;stroke-miterlimit:4;stroke-dasharray:none;stroke-opacity:1"
       d="m 72.965353,151.24095 c 0.157836,-1.08476 4.06465,-1.13463 5.812261,-1.95225 1.158229,-0.54187 2.90613,-2.47785 2.90613,-2.47785"
       id="path815"
       inkscape:connector-curvature="0"
       sodipodi:nodetypes="csc" />
    <path
       style="fill:none;stroke:#000000;stroke-width:0.30006787;stroke-linecap:butt;stroke-linejoin:miter;stroke-miterlimit:4;stroke-dasharray:none;stroke-opacity:1"
       d="m 87.496003,146.81085 c 0,0 0.30754,2.63625 1.911931,2.47785 1.708065,-0.16863 5.392515,1.29779 4.971006,1.87716"
       id="path817"
       inkscape:connector-curvature="0"
       sodipodi:nodetypes="csc" />
    <path
       style="fill:none;stroke:#000000;stroke-width:0.30006787;stroke-linecap:butt;stroke-linejoin:miter;stroke-miterlimit:4;stroke-dasharray:none;stroke-opacity:1"
       d="m 81.377834,148.98836 0.30591,-2.17751 c 0,0 1.072945,-5.63558 1.606019,-8.40968 0.92276,-4.802 4.562485,-4.8018 5.996627,-9.67413 1.381258,-4.69265 14.55699,-6.18691 13.92286,-6.27585"
       id="path819"
       inkscape:connector-curvature="0"
       sodipodi:nodetypes="ccssc" />
    <path
       style="fill:none;stroke:#000000;stroke-width:0.30006787;stroke-linecap:butt;stroke-linejoin:miter;stroke-miterlimit:4;stroke-dasharray:none;stroke-opacity:1"
       d="m 87.343048,149.43888 0.152955,-2.62803 c 0,0 0.01892,-5.12719 0.07648,-7.73391 0.108822,-4.9277 3.688466,-3.89898 5.129083,-8.42603 1.493686,-4.69385 11.546114,-4.50527 11.228894,-4.62986"
       id="path821"
       inkscape:connector-curvature="0"
       sodipodi:nodetypes="ccssc" />
    <path
       style="fill:#00d700;fill-opacity:1;stroke:#000000;stroke-width:0.30006787;stroke-linecap:butt;stroke-linejoin:miter;stroke-miterlimit:4;stroke-dasharray:none;stroke-opacity:1"
       d="m 103.55299,123.68441 c -0.0229,0.041 2.95032,2.68063 4.9241,3.0916 2.36926,0.49332 11.82501,1.4396 13.82321,0.34966 0.15223,0.89678 -10.44738,4.20611 -15.43413,2.5235 -2.6896,-0.90751 -3.4923,-5.82455 -3.31318,-5.96476"
       id="path827"
       inkscape:connector-curvature="0"
       sodipodi:nodetypes="cscsc" />
    <path
       style="fill:#00b700;fill-opacity:1;stroke:#000000;stroke-width:0.30006787;stroke-linecap:butt;stroke-linejoin:miter;stroke-miterlimit:4;stroke-dasharray:none;stroke-opacity:1"
       d="m 103.55299,123.68441 c 0,0 4.0948,1.34679 6.27294,1.49906 4.34645,0.30383 12.96331,-1.76694 12.96331,-1.76694 0,0 -12.82854,4.13163 -16.20593,4.10022 -3.20932,-0.0298 -3.03032,-3.83234 -3.03032,-3.83234 z"
       id="path864"
       inkscape:connector-curvature="0"
       sodipodi:nodetypes="cscsc" />
    <path
       style="fill:#00b700;fill-opacity:1;stroke:#000000;stroke-width:0.30006787;stroke-linecap:butt;stroke-linejoin:miter;stroke-miterlimit:4;stroke-dasharray:none;stroke-opacity:1"
       d="m 103.55299,123.68441 c 0,0 -0.50928,-3.06666 2.21598,-3.62478 3.97917,-0.8149 17.32617,0.69134 17.32617,0.69134 0,0 -7.91728,-0.66442 -11.77747,0.0376 -2.72237,0.49505 -7.76468,2.89589 -7.76468,2.89589 z"
       id="path866"
       inkscape:connector-curvature="0"
       sodipodi:nodetypes="cscsc" />
    <path
       style="fill:#00b700;fill-opacity:1;stroke:#000000;stroke-width:0.30006787;stroke-linecap:butt;stroke-linejoin:miter;stroke-miterlimit:4;stroke-dasharray:none;stroke-opacity:1"
       d="m 103.55299,123.68441 c 0,0 1.6114,-2.40829 2.90261,-2.55837 5.47084,-0.63587 16.55002,0.80661 16.54771,0.79641 0,0 -6.90523,3.14393 -16.87217,3.87587 -1.11654,0.082 -2.57815,-2.11391 -2.57815,-2.11391 0,0 4.6664,-1.39287 7.07639,-1.65698 3.21778,-0.35261 9.71259,0.11263 9.71259,0.11263 0,0 -6.28704,2.07352 -9.55964,2.29015 -2.41755,0.16002 -7.22934,-0.7458 -7.22934,-0.7458"
       id="path868"
       inkscape:connector-curvature="0"
       sodipodi:nodetypes="cscscscsc" />
    <path
       style="fill:#f3c32d;fill-opacity:1;stroke:none;stroke-width:0.07501697px;stroke-linecap:butt;stroke-linejoin:miter;stroke-opacity:1"
       d="m 72.965353,151.24095 c 0.54761,-0.69215 2.097009,-0.79 3.393672,-1.1263 l 2.1318,-0.53499 c 1.019697,-0.54122 1.844021,-1.13407 2.829652,-2.13058 l -0.172074,1.56743 6.443197,0.50684 0.04779,-1.45481 c 0.13918,0.43065 0.318431,0.74591 0.659616,1.06999 0.334589,0.23791 0.611818,0.343 0.889046,0.35667 1.048322,-0.10177 1.989508,0.21423 2.806768,0.42396 1.505837,0.53262 1.914456,0.74933 2.192928,1.21855"
       id="path870"
       inkscape:connector-curvature="0"
       sodipodi:nodetypes="ccccccccccc" />
    <path
       style="fill:none;stroke:#000000;stroke-width:0.15003398;stroke-linecap:butt;stroke-linejoin:miter;stroke-miterlimit:4;stroke-dasharray:none;stroke-opacity:1"
       d="m 74.063181,128.29375 c 0,0 9.33965,-1.81897 14.06015,-1.69901 4.57419,0.11624 9.083621,1.23345 13.519369,2.33613 5.74693,1.42864 7.7758,3.52757 13.62752,4.45991 4.91089,0.78244 13.19491,0 13.19491,0"
       id="path831"
       inkscape:connector-curvature="0"
       sodipodi:nodetypes="csssc" />
    <path
       style="fill:none;stroke:#000000;stroke-width:0.15003398;stroke-linecap:butt;stroke-linejoin:miter;stroke-miterlimit:4;stroke-dasharray:none;stroke-opacity:1"
       d="m 75.893201,121.8849 c 0,0 13.26193,-1.48288 20.88253,-3.25429 5.435989,-1.26359 10.372839,-4.39941 15.898779,-5.20322 5.17301,-0.75247 17.73742,0.95569 17.73742,0.95569"
       id="path833"
       inkscape:connector-curvature="0"
       sodipodi:nodetypes="cssc" />
    <path
       style="fill:none;stroke:#000000;stroke-width:0.15003398;stroke-linecap:butt;stroke-linejoin:miter;stroke-miterlimit:4;stroke-dasharray:none;stroke-opacity:1"
       d="m 74.495801,125.42666 c 0,0 16.16168,-4.76506 24.443031,-4.4599 5.068318,0.18676 9.660338,3.34743 14.709068,3.82278 4.78389,0.4504 14.38461,-0.95571 14.38461,-0.95571"
       id="path835"
       inkscape:connector-curvature="0"
       sodipodi:nodetypes="cssc" />
    <path
       style="fill:none;stroke:#000000;stroke-width:0.15003398;stroke-linecap:butt;stroke-linejoin:miter;stroke-miterlimit:4;stroke-dasharray:none;stroke-opacity:1"
       d="m 76.664531,119.00494 c 0,0 11.60404,1.00842 19.02965,0.79375 6.075039,-0.17564 12.106499,-1.07992 18.170039,-1.48664 5.40284,-0.3624 13.84383,0.21237 13.84383,0.21237"
       id="path837"
       inkscape:connector-curvature="0"
       sodipodi:nodetypes="cssc" />
    <path
       style="fill:none;stroke:#000000;stroke-width:0.15003398;stroke-linecap:butt;stroke-linejoin:miter;stroke-miterlimit:4;stroke-dasharray:none;stroke-opacity:1"
       d="m 74.144301,127.70971 c 0,0 8.34073,-0.28786 12.56915,-0.38977 4.32674,-0.10428 8.76079,-0.58128 12.978601,0.37165 4.662458,1.0534 8.383408,4.92666 13.086738,5.78727 4.86275,0.88978 14.81724,-0.79641 14.81724,-0.79641"
       id="path839"
       inkscape:connector-curvature="0"
       sodipodi:nodetypes="csssc" />
    <path
       style="fill:none;stroke:#000000;stroke-width:0.15003398;stroke-linecap:butt;stroke-linejoin:miter;stroke-miterlimit:4;stroke-dasharray:none;stroke-opacity:1"
       d="m 74.387651,124.73644 c 0,0 10.98908,-1.66725 16.48977,-2.51354 2.18689,-0.33645 4.38449,-0.79479 6.597451,-0.74331 5.039408,0.1172 9.910328,1.88949 14.925388,2.38923 3.08715,0.30763 6.20685,0.14586 9.30132,0.37166 2.00699,0.14645 6.00261,0.63713 6.00261,0.63713"
       id="path841"
       inkscape:connector-curvature="0"
       sodipodi:nodetypes="cssssc" />
    <path
       style="fill:none;stroke:#000000;stroke-width:0.15003398;stroke-linecap:butt;stroke-linejoin:miter;stroke-miterlimit:4;stroke-dasharray:none;stroke-opacity:1"
       d="m 74.847641,121.31642 c 0,0 9.95425,0.081 15.46419,-1.02438 2.74899,-0.55146 5.33763,-1.70287 8.030101,-2.47785 5.121378,-1.47409 10.178118,-3.30411 15.448368,-4.12975 4.72617,-0.74041 17.31373,-0.71332 17.31373,-0.71332"
       id="path843"
       inkscape:connector-curvature="0"
       sodipodi:nodetypes="csssc" />
    <path
       style="fill:none;stroke:#000000;stroke-width:0.15003398;stroke-linecap:butt;stroke-linejoin:miter;stroke-miterlimit:4;stroke-dasharray:none;stroke-opacity:1"
       d="m 77.092511,119.93597 c 0,0 10.95159,-0.37403 18.26681,-0.43233 5.053479,-0.0403 10.115779,-0.0344 15.155339,-0.40457 6.38594,-0.46906 16.85099,-1.97998 16.85099,-1.97998"
       id="path845"
       inkscape:connector-curvature="0"
       sodipodi:nodetypes="cssc" />
    <path
       style="fill:none;stroke:#000000;stroke-width:0.26458332px;stroke-linecap:butt;stroke-linejoin:miter;stroke-opacity:1"
       d="m 95.401157,145.20198 c 0,0 14.910643,1.3056 22.383823,1.26953 5.71424,-0.0276 11.51066,0.0277 17.10524,-1.13589 5.62819,-1.17055 11.72308,-2.25299 16.23663,-5.81312 3.19635,-2.52117 6.68174,-10.22306 6.68174,-10.22306"
       id="path5704"
       inkscape:connector-curvature="0"
       sodipodi:nodetypes="csssc" />
    <path
       style="fill:none;stroke:#000000;stroke-width:0.26458332px;stroke-linecap:butt;stroke-linejoin:miter;stroke-opacity:1"
       d="m 96.136148,142.99701 c 0,0 11.832452,5.99305 18.241142,6.08038 4.91046,0.0669 9.21208,-3.78615 14.09847,-4.27631 5.16447,-0.51805 10.8681,3.8089 15.50163,1.46998 4.40874,-2.22545 8.42111,-7.62462 8.39004,-12.69755 -0.0101,-1.64437 0.29168,-4.05123 -2.7698,-4.08223 -2.62697,-0.0266 -2.73886,2.26724 -2.2857,3.52281 0.45316,1.25556 2.37058,1.71897 3.33857,1.06513 0.79406,-0.53636 0.8488,-2.15079 0.21206,-2.86687 -0.38582,-0.43389 -1.74022,-0.0754 -1.74022,-0.0754"
       id="path5712"
       inkscape:connector-curvature="0"
       sodipodi:nodetypes="csssaszaac" />
    <path
       style="fill:none;stroke:#000000;stroke-width:0.26458332px;stroke-linecap:butt;stroke-linejoin:miter;stroke-opacity:1"
       d="m 100.30122,141.13303 c 0,0 8.7231,6.41448 13.79613,6.4256 4.82001,0.0106 6.0249,-3.95989 10.79606,-4.64445 5.76747,-0.82751 14.12623,3.05757 19.63102,1.14817 4.37867,-1.51879 9.5439,-10.11086 9.5439,-10.11086"
       id="path5720"
       inkscape:connector-curvature="0"
       sodipodi:nodetypes="csssc" />
  </g>
</svg>
