<?xml version="1.0" encoding="UTF-8" standalone="no"?>
<!-- Created with Inkscape (http://www.inkscape.org/) -->

<svg
   xmlns:dc="http://purl.org/dc/elements/1.1/"
   xmlns:cc="http://creativecommons.org/ns#"
   xmlns:rdf="http://www.w3.org/1999/02/22-rdf-syntax-ns#"
   xmlns:svg="http://www.w3.org/2000/svg"
   xmlns="http://www.w3.org/2000/svg"
   xmlns:sodipodi="http://sodipodi.sourceforge.net/DTD/sodipodi-0.dtd"
   xmlns:inkscape="http://www.inkscape.org/namespaces/inkscape"
   width="753.62415"
   height="566.18207"
   viewBox="0 0 199.39638 149.80234"
   version="1.1"
   id="svg8"
   sodipodi:docname="windy-beach.svg"
   inkscape:version="0.92.2 (5c3e80d, 2017-08-06)"
   inkscape:export-filename="C:\Users\Mathieu\Pictures\Dessin svg\project-nz\Décor\windy.png"
   inkscape:export-xdpi="96"
   inkscape:export-ydpi="96">
  <defs
     id="defs2" />
  <sodipodi:namedview
     id="base"
     pagecolor="#ffffff"
     bordercolor="#666666"
     borderopacity="1.0"
     inkscape:pageopacity="0.0"
     inkscape:pageshadow="2"
     inkscape:zoom="0.35"
     inkscape:cx="-763.7793"
     inkscape:cy="-183.43688"
     inkscape:document-units="mm"
     inkscape:current-layer="layer1"
     showgrid="false"
     inkscape:window-width="1920"
     inkscape:window-height="1017"
     inkscape:window-x="1912"
     inkscape:window-y="103"
     inkscape:window-maximized="1"
     units="px" />
  <metadata
     id="metadata5">
    <rdf:RDF>
      <cc:Work
         rdf:about="">
        <dc:format>image/svg+xml</dc:format>
        <dc:type
           rdf:resource="http://purl.org/dc/dcmitype/StillImage" />
        <dc:title></dc:title>
      </cc:Work>
    </rdf:RDF>
  </metadata>
  <g
     inkscape:label="Calque 1"
     inkscape:groupmode="layer"
     id="layer1"
     transform="translate(-39.636019,-73.238843)">
    <path
       style="fill:#00b700;fill-opacity:1;stroke:#000000;stroke-width:1.05833328;stroke-linecap:butt;stroke-linejoin:miter;stroke-miterlimit:4;stroke-dasharray:none;stroke-opacity:1"
       d="m 142.74745,111.63774 c 0,0 15.05084,-11.44613 24.46302,-14.049696 14.27232,-3.947953 44.23311,10e-7 44.23311,10e-7 0,0 -28.76735,-0.970645 -42.62949,2.539065 -9.43149,2.38792 -26.06664,11.51063 -26.06664,11.51063"
       id="path862"
       inkscape:connector-curvature="0"
       sodipodi:nodetypes="cscsc" />
    <path
       style="fill:#00b700;fill-opacity:1;stroke:#000000;stroke-width:1.05833328;stroke-linecap:butt;stroke-linejoin:miter;stroke-miterlimit:4;stroke-dasharray:none;stroke-opacity:1"
       d="m 142.74745,111.63774 c 0,0 19.69843,5.823 28.47206,6.79733 13.58568,1.50872 38.62045,1.20271 38.62045,1.20271 0,0 -25.95577,5.23146 -38.88771,3.47451 -10.05746,-1.36642 -28.2048,-11.47455 -28.2048,-11.47455 z"
       id="path860"
       inkscape:connector-curvature="0"
       sodipodi:nodetypes="cscsc" />
    <path
       style="fill:#00b700;fill-opacity:1;stroke:#000000;stroke-width:1.05833328;stroke-linecap:butt;stroke-linejoin:miter;stroke-miterlimit:4;stroke-dasharray:none;stroke-opacity:1"
       d="m 142.74745,111.63774 24.32939,-16.321487 44.36674,-0.668173 -42.89676,3.34087 -25.79937,13.64879"
       id="path856"
       inkscape:connector-curvature="0" />
    <path
       style="fill:#00b700;fill-opacity:1;stroke:#000000;stroke-width:1.05833328;stroke-linecap:butt;stroke-linejoin:miter;stroke-miterlimit:4;stroke-dasharray:none;stroke-opacity:1"
       d="m 142.74745,111.63774 c 0,0 16.95059,6.90524 25.933,7.73277 13.82839,1.27398 41.42678,-4.40995 41.42678,-4.40995 0,0 -25.0614,14.67542 -38.62045,13.36348 -11.02592,-1.06684 -28.73933,-16.6863 -28.73933,-16.6863 z"
       id="path852"
       inkscape:connector-curvature="0"
       sodipodi:nodetypes="cscsc" />
    <path
       style="fill:#00b700;fill-opacity:1;stroke:#000000;stroke-width:1.05833328;stroke-linecap:butt;stroke-linejoin:miter;stroke-miterlimit:4;stroke-dasharray:none;stroke-opacity:1"
       d="m 142.74745,111.63774 c 0,0 4.14818,-10.45405 8.56049,-13.381521 16.68358,-11.069164 59.2002,-10.156243 59.2002,-10.156243 0,0 -36.08294,6.891755 -52.78574,14.165284 -5.39901,2.3511 -14.97495,9.37248 -14.97495,9.37248"
       id="path848"
       inkscape:connector-curvature="0"
       sodipodi:nodetypes="cscsc" />
    <path
       style="fill:#00d700;fill-opacity:1;stroke:#000000;stroke-width:1.05833328;stroke-linecap:butt;stroke-linejoin:miter;stroke-miterlimit:4;stroke-dasharray:none;stroke-opacity:1"
       d="m 142.74745,111.63774 c 0,0 13.66141,-13.631487 22.23916,-17.610955 14.16592,-6.571983 45.92411,-9.260416 45.92411,-9.260416 0,0 -38.2503,-4.123828 -53.67262,5.102677 -7.4804,4.475201 -14.49065,21.768694 -14.49065,21.768694"
       id="path829"
       inkscape:connector-curvature="0"
       sodipodi:nodetypes="cscsc" />
    <path
       style="fill:#25b235;fill-opacity:1;stroke:#000000;stroke-width:1.05833328;stroke-linecap:butt;stroke-linejoin:miter;stroke-miterlimit:4;stroke-dasharray:none;stroke-opacity:1"
       d="m 208.00869,80.24551 c -13.01506,0.432869 -26.36099,1.472359 -41.49011,5.781027 -21.7681,5.401842 -24.3134,15.380543 -23.92062,26.058783 1.51271,19.09875 10.42376,19.04884 17.63978,23.38608 15.57778,3.89292 31.15556,2.48234 46.73333,2.3635 -12.6694,-2.68525 -24.50192,-3.48752 -38.44797,-9.04524 -9.60838,-2.38088 -15.6467,-8.1335 -18.8425,-16.57071 -0.0567,-8.73869 7.77149,-15.402411 21.24792,-20.579751 12.63806,-5.187924 24.7637,-7.813761 37.08017,-11.393689 z"
       id="path831-0"
       inkscape:connector-curvature="0"
       sodipodi:nodetypes="ccccccccc" />
    <path
       style="fill:none;stroke:#000000;stroke-width:1.05833328;stroke-linecap:butt;stroke-linejoin:miter;stroke-miterlimit:4;stroke-dasharray:none;stroke-opacity:1"
       d="m 65.213764,222.96634 c 0.5516,-3.8612 14.204993,-4.03872 20.312483,-6.94901 4.047737,-1.92879 10.156242,-8.81989 10.156242,-8.81989"
       id="path815"
       inkscape:connector-curvature="0"
       sodipodi:nodetypes="csc" />
    <path
       style="fill:none;stroke:#000000;stroke-width:1.05833328;stroke-linecap:butt;stroke-linejoin:miter;stroke-miterlimit:4;stroke-dasharray:none;stroke-opacity:1"
       d="m 115.99497,207.19744 c 0,0 1.07478,9.3837 6.68175,8.81989 5.96928,-0.60024 18.84557,4.61946 17.37251,6.68174"
       id="path817"
       inkscape:connector-curvature="0"
       sodipodi:nodetypes="csc" />
    <path
       style="fill:none;stroke:#000000;stroke-width:1.05833328;stroke-linecap:butt;stroke-linejoin:miter;stroke-miterlimit:4;stroke-dasharray:none;stroke-opacity:1"
       d="m 94.613411,214.94825 1.069076,-7.75081 c 0,0 3.749687,-20.05979 5.612663,-29.93419 3.22483,-17.09266 6.03778,-25.50071 11.04977,-42.84371 4.82717,-16.70344 32.71039,-32.44916 30.49424,-32.76575"
       id="path819"
       inkscape:connector-curvature="0"
       sodipodi:nodetypes="ccssc" />
    <path
       style="fill:none;stroke:#000000;stroke-width:1.05833328;stroke-linecap:butt;stroke-linejoin:miter;stroke-miterlimit:4;stroke-dasharray:none;stroke-opacity:1"
       d="m 115.46043,216.55187 0.53454,-9.35443 c 0,0 0.0661,-18.2502 0.26728,-27.52876 0.38031,-17.54013 1.00188,-24.30528 6.03649,-40.4193 5.22009,-16.7077 21.19738,-18.3909 20.08876,-18.83435"
       id="path821"
       inkscape:connector-curvature="0"
       sodipodi:nodetypes="ccssc" />
    <path
       style="fill:#00d700;fill-opacity:1;stroke:#000000;stroke-width:1.05833328;stroke-linecap:butt;stroke-linejoin:miter;stroke-miterlimit:4;stroke-dasharray:none;stroke-opacity:1"
       d="m 142.74745,111.63774 c -0.0802,0.146 10.31067,9.54169 17.20853,11.00453 8.28002,1.75595 41.32564,5.12422 48.3089,1.24463 0.53201,3.19206 -36.51116,14.97159 -53.93869,8.98235 -9.39948,-3.23028 -12.20472,-20.73244 -11.57874,-21.23151"
       id="path827"
       inkscape:connector-curvature="0"
       sodipodi:nodetypes="cscsc" />
    <path
       style="fill:#00b700;fill-opacity:1;stroke:#000000;stroke-width:1.05833328;stroke-linecap:butt;stroke-linejoin:miter;stroke-miterlimit:4;stroke-dasharray:none;stroke-opacity:1"
       d="m 142.74745,111.63774 c 0,0 14.31033,4.79391 21.92245,5.33588 15.18981,1.08149 45.3037,-6.28937 45.3037,-6.28937 0,0 -44.83271,14.70647 -56.63591,14.59468 -11.21581,-0.10622 -10.59024,-13.64119 -10.59024,-13.64119 z"
       id="path864"
       inkscape:connector-curvature="0"
       sodipodi:nodetypes="cscsc" />
    <path
       style="fill:#00b700;fill-opacity:1;stroke:#000000;stroke-width:1.05833328;stroke-linecap:butt;stroke-linejoin:miter;stroke-miterlimit:4;stroke-dasharray:none;stroke-opacity:1"
       d="m 142.74745,111.63774 c 0,0 -1.77981,-10.91573 7.7443,-12.902335 13.90627,-2.900663 60.55092,2.460775 60.55092,2.460775 0,0 -27.66903,-2.364977 -41.1595,0.13364 -9.51405,1.76213 -27.13572,10.30792 -27.13572,10.30792 z"
       id="path866"
       inkscape:connector-curvature="0"
       sodipodi:nodetypes="cscsc" />
    <path
       style="fill:#00b700;fill-opacity:1;stroke:#000000;stroke-width:1.05833328;stroke-linecap:butt;stroke-linejoin:miter;stroke-miterlimit:4;stroke-dasharray:none;stroke-opacity:1"
       d="m 142.74745,111.63774 c 0,0 5.63148,-8.5723 10.14392,-9.10649 19.11931,-2.26337 57.83843,2.87113 57.83036,2.83482 0,0 -24.13214,11.19079 -58.96429,13.79613 -3.90201,0.29186 -9.00999,-7.52446 -9.00999,-7.52446 0,0 16.30796,-4.95792 24.73029,-5.89797 11.24537,-1.25514 33.94323,0.4009 33.94323,0.4009 0,0 -21.97171,7.38065 -33.40869,8.15172 -8.44879,0.56961 -25.26483,-2.65465 -25.26483,-2.65465"
       id="path868"
       inkscape:connector-curvature="0"
       sodipodi:nodetypes="cscscscsc" />
    <path
       style="fill:#f3c32d;fill-opacity:1;stroke:none;stroke-width:0.26458332px;stroke-linecap:butt;stroke-linejoin:miter;stroke-opacity:1"
       d="m 65.213764,222.96634 c 1.913765,-2.46371 7.328556,-2.81199 11.860086,-4.00904 l 7.450136,-1.9043 c 3.563606,-1.92647 6.444418,-4.03672 9.888973,-7.58377 l -0.601357,5.57925 22.517458,1.80407 0.16704,-5.17835 c 0.4864,1.53289 1.11284,2.65504 2.3052,3.80859 1.16931,0.84683 2.13816,1.22092 3.10701,1.26954 3.66364,-0.36222 6.95287,0.7626 9.80898,1.50911 5.26256,1.89585 6.69059,2.66725 7.66377,4.33741"
       id="path870"
       inkscape:connector-curvature="0"
       sodipodi:nodetypes="ccccccccccc" />
    <path
       style="fill:none;stroke:#000000;stroke-width:0.5291667;stroke-linecap:butt;stroke-linejoin:miter;stroke-miterlimit:4;stroke-dasharray:none;stroke-opacity:1"
       d="m 39.6875,128.04464 c 0,0 32.639874,-6.47462 49.136905,-6.04762 15.985715,0.41376 31.745135,4.39048 47.247025,8.31548 20.08416,5.0852 27.17458,12.55635 47.62499,15.875 17.16239,2.78507 46.11309,0 46.11309,0"
       id="path831"
       inkscape:connector-curvature="0"
       sodipodi:nodetypes="csssc" />
    <path
       style="fill:none;stroke:#000000;stroke-width:0.5291667;stroke-linecap:butt;stroke-linejoin:miter;stroke-miterlimit:4;stroke-dasharray:none;stroke-opacity:1"
       d="m 46.082973,105.23244 c 0,0 46.347336,-5.278316 72.979527,-11.583631 18.9975,-4.49776 36.25063,-15.65967 55.5625,-18.520833 18.07846,-2.678427 61.9881,3.401784 61.9881,3.401784"
       id="path833"
       inkscape:connector-curvature="0"
       sodipodi:nodetypes="cssc" />
    <path
       style="fill:none;stroke:#000000;stroke-width:0.5291667;stroke-linecap:butt;stroke-linejoin:miter;stroke-miterlimit:4;stroke-dasharray:none;stroke-opacity:1"
       d="m 41.199405,117.83928 c 0,0 56.481256,-16.96119 85.422615,-15.875 17.7126,0.66477 33.76063,11.91517 51.40476,13.60715 16.71857,1.60322 50.27084,-3.40179 50.27084,-3.40179"
       id="path835"
       inkscape:connector-curvature="0"
       sodipodi:nodetypes="cssc" />
    <path
       style="fill:none;stroke:#000000;stroke-width:0.5291667;stroke-linecap:butt;stroke-linejoin:miter;stroke-miterlimit:4;stroke-dasharray:none;stroke-opacity:1"
       d="m 48.778597,94.981221 c 0,0 40.553381,3.58946 66.504143,2.825325 21.23083,-0.625154 42.30936,-3.843964 63.5,-5.291667 18.88165,-1.289957 48.38094,0.755953 48.38094,0.755953"
       id="path837"
       inkscape:connector-curvature="0"
       sodipodi:nodetypes="cssc" />
    <path
       style="fill:none;stroke:#000000;stroke-width:0.5291667;stroke-linecap:butt;stroke-linejoin:miter;stroke-miterlimit:4;stroke-dasharray:none;stroke-opacity:1"
       d="m 39.970982,125.96577 c 0,0 29.148881,-1.02463 43.926223,-1.38739 15.120922,-0.37119 30.616905,-2.06905 45.357145,1.32291 16.29422,3.74955 29.29805,17.53636 45.73511,20.5997 16.99415,3.16716 51.78274,-2.83482 51.78274,-2.83482"
       id="path839"
       inkscape:connector-curvature="0"
       sodipodi:nodetypes="csssc" />
    <path
       style="fill:none;stroke:#000000;stroke-width:0.5291667;stroke-linecap:butt;stroke-linejoin:miter;stroke-miterlimit:4;stroke-dasharray:none;stroke-opacity:1"
       d="m 40.821429,115.38243 c 0,0 38.404244,-5.93456 57.627859,-8.94691 7.642692,-1.19761 15.322762,-2.82903 23.056542,-2.64583 17.61155,0.41718 34.63427,6.72562 52.16072,8.50446 10.78886,1.09501 21.69149,0.5192 32.50595,1.32292 7.01396,0.52127 20.97768,2.26785 20.97768,2.26785"
       id="path841"
       inkscape:connector-curvature="0"
       sodipodi:nodetypes="cssssc" />
    <path
       style="fill:none;stroke:#000000;stroke-width:0.5291667;stroke-linecap:butt;stroke-linejoin:miter;stroke-miterlimit:4;stroke-dasharray:none;stroke-opacity:1"
       d="m 42.428978,103.20892 c 0,0 34.787764,0.28817 54.043719,-3.646268 9.607063,-1.962946 18.653763,-6.061372 28.063303,-8.819894 17.89803,-5.247028 35.57014,-11.760962 53.98844,-14.699824 16.51684,-2.635461 60.50739,-2.53906 60.50739,-2.53906"
       id="path843"
       inkscape:connector-curvature="0"
       sodipodi:nodetypes="csssc" />
    <path
       style="fill:none;stroke:#000000;stroke-width:0.5291667;stroke-linecap:butt;stroke-linejoin:miter;stroke-miterlimit:4;stroke-dasharray:none;stroke-opacity:1"
       d="m 50.274289,98.295227 c 0,0 38.273229,-1.331379 63.838201,-1.538905 17.66073,-0.143363 35.35226,-0.122461 52.96435,-1.440069 22.31734,-1.669621 58.89025,-7.047705 58.89025,-7.047705"
       id="path845"
       inkscape:connector-curvature="0"
       sodipodi:nodetypes="cssc" />
  </g>
</svg>
